G04*
G04 #@! TF.GenerationSoftware,Altium Limited,Altium Designer,24.5.2 (23)*
G04*
G04 Layer_Physical_Order=1*
G04 Layer_Color=1587400*
%FSLAX25Y25*%
%MOIN*%
G70*
G04*
G04 #@! TF.SameCoordinates,2B9D1E01-E904-47A6-8AF4-0E2AA74956EA*
G04*
G04*
G04 #@! TF.FilePolarity,Positive*
G04*
G01*
G75*
%ADD17C,0.02756*%
%ADD18C,0.02756*%
%ADD19C,0.07331*%
%ADD20C,0.06693*%
%ADD21R,0.06693X0.06693*%
%ADD22C,0.07087*%
%ADD23R,0.07087X0.07087*%
D17*
X88053Y48447D02*
G03*
X88181Y52059I-12045J2234D01*
G01*
X83638Y40066D02*
G03*
X83639Y40067I-2423J3252D01*
G01*
X81656Y43719D02*
G03*
X84065Y49179I-10388J7844D01*
G01*
X83803Y40189D02*
G03*
X84245Y40573I-2430J3247D01*
G01*
X83639Y40067D02*
G03*
X83645Y40071I-2424J3251D01*
G01*
X65689Y27646D02*
G03*
X68118Y28454I0J4055D01*
G01*
X84516Y40844D02*
G03*
X84886Y41268I-2860J2875D01*
G01*
D02*
G03*
X88053Y48447I-13619J10295D01*
G01*
X84067Y49193D02*
G03*
X83051Y54870I-8059J1488D01*
G01*
X87056Y65981D02*
G03*
X76257Y76354I-10502J-125D01*
G01*
X54297Y27672D02*
G03*
X54952Y27646I655J8084D01*
G01*
X41503Y29816D02*
G03*
X40519Y30000I-991J-2572D01*
G01*
X41503Y29816D02*
G03*
X49021Y28095I9623J24770D01*
G01*
X31537Y62980D02*
G03*
X30844Y64156I-2647J-767D01*
G01*
X31185Y43900D02*
G03*
X31171Y43913I-1949J-1949D01*
G01*
X31449Y43636D02*
G03*
X49327Y32139I19677J10950D01*
G01*
X54621Y31714D02*
G03*
X54952Y31701I331J4042D01*
G01*
X36099Y47238D02*
G03*
X49723Y36176I14782J4284D01*
G01*
X63598Y35758D02*
G03*
X63595Y35756I1651J-2207D01*
G01*
X65703Y37333D02*
G03*
X66623Y38265I-2612J3499D01*
G01*
X39990Y48380D02*
G03*
X50521Y43233I7592J2187D01*
G01*
X39637Y79109D02*
G03*
X40000Y80476I-2393J1367D01*
G01*
X36660Y73921D02*
G03*
X35468Y64019I11071J-6356D01*
G01*
X40177Y71903D02*
G03*
X40883Y62182I7554J-4338D01*
G01*
X45527Y80527D02*
G03*
X43925Y78434I7071J-7071D01*
G01*
X57053Y76195D02*
G03*
X64124Y79124I0J10000D01*
G01*
X80000Y60000D02*
X83051Y54870D01*
X81373Y43436D02*
X81656Y43719D01*
X84065Y49179D02*
X84067Y49193D01*
X80000Y60000D02*
X80014Y59983D01*
X84516Y40844D02*
X84516Y40844D01*
X84245Y40573D02*
X84516Y40844D01*
X83645Y40071D02*
X83803Y40189D01*
X83638Y40066D02*
X83639Y40067D01*
X68118Y28454D02*
X83638Y40066D01*
X54952Y27646D02*
X65689D01*
X87111Y61179D02*
X87439Y58717D01*
X87056Y65981D02*
X87111Y61179D01*
X87439Y58717D02*
X88181Y52059D01*
X70650Y76195D02*
X76257Y76354D01*
X70650Y76195D02*
Y76195D01*
X49021Y28095D02*
X54297Y27672D01*
X25000Y30000D02*
X40519D01*
X65689Y31701D02*
X81215Y43318D01*
X81215Y43318D02*
X81373Y43436D01*
X54952Y31701D02*
X65689D01*
X31537Y62980D02*
X36099Y47239D01*
X25000Y70000D02*
X30844Y64156D01*
X31185Y43900D02*
X31449Y43636D01*
X25000Y50000D02*
X31171Y43913D01*
X49327Y32139D02*
X54621Y31714D01*
X54331Y35827D02*
X54952Y35756D01*
X53812Y35866D02*
X54331Y35827D01*
X54952Y35756D02*
X63595D01*
X49723Y36176D02*
X53812Y35866D01*
X63598Y35758D02*
X65703Y37333D01*
X66623Y38265D02*
X70650Y43805D01*
X35468Y64019D02*
X39990Y48380D01*
X50521Y43233D02*
X51949Y43805D01*
X39637Y79108D02*
X39637Y79109D01*
X36660Y73921D02*
X39637Y79108D01*
X40000Y80476D02*
Y95000D01*
X40883Y62182D02*
X42598Y60000D01*
X40177Y71903D02*
X43925Y78434D01*
X45527Y80527D02*
X60000Y95000D01*
X51949Y76195D02*
X57053D01*
X64124Y79124D02*
X80000Y95000D01*
D18*
X81215Y43318D02*
D03*
X53812Y35866D02*
D03*
D19*
X77495Y69350D02*
D03*
X80000Y60000D02*
D03*
X77495Y50650D02*
D03*
X70650Y43805D02*
D03*
X61299Y41299D02*
D03*
X51949Y43805D02*
D03*
X45104Y50650D02*
D03*
X42598Y60000D02*
D03*
X45104Y69350D02*
D03*
X51949Y76195D02*
D03*
X70650D02*
D03*
D20*
X80000Y95000D02*
D03*
X70000D02*
D03*
X60000D02*
D03*
X50000D02*
D03*
D21*
X40000D02*
D03*
D22*
X25000Y60000D02*
D03*
Y50000D02*
D03*
Y80000D02*
D03*
Y70000D02*
D03*
Y40000D02*
D03*
D23*
Y30000D02*
D03*
M02*
