G04*
G04 #@! TF.GenerationSoftware,Altium Limited,Altium Designer,24.5.2 (23)*
G04*
G04 Layer_Color=13684944*
%FSLAX25Y25*%
%MOIN*%
G70*
G04*
G04 #@! TF.SameCoordinates,2B9D1E01-E904-47A6-8AF4-0E2AA74956EA*
G04*
G04*
G04 #@! TF.FilePolarity,Positive*
G04*
G01*
G75*
%ADD10C,0.01000*%
%ADD11C,0.00787*%
D10*
X88799Y60000D02*
G03*
X88799Y60000I-27500J0D01*
G01*
X73799Y81500D02*
G03*
X73799Y81500I-500J0D01*
G01*
X35000Y90000D02*
X85000D01*
X35000Y100000D02*
X85000D01*
Y90000D02*
Y100000D01*
X35000Y90000D02*
Y100000D01*
X20000Y25000D02*
X30000D01*
X20000Y85000D02*
X30000D01*
Y25000D02*
Y85000D01*
X20000Y25000D02*
Y85000D01*
X45000Y90000D02*
Y100000D01*
X20000Y35000D02*
X30000D01*
X50799Y63498D02*
X52799D01*
X51799D01*
Y57500D01*
X50799D01*
X52799D01*
X55798D02*
Y63498D01*
X59796Y57500D01*
Y63498D01*
X61796Y60499D02*
X65794D01*
X67794Y62498D02*
X68793Y63498D01*
X70793D01*
X71792Y62498D01*
Y61499D01*
X70793Y60499D01*
X71792Y59499D01*
Y58500D01*
X70793Y57500D01*
X68793D01*
X67794Y58500D01*
Y59499D01*
X68793Y60499D01*
X67794Y61499D01*
Y62498D01*
X68793Y60499D02*
X70793D01*
X26000Y94999D02*
X29999Y91000D01*
X26000D02*
X29999Y94999D01*
X26000Y92999D02*
X29999D01*
X27999Y91000D02*
Y94999D01*
D11*
X40787Y24723D02*
X42099D01*
X41443D01*
Y20787D01*
X40787D01*
X42099D01*
X44067D02*
Y24723D01*
X46691Y20787D01*
Y24723D01*
X48003Y22755D02*
X50627D01*
X51939Y24067D02*
X52595Y24723D01*
X53907D01*
X54562Y24067D01*
Y23411D01*
X53907Y22755D01*
X54562Y22099D01*
Y21443D01*
X53907Y20787D01*
X52595D01*
X51939Y21443D01*
Y22099D01*
X52595Y22755D01*
X51939Y23411D01*
Y24067D01*
X52595Y22755D02*
X53907D01*
X62434Y24067D02*
X61778Y24723D01*
X60466D01*
X59810Y24067D01*
Y23411D01*
X60466Y22755D01*
X61778D01*
X62434Y22099D01*
Y21443D01*
X61778Y20787D01*
X60466D01*
X59810Y21443D01*
X64402Y20787D02*
X65714D01*
X66370Y21443D01*
Y22755D01*
X65714Y23411D01*
X64402D01*
X63746Y22755D01*
Y21443D01*
X64402Y20787D01*
X70305Y23411D02*
X68338D01*
X67682Y22755D01*
Y21443D01*
X68338Y20787D01*
X70305D01*
X71617D02*
Y24723D01*
Y22099D02*
X73585Y23411D01*
X71617Y22099D02*
X73585Y20787D01*
X77521D02*
X76209D01*
X75553Y21443D01*
Y22755D01*
X76209Y23411D01*
X77521D01*
X78177Y22755D01*
Y22099D01*
X75553D01*
X80145Y24067D02*
Y23411D01*
X79489D01*
X80801D01*
X80145D01*
Y21443D01*
X80801Y20787D01*
M02*
