G04*
G04 #@! TF.GenerationSoftware,Altium Limited,Altium Designer,24.5.2 (23)*
G04*
G04 Layer_Color=6332448*
%FSLAX25Y25*%
%MOIN*%
G70*
G04*
G04 #@! TF.SameCoordinates,2B9D1E01-E904-47A6-8AF4-0E2AA74956EA*
G04*
G04*
G04 #@! TF.FilePolarity,Positive*
G04*
G01*
G75*
%ADD10C,0.01000*%
%ADD24C,0.00394*%
D10*
X105000Y85000D02*
G03*
X85000Y105000I-20000J0D01*
G01*
Y15000D02*
G03*
X105000Y35000I0J20000D01*
G01*
X35000Y105000D02*
G03*
X15000Y85000I0J-20000D01*
G01*
Y35000D02*
G03*
X35000Y15000I20000J0D01*
G01*
X85000D01*
X35000Y105000D02*
X85000D01*
X105000Y35000D02*
Y85000D01*
X15000Y35000D02*
Y85000D01*
D24*
X83032Y100001D02*
X83916Y98841D01*
X76968Y100002D02*
X83032Y100001D01*
X83916Y98841D02*
X84802Y97638D01*
X73957Y98790D02*
X74100Y98594D01*
X73818Y98972D02*
X73957Y98790D01*
X75195Y97637D02*
X76968Y100002D01*
X84802Y97638D02*
X85001D01*
X84804Y92364D02*
X85000D01*
X85001Y97638D01*
X74100Y98594D02*
X74800Y97640D01*
X75195Y97637D01*
X73030Y100003D02*
X73818Y98972D01*
X66970Y100001D02*
X73030Y100003D01*
X65197Y97639D02*
X66970Y100001D01*
X56968Y99999D02*
X63032D01*
X63904Y98858D01*
X64802Y97639D02*
X65197D01*
X64015Y98709D02*
X64802Y97639D01*
X64803Y92363D02*
X65198Y92364D01*
X63904Y98858D02*
X64015Y98709D01*
X55198Y97638D02*
X56968Y99999D01*
X84063Y91357D02*
X84804Y92364D01*
X74802Y92362D02*
X75198Y92363D01*
X73909Y91145D02*
X74802Y92362D01*
X75198Y92363D02*
X76971Y90001D01*
X83934Y91180D02*
X84063Y91357D01*
X76971Y90001D02*
X83032Y89999D01*
X83934Y91180D01*
X73616Y90762D02*
X73909Y91145D01*
X73032Y90000D02*
X73616Y90762D01*
X64472Y91918D02*
X64803Y92363D01*
X65198Y92364D02*
X66970Y90001D01*
X64361Y91765D02*
X64472Y91918D01*
X63977Y91240D02*
X64361Y91765D01*
X63414Y90501D02*
X63977Y91240D01*
X66970Y90001D02*
X73032Y90000D01*
X56969Y90001D02*
X63030Y90001D01*
X63414Y90501D01*
X53931Y98825D02*
X54083Y98618D01*
X53030Y100001D02*
X53931Y98825D01*
X54083Y98618D02*
X54804Y97637D01*
X46967Y100000D02*
X53030Y100001D01*
X45195Y97638D02*
X46967Y100000D01*
X54804Y97637D02*
X55198Y97638D01*
X54802Y92363D02*
X55195Y92364D01*
X54423Y91846D02*
X54802Y92363D01*
X44803Y92362D02*
X45198Y92363D01*
X54348Y91744D02*
X54423Y91846D01*
X43031Y100000D02*
X43949Y98800D01*
X36967Y99999D02*
X43031Y100000D01*
X43949Y98800D02*
X44802Y97636D01*
X35000Y97637D02*
X35001Y97639D01*
X35196Y97637D02*
X36967Y99999D01*
X44802Y97636D02*
X45195Y97638D01*
X35001Y92363D02*
Y97637D01*
Y92363D02*
X35199Y92362D01*
X35000Y97637D02*
X35001D01*
X35001Y97639D02*
X35196Y97637D01*
X54255Y91618D02*
X54348Y91744D01*
X55195Y92364D02*
X56969Y90001D01*
X45198Y92363D02*
X46968Y90000D01*
X53914Y91156D02*
X54255Y91618D01*
X53579Y90715D02*
X53914Y91156D01*
X53030Y90000D02*
X53579Y90715D01*
X46968Y90000D02*
X53030Y90000D01*
X44185Y91521D02*
X44803Y92362D01*
X35199Y92362D02*
X36266Y90938D01*
X44064Y91357D02*
X44185Y91521D01*
X43665Y90831D02*
X44064Y91357D01*
X43030Y90001D02*
X43665Y90831D01*
X36266Y90938D02*
X36969Y90000D01*
X43030Y90001D01*
X29921Y25000D02*
Y85000D01*
X20079D02*
X29921D01*
X20079Y25000D02*
X29921D01*
X20079D02*
Y85000D01*
M02*
