G04*
G04 #@! TF.GenerationSoftware,Altium Limited,Altium Designer,24.5.2 (23)*
G04*
G04 Layer_Physical_Order=2*
G04 Layer_Color=13133856*
%FSLAX25Y25*%
%MOIN*%
G70*
G04*
G04 #@! TF.SameCoordinates,2B9D1E01-E904-47A6-8AF4-0E2AA74956EA*
G04*
G04*
G04 #@! TF.FilePolarity,Positive*
G04*
G01*
G75*
%ADD17C,0.02756*%
%ADD19C,0.07331*%
%ADD20C,0.06693*%
%ADD21R,0.06693X0.06693*%
%ADD22C,0.07087*%
%ADD23R,0.07087X0.07087*%
D17*
X48032Y80118D02*
G03*
X48025Y80111I3917J-3923D01*
G01*
X42947Y35907D02*
X42947Y35906D01*
X51158Y38318D02*
G03*
X45815Y38774I-6769J-47827D01*
G01*
X37185Y61194D02*
G03*
X39030Y55758I5413J-1194D01*
G01*
X37244Y61435D02*
G03*
X37185Y61194I5354J-1435D01*
G01*
X48033Y93033D02*
G03*
X45630Y89734I9291J-9291D01*
G01*
X85780Y61073D02*
G03*
X80692Y67772I-9262J-1754D01*
G01*
X85827Y60567D02*
G03*
X85780Y61073I-2756J0D01*
G01*
X80674Y36974D02*
G03*
X85827Y49418I-12452J12444D01*
G01*
X66629Y28387D02*
G03*
X75984Y32283I-53J13305D01*
G01*
X28396Y36604D02*
G03*
X48717Y28187I20339J20366D01*
G01*
X69112Y34922D02*
G03*
X69175Y34941I-2983J9685D01*
G01*
X51158Y38318D02*
G03*
X53839Y38593I791J5487D01*
G01*
X66961Y34377D02*
G03*
X67739Y34499I-32J2756D01*
G01*
X50585Y34304D02*
G03*
X52067Y34207I1364J9501D01*
G01*
X50585Y34304D02*
G03*
X49647Y34370I-950J-6745D01*
G01*
X69175Y34941D02*
G03*
X70266Y35592I-828J2629D01*
G01*
X75015Y40199D02*
G03*
X75698Y41269I-1919J1978D01*
G01*
D02*
G03*
X76108Y42839I-9569J3337D01*
G01*
X25000Y80000D02*
G03*
X25153Y77514I20277J-0D01*
G01*
X48032Y80118D02*
X57690Y89776D01*
X62164D01*
X66635Y94247D01*
X42947Y35906D02*
X44114Y34740D01*
X42887Y35967D02*
X42947Y35907D01*
X42181Y36726D02*
X42887Y35967D01*
X41157Y37848D02*
X42181Y36726D01*
X38162Y41783D02*
X41157Y37848D01*
X28827Y53840D02*
X30421Y52246D01*
X45212Y39429D02*
X45815Y38774D01*
X42217Y43198D02*
X45212Y39429D01*
X25000Y60000D02*
X28827Y53840D01*
X44114Y34740D02*
X46300Y34370D01*
X34476Y53925D02*
X42217Y43198D01*
X30421Y52246D02*
X38162Y41783D01*
X32705Y55696D02*
X34476Y53925D01*
X32579Y56614D02*
X32705Y55696D01*
X46300Y34370D02*
X49647D01*
X30421Y72246D02*
X32579Y56614D01*
X37293Y64114D02*
X38184Y67440D01*
X37244Y61435D02*
X37293Y64114D01*
X38207Y67512D02*
X45215Y88923D01*
X38184Y67440D02*
X38207Y67512D01*
X48033Y93033D02*
X50000Y95000D01*
X45215Y88923D02*
X45630Y89734D01*
X45138Y73657D02*
X46406Y78491D01*
X45138Y69480D02*
Y73657D01*
X46406Y78491D02*
X48025Y80111D01*
X77495Y69350D02*
X80692Y67772D01*
X85827Y49418D02*
Y60567D01*
X66560Y28386D02*
X66629Y28387D01*
X48735Y28187D02*
X66560Y28386D01*
X75984Y32283D02*
X80674Y36974D01*
X48717Y28187D02*
X48735D01*
X70266Y35592D02*
X75015Y40199D01*
X53839Y38593D02*
X61299Y41299D01*
X52067Y34207D02*
X66961Y34377D01*
X67739Y34499D02*
X69112Y34922D01*
X25000Y40000D02*
X28396Y36604D01*
X76108Y42839D02*
X77495Y50650D01*
X25153Y77514D02*
X25851Y76816D01*
X25851Y76816D02*
X30421Y72246D01*
X39030Y55758D02*
X45104Y50650D01*
X69247Y94247D02*
X70000Y95000D01*
X66635Y94247D02*
X69247D01*
D19*
X77495Y69350D02*
D03*
X80000Y60000D02*
D03*
X77495Y50650D02*
D03*
X70650Y43805D02*
D03*
X61299Y41299D02*
D03*
X51949Y43805D02*
D03*
X45104Y50650D02*
D03*
X42598Y60000D02*
D03*
X45104Y69350D02*
D03*
X51949Y76195D02*
D03*
X70650D02*
D03*
D20*
X80000Y95000D02*
D03*
X70000D02*
D03*
X60000D02*
D03*
X50000D02*
D03*
D21*
X40000D02*
D03*
D22*
X25000Y60000D02*
D03*
Y50000D02*
D03*
Y80000D02*
D03*
Y70000D02*
D03*
Y40000D02*
D03*
D23*
Y30000D02*
D03*
M02*
