M48
;Layer_Color=6307904
;FILE_FORMAT=2:4
INCH,TZ
;TYPE=PLATED
T01F00S00C0.0433
T02F00S00C0.0433
T03F00S00C0.0472
%
T01
X4000Y9500
X5000
X6000
X7000
X8000
T02
X5195Y4380
X6130Y4130
X7065Y4380
X7749Y5065
X8000Y6000
X7749Y6935
X7065Y7620
X5195
X4510Y6935
X4260Y6000
X4510Y5065
T03
X2500Y3000
Y4000
Y5000
Y6000
Y7000
Y8000
M30
