G04*
G04 #@! TF.GenerationSoftware,Altium Limited,Altium Designer,24.5.2 (23)*
G04*
G04 Layer_Physical_Order=4*
G04 Layer_Color=13133856*
%FSLAX25Y25*%
%MOIN*%
G70*
G04*
G04 #@! TF.SameCoordinates,7521D7B9-249F-48D2-9375-4659AF460BCF*
G04*
G04*
G04 #@! TF.FilePolarity,Positive*
G04*
G01*
G75*
%ADD15C,0.00500*%
%ADD113C,0.05000*%
%ADD114R,0.05000X0.05000*%
%ADD125C,0.01181*%
%ADD130C,0.02756*%
%ADD131C,0.05118*%
%ADD132O,0.07087X0.05118*%
%ADD133C,0.02480*%
%ADD134C,0.06693*%
%ADD135R,0.06693X0.06693*%
%ADD136O,0.11811X0.07874*%
%ADD137O,0.06299X0.06299*%
%ADD138C,0.06299*%
%ADD139R,0.07087X0.07087*%
%ADD140C,0.07598*%
%ADD141C,0.23622*%
%ADD142C,0.07480*%
%ADD143R,0.06000X0.06000*%
%ADD144C,0.06000*%
%ADD145R,0.04134X0.04134*%
%ADD146C,0.04134*%
%ADD147C,0.01968*%
%ADD148C,0.02362*%
G36*
X92913Y305252D02*
Y203937D01*
X150000D01*
Y283465D01*
X158012D01*
Y284177D01*
X205012D01*
Y283918D01*
X205200Y283465D01*
X205268Y283300D01*
X205741Y282827D01*
X206359Y282571D01*
X207027D01*
X207298Y282683D01*
X207582Y282259D01*
X207255Y281933D01*
X206999Y281315D01*
Y281059D01*
X206634Y280815D01*
X205965D01*
X205347Y280559D01*
X204874Y280086D01*
X204618Y279468D01*
X204118Y279161D01*
X203897Y279253D01*
X203228D01*
X202610Y278997D01*
X202137Y278524D01*
X201934Y278033D01*
X201516Y277665D01*
X200847D01*
X200229Y277409D01*
X199756Y276937D01*
X199500Y276319D01*
Y275650D01*
X199756Y275032D01*
X200229Y274559D01*
X200847Y274303D01*
X201516D01*
X202133Y274559D01*
X202450Y274876D01*
X215066D01*
X215095Y274882D01*
X215190Y274787D01*
X215807Y274532D01*
X216476D01*
X217094Y274787D01*
X217567Y275260D01*
X217823Y275878D01*
Y276547D01*
X217567Y277165D01*
X217415Y277317D01*
X217326Y277409D01*
X217100Y277644D01*
D01*
X217415Y277970D01*
X217567Y278122D01*
X217823Y278740D01*
Y279409D01*
X217567Y280027D01*
X217415Y280179D01*
X217299Y280299D01*
X217100Y280506D01*
D01*
X217415Y280833D01*
X217567Y280985D01*
X217823Y281603D01*
Y282271D01*
X218240Y282571D01*
X218445D01*
X219062Y282827D01*
X219535Y283300D01*
X219791Y283918D01*
Y284177D01*
X221828D01*
X222541Y283465D01*
X229221Y276785D01*
X229028Y276319D01*
Y275650D01*
X229283Y275032D01*
X229756Y274559D01*
X230374Y274303D01*
X231043D01*
X231661Y274559D01*
X232134Y275032D01*
X232390Y275650D01*
X232890Y275978D01*
X233130Y275878D01*
X233799D01*
X234214Y275509D01*
X234418Y275015D01*
X234891Y274542D01*
X235509Y274286D01*
X236178D01*
X236796Y274542D01*
X237269Y275015D01*
X237525Y275633D01*
Y275637D01*
X238025Y275971D01*
X238248Y275878D01*
X238917D01*
X239535Y276134D01*
X240008Y276607D01*
X240264Y277225D01*
Y277893D01*
X240008Y278511D01*
X239535Y278984D01*
X238917Y279240D01*
X238248D01*
X238061Y279163D01*
X234221Y283003D01*
X234412Y283465D01*
X236714D01*
X242097Y278081D01*
X242020Y277893D01*
Y277225D01*
X242276Y276607D01*
X242748Y276134D01*
X243366Y275878D01*
X244035D01*
X244105Y275907D01*
X244605Y275573D01*
Y275323D01*
X244861Y274705D01*
X245334Y274232D01*
X245952Y273976D01*
X246621D01*
X247239Y274232D01*
X247712Y274705D01*
X247968Y275323D01*
Y275796D01*
X248091Y275878D01*
X248760D01*
X249377Y276134D01*
X249720Y276476D01*
X250219Y276291D01*
Y276090D01*
X250278Y275798D01*
X250444Y275550D01*
X255838Y270156D01*
Y269094D01*
Y258722D01*
X255338Y258623D01*
X255165Y259039D01*
X254693Y259512D01*
X254075Y259768D01*
X253406D01*
X252788Y259512D01*
X252315Y259039D01*
X252059Y258421D01*
Y257752D01*
X252315Y257134D01*
X252628Y256821D01*
Y254809D01*
X252315Y254496D01*
X252059Y253878D01*
Y253209D01*
X252084Y253148D01*
X251660Y252865D01*
X249734Y254791D01*
Y258463D01*
X249963Y258806D01*
X250048Y259231D01*
Y261610D01*
X250361Y261923D01*
X250617Y262541D01*
Y263209D01*
X250361Y263827D01*
X249888Y264300D01*
X249271Y264556D01*
X248602D01*
X248402Y264473D01*
X247981Y264306D01*
X247798Y264723D01*
X247716Y264921D01*
X247243Y265394D01*
X246625Y265650D01*
X245957D01*
X245339Y265394D01*
X244866Y264921D01*
X244651Y264401D01*
X244565Y264384D01*
X243947Y264640D01*
X243278D01*
X242660Y264384D01*
X242188Y263911D01*
X241932Y263293D01*
Y262625D01*
X242188Y262007D01*
X242589Y261605D01*
Y252559D01*
X242589Y252559D01*
X242673Y252134D01*
X242915Y251773D01*
X250484Y244203D01*
Y243760D01*
X250740Y243142D01*
X251213Y242669D01*
X251831Y242413D01*
X252500D01*
X253118Y242669D01*
X253591Y243142D01*
X253774Y243585D01*
X254309Y243758D01*
X256637Y241430D01*
X256637Y241430D01*
X256997Y241189D01*
X257423Y241105D01*
X257423Y241105D01*
X259406D01*
X259406Y241105D01*
X259831Y241189D01*
X260192Y241430D01*
X261522Y242761D01*
X261523Y242761D01*
X261553Y242807D01*
X261661D01*
X262279Y243063D01*
X262752Y243536D01*
X263008Y244154D01*
Y244823D01*
X262752Y245440D01*
X262279Y245913D01*
X261661Y246169D01*
X260992D01*
X260375Y245913D01*
X260222Y245761D01*
X259896Y245446D01*
X259569Y245761D01*
X259417Y245913D01*
X258799Y246169D01*
X258356D01*
X253062Y251464D01*
X253345Y251887D01*
X253406Y251862D01*
X254075D01*
X254693Y252118D01*
X254845Y252270D01*
X255171Y252585D01*
X255498Y252270D01*
X255650Y252118D01*
X256268Y251862D01*
X256937D01*
X257555Y252118D01*
X258028Y252591D01*
X258283Y253209D01*
Y253878D01*
X258028Y254496D01*
X257555Y254969D01*
X257367Y255046D01*
Y269094D01*
Y270472D01*
X257309Y270765D01*
X257143Y271013D01*
X252544Y275612D01*
X252827Y276036D01*
X253209Y275878D01*
X253878D01*
X254144Y275988D01*
X254618Y275643D01*
Y275256D01*
X254874Y274638D01*
X255347Y274165D01*
X255965Y273909D01*
X256634D01*
X257252Y274165D01*
X257724Y274638D01*
X257980Y275256D01*
Y275480D01*
X258327Y275878D01*
X258996D01*
X259343Y275480D01*
Y275256D01*
X259598Y274638D01*
X260071Y274165D01*
X260689Y273909D01*
X261358D01*
X261976Y274165D01*
X262449Y274638D01*
X262705Y275256D01*
Y275925D01*
X262449Y276543D01*
X261976Y277016D01*
X261788Y277093D01*
Y283465D01*
X265771D01*
Y279062D01*
X265583Y278984D01*
X265110Y278511D01*
X264854Y277893D01*
Y277225D01*
X265110Y276607D01*
X265583Y276134D01*
X266201Y275878D01*
X266870D01*
X266913Y275896D01*
X267413Y275562D01*
Y275256D01*
X267669Y274638D01*
X268142Y274165D01*
X268760Y273909D01*
X269429D01*
X270047Y274165D01*
X270520Y274638D01*
X270776Y275256D01*
Y275562D01*
X271275Y275896D01*
X271319Y275878D01*
X271988D01*
X272554Y276113D01*
X272685Y276107D01*
X272733Y276096D01*
X273090Y275911D01*
X273112Y275798D01*
X273278Y275550D01*
X278672Y270156D01*
Y269094D01*
Y258722D01*
X278172Y258623D01*
X278000Y259039D01*
X277527Y259512D01*
X276909Y259768D01*
X276240D01*
X275623Y259512D01*
X275150Y259039D01*
X274894Y258421D01*
Y257752D01*
X275150Y257134D01*
X275623Y256661D01*
X275940Y256530D01*
Y254809D01*
X275627Y254496D01*
X275371Y253878D01*
Y253209D01*
X275627Y252591D01*
X276099Y252118D01*
X276717Y251862D01*
X277386D01*
X278004Y252118D01*
X278372Y252485D01*
X278477Y252591D01*
X278989Y252521D01*
X279081Y252429D01*
X279699Y252173D01*
X280368D01*
X280985Y252429D01*
X281458Y252902D01*
X281714Y253520D01*
Y254189D01*
X281458Y254807D01*
X280985Y255280D01*
X280792Y255360D01*
Y256807D01*
X280734Y257100D01*
X280568Y257348D01*
X280568Y257348D01*
X280202Y257715D01*
Y269094D01*
Y270472D01*
X280143Y270765D01*
X279978Y271013D01*
X275378Y275612D01*
X275661Y276036D01*
X276044Y275878D01*
X276712D01*
X277059Y275480D01*
Y275256D01*
X277315Y274638D01*
X277788Y274165D01*
X278406Y273909D01*
X279075D01*
X279692Y274165D01*
X280165Y274638D01*
X280421Y275256D01*
Y275643D01*
X280895Y275988D01*
X281162Y275878D01*
X281830D01*
X282177Y275480D01*
Y275256D01*
X282433Y274638D01*
X282906Y274165D01*
X283524Y273909D01*
X284193D01*
X284810Y274165D01*
X285283Y274638D01*
X285539Y275256D01*
Y275925D01*
X285283Y276543D01*
X284810Y277016D01*
X284623Y277093D01*
Y277928D01*
X284623Y277928D01*
X284565Y278221D01*
X284399Y278469D01*
X279865Y283003D01*
X280056Y283465D01*
X288212D01*
Y279062D01*
X288024Y278984D01*
X287551Y278511D01*
X287295Y277893D01*
Y277225D01*
X287551Y276607D01*
X288024Y276134D01*
X288642Y275878D01*
X289311D01*
X289439Y275931D01*
X289730Y275736D01*
X289885Y275575D01*
X290110Y275032D01*
X290583Y274559D01*
X291201Y274303D01*
X291870D01*
X292488Y274559D01*
X292961Y275032D01*
X293216Y275650D01*
Y275836D01*
X293566Y276070D01*
X294235D01*
X294853Y276326D01*
X294995Y276468D01*
X295495Y276261D01*
Y276090D01*
X295553Y275798D01*
X295719Y275550D01*
X301113Y270156D01*
Y269094D01*
Y258722D01*
X300613Y258623D01*
X300441Y259039D01*
X299968Y259512D01*
X299350Y259768D01*
X298681D01*
X298064Y259512D01*
X297591Y259039D01*
X297335Y258421D01*
Y257752D01*
X297591Y257134D01*
X297904Y256821D01*
Y254809D01*
X297591Y254496D01*
X297335Y253878D01*
Y253567D01*
X296835Y253360D01*
X294843Y255352D01*
Y261665D01*
X295156Y261978D01*
X295412Y262596D01*
Y263265D01*
X295156Y263883D01*
X294683Y264356D01*
X294065Y264612D01*
X293463D01*
X293259Y264773D01*
X293055Y265012D01*
Y265603D01*
X292799Y266220D01*
X292326Y266693D01*
X291709Y266949D01*
X291040D01*
X290422Y266693D01*
X289949Y266220D01*
X289693Y265603D01*
Y265242D01*
X289563Y264890D01*
X289231Y264780D01*
X288853D01*
X288235Y264524D01*
X287763Y264051D01*
X287507Y263433D01*
Y262764D01*
X287626Y262476D01*
X287590Y262292D01*
X287590Y262292D01*
Y252834D01*
X287590Y252834D01*
X287674Y252409D01*
X287915Y252048D01*
X295760Y244203D01*
Y243760D01*
X296016Y243142D01*
X296489Y242669D01*
X297107Y242413D01*
X297775D01*
X298393Y242669D01*
X298866Y243142D01*
X299122Y243760D01*
Y244008D01*
X299622Y244215D01*
D01*
X302407Y241430D01*
X302407Y241430D01*
X302767Y241189D01*
X303193Y241105D01*
X305075D01*
X305075Y241105D01*
X305075Y241105D01*
X305500Y241189D01*
X305500Y241189D01*
X305500Y241189D01*
X305665Y241299D01*
X305861Y241430D01*
X307192Y242761D01*
X307192Y242761D01*
X307192Y242761D01*
X307223Y242807D01*
X307330D01*
X307948Y243063D01*
X308421Y243536D01*
X308677Y244154D01*
Y244823D01*
X308421Y245440D01*
X307948Y245913D01*
X307330Y246169D01*
X306662D01*
X306044Y245913D01*
X305892Y245761D01*
X305565Y245446D01*
X305238Y245761D01*
X305086Y245913D01*
X304468Y246169D01*
X304025D01*
X298832Y251362D01*
X299039Y251862D01*
X299350D01*
X299968Y252118D01*
X300120Y252270D01*
D01*
X300447Y252585D01*
D01*
X300713Y252329D01*
X300774Y252270D01*
X300926Y252118D01*
X301544Y251862D01*
X302212D01*
X302830Y252118D01*
X303303Y252591D01*
X303559Y253209D01*
Y253878D01*
X303303Y254496D01*
X302830Y254969D01*
X302643Y255046D01*
Y269094D01*
Y270472D01*
X302585Y270765D01*
X302419Y271013D01*
X297819Y275612D01*
X298102Y276036D01*
X298484Y275878D01*
X299153D01*
X299420Y275988D01*
X299894Y275643D01*
Y275256D01*
X300150Y274638D01*
X300623Y274165D01*
X301240Y273909D01*
X301909D01*
X302527Y274165D01*
X303000Y274638D01*
X303256Y275256D01*
X303756Y275589D01*
X303977Y275497D01*
X304646D01*
X304649Y275499D01*
X305012Y275256D01*
X305268Y274638D01*
X305741Y274165D01*
X306359Y273909D01*
X307027D01*
X307645Y274165D01*
X308118Y274638D01*
X308374Y275256D01*
Y275925D01*
X308118Y276543D01*
X307645Y277016D01*
X307458Y277093D01*
Y283465D01*
X310653D01*
Y278683D01*
X310463Y278605D01*
X309991Y278132D01*
X309735Y277514D01*
Y276845D01*
X309991Y276227D01*
X310463Y275754D01*
X311081Y275498D01*
X311750D01*
X312251Y275706D01*
X312335Y275650D01*
X312591Y275032D01*
X313064Y274559D01*
X313682Y274303D01*
X314351D01*
X314969Y274559D01*
X315442Y275032D01*
X315698Y275650D01*
Y275750D01*
X315710Y275767D01*
X316197Y276043D01*
X316595Y275878D01*
X317264D01*
X317881Y276134D01*
X318224Y276476D01*
X318538Y276414D01*
X318735Y276319D01*
X318782Y276085D01*
X318948Y275837D01*
X323948Y270837D01*
Y269094D01*
Y258722D01*
X323448Y258623D01*
X323276Y259039D01*
X322803Y259512D01*
X322185Y259768D01*
X321516D01*
X320898Y259512D01*
X320425Y259039D01*
X320169Y258421D01*
Y257752D01*
X320425Y257134D01*
X320739Y256821D01*
Y254809D01*
X320425Y254496D01*
X320169Y253878D01*
Y253567D01*
X319669Y253360D01*
X317734Y255295D01*
Y259159D01*
X317734Y259159D01*
X317650Y259584D01*
X317508Y259796D01*
Y261437D01*
X317821Y261750D01*
X318077Y262368D01*
Y263036D01*
X317821Y263654D01*
X317348Y264127D01*
X316730Y264383D01*
X316062D01*
X315698Y264626D01*
Y264627D01*
X315442Y265245D01*
X314969Y265718D01*
X314351Y265974D01*
X313682D01*
X313064Y265718D01*
X312591Y265245D01*
X312335Y264627D01*
X311923Y264351D01*
X311824Y264392D01*
X311155D01*
X310538Y264136D01*
X310065Y263663D01*
X309809Y263045D01*
Y262377D01*
X310065Y261759D01*
X310378Y261445D01*
Y253542D01*
X310378Y253542D01*
X310462Y253116D01*
X310703Y252755D01*
X318935Y244524D01*
Y244080D01*
X319192Y243463D01*
X319664Y242990D01*
X320282Y242734D01*
X320951D01*
X321569Y242990D01*
X322042Y243463D01*
X322093Y243585D01*
X322177Y243788D01*
X322715Y243903D01*
X322760Y243912D01*
D01*
X325241Y241430D01*
X325241Y241430D01*
X325602Y241189D01*
X326028Y241105D01*
X326028Y241105D01*
X327909D01*
X327909Y241105D01*
X327909Y241105D01*
X328335Y241189D01*
X328335Y241189D01*
X328335Y241189D01*
X328500Y241299D01*
X328696Y241430D01*
X330026Y242761D01*
X330026Y242761D01*
X330027Y242761D01*
X330057Y242807D01*
X330165D01*
X330783Y243063D01*
X331256Y243536D01*
X331512Y244154D01*
Y244823D01*
X331256Y245440D01*
X330783Y245913D01*
X330165Y246169D01*
X329496D01*
X328878Y245913D01*
X328726Y245761D01*
X328399Y245446D01*
X328073Y245761D01*
X327921Y245913D01*
X327303Y246169D01*
X326860D01*
X321667Y251362D01*
X321874Y251862D01*
X322185D01*
X322803Y252118D01*
X322955Y252270D01*
X323282Y252585D01*
X323608Y252270D01*
X323760Y252118D01*
X324378Y251862D01*
X325047D01*
X325665Y252118D01*
X326138Y252591D01*
X326394Y253209D01*
Y253878D01*
X326138Y254496D01*
X325665Y254969D01*
X325477Y255046D01*
Y269094D01*
Y271153D01*
X325477Y271153D01*
X325419Y271446D01*
X325253Y271694D01*
X320796Y276151D01*
X321095Y276528D01*
X321713Y276272D01*
X322382D01*
X322702Y275863D01*
X322931Y275309D01*
X323404Y274836D01*
X324022Y274580D01*
X324691D01*
X325308Y274836D01*
X325781Y275309D01*
X326037Y275927D01*
Y276101D01*
X326387Y276498D01*
X327055D01*
X327461Y276227D01*
Y276044D01*
X327716Y275426D01*
X328189Y274953D01*
X328807Y274697D01*
X329476D01*
X330094Y274953D01*
X330567Y275426D01*
X330823Y276044D01*
Y276712D01*
X330567Y277330D01*
X330094Y277803D01*
X329906Y277881D01*
Y283465D01*
X333881D01*
Y279849D01*
X333693Y279772D01*
X333221Y279299D01*
X332965Y278681D01*
Y278012D01*
X333221Y277394D01*
X333693Y276921D01*
X334311Y276665D01*
X334980D01*
X335308Y276260D01*
Y276044D01*
X335563Y275426D01*
X336036Y274953D01*
X336654Y274697D01*
X337323D01*
X337941Y274953D01*
X338414Y275426D01*
X338670Y276044D01*
Y276276D01*
X339036Y276665D01*
X339704D01*
X340322Y276921D01*
X340795Y277394D01*
X341051Y278012D01*
Y278681D01*
X340795Y279299D01*
X340322Y279772D01*
X340135Y279849D01*
Y283465D01*
X341558D01*
Y276378D01*
X341616Y276085D01*
X341782Y275837D01*
X346782Y270837D01*
Y269094D01*
Y258722D01*
X346283Y258623D01*
X346110Y259039D01*
X345637Y259512D01*
X345019Y259768D01*
X344351D01*
X343733Y259512D01*
X343260Y259039D01*
X343004Y258421D01*
Y257752D01*
X343260Y257134D01*
X343573Y256821D01*
Y254809D01*
X343260Y254496D01*
X343004Y253878D01*
Y253209D01*
X343029Y253148D01*
X342605Y252865D01*
X340679Y254791D01*
Y258191D01*
X340594Y258616D01*
X340372Y258949D01*
Y261411D01*
X340686Y261725D01*
X340941Y262343D01*
Y263011D01*
X340686Y263629D01*
X340213Y264102D01*
X339595Y264358D01*
X338926D01*
X338598Y264577D01*
Y264655D01*
X338342Y265273D01*
X337870Y265746D01*
X337252Y266002D01*
X336583D01*
X335965Y265746D01*
X335492Y265273D01*
X335236Y264655D01*
Y264631D01*
X334820Y264354D01*
X334679Y264412D01*
X334010D01*
X333392Y264157D01*
X332919Y263684D01*
X332663Y263066D01*
Y262397D01*
X332919Y261779D01*
X333232Y261466D01*
Y252754D01*
X333232Y252754D01*
X333317Y252329D01*
X333558Y251968D01*
X341036Y244491D01*
Y244047D01*
X341291Y243430D01*
X341764Y242957D01*
X342382Y242701D01*
X343051D01*
X343669Y242957D01*
X344142Y243430D01*
X344398Y244047D01*
Y244062D01*
X344860Y244253D01*
X347682Y241430D01*
X347682Y241430D01*
X348043Y241189D01*
X348469Y241105D01*
X350350D01*
X350350Y241105D01*
X350776Y241189D01*
X351137Y241430D01*
X352467Y242761D01*
X352467Y242761D01*
X352498Y242807D01*
X352606D01*
X353224Y243063D01*
X353697Y243536D01*
X353953Y244154D01*
Y244823D01*
X353697Y245440D01*
X353224Y245913D01*
X352606Y246169D01*
X351937D01*
X351319Y245913D01*
X351167Y245761D01*
X350840Y245446D01*
X350514Y245761D01*
X350362Y245913D01*
X349744Y246169D01*
X349301D01*
X344007Y251464D01*
X344290Y251887D01*
X344351Y251862D01*
X345019D01*
X345637Y252118D01*
X345790Y252270D01*
X346116Y252585D01*
X346443Y252270D01*
X346595Y252118D01*
X347213Y251862D01*
X347882D01*
X348499Y252118D01*
X348972Y252591D01*
X349228Y253209D01*
Y253878D01*
X348972Y254496D01*
X348499Y254969D01*
X348312Y255046D01*
Y269094D01*
Y271153D01*
X348312Y271153D01*
X348254Y271446D01*
X348088Y271694D01*
X343169Y276613D01*
X343213Y276959D01*
X343713Y277138D01*
X343930Y276921D01*
X344548Y276665D01*
X345165D01*
X345378Y276480D01*
X345563Y276268D01*
Y275650D01*
X345819Y275032D01*
X346292Y274559D01*
X346910Y274303D01*
X347579D01*
X348196Y274559D01*
X348669Y275032D01*
X348925Y275650D01*
Y276319D01*
X348869Y276454D01*
X349252Y276837D01*
X349666Y276665D01*
X350334D01*
X350601Y276776D01*
X351075Y276431D01*
Y276044D01*
X351331Y275426D01*
X351804Y274953D01*
X352421Y274697D01*
X353090D01*
X353708Y274953D01*
X354181Y275426D01*
X354437Y276044D01*
Y276712D01*
X354223Y277230D01*
X355299Y278306D01*
X355799Y278099D01*
Y278012D01*
X356055Y277394D01*
X356528Y276921D01*
X357146Y276665D01*
X357717D01*
X357979Y276437D01*
X358115Y276248D01*
Y275650D01*
X358370Y275032D01*
X358843Y274559D01*
X359461Y274303D01*
X360130D01*
X360748Y274559D01*
X361221Y275032D01*
X361477Y275650D01*
Y276319D01*
X361870Y276665D01*
X362539D01*
X363157Y276921D01*
X363630Y277394D01*
X363886Y278012D01*
Y278681D01*
X363630Y279299D01*
X363157Y279772D01*
X362969Y279849D01*
Y281734D01*
X363931Y282695D01*
X364393Y282504D01*
Y276091D01*
X364451Y275798D01*
X364617Y275550D01*
X369904Y270262D01*
Y269094D01*
Y255046D01*
X369717Y254969D01*
X369415Y254667D01*
X369094Y254550D01*
X368774Y254667D01*
X368632Y254809D01*
Y256821D01*
X368945Y257134D01*
X369201Y257752D01*
Y258421D01*
X368945Y259039D01*
X368472Y259512D01*
X367854Y259768D01*
X367185D01*
X366567Y259512D01*
X366094Y259039D01*
X365839Y258421D01*
Y257752D01*
X366094Y257134D01*
X366408Y256821D01*
Y254809D01*
X366094Y254496D01*
X365839Y253878D01*
Y253209D01*
X365864Y253148D01*
X365440Y252865D01*
X363188Y255117D01*
X363188Y255117D01*
X363179Y255126D01*
Y261833D01*
X363492Y262146D01*
X363748Y262764D01*
Y263433D01*
X363492Y264051D01*
X363019Y264524D01*
X362402Y264780D01*
X361733D01*
X361386Y265177D01*
Y265401D01*
X361130Y266019D01*
X360657Y266492D01*
X360039Y266748D01*
X359371D01*
X358753Y266492D01*
X358280Y266019D01*
X358024Y265401D01*
Y264896D01*
X357688Y264597D01*
X357562Y264546D01*
X357559Y264547D01*
X356890D01*
X356273Y264291D01*
X355800Y263818D01*
X355544Y263201D01*
Y262532D01*
X355800Y261914D01*
X356172Y261542D01*
Y252362D01*
X356172Y252362D01*
X356256Y251937D01*
X356497Y251576D01*
X363870Y244203D01*
Y243760D01*
X364126Y243142D01*
X364599Y242669D01*
X365217Y242413D01*
X365886D01*
X366504Y242669D01*
X366976Y243142D01*
X367232Y243760D01*
Y244008D01*
X367732Y244215D01*
X370517Y241430D01*
X370517Y241430D01*
X370878Y241189D01*
X371303Y241105D01*
X373185D01*
X373185Y241105D01*
X373185Y241105D01*
X373610Y241189D01*
X373610Y241189D01*
X373610Y241189D01*
X373775Y241299D01*
X373971Y241430D01*
X375302Y242761D01*
X375302Y242761D01*
X375302Y242761D01*
X375333Y242807D01*
X375441D01*
X376059Y243063D01*
X376531Y243536D01*
X376787Y244154D01*
Y244823D01*
X376531Y245440D01*
X376059Y245913D01*
X375441Y246169D01*
X374772D01*
X374154Y245913D01*
X374002Y245761D01*
X373675Y245446D01*
D01*
X373348Y245761D01*
X373196Y245913D01*
X372578Y246169D01*
X372135D01*
X366841Y251464D01*
X367125Y251887D01*
X367185Y251862D01*
X367854D01*
X368472Y252118D01*
X368774Y252420D01*
X369094Y252537D01*
X369415Y252420D01*
X369717Y252118D01*
X370335Y251862D01*
X371004D01*
X371621Y252118D01*
X372094Y252591D01*
X372350Y253209D01*
Y253878D01*
X372094Y254496D01*
X371621Y254969D01*
X371434Y255046D01*
Y269094D01*
Y270579D01*
X371376Y270871D01*
X371210Y271119D01*
X365922Y276407D01*
Y277079D01*
X366422Y277263D01*
X366764Y276921D01*
X367382Y276665D01*
X368000D01*
X368212Y276480D01*
X368398Y276268D01*
Y275650D01*
X368654Y275032D01*
X369127Y274559D01*
X369744Y274303D01*
X370413D01*
X371031Y274559D01*
X371504Y275032D01*
X371760Y275650D01*
Y276319D01*
X371704Y276454D01*
X372086Y276837D01*
X372500Y276665D01*
X373118D01*
X373331Y276480D01*
X373516Y276268D01*
Y275650D01*
X373772Y275032D01*
X374245Y274559D01*
X374863Y274303D01*
X375531D01*
X376149Y274559D01*
X376622Y275032D01*
X376878Y275650D01*
Y276319D01*
X376800Y276506D01*
X378172Y277878D01*
X378745Y277744D01*
X378890Y277394D01*
X379363Y276921D01*
X379981Y276665D01*
X380598D01*
X380811Y276480D01*
X380996Y276268D01*
Y275650D01*
X381252Y275032D01*
X381725Y274559D01*
X382343Y274303D01*
X383012D01*
X383629Y274559D01*
X384102Y275032D01*
X384358Y275650D01*
Y276319D01*
X384302Y276454D01*
X384685Y276837D01*
X385099Y276665D01*
X385768D01*
X386334Y276900D01*
X386834Y276716D01*
Y276091D01*
X386892Y275798D01*
X387058Y275550D01*
X392625Y269982D01*
Y269094D01*
Y255046D01*
X392438Y254969D01*
X392199Y254730D01*
X391872Y254547D01*
X391546Y254730D01*
X391466Y254809D01*
Y256821D01*
X391780Y257134D01*
X392036Y257752D01*
Y258421D01*
X391780Y259039D01*
X391307Y259512D01*
X390689Y259768D01*
X390020D01*
X389402Y259512D01*
X388929Y259039D01*
X388673Y258421D01*
Y257752D01*
X388929Y257134D01*
X389243Y256821D01*
Y254809D01*
X388929Y254496D01*
X388673Y253878D01*
Y253209D01*
X388699Y253148D01*
X388275Y252865D01*
X386366Y254773D01*
Y261663D01*
X386680Y261976D01*
X386935Y262594D01*
Y263263D01*
X386680Y263880D01*
X386207Y264353D01*
X385589Y264609D01*
X384920D01*
X384820Y264568D01*
X384213Y264858D01*
X384102Y265125D01*
X383629Y265598D01*
X383012Y265854D01*
X382343D01*
X381725Y265598D01*
X381252Y265125D01*
X380996Y264508D01*
X380922Y264458D01*
X380405Y264672D01*
X379736D01*
X379118Y264417D01*
X378645Y263944D01*
X378389Y263326D01*
Y262657D01*
X378645Y262039D01*
X378928Y261756D01*
Y252834D01*
X378928Y252834D01*
X379013Y252408D01*
X379254Y252048D01*
X387492Y243809D01*
Y243366D01*
X387748Y242748D01*
X388221Y242276D01*
X388839Y242020D01*
X389508D01*
X390125Y242276D01*
X390598Y242748D01*
X390812Y243263D01*
X391316Y243466D01*
X393352Y241430D01*
X393352Y241430D01*
X393712Y241189D01*
X394138Y241105D01*
X394138Y241105D01*
X396020D01*
X396020Y241105D01*
X396020Y241105D01*
X396445Y241189D01*
X396445Y241189D01*
X396445Y241189D01*
X396580Y241279D01*
X396610Y241299D01*
X396806Y241430D01*
X398137Y242761D01*
X398137Y242761D01*
X398137Y242761D01*
X398167Y242807D01*
X398275D01*
X398893Y243063D01*
X399366Y243536D01*
X399622Y244154D01*
Y244823D01*
X399366Y245440D01*
X398893Y245913D01*
X398275Y246169D01*
X397607D01*
X396989Y245913D01*
X396837Y245761D01*
X396510Y245446D01*
X396183Y245761D01*
X396031Y245913D01*
X395413Y246169D01*
X394970D01*
X389676Y251464D01*
X389959Y251887D01*
X390020Y251862D01*
X390689D01*
X391307Y252118D01*
X391546Y252357D01*
X391872Y252539D01*
X392199Y252357D01*
X392438Y252118D01*
X393056Y251862D01*
X393725D01*
X394342Y252118D01*
X394815Y252591D01*
X395071Y253209D01*
Y253878D01*
X394815Y254496D01*
X394342Y254969D01*
X394155Y255046D01*
Y269094D01*
Y270299D01*
X394097Y270591D01*
X393931Y270839D01*
X388550Y276221D01*
X388587Y276439D01*
X389123Y276609D01*
X389205Y276528D01*
X389823Y276272D01*
X390492D01*
X390759Y276382D01*
X391232Y276037D01*
Y275650D01*
X391488Y275032D01*
X391961Y274559D01*
X392579Y274303D01*
X393248D01*
X393866Y274559D01*
X394338Y275032D01*
X394595Y275650D01*
Y276268D01*
X394780Y276480D01*
X394992Y276665D01*
X395610D01*
X395877Y276776D01*
X396350Y276431D01*
Y276044D01*
X396606Y275426D01*
X397079Y274953D01*
X397697Y274697D01*
X398366D01*
X398984Y274953D01*
X399457Y275426D01*
X399713Y276044D01*
Y276712D01*
X399635Y276900D01*
X403232Y280497D01*
X410236D01*
Y234646D01*
X223620D01*
X214566Y243700D01*
X214205Y243941D01*
X213779Y244025D01*
X213779Y244025D01*
X197655D01*
X197342Y244338D01*
X196724Y244595D01*
X196055D01*
X195437Y244338D01*
X194964Y243866D01*
X194709Y243248D01*
Y242579D01*
X194964Y241961D01*
X195437Y241488D01*
X196055Y241232D01*
X196724D01*
X197342Y241488D01*
X197655Y241802D01*
X213319D01*
X220013Y235108D01*
X219822Y234646D01*
X216936D01*
X213895Y237687D01*
Y238130D01*
X213639Y238748D01*
X213166Y239220D01*
X212549Y239476D01*
X211880D01*
X211262Y239220D01*
X211110Y239068D01*
X210783Y238753D01*
X210456Y239068D01*
X210304Y239220D01*
X209686Y239476D01*
X209018D01*
X208400Y239220D01*
X208248Y239068D01*
X207921Y238753D01*
X207594Y239068D01*
X207442Y239220D01*
X206824Y239476D01*
X206155D01*
X205538Y239220D01*
X205385Y239068D01*
X205059Y238753D01*
X204732Y239068D01*
X204580Y239220D01*
X203962Y239476D01*
X203293D01*
X202675Y239220D01*
X202523Y239068D01*
X202197Y238753D01*
X201870Y239068D01*
X201718Y239220D01*
X201100Y239476D01*
X200431D01*
X199813Y239220D01*
X199661Y239068D01*
X199334Y238753D01*
X199008Y239068D01*
X198855Y239220D01*
X198238Y239476D01*
X197569D01*
X196951Y239220D01*
X196478Y238748D01*
X196222Y238130D01*
Y237687D01*
X193664Y235129D01*
X193664Y235129D01*
X193664Y235129D01*
X193181Y234646D01*
X183465D01*
Y226241D01*
X183003Y226050D01*
X180421Y228631D01*
Y229075D01*
X180165Y229692D01*
X179692Y230165D01*
X179075Y230421D01*
X178406D01*
X177788Y230165D01*
X177315Y229692D01*
X177059Y229075D01*
Y228859D01*
X177051Y228406D01*
X176597Y228397D01*
X176382D01*
X175764Y228141D01*
X175291Y227669D01*
X175035Y227051D01*
Y226835D01*
X175027Y226382D01*
X174573Y226374D01*
X174358D01*
X173740Y226118D01*
X173267Y225645D01*
X173011Y225027D01*
Y224402D01*
X172862Y224237D01*
X172607Y224029D01*
X172382Y224122D01*
X171713D01*
X171095Y223866D01*
X170622Y223393D01*
X170366Y222775D01*
Y222107D01*
X170622Y221489D01*
X170935Y221175D01*
Y213323D01*
X170935Y213323D01*
X171020Y212897D01*
X171261Y212537D01*
X179769Y204029D01*
X180130Y203788D01*
X180555Y203703D01*
X180555Y203703D01*
X183465D01*
Y202756D01*
X143701Y162992D01*
X134903D01*
X134712Y163454D01*
X138080Y166823D01*
X138523D01*
X139141Y167079D01*
X139614Y167552D01*
X139870Y168169D01*
Y168838D01*
X139614Y169456D01*
X139141Y169929D01*
X138523Y170185D01*
X138308D01*
X137855Y170193D01*
X137846Y170647D01*
Y170862D01*
X137590Y171480D01*
X137117Y171953D01*
X136499Y172209D01*
X136284D01*
X135830Y172217D01*
X135822Y172671D01*
Y172886D01*
X135566Y173504D01*
X135093Y173977D01*
X134476Y174233D01*
X134260D01*
X133807Y174241D01*
X133799Y174695D01*
Y174910D01*
X133543Y175528D01*
X133070Y176001D01*
X132452Y176257D01*
X132232D01*
X131783Y176269D01*
X131770Y176718D01*
Y176938D01*
X131514Y177556D01*
X131042Y178029D01*
X130424Y178285D01*
X129755D01*
X129137Y178029D01*
X128664Y177556D01*
X128408Y176938D01*
Y176495D01*
X114905Y162992D01*
X10223D01*
X10053Y163492D01*
X10318Y163696D01*
X10809Y164335D01*
X11117Y165079D01*
X11222Y165878D01*
X11117Y166676D01*
X10809Y167420D01*
X10318Y168059D01*
X9679Y168550D01*
X8935Y168858D01*
X8137Y168963D01*
X7708D01*
X7152Y169073D01*
X6597Y168963D01*
X6168D01*
X5554Y168882D01*
X5051Y169207D01*
X4811Y191219D01*
X5226Y191499D01*
X5370Y191439D01*
X6168Y191334D01*
X6597D01*
X7152Y191224D01*
X7708Y191334D01*
X8137D01*
X8935Y191439D01*
X9679Y191748D01*
X10318Y192238D01*
X10809Y192877D01*
X11117Y193621D01*
X11222Y194420D01*
X11117Y195218D01*
X10809Y195962D01*
X10318Y196601D01*
X9679Y197092D01*
X8935Y197400D01*
X8137Y197505D01*
X7708D01*
X7152Y197616D01*
X6597Y197505D01*
X6168D01*
X5370Y197400D01*
X5159Y197313D01*
X4742Y197588D01*
X4724Y199213D01*
Y304724D01*
X91732D01*
X92451Y305444D01*
X92913Y305252D01*
D02*
G37*
G36*
X487795Y133071D02*
Y101464D01*
X487489Y101157D01*
X487483Y101143D01*
X486983D01*
X486977Y101157D01*
X486504Y101630D01*
X485886Y101886D01*
X485218D01*
X484600Y101630D01*
X484127Y101157D01*
X484121Y101143D01*
X483621D01*
X483615Y101157D01*
X483142Y101630D01*
X482524Y101886D01*
X481855D01*
X481238Y101630D01*
X480765Y101157D01*
X480509Y100540D01*
Y99871D01*
X480765Y99253D01*
X481238Y98780D01*
X481855Y98524D01*
X482524D01*
X483142Y98780D01*
X483615Y99253D01*
X483621Y99267D01*
X484121D01*
X484127Y99253D01*
X484600Y98780D01*
X485218Y98524D01*
X485886D01*
X486504Y98780D01*
X486947Y99223D01*
X487467Y99228D01*
X487795Y98897D01*
Y95438D01*
X487593Y95235D01*
X487586Y95221D01*
X487086D01*
X487081Y95235D01*
X486608Y95708D01*
X485990Y95964D01*
X485321D01*
X484703Y95708D01*
X484230Y95235D01*
X484224Y95221D01*
X483724D01*
X483718Y95235D01*
X483246Y95708D01*
X482628Y95964D01*
X481959D01*
X481341Y95708D01*
X480868Y95235D01*
X480612Y94617D01*
Y93949D01*
X480868Y93331D01*
X481341Y92858D01*
X481959Y92602D01*
X482628D01*
X483246Y92858D01*
X483718Y93331D01*
X483724Y93345D01*
X484224D01*
X484230Y93331D01*
X484703Y92858D01*
X485321Y92602D01*
X485990D01*
X486608Y92858D01*
X486947Y93197D01*
X487483Y93202D01*
X487548Y93180D01*
X487795Y92931D01*
Y4331D01*
X67798D01*
X67567Y4889D01*
X67323Y5133D01*
Y7000D01*
X67567Y7244D01*
X67823Y7862D01*
Y8531D01*
X67567Y9149D01*
X67323Y9393D01*
Y11253D01*
X67574Y11504D01*
X67830Y12122D01*
Y12790D01*
X67574Y13408D01*
X67323Y13659D01*
Y15513D01*
X67574Y15763D01*
X67830Y16381D01*
Y17050D01*
X67574Y17668D01*
X67323Y17919D01*
Y19772D01*
X67574Y20023D01*
X67830Y20641D01*
Y21309D01*
X67574Y21927D01*
X67323Y22178D01*
Y24032D01*
X67574Y24282D01*
X67830Y24900D01*
Y25569D01*
X67574Y26187D01*
X67323Y26438D01*
Y28291D01*
X67574Y28542D01*
X67830Y29160D01*
Y29828D01*
X67574Y30446D01*
X67323Y30697D01*
Y32550D01*
X67574Y32801D01*
X67830Y33419D01*
Y34088D01*
X67574Y34706D01*
X67323Y34956D01*
Y37795D01*
X64864D01*
Y38220D01*
X64608Y38838D01*
X64135Y39311D01*
X63517Y39567D01*
X62848D01*
X62231Y39311D01*
X61758Y38838D01*
X61502Y38220D01*
Y37795D01*
X60906D01*
X60881Y37855D01*
X60408Y38328D01*
X59790Y38584D01*
X59121D01*
X58503Y38328D01*
X58030Y37855D01*
X58006Y37795D01*
X56713D01*
X56423Y38139D01*
X56567Y38623D01*
X57048Y38823D01*
X57521Y39296D01*
X57777Y39914D01*
Y40582D01*
X57521Y41200D01*
X57048Y41673D01*
X56431Y41929D01*
X55762D01*
X55144Y41673D01*
X54671Y41200D01*
X54415Y40582D01*
Y39914D01*
X54671Y39296D01*
X54883Y39084D01*
X54841Y38860D01*
X54709Y38551D01*
X54173Y38328D01*
X53700Y37855D01*
X53675Y37795D01*
X52323D01*
X52250Y38265D01*
X52868Y38521D01*
X53341Y38994D01*
X53597Y39612D01*
Y40281D01*
X53341Y40899D01*
X52868Y41372D01*
X52250Y41627D01*
X51582D01*
X50964Y41372D01*
X50491Y40899D01*
X50235Y40281D01*
Y39612D01*
X50491Y38994D01*
X50964Y38521D01*
X51582Y38265D01*
X51509Y37795D01*
X46570D01*
Y38025D01*
X46314Y38643D01*
X45841Y39116D01*
X45223Y39372D01*
X44554D01*
X43936Y39116D01*
X43463Y38643D01*
X43207Y38025D01*
Y37795D01*
X41844D01*
Y38130D01*
X41589Y38748D01*
X41116Y39220D01*
X40498Y39476D01*
X39829D01*
X39211Y39220D01*
X38738Y38748D01*
X38482Y38130D01*
Y37795D01*
X37119D01*
Y38130D01*
X36863Y38748D01*
X36391Y39220D01*
X35773Y39476D01*
X35104D01*
X34486Y39220D01*
X34013Y38748D01*
X33757Y38130D01*
Y37795D01*
X32394D01*
Y38130D01*
X32138Y38748D01*
X31665Y39220D01*
X31047Y39476D01*
X30379D01*
X29761Y39220D01*
X29288Y38748D01*
X29032Y38130D01*
Y37795D01*
X27669D01*
Y38130D01*
X27413Y38748D01*
X26940Y39220D01*
X26322Y39476D01*
X25654D01*
X25036Y39220D01*
X24563Y38748D01*
X24307Y38130D01*
Y37795D01*
X22944D01*
Y38130D01*
X22688Y38748D01*
X22215Y39220D01*
X21597Y39476D01*
X20928D01*
X20311Y39220D01*
X19838Y38748D01*
X19582Y38130D01*
Y37795D01*
X18219D01*
Y38130D01*
X17963Y38748D01*
X17490Y39220D01*
X16872Y39476D01*
X16203D01*
X15585Y39220D01*
X15112Y38748D01*
X14856Y38130D01*
Y37795D01*
X13494D01*
Y38130D01*
X13238Y38748D01*
X12765Y39220D01*
X12147Y39476D01*
X11478D01*
X10860Y39220D01*
X10387Y38748D01*
X10131Y38130D01*
Y37795D01*
X8768D01*
Y38130D01*
X8512Y38748D01*
X8040Y39220D01*
X7422Y39476D01*
X6753D01*
X6135Y39220D01*
X5662Y38748D01*
X5618Y38641D01*
X5118Y38741D01*
Y159843D01*
X111102D01*
X111294Y159381D01*
X103513Y151600D01*
X103272Y151239D01*
X103187Y150814D01*
X103187Y150814D01*
Y145754D01*
X102874Y145440D01*
X102618Y144823D01*
Y144154D01*
X102874Y143536D01*
X103347Y143063D01*
X103965Y142807D01*
X104634D01*
X105252Y143063D01*
X105501Y143313D01*
X106138Y143327D01*
X106215Y143249D01*
X106833Y142993D01*
X107502D01*
X108120Y143249D01*
X108516Y143646D01*
X108603Y143628D01*
X109076Y143156D01*
X109694Y142900D01*
X110362D01*
X110980Y143156D01*
X111149Y143324D01*
X111836Y143344D01*
X111937Y143244D01*
X112554Y142988D01*
X113223D01*
X113841Y143244D01*
X113916Y143318D01*
X114583Y143279D01*
X114799Y143063D01*
X115417Y142807D01*
X116085D01*
X116703Y143063D01*
X117176Y143536D01*
X117432Y144154D01*
Y144823D01*
X117176Y145440D01*
X116937Y145679D01*
X131100Y159843D01*
X146850D01*
X188976Y201969D01*
Y203257D01*
X189141Y203703D01*
X189567Y203788D01*
X189927Y204029D01*
X190150Y204252D01*
X190217Y204224D01*
X190886D01*
X191503Y204480D01*
X191976Y204953D01*
X192232Y205571D01*
Y206240D01*
X191976Y206858D01*
X191503Y207331D01*
X190886Y207587D01*
X190217D01*
X189599Y207331D01*
X189476Y207208D01*
X188976Y207415D01*
Y210295D01*
X189438Y210486D01*
X191262Y208663D01*
X191262Y208663D01*
X191622Y208421D01*
X192048Y208337D01*
X192048Y208337D01*
X195553D01*
X195867Y208024D01*
X196484Y207768D01*
X197153D01*
X197771Y208024D01*
X197923Y208176D01*
X198250Y208491D01*
X198577Y208176D01*
X198729Y208024D01*
X199347Y207768D01*
X200015D01*
X200633Y208024D01*
X200786Y208176D01*
X201112Y208491D01*
X201439Y208176D01*
X201591Y208024D01*
X202209Y207768D01*
X202878D01*
X203496Y208024D01*
X203648Y208176D01*
X203974Y208491D01*
X204301Y208176D01*
X204453Y208024D01*
X205071Y207768D01*
X205740D01*
X206358Y208024D01*
X206510Y208176D01*
X206837Y208491D01*
X207163Y208176D01*
X207315Y208024D01*
X207933Y207768D01*
X208602D01*
X209220Y208024D01*
X209372Y208176D01*
X209699Y208491D01*
X210026Y208176D01*
X210178Y208024D01*
X210795Y207768D01*
X211464D01*
X212082Y208024D01*
X212395Y208337D01*
X215748D01*
X215748Y208337D01*
X216174Y208421D01*
X216534Y208663D01*
X219145Y211274D01*
X219145Y211274D01*
X219387Y211634D01*
X219471Y212060D01*
X219471Y212060D01*
Y231650D01*
X219445Y231783D01*
X219796Y232274D01*
X219816Y232283D01*
X342440D01*
X342611Y231870D01*
X343084Y231397D01*
X343702Y231141D01*
X344371D01*
X344989Y231397D01*
X345462Y231870D01*
X345633Y232283D01*
X353070D01*
X353241Y231870D01*
X353714Y231397D01*
X354332Y231141D01*
X355001D01*
X355619Y231397D01*
X356091Y231870D01*
X356263Y232283D01*
X362913D01*
X363084Y231870D01*
X363557Y231397D01*
X364174Y231141D01*
X364843D01*
X365461Y231397D01*
X365934Y231870D01*
X366105Y232283D01*
X372755D01*
X372926Y231870D01*
X373399Y231397D01*
X374017Y231141D01*
X374686D01*
X375304Y231397D01*
X375776Y231870D01*
X375948Y232283D01*
X388583D01*
X487795Y133071D01*
D02*
G37*
G36*
X215566Y224840D02*
Y221640D01*
X207482Y213555D01*
X207240Y213194D01*
X207156Y212769D01*
X207156Y212769D01*
Y210817D01*
X206755Y210544D01*
X206421Y210819D01*
Y218995D01*
X206921Y219320D01*
X207246Y219185D01*
X207915D01*
X208533Y219441D01*
X209005Y219914D01*
X209261Y220532D01*
Y220975D01*
X210827Y222540D01*
X210827Y222540D01*
X211068Y222901D01*
X211152Y223326D01*
X211152Y223326D01*
Y223975D01*
X211779Y224602D01*
X211930Y224515D01*
X212693Y224311D01*
X213482D01*
X214246Y224515D01*
X214930Y224910D01*
X215066Y225047D01*
X215566Y224840D01*
D02*
G37*
G36*
X217247Y219523D02*
Y212521D01*
X215288Y210561D01*
X212395D01*
X212082Y210874D01*
X211464Y211130D01*
X210795D01*
X210178Y210874D01*
X210026Y210722D01*
X209777Y210482D01*
X209380Y210783D01*
Y212308D01*
X216785Y219714D01*
X217247Y219523D01*
D02*
G37*
G36*
X201930Y224515D02*
X202693Y224311D01*
X202886D01*
X203093Y223811D01*
X201757Y222475D01*
X201516Y222114D01*
X201431Y221688D01*
X201431Y221688D01*
Y210783D01*
X201034Y210482D01*
X200786Y210722D01*
X200633Y210874D01*
X200015Y211130D01*
X199908D01*
X199877Y211176D01*
X196790Y214263D01*
X196429Y214504D01*
X196004Y214588D01*
X196004Y214588D01*
X193210D01*
X192885Y215088D01*
X193020Y215414D01*
Y215763D01*
X201829Y224573D01*
X201930Y224515D01*
D02*
G37*
G36*
X174358Y223011D02*
X174801D01*
X180384Y217428D01*
Y208352D01*
X180071Y208039D01*
X179936Y207714D01*
X179353Y207590D01*
X173159Y213783D01*
Y221175D01*
X173472Y221489D01*
X173728Y222107D01*
Y222731D01*
X173878Y222897D01*
X174133Y223105D01*
X174358Y223011D01*
D02*
G37*
%LPC*%
G36*
X163858Y282315D02*
X163189D01*
X162571Y282059D01*
X162098Y281586D01*
X161842Y280968D01*
Y280299D01*
X162098Y279682D01*
X162571Y279209D01*
X163189Y278953D01*
X163858D01*
X164476Y279209D01*
X164949Y279682D01*
X165205Y280299D01*
Y280968D01*
X164949Y281586D01*
X164476Y282059D01*
X163858Y282315D01*
D02*
G37*
G36*
X197579Y281996D02*
X196910D01*
X196292Y281740D01*
X195819Y281267D01*
X195563Y280649D01*
Y279981D01*
X195819Y279363D01*
X196292Y278890D01*
X196910Y278634D01*
X197579D01*
X198196Y278890D01*
X198669Y279363D01*
X198925Y279981D01*
Y280649D01*
X198669Y281267D01*
X198196Y281740D01*
X197579Y281996D01*
D02*
G37*
G36*
X222125Y268929D02*
X221457D01*
X220839Y268673D01*
X220366Y268200D01*
X220110Y267582D01*
Y266914D01*
X220366Y266296D01*
X220839Y265823D01*
X221457Y265567D01*
X222125D01*
X222743Y265823D01*
X223216Y266296D01*
X223472Y266914D01*
Y267582D01*
X223216Y268200D01*
X222743Y268673D01*
X222125Y268929D01*
D02*
G37*
G36*
X188267D02*
X187598D01*
X186981Y268673D01*
X186508Y268200D01*
X186252Y267582D01*
Y266914D01*
X186508Y266296D01*
X186981Y265823D01*
X187598Y265567D01*
X188267D01*
X188885Y265823D01*
X189358Y266296D01*
X189614Y266914D01*
Y267582D01*
X189358Y268200D01*
X188885Y268673D01*
X188267Y268929D01*
D02*
G37*
G36*
X342362Y268393D02*
X341693D01*
X341075Y268137D01*
X340602Y267664D01*
X340347Y267046D01*
Y266378D01*
X340602Y265760D01*
X341075Y265287D01*
X341693Y265031D01*
X342362D01*
X342980Y265287D01*
X343453Y265760D01*
X343709Y266378D01*
Y267046D01*
X343453Y267664D01*
X342980Y268137D01*
X342362Y268393D01*
D02*
G37*
G36*
X387973Y268235D02*
X387304D01*
X386686Y267979D01*
X386213Y267506D01*
X385957Y266888D01*
Y266219D01*
X386213Y265601D01*
X386686Y265128D01*
X387304Y264873D01*
X387973D01*
X388590Y265128D01*
X389063Y265601D01*
X389319Y266219D01*
Y266888D01*
X389063Y267506D01*
X388590Y267979D01*
X387973Y268235D01*
D02*
G37*
G36*
X228484Y268216D02*
X227815D01*
X227197Y267961D01*
X226725Y267488D01*
X226468Y266870D01*
Y266201D01*
X226725Y265583D01*
X227197Y265110D01*
X227815Y264854D01*
X228484D01*
X229102Y265110D01*
X229575Y265583D01*
X229831Y266201D01*
Y266870D01*
X229575Y267488D01*
X229102Y267961D01*
X228484Y268216D01*
D02*
G37*
G36*
X320996Y268186D02*
X320328D01*
X319710Y267930D01*
X319237Y267457D01*
X318981Y266839D01*
Y266171D01*
X319237Y265553D01*
X319710Y265080D01*
X320328Y264824D01*
X320996D01*
X321614Y265080D01*
X322087Y265553D01*
X322343Y266171D01*
Y266839D01*
X322087Y267457D01*
X321614Y267930D01*
X320996Y268186D01*
D02*
G37*
G36*
X366666Y268186D02*
X365997D01*
X365379Y267930D01*
X364906Y267457D01*
X364650Y266839D01*
Y266170D01*
X364906Y265553D01*
X365379Y265080D01*
X365997Y264824D01*
X366666D01*
X367284Y265080D01*
X367757Y265553D01*
X368012Y266170D01*
Y266839D01*
X367757Y267457D01*
X367284Y267930D01*
X366666Y268186D01*
D02*
G37*
G36*
X275770Y268129D02*
X275101D01*
X274483Y267873D01*
X274010Y267401D01*
X273755Y266783D01*
Y266114D01*
X274010Y265496D01*
X274483Y265023D01*
X275101Y264767D01*
X275770D01*
X276388Y265023D01*
X276861Y265496D01*
X277117Y266114D01*
Y266783D01*
X276861Y267401D01*
X276388Y267873D01*
X275770Y268129D01*
D02*
G37*
G36*
X252935D02*
X252267D01*
X251649Y267873D01*
X251176Y267401D01*
X250920Y266783D01*
Y266114D01*
X251176Y265496D01*
X251649Y265023D01*
X252267Y264767D01*
X252935D01*
X253553Y265023D01*
X254026Y265496D01*
X254282Y266114D01*
Y266783D01*
X254026Y267401D01*
X253553Y267873D01*
X252935Y268129D01*
D02*
G37*
G36*
X298275Y267882D02*
X297606D01*
X296989Y267626D01*
X296516Y267153D01*
X296260Y266535D01*
Y265867D01*
X296516Y265249D01*
X296989Y264776D01*
X297606Y264520D01*
X298275D01*
X298893Y264776D01*
X299366Y265249D01*
X299622Y265867D01*
Y266535D01*
X299366Y267153D01*
X298893Y267626D01*
X298275Y267882D01*
D02*
G37*
G36*
X269429Y265067D02*
X268760D01*
X268142Y264811D01*
X267669Y264338D01*
X267608Y264191D01*
X267019Y264074D01*
X266956Y264136D01*
X266339Y264392D01*
X265670D01*
X265052Y264136D01*
X264579Y263663D01*
X264323Y263045D01*
Y262377D01*
X264579Y261759D01*
X264892Y261445D01*
Y253358D01*
X264892Y253358D01*
X264977Y252933D01*
X265218Y252572D01*
X273275Y244514D01*
Y244071D01*
X273532Y243453D01*
X274004Y242981D01*
X274622Y242725D01*
X275291D01*
X275909Y242981D01*
X276382Y243453D01*
X276517Y243779D01*
X277100Y243903D01*
X279572Y241430D01*
X279933Y241189D01*
X280358Y241105D01*
X280358Y241105D01*
X282240D01*
X282240Y241105D01*
X282666Y241189D01*
X283027Y241430D01*
X284325Y242729D01*
X284495D01*
X285113Y242985D01*
X285586Y243458D01*
X285841Y244076D01*
Y244745D01*
X285586Y245363D01*
X285113Y245835D01*
X284495Y246091D01*
X283826D01*
X283208Y245835D01*
X282798Y245426D01*
X282724Y245440D01*
X282252Y245913D01*
X281634Y246169D01*
X281191D01*
X272973Y254387D01*
Y261385D01*
X273286Y261699D01*
X273542Y262316D01*
Y262985D01*
X273286Y263603D01*
X272813Y264076D01*
X272195Y264332D01*
X271526D01*
X271131Y264168D01*
X270520Y264338D01*
X270047Y264811D01*
X269429Y265067D01*
D02*
G37*
G36*
X184586Y262039D02*
X183918D01*
X183300Y261783D01*
X182827Y261310D01*
X182820Y261294D01*
X176663D01*
X176525Y261432D01*
X175908Y261687D01*
X175239D01*
X174621Y261432D01*
X174148Y260959D01*
X173892Y260341D01*
Y259672D01*
X174148Y259054D01*
X174621Y258581D01*
X175239Y258325D01*
X175908D01*
X176525Y258581D01*
X176998Y259054D01*
X177005Y259070D01*
X183162D01*
X183300Y258933D01*
X183918Y258677D01*
X184586D01*
X185204Y258933D01*
X185677Y259406D01*
X185933Y260024D01*
Y260693D01*
X185677Y261310D01*
X185204Y261783D01*
X184586Y262039D01*
D02*
G37*
G36*
X14901Y261130D02*
X14232D01*
X13615Y260874D01*
X13142Y260401D01*
X12886Y259783D01*
Y259115D01*
X13142Y258497D01*
X13615Y258024D01*
X14232Y257768D01*
X14901D01*
X15519Y258024D01*
X15992Y258497D01*
X16248Y259115D01*
Y259783D01*
X15992Y260401D01*
X15519Y260874D01*
X14901Y261130D01*
D02*
G37*
G36*
X231240Y259768D02*
X230571D01*
X229953Y259512D01*
X229481Y259039D01*
X229224Y258421D01*
Y257752D01*
X229481Y257134D01*
X229794Y256821D01*
Y254809D01*
X229481Y254496D01*
X229224Y253878D01*
Y253209D01*
X229481Y252591D01*
X229953Y252118D01*
X230571Y251862D01*
X231240D01*
X231858Y252118D01*
X232331Y252591D01*
X232587Y253209D01*
Y253878D01*
X232331Y254496D01*
X232017Y254809D01*
Y256821D01*
X232331Y257134D01*
X232587Y257752D01*
Y258421D01*
X232331Y259039D01*
X231858Y259512D01*
X231240Y259768D01*
D02*
G37*
G36*
X222125Y254756D02*
X221457D01*
X220839Y254500D01*
X220366Y254027D01*
X220110Y253409D01*
Y252740D01*
X220366Y252122D01*
X220839Y251649D01*
X221457Y251394D01*
X222125D01*
X222743Y251649D01*
X223216Y252122D01*
X223472Y252740D01*
Y253409D01*
X223216Y254027D01*
X222743Y254500D01*
X222125Y254756D01*
D02*
G37*
G36*
X188267D02*
X187598D01*
X186981Y254500D01*
X186508Y254027D01*
X186252Y253409D01*
Y252740D01*
X186508Y252122D01*
X186981Y251649D01*
X187598Y251394D01*
X188267D01*
X188885Y251649D01*
X189358Y252122D01*
X189614Y252740D01*
Y253409D01*
X189358Y254027D01*
X188885Y254500D01*
X188267Y254756D01*
D02*
G37*
G36*
X172775Y244595D02*
X172107D01*
X171489Y244338D01*
X171175Y244025D01*
X163470D01*
X163157Y244338D01*
X162539Y244595D01*
X161870D01*
X161252Y244338D01*
X160780Y243866D01*
X160524Y243248D01*
Y242579D01*
X160780Y241961D01*
X161252Y241488D01*
X161870Y241232D01*
X162539D01*
X163157Y241488D01*
X163470Y241802D01*
X171175D01*
X171489Y241488D01*
X172107Y241232D01*
X172775D01*
X173393Y241488D01*
X173866Y241961D01*
X174122Y242579D01*
Y243248D01*
X173866Y243866D01*
X173393Y244338D01*
X172775Y244595D01*
D02*
G37*
G36*
X25531Y244988D02*
X24862D01*
X24245Y244732D01*
X23772Y244259D01*
X23516Y243641D01*
Y242973D01*
X23772Y242355D01*
X24245Y241882D01*
X24862Y241626D01*
X25531D01*
X26149Y241882D01*
X26622Y242355D01*
X26878Y242973D01*
Y243641D01*
X26622Y244259D01*
X26149Y244732D01*
X25531Y244988D01*
D02*
G37*
G36*
X362342Y242626D02*
X361673D01*
X361056Y242370D01*
X360583Y241897D01*
X360327Y241279D01*
Y240611D01*
X360583Y239993D01*
X361056Y239520D01*
X361673Y239264D01*
X362342D01*
X362960Y239520D01*
X363433Y239993D01*
X363689Y240611D01*
Y241279D01*
X363433Y241897D01*
X362960Y242370D01*
X362342Y242626D01*
D02*
G37*
G36*
X339901D02*
X339233D01*
X338615Y242370D01*
X338142Y241897D01*
X337886Y241279D01*
Y240611D01*
X338142Y239993D01*
X338615Y239520D01*
X339233Y239264D01*
X339901D01*
X340519Y239520D01*
X340992Y239993D01*
X341248Y240611D01*
Y241279D01*
X340992Y241897D01*
X340519Y242370D01*
X339901Y242626D01*
D02*
G37*
G36*
X317067D02*
X316398D01*
X315780Y242370D01*
X315307Y241897D01*
X315051Y241279D01*
Y240611D01*
X315307Y239993D01*
X315780Y239520D01*
X316398Y239264D01*
X317067D01*
X317685Y239520D01*
X318157Y239993D01*
X318413Y240611D01*
Y241279D01*
X318157Y241897D01*
X317685Y242370D01*
X317067Y242626D01*
D02*
G37*
G36*
X294232D02*
X293563D01*
X292945Y242370D01*
X292473Y241897D01*
X292216Y241279D01*
Y240611D01*
X292473Y239993D01*
X292945Y239520D01*
X293563Y239264D01*
X294232D01*
X294850Y239520D01*
X295323Y239993D01*
X295579Y240611D01*
Y241279D01*
X295323Y241897D01*
X294850Y242370D01*
X294232Y242626D01*
D02*
G37*
G36*
X271397D02*
X270729D01*
X270111Y242370D01*
X269638Y241897D01*
X269382Y241279D01*
Y240611D01*
X269638Y239993D01*
X270111Y239520D01*
X270729Y239264D01*
X271397D01*
X272015Y239520D01*
X272488Y239993D01*
X272744Y240611D01*
Y241279D01*
X272488Y241897D01*
X272015Y242370D01*
X271397Y242626D01*
D02*
G37*
G36*
X248956D02*
X248288D01*
X247670Y242370D01*
X247197Y241897D01*
X246941Y241279D01*
Y240611D01*
X247197Y239993D01*
X247670Y239520D01*
X248288Y239264D01*
X248956D01*
X249574Y239520D01*
X250047Y239993D01*
X250303Y240611D01*
Y241279D01*
X250047Y241897D01*
X249574Y242370D01*
X248956Y242626D01*
D02*
G37*
G36*
X385071Y242567D02*
X384402D01*
X383784Y242311D01*
X383311Y241838D01*
X383055Y241220D01*
Y240551D01*
X383311Y239933D01*
X383784Y239460D01*
X384402Y239204D01*
X385071D01*
X385688Y239460D01*
X386161Y239933D01*
X386417Y240551D01*
Y241220D01*
X386161Y241838D01*
X385688Y242311D01*
X385071Y242567D01*
D02*
G37*
G36*
X408012Y242232D02*
X407343D01*
X406725Y241976D01*
X406252Y241503D01*
X405996Y240885D01*
Y240217D01*
X406252Y239599D01*
X406725Y239126D01*
X407343Y238870D01*
X408012D01*
X408630Y239126D01*
X409102Y239599D01*
X409358Y240217D01*
Y240885D01*
X409102Y241503D01*
X408630Y241976D01*
X408012Y242232D01*
D02*
G37*
G36*
X16476Y240650D02*
X15807D01*
X15189Y240394D01*
X14717Y239921D01*
X14460Y239303D01*
Y238634D01*
X14717Y238016D01*
X15189Y237543D01*
X15807Y237287D01*
X16476D01*
X17094Y237543D01*
X17567Y238016D01*
X17823Y238634D01*
Y239303D01*
X17567Y239921D01*
X17094Y240394D01*
X16476Y240650D01*
D02*
G37*
G36*
X156634Y238689D02*
X155965D01*
X155347Y238433D01*
X154874Y237960D01*
X154618Y237342D01*
Y236673D01*
X154874Y236056D01*
X155347Y235583D01*
X155965Y235327D01*
X156634D01*
X157252Y235583D01*
X157724Y236056D01*
X157980Y236673D01*
Y237342D01*
X157724Y237960D01*
X157252Y238433D01*
X156634Y238689D01*
D02*
G37*
G36*
X190492Y238591D02*
X189823D01*
X189205Y238335D01*
X188732Y237862D01*
X188476Y237244D01*
Y236575D01*
X188732Y235957D01*
X189205Y235484D01*
X189823Y235228D01*
X190492D01*
X191110Y235484D01*
X191583Y235957D01*
X191839Y236575D01*
Y237244D01*
X191583Y237862D01*
X191110Y238335D01*
X190492Y238591D01*
D02*
G37*
G36*
X37009Y236858D02*
X36219D01*
X35456Y236654D01*
X34772Y236259D01*
X34214Y235700D01*
X33819Y235016D01*
X33614Y234253D01*
Y233463D01*
X33819Y232700D01*
X34214Y232016D01*
X34772Y231458D01*
X35456Y231063D01*
X36219Y230858D01*
X37009D01*
X37772Y231063D01*
X38456Y231458D01*
X39015Y232016D01*
X39410Y232700D01*
X39614Y233463D01*
Y234253D01*
X39410Y235016D01*
X39015Y235700D01*
X38456Y236259D01*
X37772Y236654D01*
X37009Y236858D01*
D02*
G37*
G36*
X20965Y223630D02*
X20374D01*
X19828Y223404D01*
X19411Y222987D01*
X19185Y222441D01*
Y221850D01*
X19411Y221305D01*
X19828Y220887D01*
X20374Y220661D01*
X20965D01*
X21510Y220887D01*
X21928Y221305D01*
X22153Y221850D01*
Y222441D01*
X21928Y222987D01*
X21510Y223404D01*
X20965Y223630D01*
D02*
G37*
G36*
X16634D02*
X16043D01*
X15498Y223404D01*
X15080Y222987D01*
X14854Y222441D01*
Y221850D01*
X15080Y221305D01*
X15498Y220887D01*
X16043Y220661D01*
X16634D01*
X17179Y220887D01*
X17597Y221305D01*
X17823Y221850D01*
Y222441D01*
X17597Y222987D01*
X17179Y223404D01*
X16634Y223630D01*
D02*
G37*
G36*
X9389Y221760D02*
X8721D01*
X8103Y221504D01*
X7630Y221031D01*
X7374Y220413D01*
Y219744D01*
X7630Y219126D01*
X8103Y218653D01*
X8721Y218398D01*
X9389D01*
X10007Y218653D01*
X10480Y219126D01*
X10736Y219744D01*
Y220413D01*
X10480Y221031D01*
X10007Y221504D01*
X9389Y221760D01*
D02*
G37*
G36*
X28287Y216642D02*
X27618D01*
X27001Y216386D01*
X26528Y215913D01*
X26272Y215295D01*
Y214626D01*
X26528Y214008D01*
X27001Y213535D01*
X27618Y213280D01*
X28287D01*
X28905Y213535D01*
X29378Y214008D01*
X29634Y214626D01*
Y215295D01*
X29378Y215913D01*
X28905Y216386D01*
X28287Y216642D01*
D02*
G37*
G36*
X31830Y225697D02*
X31162D01*
X30544Y225441D01*
X30071Y224968D01*
X29815Y224350D01*
Y223681D01*
X30071Y223063D01*
X30544Y222590D01*
X30727Y222515D01*
Y221973D01*
X30544Y221898D01*
X30071Y221425D01*
X29815Y220807D01*
Y220138D01*
X30071Y219520D01*
X30544Y219047D01*
X30727Y218971D01*
Y218430D01*
X30544Y218354D01*
X30071Y217881D01*
X29815Y217264D01*
Y216595D01*
X30071Y215977D01*
X30544Y215504D01*
X30727Y215428D01*
Y214887D01*
X30544Y214811D01*
X30071Y214338D01*
X29815Y213720D01*
Y213052D01*
X30071Y212434D01*
X30544Y211961D01*
X30727Y211885D01*
Y211344D01*
X30544Y211268D01*
X30071Y210795D01*
X29960Y210526D01*
X29370Y210409D01*
X29299Y210480D01*
X28681Y210736D01*
X28012D01*
X27394Y210480D01*
X26921Y210007D01*
X26665Y209389D01*
Y208721D01*
X26921Y208103D01*
X27394Y207630D01*
X28012Y207374D01*
X28681D01*
X29299Y207630D01*
X29772Y208103D01*
X29883Y208371D01*
X30473Y208488D01*
X30544Y208417D01*
X31162Y208161D01*
X31830D01*
X32448Y208417D01*
X32921Y208890D01*
X33177Y209508D01*
Y210177D01*
X32921Y210795D01*
X32448Y211268D01*
X32265Y211344D01*
Y211885D01*
X32448Y211961D01*
X32921Y212434D01*
X33177Y213052D01*
Y213720D01*
X32921Y214338D01*
X32448Y214811D01*
X32265Y214887D01*
Y215428D01*
X32448Y215504D01*
X32921Y215977D01*
X33177Y216595D01*
Y217264D01*
X32921Y217881D01*
X32448Y218354D01*
X32265Y218430D01*
Y218971D01*
X32448Y219047D01*
X32921Y219520D01*
X33177Y220138D01*
Y220807D01*
X32921Y221425D01*
X32448Y221898D01*
X32265Y221973D01*
Y222515D01*
X32448Y222590D01*
X32921Y223063D01*
X33177Y223681D01*
Y224350D01*
X32921Y224968D01*
X32448Y225441D01*
X31830Y225697D01*
D02*
G37*
G36*
X37797Y206150D02*
X37007D01*
X36244Y205945D01*
X35560Y205550D01*
X35001Y204992D01*
X34729Y204521D01*
X34168D01*
X33897Y204992D01*
X33338Y205550D01*
X32654Y205945D01*
X31891Y206150D01*
X31101D01*
X30338Y205945D01*
X29654Y205550D01*
X29095Y204992D01*
X28701Y204308D01*
X28496Y203545D01*
Y202755D01*
X28701Y201992D01*
X29095Y201308D01*
X29654Y200749D01*
X30338Y200354D01*
X31101Y200150D01*
X31891D01*
X32654Y200354D01*
X33338Y200749D01*
X33897Y201308D01*
X34168Y201778D01*
X34729D01*
X35001Y201308D01*
X35560Y200749D01*
X36244Y200354D01*
X37007Y200150D01*
X37797D01*
X38560Y200354D01*
X39244Y200749D01*
X39802Y201308D01*
X40197Y201992D01*
X40402Y202755D01*
Y203545D01*
X40197Y204308D01*
X39802Y204992D01*
X39244Y205550D01*
X38560Y205945D01*
X37797Y206150D01*
D02*
G37*
G36*
X10571Y207193D02*
X9902D01*
X9284Y206937D01*
X8811Y206464D01*
X8555Y205846D01*
Y205177D01*
X8811Y204560D01*
X9284Y204087D01*
X9902Y203831D01*
X10571D01*
X11188Y204087D01*
X11661Y204560D01*
X11917Y205177D01*
Y205846D01*
X11661Y206464D01*
X11188Y206937D01*
X10571Y207193D01*
D02*
G37*
G36*
X76319Y194201D02*
X75650D01*
X75032Y193945D01*
X74559Y193472D01*
X74303Y192854D01*
Y192185D01*
X74559Y191567D01*
X75032Y191095D01*
X75650Y190839D01*
X76319D01*
X76937Y191095D01*
X77409Y191567D01*
X77665Y192185D01*
Y192854D01*
X77409Y193472D01*
X76937Y193945D01*
X76319Y194201D01*
D02*
G37*
G36*
X18107Y192755D02*
X17302D01*
X16524Y192546D01*
X15826Y192143D01*
X15257Y191574D01*
X14854Y190876D01*
X14645Y190098D01*
Y189293D01*
X14854Y188515D01*
X15257Y187817D01*
X15826Y187248D01*
X16524Y186845D01*
X17302Y186637D01*
X18107D01*
X18885Y186845D01*
X19583Y187248D01*
X20152Y187817D01*
X20555Y188515D01*
X20763Y189293D01*
Y190098D01*
X20555Y190876D01*
X20152Y191574D01*
X19583Y192143D01*
X18885Y192546D01*
X18107Y192755D01*
D02*
G37*
G36*
X60964Y197744D02*
X60296D01*
X59678Y197488D01*
X59205Y197015D01*
X58949Y196397D01*
Y195954D01*
X54942Y191948D01*
X54701Y191587D01*
X54616Y191161D01*
X54616Y191161D01*
Y189171D01*
X54303Y188858D01*
X54047Y188240D01*
Y187571D01*
X54303Y186953D01*
X54776Y186480D01*
X55394Y186224D01*
X56063D01*
X56681Y186480D01*
X57154Y186953D01*
X57410Y187571D01*
Y188240D01*
X57154Y188858D01*
X56840Y189171D01*
Y190701D01*
X60521Y194382D01*
X60964D01*
X61582Y194638D01*
X62055Y195111D01*
X62311Y195729D01*
Y196397D01*
X62055Y197015D01*
X61582Y197488D01*
X60964Y197744D01*
D02*
G37*
G36*
X81449Y179880D02*
X80781D01*
X80163Y179624D01*
X79690Y179151D01*
X79434Y178533D01*
Y177865D01*
X79690Y177247D01*
X80163Y176774D01*
X80781Y176518D01*
X81449D01*
X82067Y176774D01*
X82540Y177247D01*
X82796Y177865D01*
Y178533D01*
X82540Y179151D01*
X82067Y179624D01*
X81449Y179880D01*
D02*
G37*
G36*
X61783Y179465D02*
X61114D01*
X60497Y179209D01*
X60024Y178736D01*
X59768Y178118D01*
Y177449D01*
X60024Y176831D01*
X60497Y176358D01*
X61114Y176102D01*
X61783D01*
X62401Y176358D01*
X62874Y176831D01*
X63130Y177449D01*
Y178118D01*
X62874Y178736D01*
X62401Y179209D01*
X61783Y179465D01*
D02*
G37*
G36*
X63327Y174122D02*
X62658D01*
X62040Y173866D01*
X61567Y173393D01*
X61311Y172775D01*
Y172107D01*
X61567Y171489D01*
X62040Y171016D01*
X62658Y170760D01*
X63327D01*
X63945Y171016D01*
X64417Y171489D01*
X64673Y172107D01*
Y172775D01*
X64417Y173393D01*
X63945Y173866D01*
X63327Y174122D01*
D02*
G37*
G36*
X27027Y175759D02*
X26237D01*
X25474Y175554D01*
X24790Y175159D01*
X24232Y174601D01*
X23837Y173917D01*
X23632Y173154D01*
Y172364D01*
X23837Y171601D01*
X24232Y170917D01*
X24790Y170358D01*
X25474Y169963D01*
X26237Y169759D01*
X27027D01*
X27790Y169963D01*
X28474Y170358D01*
X29033Y170917D01*
X29428Y171601D01*
X29632Y172364D01*
Y173154D01*
X29428Y173917D01*
X29033Y174601D01*
X28474Y175159D01*
X27790Y175554D01*
X27027Y175759D01*
D02*
G37*
G36*
X9045Y175758D02*
X8255D01*
X7492Y175553D01*
X6808Y175158D01*
X6249Y174600D01*
X5855Y173916D01*
X5650Y173153D01*
Y172363D01*
X5855Y171600D01*
X6249Y170916D01*
X6808Y170357D01*
X7492Y169962D01*
X8255Y169758D01*
X9045D01*
X9808Y169962D01*
X10492Y170357D01*
X11051Y170916D01*
X11446Y171600D01*
X11650Y172363D01*
Y173153D01*
X11446Y173916D01*
X11051Y174600D01*
X10492Y175158D01*
X9808Y175553D01*
X9045Y175758D01*
D02*
G37*
G36*
X18107Y173661D02*
X17302D01*
X16524Y173452D01*
X15826Y173049D01*
X15257Y172480D01*
X14854Y171782D01*
X14645Y171004D01*
Y170199D01*
X14854Y169421D01*
X15257Y168723D01*
X15826Y168154D01*
X16524Y167751D01*
X17302Y167543D01*
X18107D01*
X18885Y167751D01*
X19583Y168154D01*
X20152Y168723D01*
X20555Y169421D01*
X20763Y170199D01*
Y171004D01*
X20555Y171782D01*
X20152Y172480D01*
X19583Y173049D01*
X18885Y173452D01*
X18107Y173661D01*
D02*
G37*
G36*
X253483Y230311D02*
X253338D01*
Y227561D01*
X256087D01*
Y227706D01*
X255883Y228469D01*
X255488Y229153D01*
X254930Y229711D01*
X254245Y230106D01*
X253483Y230311D01*
D02*
G37*
G36*
X243482D02*
X243338D01*
Y227561D01*
X246088D01*
Y227706D01*
X245883Y228469D01*
X245488Y229153D01*
X244930Y229711D01*
X244246Y230106D01*
X243482Y230311D01*
D02*
G37*
G36*
X252838D02*
X252693D01*
X251930Y230106D01*
X251245Y229711D01*
X250687Y229153D01*
X250292Y228469D01*
X250087Y227706D01*
Y227561D01*
X252838D01*
Y230311D01*
D02*
G37*
G36*
X242838D02*
X242693D01*
X241930Y230106D01*
X241246Y229711D01*
X240687Y229153D01*
X240292Y228469D01*
X240088Y227706D01*
Y227561D01*
X242838D01*
Y230311D01*
D02*
G37*
G36*
X383483D02*
X382693D01*
X381930Y230106D01*
X381245Y229711D01*
X380687Y229153D01*
X380292Y228469D01*
X380087Y227706D01*
Y226916D01*
X380292Y226153D01*
X380687Y225469D01*
X381245Y224910D01*
X381930Y224515D01*
X382693Y224311D01*
X383483D01*
X384245Y224515D01*
X384930Y224910D01*
X385488Y225469D01*
X385883Y226153D01*
X386087Y226916D01*
Y227706D01*
X385883Y228469D01*
X385488Y229153D01*
X384930Y229711D01*
X384245Y230106D01*
X383483Y230311D01*
D02*
G37*
G36*
X373482D02*
X372693D01*
X371930Y230106D01*
X371246Y229711D01*
X370687Y229153D01*
X370292Y228469D01*
X370088Y227706D01*
Y226916D01*
X370292Y226153D01*
X370687Y225469D01*
X371246Y224910D01*
X371930Y224515D01*
X372693Y224311D01*
X373482D01*
X374246Y224515D01*
X374930Y224910D01*
X375488Y225469D01*
X375883Y226153D01*
X376087Y226916D01*
Y227706D01*
X375883Y228469D01*
X375488Y229153D01*
X374930Y229711D01*
X374246Y230106D01*
X373482Y230311D01*
D02*
G37*
G36*
X363482D02*
X362693D01*
X361930Y230106D01*
X361245Y229711D01*
X360687Y229153D01*
X360292Y228469D01*
X360087Y227706D01*
Y226916D01*
X360292Y226153D01*
X360687Y225469D01*
X361245Y224910D01*
X361930Y224515D01*
X362693Y224311D01*
X363482D01*
X364246Y224515D01*
X364930Y224910D01*
X365488Y225469D01*
X365883Y226153D01*
X366088Y226916D01*
Y227706D01*
X365883Y228469D01*
X365488Y229153D01*
X364930Y229711D01*
X364246Y230106D01*
X363482Y230311D01*
D02*
G37*
G36*
X353483D02*
X352693D01*
X351930Y230106D01*
X351245Y229711D01*
X350687Y229153D01*
X350292Y228469D01*
X350087Y227706D01*
Y226916D01*
X350292Y226153D01*
X350687Y225469D01*
X351245Y224910D01*
X351930Y224515D01*
X352693Y224311D01*
X353483D01*
X354245Y224515D01*
X354930Y224910D01*
X355488Y225469D01*
X355883Y226153D01*
X356087Y226916D01*
Y227706D01*
X355883Y228469D01*
X355488Y229153D01*
X354930Y229711D01*
X354245Y230106D01*
X353483Y230311D01*
D02*
G37*
G36*
X343482D02*
X342693D01*
X341930Y230106D01*
X341246Y229711D01*
X340687Y229153D01*
X340292Y228469D01*
X340088Y227706D01*
Y226916D01*
X340292Y226153D01*
X340687Y225469D01*
X341246Y224910D01*
X341930Y224515D01*
X342693Y224311D01*
X343482D01*
X344246Y224515D01*
X344930Y224910D01*
X345488Y225469D01*
X345883Y226153D01*
X346088Y226916D01*
Y227706D01*
X345883Y228469D01*
X345488Y229153D01*
X344930Y229711D01*
X344246Y230106D01*
X343482Y230311D01*
D02*
G37*
G36*
X333483D02*
X332693D01*
X331930Y230106D01*
X331245Y229711D01*
X330687Y229153D01*
X330292Y228469D01*
X330087Y227706D01*
Y226916D01*
X330292Y226153D01*
X330687Y225469D01*
X331245Y224910D01*
X331930Y224515D01*
X332693Y224311D01*
X333483D01*
X334245Y224515D01*
X334930Y224910D01*
X335488Y225469D01*
X335883Y226153D01*
X336087Y226916D01*
Y227706D01*
X335883Y228469D01*
X335488Y229153D01*
X334930Y229711D01*
X334245Y230106D01*
X333483Y230311D01*
D02*
G37*
G36*
X323482D02*
X322693D01*
X321930Y230106D01*
X321246Y229711D01*
X320687Y229153D01*
X320292Y228469D01*
X320088Y227706D01*
Y226916D01*
X320292Y226153D01*
X320687Y225469D01*
X321246Y224910D01*
X321930Y224515D01*
X322693Y224311D01*
X323482D01*
X324246Y224515D01*
X324930Y224910D01*
X325488Y225469D01*
X325883Y226153D01*
X326087Y226916D01*
Y227706D01*
X325883Y228469D01*
X325488Y229153D01*
X324930Y229711D01*
X324246Y230106D01*
X323482Y230311D01*
D02*
G37*
G36*
X313482D02*
X312693D01*
X311930Y230106D01*
X311245Y229711D01*
X310687Y229153D01*
X310292Y228469D01*
X310087Y227706D01*
Y226916D01*
X310292Y226153D01*
X310687Y225469D01*
X311245Y224910D01*
X311930Y224515D01*
X312693Y224311D01*
X313482D01*
X314246Y224515D01*
X314930Y224910D01*
X315488Y225469D01*
X315883Y226153D01*
X316088Y226916D01*
Y227706D01*
X315883Y228469D01*
X315488Y229153D01*
X314930Y229711D01*
X314246Y230106D01*
X313482Y230311D01*
D02*
G37*
G36*
X303483D02*
X302693D01*
X301930Y230106D01*
X301245Y229711D01*
X300687Y229153D01*
X300292Y228469D01*
X300087Y227706D01*
Y226916D01*
X300292Y226153D01*
X300687Y225469D01*
X301245Y224910D01*
X301930Y224515D01*
X302693Y224311D01*
X303483D01*
X304245Y224515D01*
X304930Y224910D01*
X305488Y225469D01*
X305883Y226153D01*
X306087Y226916D01*
Y227706D01*
X305883Y228469D01*
X305488Y229153D01*
X304930Y229711D01*
X304245Y230106D01*
X303483Y230311D01*
D02*
G37*
G36*
X293482D02*
X292693D01*
X291930Y230106D01*
X291246Y229711D01*
X290687Y229153D01*
X290292Y228469D01*
X290088Y227706D01*
Y226916D01*
X290292Y226153D01*
X290687Y225469D01*
X291246Y224910D01*
X291930Y224515D01*
X292693Y224311D01*
X293482D01*
X294246Y224515D01*
X294930Y224910D01*
X295488Y225469D01*
X295883Y226153D01*
X296088Y226916D01*
Y227706D01*
X295883Y228469D01*
X295488Y229153D01*
X294930Y229711D01*
X294246Y230106D01*
X293482Y230311D01*
D02*
G37*
G36*
X283483D02*
X282693D01*
X281930Y230106D01*
X281245Y229711D01*
X280687Y229153D01*
X280292Y228469D01*
X280087Y227706D01*
Y226916D01*
X280292Y226153D01*
X280687Y225469D01*
X281245Y224910D01*
X281930Y224515D01*
X282693Y224311D01*
X283483D01*
X284245Y224515D01*
X284930Y224910D01*
X285488Y225469D01*
X285883Y226153D01*
X286087Y226916D01*
Y227706D01*
X285883Y228469D01*
X285488Y229153D01*
X284930Y229711D01*
X284245Y230106D01*
X283483Y230311D01*
D02*
G37*
G36*
X273482D02*
X272693D01*
X271930Y230106D01*
X271246Y229711D01*
X270687Y229153D01*
X270292Y228469D01*
X270088Y227706D01*
Y226916D01*
X270292Y226153D01*
X270687Y225469D01*
X271246Y224910D01*
X271930Y224515D01*
X272693Y224311D01*
X273482D01*
X274246Y224515D01*
X274930Y224910D01*
X275488Y225469D01*
X275883Y226153D01*
X276087Y226916D01*
Y227706D01*
X275883Y228469D01*
X275488Y229153D01*
X274930Y229711D01*
X274246Y230106D01*
X273482Y230311D01*
D02*
G37*
G36*
X263482D02*
X262693D01*
X261930Y230106D01*
X261245Y229711D01*
X260687Y229153D01*
X260292Y228469D01*
X260087Y227706D01*
Y226916D01*
X260292Y226153D01*
X260687Y225469D01*
X261245Y224910D01*
X261930Y224515D01*
X262693Y224311D01*
X263482D01*
X264246Y224515D01*
X264930Y224910D01*
X265488Y225469D01*
X265883Y226153D01*
X266088Y226916D01*
Y227706D01*
X265883Y228469D01*
X265488Y229153D01*
X264930Y229711D01*
X264246Y230106D01*
X263482Y230311D01*
D02*
G37*
G36*
X256087Y227061D02*
X253338D01*
Y224311D01*
X253483D01*
X254245Y224515D01*
X254930Y224910D01*
X255488Y225469D01*
X255883Y226153D01*
X256087Y226916D01*
Y227061D01*
D02*
G37*
G36*
X252838D02*
X250087D01*
Y226916D01*
X250292Y226153D01*
X250687Y225469D01*
X251245Y224910D01*
X251930Y224515D01*
X252693Y224311D01*
X252838D01*
Y227061D01*
D02*
G37*
G36*
X246088D02*
X243338D01*
Y224311D01*
X243482D01*
X244246Y224515D01*
X244930Y224910D01*
X245488Y225469D01*
X245883Y226153D01*
X246088Y226916D01*
Y227061D01*
D02*
G37*
G36*
X242838D02*
X240088D01*
Y226916D01*
X240292Y226153D01*
X240687Y225469D01*
X241246Y224910D01*
X241930Y224515D01*
X242693Y224311D01*
X242838D01*
Y227061D01*
D02*
G37*
G36*
X233483Y230311D02*
X232693D01*
X231930Y230106D01*
X231245Y229711D01*
X230687Y229153D01*
X230292Y228469D01*
X230087Y227706D01*
Y226916D01*
X230292Y226153D01*
X230687Y225469D01*
X231245Y224910D01*
X231930Y224515D01*
X232693Y224311D01*
X233483D01*
X234245Y224515D01*
X234930Y224910D01*
X235488Y225469D01*
X235883Y226153D01*
X236087Y226916D01*
Y227706D01*
X235883Y228469D01*
X235488Y229153D01*
X234930Y229711D01*
X234245Y230106D01*
X233483Y230311D01*
D02*
G37*
G36*
X223482D02*
X222693D01*
X221930Y230106D01*
X221246Y229711D01*
X220687Y229153D01*
X220292Y228469D01*
X220088Y227706D01*
Y226916D01*
X220292Y226153D01*
X220687Y225469D01*
X221246Y224910D01*
X221930Y224515D01*
X222693Y224311D01*
X223482D01*
X224246Y224515D01*
X224930Y224910D01*
X225488Y225469D01*
X225883Y226153D01*
X226087Y226916D01*
Y227706D01*
X225883Y228469D01*
X225488Y229153D01*
X224930Y229711D01*
X224246Y230106D01*
X223482Y230311D01*
D02*
G37*
G36*
X55413Y158236D02*
X54744D01*
X54488Y158130D01*
X50552Y158130D01*
X50295Y158236D01*
X49626D01*
X49370Y158130D01*
X44252Y158130D01*
X43996Y158236D01*
X43327D01*
X43070Y158130D01*
X41693D01*
X38150Y154587D01*
Y143169D01*
X32638Y137657D01*
Y85295D01*
X36968Y80965D01*
X51535D01*
X55472Y84902D01*
Y101437D01*
X53504Y103405D01*
Y109705D01*
X54291Y110492D01*
X59131D01*
X59286Y110337D01*
X59904Y110081D01*
X60572D01*
X61190Y110337D01*
X61663Y110810D01*
X61919Y111428D01*
Y112097D01*
X61913Y112112D01*
X62559Y112759D01*
Y118760D01*
X63740Y119941D01*
X73189D01*
Y124312D01*
X63387D01*
X61378Y122303D01*
X58622D01*
X58420Y122506D01*
Y130729D01*
X61219D01*
X62559Y129390D01*
Y127584D01*
X73189D01*
Y132146D01*
X63740D01*
X62559Y133327D01*
Y134902D01*
X62165Y135295D01*
X61250D01*
X60964Y135413D01*
X60295D01*
X60010Y135295D01*
X57047D01*
Y140413D01*
X59664Y143030D01*
X60254Y142913D01*
X60305Y142788D01*
X60778Y142315D01*
X61396Y142060D01*
X62065D01*
X62682Y142315D01*
X63155Y142788D01*
X63411Y143406D01*
Y144075D01*
X63155Y144693D01*
X62682Y145166D01*
X62065Y145422D01*
X61396D01*
X61090Y145295D01*
X60590Y145629D01*
Y154193D01*
X56653Y158130D01*
X55670D01*
X55413Y158236D01*
D02*
G37*
G36*
X78914Y158413D02*
X78245D01*
X77628Y158158D01*
X77155Y157685D01*
X76899Y157067D01*
Y156398D01*
X77155Y155780D01*
X77628Y155307D01*
X78245Y155051D01*
X78914D01*
X79532Y155307D01*
X80005Y155780D01*
X80261Y156398D01*
Y157067D01*
X80005Y157685D01*
X79532Y158158D01*
X78914Y158413D01*
D02*
G37*
G36*
X92460Y158374D02*
X91792D01*
X91174Y158118D01*
X90701Y157645D01*
X90445Y157027D01*
Y156359D01*
X90701Y155741D01*
X91174Y155268D01*
X91792Y155012D01*
X92460D01*
X93078Y155268D01*
X93551Y155741D01*
X93807Y156359D01*
Y157027D01*
X93551Y157645D01*
X93078Y158118D01*
X92460Y158374D01*
D02*
G37*
G36*
X196791Y149319D02*
X196122D01*
X195504Y149063D01*
X195352Y148911D01*
X195026Y148596D01*
X194699Y148911D01*
X194547Y149063D01*
X193929Y149319D01*
X193260D01*
X192642Y149063D01*
X192490Y148911D01*
X192163Y148596D01*
X191837Y148911D01*
X191684Y149063D01*
X191067Y149319D01*
X190398D01*
X189780Y149063D01*
X189628Y148911D01*
X189301Y148596D01*
X188974Y148911D01*
X188822Y149063D01*
X188204Y149319D01*
X187536D01*
X186918Y149063D01*
X186766Y148911D01*
X186439Y148596D01*
X186112Y148911D01*
X185960Y149063D01*
X185342Y149319D01*
X184674D01*
X184056Y149063D01*
X183904Y148911D01*
X183577Y148596D01*
X183250Y148911D01*
X183098Y149063D01*
X182480Y149319D01*
X181811D01*
X181193Y149063D01*
X180720Y148590D01*
X180464Y147972D01*
Y147830D01*
X179964Y147731D01*
X179772Y148196D01*
X179299Y148669D01*
X178681Y148925D01*
X178012D01*
X177394Y148669D01*
X177242Y148517D01*
X176915Y148202D01*
X176589Y148517D01*
X176436Y148669D01*
X175819Y148925D01*
X175150D01*
X174532Y148669D01*
X174380Y148517D01*
X174053Y148202D01*
X173726Y148517D01*
X173574Y148669D01*
X172956Y148925D01*
X172288D01*
X171670Y148669D01*
X171197Y148196D01*
X170941Y147579D01*
Y146910D01*
X171197Y146292D01*
X171670Y145819D01*
X172137Y145625D01*
X196698Y121064D01*
X196744Y121033D01*
Y120925D01*
X197000Y120308D01*
X197473Y119835D01*
X198091Y119579D01*
X198760D01*
X199378Y119835D01*
X199850Y120308D01*
X200106Y120925D01*
Y121594D01*
X199850Y122212D01*
X199698Y122364D01*
X199383Y122691D01*
X199698Y123018D01*
X199850Y123170D01*
X200106Y123788D01*
Y124457D01*
X199850Y125074D01*
X199698Y125227D01*
X199383Y125553D01*
X199698Y125880D01*
X199850Y126032D01*
X200106Y126650D01*
Y127319D01*
X199850Y127937D01*
X199698Y128089D01*
X199383Y128415D01*
X199698Y128742D01*
X199850Y128894D01*
X200106Y129512D01*
Y130181D01*
X199850Y130799D01*
X199698Y130951D01*
X199383Y131278D01*
X199698Y131604D01*
X199850Y131756D01*
X200106Y132374D01*
Y133043D01*
X199850Y133661D01*
X199698Y133813D01*
X199383Y134140D01*
X199698Y134466D01*
X199850Y134619D01*
X200106Y135237D01*
Y135905D01*
X199850Y136523D01*
X199698Y136675D01*
X199383Y137002D01*
X199698Y137329D01*
X199850Y137481D01*
X200106Y138099D01*
Y138768D01*
X199850Y139385D01*
X199698Y139538D01*
X199383Y139864D01*
X199698Y140191D01*
X199850Y140343D01*
X200106Y140961D01*
Y141630D01*
X199850Y142248D01*
X199698Y142400D01*
X199383Y142726D01*
X199698Y143053D01*
X199850Y143205D01*
X200106Y143823D01*
Y144492D01*
X199850Y145110D01*
X199378Y145583D01*
X198760Y145839D01*
X198317D01*
X197882Y146273D01*
X197882Y146686D01*
X198138Y147303D01*
Y147972D01*
X197882Y148590D01*
X197409Y149063D01*
X196791Y149319D01*
D02*
G37*
G36*
X84547Y148000D02*
X83878D01*
X83260Y147744D01*
X82788Y147271D01*
X82531Y146653D01*
Y145984D01*
X82788Y145367D01*
X83260Y144894D01*
X83878Y144638D01*
X84547D01*
X85165Y144894D01*
X85638Y145367D01*
X85894Y145984D01*
Y146653D01*
X85638Y147271D01*
X85165Y147744D01*
X84547Y148000D01*
D02*
G37*
G36*
X134586Y144457D02*
X133918D01*
X133300Y144201D01*
X132827Y143728D01*
X132571Y143110D01*
Y142441D01*
X132827Y141823D01*
X133300Y141350D01*
X133918Y141095D01*
X134586D01*
X135204Y141350D01*
X135677Y141823D01*
X135933Y142441D01*
Y143110D01*
X135677Y143728D01*
X135204Y144201D01*
X134586Y144457D01*
D02*
G37*
G36*
X14083Y134713D02*
X10486D01*
Y131116D01*
X14083D01*
Y134713D01*
D02*
G37*
G36*
X9986D02*
X6390D01*
Y131116D01*
X9986D01*
Y134713D01*
D02*
G37*
G36*
X16870Y132390D02*
X16201D01*
X15583Y132134D01*
X15110Y131661D01*
X14854Y131043D01*
Y130374D01*
X15110Y129756D01*
X15583Y129283D01*
X16201Y129028D01*
X16870D01*
X17488Y129283D01*
X17961Y129756D01*
X18216Y130374D01*
Y131043D01*
X17961Y131661D01*
X17488Y132134D01*
X16870Y132390D01*
D02*
G37*
G36*
X14083Y130616D02*
X10486D01*
Y127020D01*
X14083D01*
Y130616D01*
D02*
G37*
G36*
X9986D02*
X6390D01*
Y127020D01*
X9986D01*
Y130616D01*
D02*
G37*
G36*
X443248Y129240D02*
X442579D01*
X441961Y128984D01*
X441488Y128511D01*
X441232Y127893D01*
Y127225D01*
X441488Y126607D01*
X441961Y126134D01*
X442579Y125878D01*
X443248D01*
X443866Y126134D01*
X444339Y126607D01*
X444594Y127225D01*
Y127893D01*
X444339Y128511D01*
X443866Y128984D01*
X443248Y129240D01*
D02*
G37*
G36*
X443551Y124909D02*
X442882D01*
X442264Y124653D01*
X441951Y124340D01*
X431890D01*
X431464Y124256D01*
X431104Y124015D01*
X431104Y124014D01*
X427668Y120579D01*
X427225D01*
X426607Y120323D01*
X426134Y119850D01*
X425878Y119232D01*
Y118563D01*
X426134Y117945D01*
X426607Y117473D01*
X426782Y117400D01*
X426977Y116779D01*
X426889Y116642D01*
X426831D01*
X426213Y116386D01*
X425740Y115913D01*
X425484Y115295D01*
Y114626D01*
X425740Y114008D01*
X426213Y113535D01*
X426772Y113304D01*
X426993Y112818D01*
X426537Y112362D01*
X425449D01*
X425362Y112449D01*
X424744Y112705D01*
X424075D01*
X423457Y112449D01*
X422984Y111976D01*
X422728Y111358D01*
Y110689D01*
X422984Y110071D01*
X423457Y109599D01*
X424075Y109343D01*
X424744D01*
X425362Y109599D01*
X425835Y110071D01*
X425862Y110138D01*
X426998D01*
X426998Y110138D01*
X427423Y110222D01*
X427784Y110463D01*
X430600Y113280D01*
X431043D01*
X431661Y113535D01*
X432134Y114008D01*
X432390Y114626D01*
Y115295D01*
X432134Y115913D01*
X431661Y116386D01*
X431102Y116618D01*
X430881Y117104D01*
X431563Y117786D01*
X442041D01*
X442355Y117473D01*
X442973Y117217D01*
X443641D01*
X444259Y117473D01*
X444732Y117945D01*
X444988Y118563D01*
Y119232D01*
X444732Y119850D01*
X444259Y120323D01*
X443641Y120579D01*
X442973D01*
X442355Y120323D01*
X442041Y120010D01*
X431103D01*
X431102Y120010D01*
X430913Y119972D01*
X430667Y120433D01*
X432350Y122116D01*
X441951D01*
X442264Y121803D01*
X442882Y121547D01*
X443551D01*
X444169Y121803D01*
X444642Y122276D01*
X444898Y122894D01*
Y123563D01*
X444642Y124181D01*
X444169Y124653D01*
X443551Y124909D01*
D02*
G37*
G36*
X146397Y120189D02*
X145729D01*
X145111Y119933D01*
X144705Y119527D01*
X104323D01*
X104102Y119748D01*
X103484Y120004D01*
X102815D01*
X102197Y119748D01*
X101725Y119275D01*
X101469Y118657D01*
Y117989D01*
X101725Y117371D01*
X101877Y117218D01*
X102192Y116892D01*
X101877Y116565D01*
X101725Y116413D01*
X101469Y115795D01*
Y115126D01*
X101725Y114508D01*
X102197Y114035D01*
X102229Y113875D01*
X101911Y113557D01*
X101655Y112939D01*
Y112270D01*
X101911Y111652D01*
X102231Y111332D01*
X102197Y111161D01*
X101725Y110689D01*
X101469Y110071D01*
Y109402D01*
X101725Y108784D01*
X102197Y108311D01*
X102815Y108055D01*
X103484D01*
X104102Y108311D01*
X104507Y108716D01*
X144889D01*
X145111Y108494D01*
X145729Y108238D01*
X146397D01*
X147015Y108494D01*
X147488Y108967D01*
X147744Y109585D01*
Y110254D01*
X147488Y110872D01*
X147336Y111024D01*
X147021Y111350D01*
X147336Y111677D01*
X147488Y111829D01*
X147744Y112447D01*
Y113116D01*
X147488Y113734D01*
X147336Y113886D01*
X147021Y114213D01*
X147336Y114539D01*
X147488Y114691D01*
X147744Y115309D01*
Y115978D01*
X147488Y116596D01*
X147335Y116749D01*
X147022Y117076D01*
X147335Y117403D01*
X147488Y117556D01*
X147744Y118174D01*
Y118843D01*
X147488Y119461D01*
X147015Y119933D01*
X146397Y120189D01*
D02*
G37*
G36*
X16870Y122153D02*
X16201D01*
X15583Y121898D01*
X15110Y121425D01*
X14854Y120807D01*
Y120138D01*
X15110Y119520D01*
X15583Y119047D01*
X16201Y118791D01*
X16870D01*
X17488Y119047D01*
X17961Y119520D01*
X18216Y120138D01*
Y120807D01*
X17961Y121425D01*
X17488Y121898D01*
X16870Y122153D01*
D02*
G37*
G36*
X10742Y124713D02*
X9730D01*
X8751Y124450D01*
X7874Y123944D01*
X7158Y123228D01*
X6652Y122351D01*
X6390Y121372D01*
Y120360D01*
X6652Y119381D01*
X7158Y118504D01*
X7874Y117788D01*
X8751Y117282D01*
X9730Y117020D01*
X10742D01*
X11721Y117282D01*
X12598Y117788D01*
X13314Y118504D01*
X13821Y119381D01*
X14083Y120360D01*
Y121372D01*
X13821Y122351D01*
X13314Y123228D01*
X12598Y123944D01*
X11721Y124450D01*
X10742Y124713D01*
D02*
G37*
G36*
X16870Y112311D02*
X16201D01*
X15583Y112055D01*
X15110Y111582D01*
X14854Y110964D01*
Y110295D01*
X15110Y109678D01*
X15583Y109205D01*
X16201Y108949D01*
X16870D01*
X17488Y109205D01*
X17961Y109678D01*
X18216Y110295D01*
Y110964D01*
X17961Y111582D01*
X17488Y112055D01*
X16870Y112311D01*
D02*
G37*
G36*
X75925Y121366D02*
X75256D01*
X74638Y121110D01*
X74165Y120637D01*
X73909Y120019D01*
Y119351D01*
X74165Y118733D01*
X74638Y118260D01*
X75256Y118004D01*
X75699D01*
X79320Y114383D01*
Y114056D01*
X79320Y114056D01*
X79405Y113631D01*
X79646Y113270D01*
X79646Y113270D01*
X83752Y109164D01*
Y108721D01*
X84008Y108103D01*
X84481Y107630D01*
X85099Y107374D01*
X85767D01*
X86385Y107630D01*
X86858Y108103D01*
X87114Y108721D01*
Y109389D01*
X86858Y110007D01*
X86385Y110480D01*
X85767Y110736D01*
X85325D01*
X81544Y114517D01*
Y114844D01*
X81459Y115269D01*
X81218Y115630D01*
X81218Y115630D01*
X77272Y119577D01*
Y120019D01*
X77016Y120637D01*
X76543Y121110D01*
X75925Y121366D01*
D02*
G37*
G36*
X10742Y114713D02*
X9730D01*
X8751Y114450D01*
X7874Y113944D01*
X7158Y113228D01*
X6652Y112351D01*
X6390Y111372D01*
Y110360D01*
X6652Y109381D01*
X7158Y108504D01*
X7874Y107788D01*
X8751Y107282D01*
X9730Y107020D01*
X10742D01*
X11721Y107282D01*
X12598Y107788D01*
X13314Y108504D01*
X13821Y109381D01*
X14083Y110360D01*
Y111372D01*
X13821Y112351D01*
X13314Y113228D01*
X12598Y113944D01*
X11721Y114450D01*
X10742Y114713D01*
D02*
G37*
G36*
X152186Y154320D02*
X151517D01*
X150899Y154064D01*
X150426Y153591D01*
X150171Y152973D01*
Y152758D01*
X150162Y152305D01*
X149709Y152296D01*
X149493D01*
X148876Y152041D01*
X148403Y151568D01*
X148147Y150950D01*
Y150734D01*
X148139Y150281D01*
X147685Y150272D01*
X147470D01*
X146852Y150016D01*
X146379Y149544D01*
X146123Y148926D01*
Y148711D01*
X146115Y148257D01*
X145661Y148249D01*
X145446D01*
X144828Y147993D01*
X144355Y147520D01*
X144099Y146902D01*
Y146686D01*
X144091Y146233D01*
X143637Y146225D01*
X143422D01*
X142804Y145969D01*
X142331Y145496D01*
X142075Y144878D01*
Y144663D01*
X142067Y144209D01*
X141613Y144201D01*
X141398D01*
X140780Y143945D01*
X140307Y143472D01*
X140051Y142854D01*
Y142185D01*
X140307Y141567D01*
X140780Y141095D01*
X141398Y140839D01*
X141841D01*
X164242Y118437D01*
Y109927D01*
X163929Y109614D01*
X163673Y108996D01*
Y108327D01*
X163929Y107709D01*
X164402Y107236D01*
X165020Y106980D01*
X165689D01*
X166307Y107236D01*
X166459Y107388D01*
X166786Y107703D01*
X167112Y107388D01*
X167264Y107236D01*
X167882Y106980D01*
X168551D01*
X169169Y107236D01*
X169321Y107388D01*
X169648Y107703D01*
X169974Y107388D01*
X170127Y107236D01*
X170744Y106980D01*
X171413D01*
X172031Y107236D01*
X172504Y107709D01*
X172664Y107741D01*
X172994Y107412D01*
X173612Y107156D01*
X174281D01*
X174899Y107412D01*
X175066Y107579D01*
X175464Y107804D01*
X175719Y107579D01*
X175957Y107342D01*
X176575Y107086D01*
X177243D01*
X177861Y107342D01*
X178244Y107725D01*
X178344Y107705D01*
X178817Y107232D01*
X179435Y106976D01*
X180103D01*
X180721Y107232D01*
X181194Y107705D01*
X181450Y108323D01*
Y108992D01*
X181194Y109610D01*
X180777Y110027D01*
Y124826D01*
X180693Y125251D01*
X180452Y125612D01*
X180452Y125612D01*
X153533Y152531D01*
Y152973D01*
X153277Y153591D01*
X152804Y154064D01*
X152186Y154320D01*
D02*
G37*
G36*
X58169Y109811D02*
X57500D01*
X56882Y109555D01*
X56410Y109082D01*
X56154Y108464D01*
Y107796D01*
X56410Y107178D01*
X56882Y106705D01*
X57500Y106449D01*
X58169D01*
X58787Y106705D01*
X59260Y107178D01*
X59516Y107796D01*
Y108464D01*
X59260Y109082D01*
X58787Y109555D01*
X58169Y109811D01*
D02*
G37*
G36*
X470807Y103256D02*
X470138D01*
X469520Y103000D01*
X469047Y102527D01*
X468791Y101909D01*
Y101241D01*
X469047Y100623D01*
X469520Y100150D01*
X470138Y99894D01*
X470807D01*
X471425Y100150D01*
X471898Y100623D01*
X472154Y101241D01*
Y101909D01*
X471898Y102527D01*
X471425Y103000D01*
X470807Y103256D01*
D02*
G37*
G36*
X10742Y104713D02*
X9730D01*
X8751Y104450D01*
X7874Y103944D01*
X7158Y103228D01*
X6652Y102351D01*
X6390Y101373D01*
Y100360D01*
X6652Y99381D01*
X7158Y98504D01*
X7874Y97788D01*
X8751Y97282D01*
X9730Y97020D01*
X10742D01*
X11721Y97282D01*
X12598Y97788D01*
X13314Y98504D01*
X13821Y99381D01*
X14083Y100360D01*
Y101373D01*
X13821Y102351D01*
X13314Y103228D01*
X12598Y103944D01*
X11721Y104450D01*
X10742Y104713D01*
D02*
G37*
G36*
X470807Y94594D02*
X470138D01*
X469520Y94339D01*
X469047Y93866D01*
X468791Y93248D01*
Y92579D01*
X469047Y91961D01*
X469520Y91488D01*
X470138Y91232D01*
X470807D01*
X471425Y91488D01*
X471898Y91961D01*
X472154Y92579D01*
Y93248D01*
X471898Y93866D01*
X471425Y94339D01*
X470807Y94594D01*
D02*
G37*
G36*
X94429Y121760D02*
X93760D01*
X93142Y121504D01*
X92669Y121031D01*
X92413Y120413D01*
Y119744D01*
X92669Y119126D01*
X92983Y118813D01*
Y97069D01*
X92983Y97069D01*
X93067Y96643D01*
X93308Y96282D01*
X106246Y83344D01*
Y78862D01*
X106246Y78862D01*
X106331Y78437D01*
X106572Y78076D01*
X106572Y78076D01*
X115642Y69006D01*
Y68563D01*
X115898Y67945D01*
X116371Y67472D01*
X116988Y67217D01*
X117657D01*
X118275Y67472D01*
X118748Y67945D01*
X119004Y68563D01*
Y69232D01*
X118748Y69850D01*
X118275Y70323D01*
X117657Y70579D01*
X117214D01*
X108470Y79323D01*
Y80580D01*
X108932Y80771D01*
X122728Y66975D01*
Y66595D01*
X122984Y65977D01*
X123457Y65504D01*
X124075Y65248D01*
X124744D01*
X125362Y65504D01*
X125835Y65977D01*
X126091Y66595D01*
Y67264D01*
X125835Y67881D01*
X125362Y68354D01*
X124744Y68610D01*
X124238D01*
X120582Y72267D01*
X120706Y72850D01*
X121031Y72984D01*
X121504Y73457D01*
X121760Y74075D01*
Y74744D01*
X121504Y75362D01*
X121031Y75835D01*
X120413Y76091D01*
X119970D01*
X112809Y83252D01*
X113016Y83752D01*
X113327D01*
X113944Y84008D01*
X114417Y84481D01*
X114471Y84610D01*
X115012D01*
X115147Y84284D01*
X115620Y83811D01*
X116238Y83555D01*
X116906D01*
X117524Y83811D01*
X117997Y84284D01*
X118253Y84902D01*
Y85571D01*
X117997Y86189D01*
X117524Y86661D01*
X116906Y86917D01*
X116756D01*
X116549Y87417D01*
X121258Y92127D01*
X121258Y92127D01*
X121500Y92488D01*
X121584Y92913D01*
X121584Y92913D01*
Y100309D01*
X121897Y100622D01*
X122153Y101240D01*
Y101909D01*
X121897Y102527D01*
X121424Y103000D01*
X120807Y103256D01*
X120138D01*
X119520Y103000D01*
X119047Y102527D01*
X118791Y101909D01*
Y101240D01*
X119047Y100622D01*
X119360Y100309D01*
Y93374D01*
X113101Y87114D01*
X112658D01*
X112195Y87463D01*
X112172Y87680D01*
X116928Y92436D01*
X116928Y92436D01*
X117169Y92796D01*
X117253Y93222D01*
Y95191D01*
X117567Y95504D01*
X117823Y96122D01*
Y96791D01*
X117567Y97409D01*
X117094Y97882D01*
X116476Y98138D01*
X115807D01*
X115189Y97882D01*
X114716Y97409D01*
X114460Y96791D01*
Y96122D01*
X114716Y95504D01*
X115030Y95191D01*
Y93682D01*
X109934Y88587D01*
X109693Y88226D01*
X109608Y87801D01*
X109608Y87801D01*
Y87106D01*
X109147Y86914D01*
X99713Y96348D01*
Y96791D01*
X99457Y97409D01*
X98984Y97882D01*
X98366Y98138D01*
X97697D01*
X97079Y97882D01*
X96606Y97409D01*
X96439Y97004D01*
X95888Y96847D01*
X95206Y97529D01*
Y118813D01*
X95520Y119126D01*
X95776Y119744D01*
Y120413D01*
X95520Y121031D01*
X95047Y121504D01*
X94429Y121760D01*
D02*
G37*
G36*
X98326Y82783D02*
X97657D01*
X97039Y82528D01*
X96566Y82055D01*
X96311Y81437D01*
Y81368D01*
X96276Y81345D01*
X96132Y81371D01*
X95719Y81574D01*
X95520Y82055D01*
X95047Y82528D01*
X94429Y82783D01*
X93760D01*
X93142Y82528D01*
X92669Y82055D01*
X92592Y81867D01*
X84646D01*
X84353Y81809D01*
X84105Y81643D01*
X78475Y76013D01*
X78287Y76091D01*
X77618D01*
X77001Y75835D01*
X76528Y75362D01*
X76272Y74744D01*
Y74075D01*
X76528Y73457D01*
X77001Y72984D01*
X77618Y72728D01*
X78287D01*
X78905Y72984D01*
X79378Y73457D01*
X79535Y73837D01*
X80071Y73851D01*
X80544Y73378D01*
X81162Y73122D01*
X81830D01*
X82018Y73200D01*
X82961Y72257D01*
X82961Y72257D01*
X83209Y72091D01*
X83502Y72033D01*
X88407D01*
X88706Y71540D01*
X88569Y71290D01*
X79295D01*
X79003Y71232D01*
X78755Y71066D01*
X77117Y69429D01*
X75635D01*
X75557Y69616D01*
X75085Y70089D01*
X74467Y70345D01*
X73798D01*
X73180Y70089D01*
X72707Y69616D01*
X72451Y68998D01*
Y68330D01*
X72707Y67712D01*
X73180Y67239D01*
X73798Y66983D01*
X74467D01*
X75085Y67239D01*
X75557Y67712D01*
X75635Y67899D01*
X77434D01*
X77726Y67957D01*
X77974Y68123D01*
X79276Y69425D01*
X79700Y69142D01*
X79612Y68929D01*
Y68260D01*
X79868Y67642D01*
X80341Y67169D01*
X80959Y66914D01*
X81627D01*
X82245Y67169D01*
X82718Y67642D01*
X82974Y68260D01*
Y68929D01*
X82837Y69261D01*
X83157Y69761D01*
X89279D01*
X89599Y69441D01*
X90217Y69185D01*
X90886D01*
X91504Y69441D01*
X91976Y69914D01*
X92232Y70532D01*
Y71201D01*
X92095Y71533D01*
X92415Y72033D01*
X94603D01*
X96737Y69898D01*
X96530Y69398D01*
X96122D01*
X95504Y69142D01*
X95031Y68669D01*
X94775Y68051D01*
Y67946D01*
X94663Y67870D01*
X94071Y68076D01*
X93945Y68381D01*
X93472Y68854D01*
X92854Y69110D01*
X92185D01*
X91567Y68854D01*
X91094Y68381D01*
X90838Y67764D01*
Y67095D01*
X90916Y66907D01*
X90048Y66039D01*
X89882Y65791D01*
X89824Y65498D01*
Y57475D01*
X89882Y57183D01*
X90048Y56935D01*
X94257Y52726D01*
X94179Y52538D01*
Y51869D01*
X94435Y51252D01*
X94908Y50779D01*
X95526Y50523D01*
X96194D01*
X96382Y50600D01*
X97826Y49156D01*
X98074Y48990D01*
X98367Y48932D01*
X102231D01*
X102309Y48745D01*
X102782Y48272D01*
X103400Y48016D01*
X104068D01*
X104686Y48272D01*
X105159Y48745D01*
X105415Y49362D01*
Y50031D01*
X105159Y50649D01*
X104686Y51122D01*
X104068Y51378D01*
X103400D01*
X102782Y51122D01*
X102309Y50649D01*
X102231Y50462D01*
X100497D01*
X100289Y50962D01*
X100435Y51107D01*
X100691Y51725D01*
Y52394D01*
X100435Y53011D01*
X99962Y53484D01*
X99344Y53740D01*
X98675D01*
X98057Y53484D01*
X97798Y53225D01*
X97338Y53163D01*
X97181Y53261D01*
X96812Y53629D01*
X96194Y53885D01*
X95526D01*
X95338Y53807D01*
X91353Y57792D01*
Y62703D01*
X91853Y63023D01*
X92185Y62886D01*
X92854D01*
X93472Y63142D01*
X93945Y63615D01*
X94201Y64232D01*
Y64773D01*
X95656Y66228D01*
X96122Y66035D01*
X96791D01*
X97409Y66291D01*
X97882Y66764D01*
X97958Y66948D01*
X98499D01*
X98575Y66764D01*
X99048Y66291D01*
X99666Y66035D01*
X100334D01*
X100952Y66291D01*
X101425Y66764D01*
X101681Y67382D01*
Y68051D01*
X101425Y68669D01*
X100952Y69142D01*
X100334Y69398D01*
X99666D01*
X99478Y69320D01*
X95460Y73338D01*
X95212Y73504D01*
X94919Y73562D01*
X83819D01*
X83100Y74281D01*
X83177Y74469D01*
Y75138D01*
X82921Y75755D01*
X82448Y76228D01*
X81830Y76484D01*
X81816D01*
X81609Y76984D01*
X84962Y80338D01*
X92592D01*
X92669Y80150D01*
X92971Y79848D01*
X93088Y79527D01*
X92971Y79207D01*
X92669Y78905D01*
X92413Y78287D01*
Y77618D01*
X92669Y77000D01*
X93142Y76528D01*
X93760Y76272D01*
X94429D01*
X95047Y76528D01*
X95520Y77000D01*
X95776Y77618D01*
Y78179D01*
X97205Y79608D01*
X97657Y79421D01*
X98326D01*
X98944Y79677D01*
X99417Y80150D01*
X99673Y80768D01*
Y81437D01*
X99417Y82055D01*
X98944Y82528D01*
X98326Y82783D01*
D02*
G37*
G36*
X74190Y84004D02*
X73521D01*
X72903Y83748D01*
X72430Y83275D01*
X72174Y82657D01*
Y81989D01*
X72430Y81371D01*
X72903Y80898D01*
X73521Y80642D01*
X74190D01*
X74808Y80898D01*
X75281Y81371D01*
X75537Y81989D01*
Y82657D01*
X75281Y83275D01*
X74808Y83748D01*
X74190Y84004D01*
D02*
G37*
G36*
X72179Y74213D02*
X71510D01*
X70892Y73957D01*
X70419Y73484D01*
X70163Y72866D01*
Y72197D01*
X70419Y71579D01*
X70892Y71106D01*
X71510Y70851D01*
X72179D01*
X72796Y71106D01*
X73269Y71579D01*
X73525Y72197D01*
Y72866D01*
X73269Y73484D01*
X72796Y73957D01*
X72179Y74213D01*
D02*
G37*
G36*
X436614Y85852D02*
X436024Y85775D01*
X434646D01*
X433487Y85622D01*
X432408Y85175D01*
X431481Y84464D01*
X430770Y83537D01*
X430323Y82458D01*
X430170Y81299D01*
X430323Y80141D01*
X430770Y79062D01*
X431481Y78135D01*
X432408Y77424D01*
X433487Y76977D01*
X434646Y76824D01*
X435402D01*
X435501Y76324D01*
X434774Y76022D01*
X434011Y75437D01*
X433426Y74675D01*
X433059Y73787D01*
X432933Y72835D01*
X433059Y71882D01*
X433426Y70994D01*
X434011Y70232D01*
X434774Y69647D01*
X435661Y69279D01*
X436614Y69154D01*
X436614D01*
X437567Y69279D01*
X438455Y69647D01*
X439217Y70232D01*
X439802Y70994D01*
X440170Y71882D01*
X440295Y72835D01*
X440170Y73787D01*
X439802Y74675D01*
X439217Y75437D01*
X438455Y76022D01*
X437727Y76324D01*
X437826Y76824D01*
X438583D01*
X439741Y76977D01*
X440820Y77424D01*
X441747Y78135D01*
X442458Y79062D01*
X442906Y80141D01*
X443058Y81299D01*
X442906Y82458D01*
X442458Y83537D01*
X441747Y84464D01*
X440820Y85175D01*
X439741Y85622D01*
X438583Y85775D01*
X437205D01*
X436614Y85852D01*
D02*
G37*
G36*
X65683Y69488D02*
X65014D01*
X64396Y69232D01*
X63923Y68760D01*
X63667Y68142D01*
Y67473D01*
X63923Y66855D01*
X64396Y66382D01*
X65014Y66126D01*
X65683D01*
X66300Y66382D01*
X66773Y66855D01*
X67029Y67473D01*
Y68142D01*
X66773Y68760D01*
X66300Y69232D01*
X65683Y69488D01*
D02*
G37*
G36*
X436614Y68642D02*
X436614D01*
X435661Y68516D01*
X434774Y68148D01*
X434011Y67563D01*
X433426Y66801D01*
X433059Y65913D01*
X432933Y64961D01*
X433059Y64008D01*
X433426Y63120D01*
X434011Y62358D01*
X434774Y61773D01*
X435661Y61405D01*
X436614Y61280D01*
X436614D01*
X437567Y61405D01*
X438455Y61773D01*
X439217Y62358D01*
X439802Y63120D01*
X440170Y64008D01*
X440295Y64961D01*
X440170Y65913D01*
X439802Y66801D01*
X439217Y67563D01*
X438455Y68148D01*
X437567Y68516D01*
X436614Y68642D01*
D02*
G37*
G36*
X103281Y64181D02*
X102612D01*
X101994Y63925D01*
X101522Y63452D01*
X101266Y62835D01*
Y62166D01*
X101522Y61548D01*
X101994Y61075D01*
X102612Y60819D01*
X103281D01*
X103899Y61075D01*
X104372Y61548D01*
X104628Y62166D01*
Y62835D01*
X104372Y63452D01*
X103899Y63925D01*
X103281Y64181D01*
D02*
G37*
G36*
X87151Y62854D02*
X86459D01*
X85819Y62589D01*
X85330Y62100D01*
X85065Y61460D01*
Y60768D01*
X85330Y60128D01*
X85819Y59639D01*
X86459Y59374D01*
X87151D01*
X87791Y59639D01*
X88280Y60128D01*
X88545Y60768D01*
Y61460D01*
X88280Y62100D01*
X87791Y62589D01*
X87151Y62854D01*
D02*
G37*
G36*
X82427D02*
X81734D01*
X81095Y62589D01*
X80605Y62100D01*
X80340Y61460D01*
Y60768D01*
X80605Y60128D01*
X81095Y59639D01*
X81734Y59374D01*
X82427D01*
X83066Y59639D01*
X83556Y60128D01*
X83821Y60768D01*
Y61460D01*
X83556Y62100D01*
X83066Y62589D01*
X82427Y62854D01*
D02*
G37*
G36*
X77702D02*
X77010D01*
X76370Y62589D01*
X75881Y62100D01*
X75616Y61460D01*
Y60768D01*
X75881Y60128D01*
X76370Y59639D01*
X77010Y59374D01*
X77702D01*
X78342Y59639D01*
X78831Y60128D01*
X79096Y60768D01*
Y61460D01*
X78831Y62100D01*
X78342Y62589D01*
X77702Y62854D01*
D02*
G37*
G36*
X72978D02*
X72286D01*
X71646Y62589D01*
X71157Y62100D01*
X70892Y61460D01*
Y60768D01*
X71157Y60128D01*
X71646Y59639D01*
X72286Y59374D01*
X72978D01*
X73617Y59639D01*
X74107Y60128D01*
X74372Y60768D01*
Y61460D01*
X74107Y62100D01*
X73617Y62589D01*
X72978Y62854D01*
D02*
G37*
G36*
X64121Y61419D02*
X63452D01*
X62834Y61163D01*
X62361Y60690D01*
X62105Y60072D01*
Y59404D01*
X62361Y58786D01*
X62834Y58313D01*
X63452Y58057D01*
X64121D01*
X64739Y58313D01*
X65211Y58786D01*
X65467Y59404D01*
Y60072D01*
X65211Y60690D01*
X64739Y61163D01*
X64121Y61419D01*
D02*
G37*
G36*
X58478D02*
X57809D01*
X57191Y61163D01*
X56718Y60690D01*
X56462Y60072D01*
Y59404D01*
X56718Y58786D01*
X57191Y58313D01*
X57809Y58057D01*
X58478D01*
X59096Y58313D01*
X59568Y58786D01*
X59824Y59404D01*
Y60072D01*
X59568Y60690D01*
X59096Y61163D01*
X58478Y61419D01*
D02*
G37*
G36*
X52835D02*
X52166D01*
X51548Y61163D01*
X51075Y60690D01*
X50819Y60072D01*
Y59404D01*
X51075Y58786D01*
X51548Y58313D01*
X52166Y58057D01*
X52835D01*
X53452Y58313D01*
X53925Y58786D01*
X54181Y59404D01*
Y60072D01*
X53925Y60690D01*
X53452Y61163D01*
X52835Y61419D01*
D02*
G37*
G36*
X46857Y59738D02*
X46188D01*
X45571Y59482D01*
X45098Y59009D01*
X44842Y58391D01*
Y57722D01*
X45098Y57104D01*
X45571Y56632D01*
X46188Y56376D01*
X46857D01*
X47475Y56632D01*
X47948Y57104D01*
X48204Y57722D01*
Y58391D01*
X47948Y59009D01*
X47475Y59482D01*
X46857Y59738D01*
D02*
G37*
G36*
X19079Y80028D02*
X17141D01*
X15227Y79724D01*
X13385Y79126D01*
X11658Y78246D01*
X10090Y77107D01*
X8720Y75737D01*
X7581Y74169D01*
X6701Y72442D01*
X6102Y70599D01*
X5799Y68685D01*
Y66748D01*
X6102Y64834D01*
X6701Y62991D01*
X7581Y61264D01*
X8720Y59697D01*
X10090Y58326D01*
X11658Y57187D01*
X13385Y56308D01*
X15227Y55709D01*
X17141Y55405D01*
X19079D01*
X20993Y55709D01*
X22836Y56308D01*
X24563Y57187D01*
X26130Y58326D01*
X27501Y59697D01*
X28640Y61264D01*
X29519Y62991D01*
X30118Y64834D01*
X30421Y66748D01*
Y68685D01*
X30118Y70599D01*
X29519Y72442D01*
X28640Y74169D01*
X27501Y75737D01*
X26130Y77107D01*
X24563Y78246D01*
X22836Y79126D01*
X20993Y79724D01*
X19079Y80028D01*
D02*
G37*
G36*
X60971Y58269D02*
X60302D01*
X59684Y58013D01*
X59211Y57540D01*
X58956Y56923D01*
Y56254D01*
X59211Y55636D01*
X59684Y55163D01*
X60302Y54907D01*
X60971D01*
X61589Y55163D01*
X62062Y55636D01*
X62318Y56254D01*
Y56923D01*
X62062Y57540D01*
X61589Y58013D01*
X60971Y58269D01*
D02*
G37*
G36*
X55853D02*
X55184D01*
X54566Y58013D01*
X54093Y57540D01*
X53838Y56923D01*
Y56254D01*
X54093Y55636D01*
X54566Y55163D01*
X55184Y54907D01*
X55853D01*
X56471Y55163D01*
X56944Y55636D01*
X57200Y56254D01*
Y56923D01*
X56944Y57540D01*
X56471Y58013D01*
X55853Y58269D01*
D02*
G37*
G36*
X87151Y58130D02*
X86459D01*
X85819Y57865D01*
X85330Y57376D01*
X85065Y56736D01*
Y56044D01*
X85330Y55404D01*
X85819Y54914D01*
X86459Y54650D01*
X87151D01*
X87791Y54914D01*
X88280Y55404D01*
X88545Y56044D01*
Y56736D01*
X88280Y57376D01*
X87791Y57865D01*
X87151Y58130D01*
D02*
G37*
G36*
X82427D02*
X81734D01*
X81095Y57865D01*
X80605Y57376D01*
X80340Y56736D01*
Y56044D01*
X80605Y55404D01*
X81095Y54914D01*
X81734Y54650D01*
X82427D01*
X83066Y54914D01*
X83556Y55404D01*
X83821Y56044D01*
Y56736D01*
X83556Y57376D01*
X83066Y57865D01*
X82427Y58130D01*
D02*
G37*
G36*
X77702D02*
X77010D01*
X76370Y57865D01*
X75881Y57376D01*
X75616Y56736D01*
Y56044D01*
X75881Y55404D01*
X76370Y54914D01*
X77010Y54650D01*
X77702D01*
X78342Y54914D01*
X78831Y55404D01*
X79096Y56044D01*
Y56736D01*
X78831Y57376D01*
X78342Y57865D01*
X77702Y58130D01*
D02*
G37*
G36*
X72978D02*
X72286D01*
X71646Y57865D01*
X71157Y57376D01*
X70892Y56736D01*
Y56044D01*
X71157Y55404D01*
X71646Y54914D01*
X72286Y54650D01*
X72978D01*
X73617Y54914D01*
X74107Y55404D01*
X74372Y56044D01*
Y56736D01*
X74107Y57376D01*
X73617Y57865D01*
X72978Y58130D01*
D02*
G37*
G36*
X50735Y57482D02*
X50066D01*
X49448Y57226D01*
X48975Y56753D01*
X48719Y56135D01*
Y55466D01*
X48975Y54848D01*
X49448Y54375D01*
X50066Y54120D01*
X50735D01*
X51353Y54375D01*
X51826Y54848D01*
X52082Y55466D01*
Y56135D01*
X51826Y56753D01*
X51353Y57226D01*
X50735Y57482D01*
D02*
G37*
G36*
X46397Y55224D02*
X45729D01*
X45111Y54969D01*
X44638Y54496D01*
X44382Y53878D01*
Y53209D01*
X44638Y52591D01*
X45111Y52118D01*
X45729Y51862D01*
X46397D01*
X47015Y52118D01*
X47488Y52591D01*
X47744Y53209D01*
Y53878D01*
X47488Y54496D01*
X47015Y54969D01*
X46397Y55224D01*
D02*
G37*
G36*
X42067D02*
X41398D01*
X40780Y54969D01*
X40307Y54496D01*
X40051Y53878D01*
Y53209D01*
X40307Y52591D01*
X40780Y52118D01*
X41398Y51862D01*
X42067D01*
X42685Y52118D01*
X43157Y52591D01*
X43413Y53209D01*
Y53878D01*
X43157Y54496D01*
X42685Y54969D01*
X42067Y55224D01*
D02*
G37*
G36*
X109001Y54773D02*
X108332D01*
X107715Y54517D01*
X107242Y54044D01*
X106986Y53426D01*
Y52757D01*
X107242Y52139D01*
X107715Y51666D01*
X108332Y51410D01*
X109001D01*
X109619Y51666D01*
X110092Y52139D01*
X110348Y52757D01*
Y53426D01*
X110092Y54044D01*
X109619Y54517D01*
X109001Y54773D01*
D02*
G37*
G36*
X87151Y53405D02*
X86459D01*
X85819Y53141D01*
X85330Y52651D01*
X85065Y52012D01*
Y51319D01*
X85330Y50680D01*
X85819Y50190D01*
X86459Y49925D01*
X87151D01*
X87791Y50190D01*
X88280Y50680D01*
X88545Y51319D01*
Y52012D01*
X88280Y52651D01*
X87791Y53141D01*
X87151Y53405D01*
D02*
G37*
G36*
X82427D02*
X81734D01*
X81095Y53141D01*
X80605Y52651D01*
X80340Y52012D01*
Y51319D01*
X80605Y50680D01*
X81095Y50190D01*
X81734Y49925D01*
X82427D01*
X83066Y50190D01*
X83556Y50680D01*
X83821Y51319D01*
Y52012D01*
X83556Y52651D01*
X83066Y53141D01*
X82427Y53405D01*
D02*
G37*
G36*
X77702D02*
X77010D01*
X76370Y53141D01*
X75881Y52651D01*
X75616Y52012D01*
Y51319D01*
X75881Y50680D01*
X76370Y50190D01*
X77010Y49925D01*
X77702D01*
X78342Y50190D01*
X78831Y50680D01*
X79096Y51319D01*
Y52012D01*
X78831Y52651D01*
X78342Y53141D01*
X77702Y53405D01*
D02*
G37*
G36*
X72978D02*
X72286D01*
X71646Y53141D01*
X71157Y52651D01*
X70892Y52012D01*
Y51319D01*
X71157Y50680D01*
X71646Y50190D01*
X72286Y49925D01*
X72978D01*
X73617Y50190D01*
X74107Y50680D01*
X74372Y51319D01*
Y52012D01*
X74107Y52651D01*
X73617Y53141D01*
X72978Y53405D01*
D02*
G37*
G36*
X43641Y51681D02*
X42973D01*
X42355Y51425D01*
X41882Y50952D01*
X41626Y50334D01*
Y49666D01*
X41882Y49048D01*
X42355Y48575D01*
X42973Y48319D01*
X43641D01*
X44259Y48575D01*
X44732Y49048D01*
X44988Y49666D01*
Y50334D01*
X44732Y50952D01*
X44259Y51425D01*
X43641Y51681D01*
D02*
G37*
G36*
X51916Y49608D02*
X51247D01*
X50629Y49352D01*
X50156Y48879D01*
X49900Y48261D01*
Y47592D01*
X50156Y46974D01*
X50629Y46501D01*
X51247Y46246D01*
X51916D01*
X52534Y46501D01*
X53007Y46974D01*
X53263Y47592D01*
Y48261D01*
X53007Y48879D01*
X52534Y49352D01*
X51916Y49608D01*
D02*
G37*
G36*
X87151Y48681D02*
X86459D01*
X85819Y48416D01*
X85330Y47927D01*
X85065Y47287D01*
Y46595D01*
X85330Y45955D01*
X85819Y45466D01*
X86459Y45201D01*
X87151D01*
X87791Y45466D01*
X88280Y45955D01*
X88545Y46595D01*
Y47287D01*
X88280Y47927D01*
X87791Y48416D01*
X87151Y48681D01*
D02*
G37*
G36*
X82427D02*
X81734D01*
X81095Y48416D01*
X80605Y47927D01*
X80340Y47287D01*
Y46595D01*
X80605Y45955D01*
X81095Y45466D01*
X81734Y45201D01*
X82427D01*
X83066Y45466D01*
X83556Y45955D01*
X83821Y46595D01*
Y47287D01*
X83556Y47927D01*
X83066Y48416D01*
X82427Y48681D01*
D02*
G37*
G36*
X77702D02*
X77010D01*
X76370Y48416D01*
X75881Y47927D01*
X75616Y47287D01*
Y46595D01*
X75881Y45955D01*
X76370Y45466D01*
X77010Y45201D01*
X77702D01*
X78342Y45466D01*
X78831Y45955D01*
X79096Y46595D01*
Y47287D01*
X78831Y47927D01*
X78342Y48416D01*
X77702Y48681D01*
D02*
G37*
G36*
X72978D02*
X72286D01*
X71646Y48416D01*
X71157Y47927D01*
X70892Y47287D01*
Y46595D01*
X71157Y45955D01*
X71646Y45466D01*
X72286Y45201D01*
X72978D01*
X73617Y45466D01*
X74107Y45955D01*
X74372Y46595D01*
Y47287D01*
X74107Y47927D01*
X73617Y48416D01*
X72978Y48681D01*
D02*
G37*
G36*
X148228Y48177D02*
X147559D01*
X146941Y47921D01*
X146468Y47448D01*
X146212Y46830D01*
Y46162D01*
X146468Y45544D01*
X146941Y45071D01*
X147559Y44815D01*
X148228D01*
X148846Y45071D01*
X149319Y45544D01*
X149575Y46162D01*
Y46830D01*
X149319Y47448D01*
X148846Y47921D01*
X148228Y48177D01*
D02*
G37*
G36*
X40886Y48138D02*
X40217D01*
X39599Y47882D01*
X39126Y47409D01*
X38870Y46791D01*
Y46122D01*
X39126Y45504D01*
X39599Y45031D01*
X40217Y44776D01*
X40886D01*
X41503Y45031D01*
X41976Y45504D01*
X42232Y46122D01*
Y46791D01*
X41976Y47409D01*
X41503Y47882D01*
X40886Y48138D01*
D02*
G37*
G36*
X436614Y60768D02*
X436614D01*
X435661Y60642D01*
X434774Y60274D01*
X434011Y59689D01*
X433426Y58927D01*
X433059Y58039D01*
X432933Y57087D01*
X433059Y56134D01*
X433426Y55246D01*
X434011Y54484D01*
X434774Y53899D01*
X435501Y53597D01*
X435402Y53097D01*
X434646D01*
X433487Y52945D01*
X432408Y52498D01*
X431481Y51787D01*
X430770Y50860D01*
X430323Y49780D01*
X430170Y48622D01*
X430323Y47464D01*
X430770Y46384D01*
X431481Y45458D01*
X432408Y44746D01*
X433487Y44299D01*
X434646Y44147D01*
X436024D01*
X436614Y44069D01*
X437205Y44147D01*
X438583D01*
X439741Y44299D01*
X440820Y44746D01*
X441747Y45458D01*
X442458Y46384D01*
X442906Y47464D01*
X443058Y48622D01*
X442906Y49780D01*
X442458Y50860D01*
X441747Y51787D01*
X440820Y52498D01*
X439741Y52945D01*
X438583Y53097D01*
X437826D01*
X437727Y53597D01*
X438455Y53899D01*
X439217Y54484D01*
X439802Y55246D01*
X440170Y56134D01*
X440295Y57087D01*
X440170Y58039D01*
X439802Y58927D01*
X439217Y59689D01*
X438455Y60274D01*
X437567Y60642D01*
X436614Y60768D01*
D02*
G37*
G36*
X45223Y46458D02*
X44554D01*
X43936Y46202D01*
X43464Y45729D01*
X43207Y45112D01*
Y44443D01*
X43464Y43825D01*
X43936Y43352D01*
X44554Y43096D01*
X45223D01*
X45841Y43352D01*
X46314Y43825D01*
X46570Y44443D01*
Y45112D01*
X46314Y45729D01*
X45841Y46202D01*
X45223Y46458D01*
D02*
G37*
G36*
X54771Y45866D02*
X54103D01*
X53485Y45610D01*
X53012Y45137D01*
X52756Y44519D01*
Y43851D01*
X53012Y43233D01*
X53485Y42760D01*
X54103Y42504D01*
X54771D01*
X55389Y42760D01*
X55862Y43233D01*
X56118Y43851D01*
Y44519D01*
X55862Y45137D01*
X55389Y45610D01*
X54771Y45866D01*
D02*
G37*
G36*
X65185Y57059D02*
X64517D01*
X63899Y56803D01*
X63426Y56330D01*
X63170Y55712D01*
Y55043D01*
X63426Y54425D01*
X63899Y53952D01*
X64166Y53842D01*
Y49271D01*
X64057Y49226D01*
X63584Y48753D01*
X63328Y48136D01*
Y47467D01*
X63584Y46849D01*
X64057Y46376D01*
X64245Y46298D01*
Y45065D01*
X63923Y44744D01*
X63667Y44126D01*
Y43457D01*
X63923Y42839D01*
X64396Y42366D01*
X65014Y42110D01*
X65683D01*
X66300Y42366D01*
X66773Y42839D01*
X67029Y43457D01*
Y44126D01*
X66773Y44744D01*
X66300Y45217D01*
X65774Y45435D01*
Y46298D01*
X65962Y46376D01*
X66435Y46849D01*
X66690Y47467D01*
Y48136D01*
X66435Y48753D01*
X65962Y49226D01*
X65695Y49337D01*
Y53908D01*
X65803Y53952D01*
X66276Y54425D01*
X66532Y55043D01*
Y55712D01*
X66276Y56330D01*
X65803Y56803D01*
X65185Y57059D01*
D02*
G37*
G36*
X42460Y43413D02*
X41792D01*
X41174Y43157D01*
X40701Y42685D01*
X40445Y42067D01*
Y41398D01*
X40701Y40780D01*
X41174Y40307D01*
X41792Y40051D01*
X42460D01*
X43078Y40307D01*
X43551Y40780D01*
X43807Y41398D01*
Y42067D01*
X43551Y42685D01*
X43078Y43157D01*
X42460Y43413D01*
D02*
G37*
G36*
X37736D02*
X37067D01*
X36449Y43157D01*
X35976Y42685D01*
X35721Y42067D01*
Y41398D01*
X35976Y40780D01*
X36449Y40307D01*
X37067Y40051D01*
X37736D01*
X38354Y40307D01*
X38827Y40780D01*
X39083Y41398D01*
Y42067D01*
X38827Y42685D01*
X38354Y43157D01*
X37736Y43413D01*
D02*
G37*
G36*
X74541Y41536D02*
X73872D01*
X73254Y41280D01*
X72781Y40807D01*
X72525Y40189D01*
Y39520D01*
X72781Y38902D01*
X73254Y38429D01*
X73872Y38173D01*
X74541D01*
X75159Y38429D01*
X75632Y38902D01*
X75709Y39090D01*
X85203D01*
Y38825D01*
X85459Y38207D01*
X85932Y37734D01*
X86549Y37478D01*
X87218D01*
X87836Y37734D01*
X88309Y38207D01*
X88565Y38825D01*
Y39494D01*
X88309Y40111D01*
X87836Y40584D01*
X87218Y40840D01*
X86549D01*
X85932Y40584D01*
X85920Y40572D01*
X85684Y40619D01*
X75709D01*
X75632Y40807D01*
X75159Y41280D01*
X74541Y41536D01*
D02*
G37*
G36*
X93832Y39567D02*
X93163D01*
X92546Y39311D01*
X92073Y38838D01*
X91817Y38220D01*
Y37552D01*
X92073Y36934D01*
X92546Y36461D01*
X93163Y36205D01*
X93832D01*
X94450Y36461D01*
X94923Y36934D01*
X95179Y37552D01*
Y38220D01*
X94923Y38838D01*
X94450Y39311D01*
X93832Y39567D01*
D02*
G37*
G36*
X383483Y40311D02*
X382693D01*
X381930Y40106D01*
X381245Y39711D01*
X380687Y39153D01*
X380292Y38469D01*
X380087Y37706D01*
Y36916D01*
X380292Y36153D01*
X380687Y35469D01*
X381245Y34910D01*
X381930Y34515D01*
X382693Y34311D01*
X383483D01*
X384245Y34515D01*
X384930Y34910D01*
X385488Y35469D01*
X385883Y36153D01*
X386087Y36916D01*
Y37706D01*
X385883Y38469D01*
X385488Y39153D01*
X384930Y39711D01*
X384245Y40106D01*
X383483Y40311D01*
D02*
G37*
G36*
X373482D02*
X372693D01*
X371930Y40106D01*
X371246Y39711D01*
X370687Y39153D01*
X370292Y38469D01*
X370088Y37706D01*
Y36916D01*
X370292Y36153D01*
X370687Y35469D01*
X371246Y34910D01*
X371930Y34515D01*
X372693Y34311D01*
X373482D01*
X374246Y34515D01*
X374930Y34910D01*
X375488Y35469D01*
X375883Y36153D01*
X376087Y36916D01*
Y37706D01*
X375883Y38469D01*
X375488Y39153D01*
X374930Y39711D01*
X374246Y40106D01*
X373482Y40311D01*
D02*
G37*
G36*
X363482D02*
X362693D01*
X361930Y40106D01*
X361245Y39711D01*
X360687Y39153D01*
X360292Y38469D01*
X360087Y37706D01*
Y36916D01*
X360292Y36153D01*
X360687Y35469D01*
X361245Y34910D01*
X361930Y34515D01*
X362693Y34311D01*
X363482D01*
X364246Y34515D01*
X364930Y34910D01*
X365488Y35469D01*
X365883Y36153D01*
X366088Y36916D01*
Y37706D01*
X365883Y38469D01*
X365488Y39153D01*
X364930Y39711D01*
X364246Y40106D01*
X363482Y40311D01*
D02*
G37*
G36*
X213482D02*
X212693D01*
X211930Y40106D01*
X211245Y39711D01*
X210687Y39153D01*
X210292Y38469D01*
X210087Y37706D01*
Y36916D01*
X210292Y36153D01*
X210687Y35469D01*
X211245Y34910D01*
X211930Y34515D01*
X212693Y34311D01*
X213482D01*
X214246Y34515D01*
X214930Y34910D01*
X215488Y35469D01*
X215883Y36153D01*
X216088Y36916D01*
Y37706D01*
X215883Y38469D01*
X215488Y39153D01*
X214930Y39711D01*
X214246Y40106D01*
X213482Y40311D01*
D02*
G37*
G36*
X203483D02*
X202693D01*
X201930Y40106D01*
X201245Y39711D01*
X200687Y39153D01*
X200292Y38469D01*
X200087Y37706D01*
Y36916D01*
X200292Y36153D01*
X200687Y35469D01*
X201245Y34910D01*
X201930Y34515D01*
X202693Y34311D01*
X203483D01*
X204245Y34515D01*
X204930Y34910D01*
X205488Y35469D01*
X205883Y36153D01*
X206087Y36916D01*
Y37706D01*
X205883Y38469D01*
X205488Y39153D01*
X204930Y39711D01*
X204245Y40106D01*
X203483Y40311D01*
D02*
G37*
G36*
X196088D02*
X190087D01*
Y34311D01*
X196088D01*
Y40311D01*
D02*
G37*
G36*
X87803Y35166D02*
X87134D01*
X86516Y34910D01*
X86044Y34437D01*
X85787Y33819D01*
Y33150D01*
X86044Y32532D01*
X86516Y32059D01*
X87134Y31803D01*
X87803D01*
X88421Y32059D01*
X88894Y32532D01*
X89150Y33150D01*
Y33819D01*
X88894Y34437D01*
X88421Y34910D01*
X87803Y35166D01*
D02*
G37*
G36*
X73801Y33967D02*
X73133D01*
X72515Y33711D01*
X72042Y33238D01*
X71786Y32620D01*
Y31951D01*
X72042Y31333D01*
X72515Y30860D01*
X73133Y30605D01*
X73801D01*
X74419Y30860D01*
X74892Y31333D01*
X75148Y31951D01*
Y32620D01*
X74892Y33238D01*
X74419Y33711D01*
X73801Y33967D01*
D02*
G37*
G36*
X127818Y25284D02*
X127142D01*
X126490Y25109D01*
X125904Y24771D01*
X125426Y24293D01*
X125269Y24020D01*
X124692D01*
X124534Y24293D01*
X124056Y24771D01*
X123471Y25109D01*
X122818Y25284D01*
X122142D01*
X121490Y25109D01*
X120904Y24771D01*
X120426Y24293D01*
X120269Y24020D01*
X119692D01*
X119535Y24293D01*
X119056Y24771D01*
X118471Y25109D01*
X117818Y25284D01*
X117142D01*
X116490Y25109D01*
X115904Y24771D01*
X115426Y24293D01*
X115269Y24020D01*
X114692D01*
X114534Y24293D01*
X114057Y24771D01*
X113471Y25109D01*
X112818Y25284D01*
X112142D01*
X111490Y25109D01*
X110904Y24771D01*
X110426Y24293D01*
X110269Y24020D01*
X109692D01*
X109535Y24293D01*
X109056Y24771D01*
X108471Y25109D01*
X107818Y25284D01*
X107142D01*
X106490Y25109D01*
X105904Y24771D01*
X105426Y24293D01*
X105088Y23707D01*
X104913Y23055D01*
Y22379D01*
X105088Y21726D01*
X105426Y21140D01*
X105783Y20784D01*
X105612Y20284D01*
X104913D01*
Y17967D01*
X107480D01*
Y17717D01*
X107730D01*
Y15150D01*
X110047D01*
Y15848D01*
X110547Y16019D01*
X110904Y15663D01*
X111490Y15325D01*
X112142Y15150D01*
X112818D01*
X113471Y15325D01*
X114057Y15663D01*
X114534Y16140D01*
X114692Y16413D01*
X115269D01*
X115426Y16140D01*
X115904Y15663D01*
X116490Y15325D01*
X117142Y15150D01*
X117818D01*
X118471Y15325D01*
X119056Y15663D01*
X119535Y16140D01*
X119692Y16413D01*
X120269D01*
X120426Y16140D01*
X120904Y15663D01*
X121490Y15325D01*
X122142Y15150D01*
X122818D01*
X123471Y15325D01*
X124056Y15663D01*
X124534Y16140D01*
X124692Y16413D01*
X125269D01*
X125426Y16140D01*
X125904Y15663D01*
X126490Y15325D01*
X127142Y15150D01*
X127818D01*
X128471Y15325D01*
X129057Y15663D01*
X129534Y16140D01*
X129872Y16726D01*
X130047Y17379D01*
Y18055D01*
X129872Y18707D01*
X129534Y19293D01*
X129057Y19771D01*
X128784Y19928D01*
Y20505D01*
X129057Y20662D01*
X129534Y21140D01*
X129872Y21726D01*
X130047Y22379D01*
Y23055D01*
X129872Y23707D01*
X129534Y24293D01*
X129057Y24771D01*
X128471Y25109D01*
X127818Y25284D01*
D02*
G37*
G36*
X79881Y25959D02*
X79213D01*
X78595Y25703D01*
X78122Y25230D01*
X77866Y24612D01*
Y23943D01*
X78122Y23325D01*
X78595Y22852D01*
X79213Y22597D01*
X79881D01*
X80499Y22852D01*
X80972Y23325D01*
X81228Y23943D01*
Y24612D01*
X80972Y25230D01*
X80499Y25703D01*
X79881Y25959D01*
D02*
G37*
G36*
X420908Y25893D02*
X420239D01*
X419622Y25637D01*
X419149Y25164D01*
X418893Y24546D01*
Y23878D01*
X419149Y23260D01*
X419622Y22787D01*
X420239Y22531D01*
X420908D01*
X421526Y22787D01*
X421999Y23260D01*
X422255Y23878D01*
Y24546D01*
X421999Y25164D01*
X421526Y25637D01*
X420908Y25893D01*
D02*
G37*
G36*
X360571D02*
X359902D01*
X359284Y25637D01*
X358811Y25164D01*
X358555Y24546D01*
Y23878D01*
X358811Y23260D01*
X359284Y22787D01*
X359902Y22531D01*
X360571D01*
X361189Y22787D01*
X361661Y23260D01*
X361917Y23878D01*
Y24546D01*
X361661Y25164D01*
X361189Y25637D01*
X360571Y25893D01*
D02*
G37*
G36*
X300233D02*
X299564D01*
X298946Y25637D01*
X298474Y25164D01*
X298218Y24546D01*
Y23878D01*
X298474Y23260D01*
X298946Y22787D01*
X299564Y22531D01*
X300233D01*
X300851Y22787D01*
X301324Y23260D01*
X301580Y23878D01*
Y24546D01*
X301324Y25164D01*
X300851Y25637D01*
X300233Y25893D01*
D02*
G37*
G36*
X239895D02*
X239227D01*
X238609Y25637D01*
X238136Y25164D01*
X237880Y24546D01*
Y23878D01*
X238136Y23260D01*
X238609Y22787D01*
X239227Y22531D01*
X239895D01*
X240513Y22787D01*
X240986Y23260D01*
X241242Y23878D01*
Y24546D01*
X240986Y25164D01*
X240513Y25637D01*
X239895Y25893D01*
D02*
G37*
G36*
X179558D02*
X178889D01*
X178271Y25637D01*
X177798Y25164D01*
X177542Y24546D01*
Y23878D01*
X177798Y23260D01*
X178271Y22787D01*
X178889Y22531D01*
X179558D01*
X180176Y22787D01*
X180649Y23260D01*
X180904Y23878D01*
Y24546D01*
X180649Y25164D01*
X180176Y25637D01*
X179558Y25893D01*
D02*
G37*
G36*
X107230Y17467D02*
X104913D01*
Y15150D01*
X107230D01*
Y17467D01*
D02*
G37*
G36*
X458843Y36327D02*
X456905D01*
X454991Y36024D01*
X453148Y35425D01*
X451422Y34545D01*
X449854Y33406D01*
X448484Y32036D01*
X447345Y30468D01*
X446465Y28741D01*
X445866Y26899D01*
X445563Y24985D01*
Y23047D01*
X445866Y21133D01*
X446465Y19290D01*
X447345Y17563D01*
X448484Y15996D01*
X449854Y14625D01*
X451422Y13486D01*
X453148Y12607D01*
X454991Y12008D01*
X456905Y11705D01*
X458843D01*
X460757Y12008D01*
X462600Y12607D01*
X464326Y13486D01*
X465894Y14625D01*
X467264Y15996D01*
X468403Y17563D01*
X469283Y19290D01*
X469882Y21133D01*
X470185Y23047D01*
Y24985D01*
X469882Y26899D01*
X469283Y28741D01*
X468403Y30468D01*
X467264Y32036D01*
X465894Y33406D01*
X464326Y34545D01*
X462600Y35425D01*
X460757Y36024D01*
X458843Y36327D01*
D02*
G37*
%LPD*%
G36*
X144455Y116804D02*
X144362Y116664D01*
X105026D01*
X104759Y117164D01*
X104852Y117304D01*
X144188D01*
X144455Y116804D01*
D02*
G37*
G36*
X144450Y113940D02*
X144359Y113805D01*
X104945D01*
X104647Y114305D01*
X104721Y114440D01*
X144183D01*
X144450Y113940D01*
D02*
G37*
G36*
X144459Y111081D02*
X144365Y110940D01*
X105204D01*
X104937Y111440D01*
X105031Y111581D01*
X144192D01*
X144459Y111081D01*
D02*
G37*
G36*
X178553Y124365D02*
Y110659D01*
X178053Y110391D01*
X177915Y110484D01*
Y123640D01*
X177915Y123640D01*
X177831Y124065D01*
X177589Y124426D01*
X177589Y124426D01*
X151751Y150265D01*
X151843Y150624D01*
X152202Y150716D01*
X178553Y124365D01*
D02*
G37*
G36*
X175691Y123179D02*
Y110628D01*
X175191Y110361D01*
X175053Y110453D01*
Y122454D01*
X175053Y122454D01*
X174968Y122880D01*
X174727Y123241D01*
X149726Y148242D01*
X149818Y148600D01*
X150178Y148692D01*
X175691Y123179D01*
D02*
G37*
G36*
X172829Y121994D02*
Y110442D01*
X172691Y110350D01*
X172191Y110617D01*
Y121269D01*
X172191Y121269D01*
X172106Y121694D01*
X171865Y122055D01*
X171865Y122055D01*
X147703Y146217D01*
X147796Y146578D01*
X148153Y146669D01*
X172829Y121994D01*
D02*
G37*
G36*
X169967Y120808D02*
Y110268D01*
X169648Y110079D01*
X169328Y110268D01*
Y120083D01*
X169328Y120083D01*
X169244Y120509D01*
X169003Y120870D01*
X169003Y120870D01*
X145678Y144194D01*
X145770Y144552D01*
X146131Y144644D01*
X169967Y120808D01*
D02*
G37*
G36*
X167105Y119623D02*
Y110268D01*
X166786Y110079D01*
X166466Y110268D01*
Y118898D01*
X166382Y119323D01*
X166141Y119684D01*
X166141Y119684D01*
X143655Y142169D01*
X143748Y142530D01*
X144105Y142622D01*
X167105Y119623D01*
D02*
G37*
D15*
X65010Y44130D02*
G03*
X65348Y43791I339J0D01*
G01*
X65010Y44130D02*
G03*
X65348Y43791I339J0D01*
G01*
X108644Y306299D02*
X168711D01*
X105385Y298244D02*
X165375D01*
X107457Y303244D02*
X167446D01*
X166618Y301244D02*
X177482Y290379D01*
X106628Y301244D02*
X166618D01*
X107871Y304244D02*
X167860D01*
X165375Y298244D02*
X176240Y287379D01*
X106214Y300244D02*
X166203D01*
X177068Y289379D01*
X107042Y302244D02*
X167032D01*
X104971Y297244D02*
X164961D01*
X108230Y305299D02*
X168297D01*
X105800Y299244D02*
X165789D01*
X164961Y297244D02*
X173228Y288976D01*
X165789Y299244D02*
X176654Y288379D01*
X366852Y300317D02*
X510135D01*
X526772Y316953D01*
X206693Y284252D02*
X212205D01*
X208680Y280980D02*
X211759D01*
X215031Y284252D02*
X218110D01*
X211759Y280980D02*
X215031Y284252D01*
X175825Y286379D02*
X220707D01*
X220865Y286222D01*
X230709Y276378D01*
X173228Y288976D02*
X175825Y286379D01*
X212995Y278790D02*
X216142Y281937D01*
X326721Y278179D02*
Y284137D01*
X206643Y278790D02*
X212995D01*
X206299Y279134D02*
X206643Y278790D01*
X205499Y277203D02*
X214270D01*
X205486Y277216D02*
X205499Y277203D01*
X214270D02*
X216142Y279075D01*
X203919Y277216D02*
X205486D01*
X203563Y277572D02*
X203919Y277216D01*
X201181Y275984D02*
X201524Y275641D01*
X215066D02*
X215638Y276213D01*
X216142D01*
X201524Y275641D02*
X215066D01*
X306693Y286687D02*
X314874Y294868D01*
X306693Y275590D02*
Y286687D01*
X304311Y277178D02*
Y286422D01*
X313874Y295985D01*
X298819Y277559D02*
Y284866D01*
X311874Y297921D01*
X293900Y277763D02*
Y283503D01*
X309874Y299477D01*
X288976Y277559D02*
Y285827D01*
X307874Y304724D01*
X291535Y275984D02*
Y282552D01*
X308874Y299891D01*
X296260Y283721D02*
X310874Y298336D01*
X296260Y276090D02*
Y283721D01*
Y276090D02*
X301878Y270472D01*
X311874Y297921D02*
Y348756D01*
X314874Y294868D02*
Y486146D01*
X299213Y349250D02*
X309874Y338589D01*
X301575Y285100D02*
X312874Y296399D01*
X254244Y349250D02*
X299213D01*
X314016Y275984D02*
Y291182D01*
X315929Y294509D02*
Y486666D01*
X314016Y291182D02*
X316929Y294094D01*
X309874Y299477D02*
Y338589D01*
X312874Y296399D02*
Y372953D01*
X311417Y289997D02*
X315929Y294509D01*
X310874Y298336D02*
Y343063D01*
X301575Y275590D02*
Y285100D01*
X311417Y277181D02*
Y289997D01*
X316929Y294094D02*
Y517323D01*
X313874Y295985D02*
Y485732D01*
X307874Y304724D02*
Y318110D01*
X308874Y299891D02*
Y319791D01*
X276642Y489764D02*
X312831D01*
X311416Y277179D02*
X311417Y277181D01*
X312831Y489764D02*
X315929Y486666D01*
X316929Y277559D02*
Y280002D01*
X347244Y310317D01*
X276424Y519685D02*
X314567D01*
X316929Y517323D01*
X319488Y276378D02*
Y281147D01*
X283858Y275590D02*
Y277928D01*
X256407Y305379D02*
X283858Y277928D01*
X258661Y277559D02*
Y289129D01*
X251411Y296379D02*
X258661Y289129D01*
X261024Y275590D02*
Y288181D01*
X203080Y296379D02*
X251411D01*
X252239Y298379D02*
X266535Y284083D01*
Y277559D02*
Y284083D01*
X204323Y299379D02*
X252653D01*
X254724Y304379D02*
X281496Y277608D01*
X253068Y300379D02*
X271654Y281793D01*
X252653Y299379D02*
X269094Y282938D01*
X271654Y277559D02*
Y281793D01*
X251825Y297379D02*
X261024Y288181D01*
X281496Y277559D02*
Y277608D01*
X205151Y301379D02*
X253482D01*
X273819Y276090D02*
Y281042D01*
X203908Y298379D02*
X252239D01*
X278740Y275590D02*
Y278949D01*
X269094Y275590D02*
Y282938D01*
X205565Y302379D02*
X253896D01*
X203494Y297379D02*
X251825D01*
X276378Y277559D02*
Y279897D01*
X205979Y303379D02*
X254310D01*
X253896Y302379D02*
X276378Y279897D01*
X204737Y300379D02*
X253068D01*
X253482Y301379D02*
X273819Y281042D01*
X254310Y303379D02*
X278740Y278949D01*
X256299Y275590D02*
Y277534D01*
X238454Y295379D02*
X256299Y277534D01*
X236723Y294379D02*
X253543Y277559D01*
X179217Y294379D02*
X236723D01*
X235336Y293379D02*
X250984Y277731D01*
X178725Y293379D02*
X235336D01*
X250984Y276090D02*
Y277731D01*
X233605Y292379D02*
X248425Y277559D01*
X232611Y291379D02*
X246287Y277704D01*
X177896Y291379D02*
X232611D01*
X246287Y275657D02*
Y277704D01*
X230880Y290379D02*
X243701Y277559D01*
X177068Y289379D02*
X226762D01*
X238583Y277559D01*
X235843Y275968D02*
Y277911D01*
X225375Y288379D02*
X235843Y277911D01*
X176654Y288379D02*
X225375D01*
X223644Y287379D02*
X233465Y277559D01*
X176240Y287379D02*
X223644D01*
X230709Y275984D02*
Y276378D01*
X195276Y316912D02*
X206808Y305379D01*
X191220Y315310D02*
X205151Y301379D01*
X188221Y314067D02*
X203908Y298379D01*
X190220Y314896D02*
X204737Y300379D01*
X192220Y315724D02*
X205565Y302379D01*
X179631Y295379D02*
X238454D01*
X193220Y316138D02*
X205979Y303379D01*
X168711Y306299D02*
X179631Y295379D01*
X167446Y303244D02*
X178311Y292379D01*
X167860Y304244D02*
X178725Y293379D01*
X187221Y313653D02*
X203494Y297379D01*
X206394Y304379D02*
X254724D01*
X168297Y305299D02*
X179217Y294379D01*
X206808Y305379D02*
X256407D01*
X177482Y290379D02*
X230880D01*
X178311Y292379D02*
X233605D01*
X186221Y313239D02*
X203080Y296379D01*
X194276Y316497D02*
X206394Y304379D01*
X167032Y302244D02*
X177896Y291379D01*
X189220Y314482D02*
X204323Y299379D01*
X350972Y301317D02*
X402210D01*
X350558Y302317D02*
X401795D01*
X349729Y304317D02*
X400967D01*
X336989Y290162D02*
X350144Y303317D01*
X334646Y278346D02*
Y289233D01*
X349729Y304317D01*
X329142Y285143D02*
X349315Y305317D01*
X339370Y278346D02*
Y291129D01*
X326721Y284137D02*
X348901Y306317D01*
X349315Y305317D02*
X400553D01*
X348901Y306317D02*
X400139D01*
X329142Y276378D02*
Y285143D01*
X322047Y282292D02*
X348073Y308317D01*
X339370Y291129D02*
X350558Y302317D01*
X322047Y277953D02*
Y282292D01*
X319488Y281147D02*
X347658Y309317D01*
X342323Y276378D02*
Y292668D01*
X348073Y308317D02*
X399310D01*
X350144Y303317D02*
X401381D01*
X324356Y276261D02*
Y283187D01*
X336989Y276378D02*
Y290162D01*
X348487Y307317D02*
X399724D01*
X324356Y283187D02*
X348487Y307317D01*
X347658Y309317D02*
X398896D01*
X342323Y292668D02*
X350972Y301317D01*
X347244Y310317D02*
X398482D01*
X405118Y316953D01*
X347547Y253543D02*
Y271153D01*
X342323Y276378D02*
X347547Y271153D01*
X344882Y278346D02*
X366852Y300317D01*
X350000Y278346D02*
X369970Y298317D01*
X347244Y278322D02*
X368239Y299317D01*
X347244Y275984D02*
Y278322D01*
X368239Y299317D02*
X510549D01*
X369970Y298317D02*
X510964D01*
X352756Y276378D02*
Y276845D01*
X357480Y278346D02*
X357603Y278469D01*
X375299Y292317D02*
X513449D01*
X367717Y284734D02*
X375299Y292317D01*
X357603Y278469D02*
Y280278D01*
X365157Y283589D02*
X374885Y293317D01*
X367717Y278346D02*
Y284734D01*
X365157Y276091D02*
Y283589D01*
X373643Y296317D02*
X511792D01*
X375714Y291317D02*
X513863D01*
X359796Y275984D02*
Y281056D01*
X370079Y275984D02*
Y285682D01*
X374471Y294317D02*
X512620D01*
X352756Y276845D02*
X373228Y297317D01*
X362205Y282051D02*
X374471Y294317D01*
X374057Y295317D02*
X512206D01*
X374885Y293317D02*
X513035D01*
X370079Y285682D02*
X375714Y291317D01*
X359796Y281056D02*
X374057Y295317D01*
X357603Y280278D02*
X373643Y296317D01*
X362205Y278346D02*
Y282051D01*
X373228Y297317D02*
X511378D01*
X372835Y278346D02*
X384805Y290317D01*
X597379D01*
X375197Y275984D02*
X388530Y289317D01*
X390285Y288317D02*
X598208D01*
X391673Y287317D02*
X598622D01*
X380315Y278346D02*
X390285Y288317D01*
X382677Y278322D02*
X391673Y287317D01*
X393404Y286317D02*
X599036D01*
X382677Y275984D02*
Y278322D01*
X385433Y278346D02*
X393404Y286317D01*
X387598Y276091D02*
Y278125D01*
X394791Y285317D01*
X599450D01*
X390158Y277953D02*
X396522Y284317D01*
X599865D01*
X397515Y283317D02*
X600279D01*
X399191Y282262D02*
X600638D01*
X395276Y278346D02*
X399191Y282262D01*
X392913Y278715D02*
X397515Y283317D01*
X392913Y275984D02*
Y278715D01*
X398031Y276378D02*
X402915Y281262D01*
X324713Y253543D02*
Y271153D01*
X319488Y276378D02*
X324713Y271153D01*
X256602Y253543D02*
Y270472D01*
X280028Y253860D02*
X280033Y253854D01*
X279437Y257398D02*
X280028Y256807D01*
X273819Y276090D02*
X279437Y270472D01*
X280028Y253860D02*
Y256807D01*
X279437Y257398D02*
Y270472D01*
X387598Y276091D02*
X393390Y270299D01*
Y253543D02*
Y270299D01*
X301878Y253543D02*
Y270472D01*
X250984Y276090D02*
X256602Y270472D01*
X365157Y276091D02*
X370669Y270579D01*
Y253543D02*
Y270579D01*
X276424Y519685D02*
X276424Y519685D01*
X313188Y487833D02*
X314874Y486146D01*
X261349Y487833D02*
X313188D01*
X229890Y519291D02*
X261349Y487833D01*
X312774Y486833D02*
X313874Y485732D01*
X229103Y489764D02*
X232034Y486833D01*
X312774D01*
X304331Y381496D02*
X312874Y372953D01*
X276378Y381496D02*
X304331D01*
X306262Y319722D02*
X307874Y318110D01*
X228346Y321654D02*
X252048D01*
X253980Y319722D01*
X306262D01*
X307012Y321654D02*
X308874Y319791D01*
X276378Y321654D02*
X307012D01*
X251919Y351575D02*
X254244Y349250D01*
X228611Y351575D02*
X251919D01*
X302756Y351181D02*
X310874Y343063D01*
X276249Y351181D02*
X302756D01*
X299213Y361417D02*
X311874Y348756D01*
X242165Y361417D02*
X299213D01*
X235423Y368159D02*
Y368386D01*
Y368159D02*
X242165Y361417D01*
X228482Y375327D02*
Y381496D01*
Y375327D02*
X235423Y368386D01*
X195276Y316912D02*
Y517323D01*
X154770Y519685D02*
X192913D01*
X154770Y519685D02*
X154770Y519685D01*
X192913D02*
X195276Y517323D01*
X194276Y316497D02*
Y486666D01*
X154989Y489764D02*
X191178D01*
X194276Y486666D01*
X193220Y316138D02*
Y486146D01*
X139696Y487833D02*
X191534D01*
X193220Y486146D01*
X108237Y519291D02*
X139696Y487833D01*
X192220Y315724D02*
Y485732D01*
X107449Y489764D02*
X110381Y486833D01*
X191120D01*
X192220Y485732D01*
X154724Y381496D02*
X182677D01*
X191220Y372953D01*
Y315310D02*
Y372953D01*
X132326Y319722D02*
X184608D01*
X186221Y318110D01*
X106693Y321654D02*
X130395D01*
X132326Y319722D01*
X187221Y313653D02*
Y319791D01*
X154724Y321654D02*
X185358D01*
X187221Y319791D01*
X106957Y351575D02*
X130266D01*
X132590Y349250D02*
X177559D01*
X130266Y351575D02*
X132590Y349250D01*
X177559D02*
X188221Y338589D01*
Y314067D02*
Y338589D01*
X154595Y351181D02*
X181102D01*
X189220Y343063D01*
Y314482D02*
Y343063D01*
X106828Y375327D02*
X113769Y368386D01*
X106828Y375327D02*
Y381496D01*
X190220Y314896D02*
Y348756D01*
X177559Y361417D02*
X190220Y348756D01*
X113769Y368159D02*
X120511Y361417D01*
X113769Y368159D02*
Y368386D01*
X120511Y361417D02*
X177559D01*
X186221Y313239D02*
Y318110D01*
X57745Y489764D02*
X93934D01*
X97031Y316497D02*
Y486666D01*
Y316497D02*
X108230Y305299D01*
X93934Y489764D02*
X97031Y486666D01*
X87364Y319722D02*
X88976Y318110D01*
X9449Y321654D02*
X33151D01*
X35082Y319722D01*
X87364D01*
X89976Y313653D02*
Y319791D01*
X57480Y321654D02*
X88114D01*
X89976Y319791D01*
X80315Y349250D02*
X90976Y338589D01*
X9713Y351575D02*
X33022D01*
X35346Y349250D01*
X80315D01*
X91976Y314482D02*
Y343063D01*
X57351Y351181D02*
X83858D01*
X91976Y343063D01*
X16525Y368159D02*
Y368386D01*
X9584Y375327D02*
X16525Y368386D01*
X9584Y375327D02*
Y381496D01*
X23267Y361417D02*
X80315D01*
X16525Y368159D02*
X23267Y361417D01*
X80315D02*
X92976Y348756D01*
X57480Y381496D02*
X85433D01*
X93976Y372953D01*
Y315310D02*
Y372953D01*
X10205Y489764D02*
X13137Y486833D01*
X93876D01*
X94976Y485732D01*
X94290Y487833D02*
X95976Y486146D01*
X10993Y519291D02*
X42452Y487833D01*
X94290D01*
X98032Y316912D02*
Y517323D01*
X57526Y519685D02*
X95669D01*
X57526Y519685D02*
X57526Y519685D01*
X95669D02*
X98032Y517323D01*
X173228Y288976D02*
X173228D01*
X88976Y313239D02*
X104971Y297244D01*
X88976Y313239D02*
Y318110D01*
X89976Y313653D02*
X105385Y298244D01*
X90976Y314067D02*
X105800Y299244D01*
X90976Y314067D02*
Y338589D01*
X91976Y314482D02*
X106214Y300244D01*
X92976Y314896D02*
X106628Y301244D01*
X92976Y314896D02*
Y348756D01*
X93976Y315310D02*
X107042Y302244D01*
X94976Y315724D02*
X107457Y303244D01*
X94976Y315724D02*
Y485732D01*
X95976Y316138D02*
X107871Y304244D01*
X95976Y316138D02*
Y486146D01*
X98032Y316912D02*
X108644Y306299D01*
X351224Y319722D02*
X403506D01*
X349293Y321654D02*
X351224Y319722D01*
X403506D02*
X405118Y318110D01*
X325591Y321654D02*
X349293D01*
X405118Y316953D02*
Y318110D01*
X373622Y321654D02*
X404256D01*
X406118Y319791D01*
X349163Y351575D02*
X351488Y349250D01*
X396457D01*
X325855Y351575D02*
X349163D01*
X396457Y349250D02*
X407118Y338589D01*
X373493Y351181D02*
X400000D01*
X408118Y343063D01*
X396457Y361417D02*
X409118Y348756D01*
X339409Y361417D02*
X396457D01*
X409118Y315297D02*
Y348756D01*
X332667Y368159D02*
Y368386D01*
Y368159D02*
X339409Y361417D01*
X325726Y375327D02*
X332667Y368386D01*
X325726Y375327D02*
Y381496D01*
X373622D02*
X401575D01*
X410118Y372953D01*
X411118Y314468D02*
Y485732D01*
X410018Y486833D02*
X411118Y485732D01*
X326347Y489764D02*
X329278Y486833D01*
X410018D01*
X410432Y487833D02*
X412118Y486146D01*
X358593Y487833D02*
X410432D01*
X412118Y314054D02*
Y486146D01*
X327135Y519291D02*
X358593Y487833D01*
X373887Y489764D02*
X410076D01*
X413173Y486666D01*
Y316724D02*
Y486666D01*
X373668Y519685D02*
X411811D01*
X414173Y517323D01*
X373668Y519685D02*
X373668Y519685D01*
X402210Y301317D02*
X414173Y313281D01*
Y517323D01*
X398896Y309317D02*
X406118Y316539D01*
X399310Y308317D02*
X407118Y316125D01*
X399724Y307317D02*
X408118Y315711D01*
X400139Y306317D02*
X409118Y315297D01*
X400553Y305317D02*
X410118Y314882D01*
X400967Y304317D02*
X411118Y314468D01*
X401381Y303317D02*
X412118Y314054D01*
X401795Y302317D02*
X413118Y313640D01*
Y316669D01*
X413173Y316724D01*
X410118Y314882D02*
Y372953D01*
X408118Y315711D02*
Y343063D01*
X407118Y316125D02*
Y338589D01*
X406118Y316539D02*
Y319791D01*
X472877Y319722D02*
X525160D01*
X470946Y321654D02*
X472877Y319722D01*
X525160D02*
X526772Y318110D01*
X447244Y321654D02*
X470946D01*
X526772Y316953D02*
Y318110D01*
X525910Y321654D02*
X527772Y319791D01*
X495275Y321654D02*
X525910D01*
X527772Y316539D02*
Y319791D01*
X510549Y299317D02*
X527772Y316539D01*
X470817Y351575D02*
X473142Y349250D01*
X447508Y351575D02*
X470817D01*
X473142Y349250D02*
X518110D01*
X528772Y316125D02*
Y338589D01*
X518110Y349250D02*
X528772Y338589D01*
X510964Y298317D02*
X528772Y316125D01*
X521654Y351181D02*
X529772Y343063D01*
X495146Y351181D02*
X521654D01*
X529772Y315711D02*
Y343063D01*
X511378Y297317D02*
X529772Y315711D01*
X447379Y375327D02*
X454321Y368386D01*
Y368159D02*
X461062Y361417D01*
X454321Y368159D02*
Y368386D01*
X447379Y375327D02*
Y381496D01*
X518110Y361417D02*
X530772Y348756D01*
X461062Y361417D02*
X518110D01*
X530772Y315297D02*
Y348756D01*
X511792Y296317D02*
X530772Y315297D01*
X495321Y519685D02*
X533465D01*
X535827Y517323D01*
X495321Y519685D02*
X495321Y519685D01*
X535827Y313281D02*
Y517323D01*
X513863Y291317D02*
X535827Y313281D01*
X531729Y489764D02*
X534827Y486666D01*
X495540Y489764D02*
X531729D01*
X534827Y316724D02*
Y486666D01*
X534772Y313640D02*
Y316669D01*
X534827Y316724D01*
X513449Y292317D02*
X534772Y313640D01*
X448788Y519291D02*
X480247Y487833D01*
X532086D01*
X533772Y314054D02*
Y486146D01*
X532086Y487833D02*
X533772Y486146D01*
X513035Y293317D02*
X533772Y314054D01*
X448001Y489764D02*
X450932Y486833D01*
X531671D01*
X532772Y314468D02*
Y485732D01*
X531671Y486833D02*
X532772Y485732D01*
X512620Y294317D02*
X532772Y314468D01*
X495275Y381496D02*
X523228D01*
X531772Y372953D01*
Y314882D02*
Y372953D01*
X512206Y295317D02*
X531772Y314882D01*
X598208Y288317D02*
X626016Y316125D01*
X597793Y289317D02*
X625016Y316539D01*
X597379Y290317D02*
X624016Y316953D01*
X599865Y284317D02*
X630016Y314468D01*
X388530Y289317D02*
X597793D01*
X598622Y287317D02*
X627016Y315711D01*
X402915Y281262D02*
X601052D01*
X599450Y285317D02*
X629016Y314882D01*
X600279Y283317D02*
X631016Y314054D01*
X599036Y286317D02*
X628016Y315297D01*
Y348756D01*
X627016Y315711D02*
Y343063D01*
X628973Y489764D02*
X632071Y486666D01*
X592784Y489764D02*
X628973D01*
X632071Y316724D02*
Y486666D01*
X544623Y375327D02*
X551565Y368386D01*
Y368159D02*
X558307Y361417D01*
X551565Y368159D02*
Y368386D01*
X544623Y375327D02*
Y381496D01*
X615354Y361417D02*
X628016Y348756D01*
X558307Y361417D02*
X615354D01*
X592390Y351181D02*
X618898D01*
X627016Y343063D01*
X568190Y321654D02*
X570121Y319722D01*
X544488Y321654D02*
X568190D01*
X570121Y319722D02*
X622404D01*
X624016Y316953D02*
Y318110D01*
X622404Y319722D02*
X624016Y318110D01*
X600638Y282262D02*
X632016Y313640D01*
Y316669D01*
X632071Y316724D01*
X601052Y281262D02*
X633071Y313281D01*
X592520Y321654D02*
X623154D01*
X625016Y319791D01*
X544753Y351575D02*
X568061D01*
X570386Y349250D02*
X615354D01*
X568061Y351575D02*
X570386Y349250D01*
X615354D02*
X626016Y338589D01*
X592565Y519685D02*
X630709D01*
X633071Y517323D01*
X592565Y519685D02*
X592565Y519685D01*
X546032Y519291D02*
X577491Y487833D01*
X629330D01*
X631016Y486146D01*
X545245Y489764D02*
X548176Y486833D01*
X628915D01*
X630016Y485732D01*
X592520Y381496D02*
X620472D01*
X629016Y372953D01*
X633071Y313281D02*
Y517323D01*
X631016Y314054D02*
Y486146D01*
X630016Y314468D02*
Y485732D01*
X629016Y314882D02*
Y372953D01*
X626016Y316125D02*
Y338589D01*
X625016Y316539D02*
Y319791D01*
X63502Y465215D02*
X67097Y468810D01*
X62194Y465215D02*
X63502D01*
X51468Y447244D02*
Y454490D01*
X62194Y465215D01*
X160746D02*
X164341Y468810D01*
X159438Y465215D02*
X160746D01*
X148713Y447244D02*
Y454490D01*
X159438Y465215D01*
X282400Y465215D02*
X285995Y468810D01*
X281091Y465215D02*
X282400D01*
X270366Y447244D02*
Y454490D01*
X281091Y465215D01*
X379644D02*
X383239Y468810D01*
X378335Y465215D02*
X379644D01*
X367610Y447244D02*
Y454490D01*
X378335Y465215D01*
X501297D02*
X504892Y468810D01*
X499989Y465215D02*
X501297D01*
X489264Y447244D02*
Y454490D01*
X499989Y465215D01*
X598541D02*
X602137Y468810D01*
X597233Y465215D02*
X598541D01*
X586508Y454490D02*
X597233Y465215D01*
X586508Y447244D02*
Y454490D01*
X94468Y77953D02*
X97618Y81102D01*
X97992D01*
X84646D02*
X94094D01*
Y77953D02*
X94468D01*
X74206Y39854D02*
X85684D01*
X64851Y55378D02*
X64930Y55299D01*
Y47881D02*
X65009Y47801D01*
Y44130D02*
Y47801D01*
X64930Y47881D02*
Y55299D01*
X95860Y52204D02*
X98367Y49697D01*
X103734D01*
X90589Y57475D02*
X95860Y52204D01*
X85684Y39854D02*
X86380Y39159D01*
X86884D01*
X94919Y72797D02*
X100000Y67716D01*
X83502Y72797D02*
X94919D01*
X81496Y74803D02*
X83502Y72797D01*
X79295Y70526D02*
X90211D01*
X90551Y70866D01*
X77434Y68664D02*
X79295Y70526D01*
X74132Y68664D02*
X77434D01*
X90589Y57475D02*
Y65498D01*
X92520Y64567D02*
X92913D01*
X96063Y67716D01*
X96457D01*
X90589Y65498D02*
X92520Y67429D01*
X77953Y74410D02*
X84646Y81102D01*
D113*
X193087Y227311D02*
D03*
X203087D02*
D03*
X213088D02*
D03*
X223088D02*
D03*
X233087D02*
D03*
X243088D02*
D03*
X253087D02*
D03*
X263088D02*
D03*
X273088D02*
D03*
X283087D02*
D03*
X293088D02*
D03*
X303087D02*
D03*
X313088D02*
D03*
X323088D02*
D03*
X333087D02*
D03*
X343088D02*
D03*
X353087D02*
D03*
X363088D02*
D03*
X373088D02*
D03*
X383087D02*
D03*
Y37311D02*
D03*
X373088D02*
D03*
X363088D02*
D03*
X213088D02*
D03*
X203087D02*
D03*
X26759Y187450D02*
D03*
X8661Y187402D02*
D03*
X8650Y172758D02*
D03*
X16929Y248031D02*
D03*
X163779Y309549D02*
D03*
X285233Y309440D02*
D03*
X601575Y309055D02*
D03*
X66535D02*
D03*
X383465Y313779D02*
D03*
X503937Y308661D02*
D03*
X67716Y511811D02*
D03*
X56693Y475591D02*
D03*
X12205Y505512D02*
D03*
Y475984D02*
D03*
X63386Y367323D02*
D03*
X12598Y367717D02*
D03*
X60630Y337795D02*
D03*
X12205D02*
D03*
X18898Y309842D02*
D03*
X62205Y460630D02*
D03*
X19685Y456299D02*
D03*
X24457Y364824D02*
D03*
X82506Y465354D02*
D03*
X66929Y474016D02*
D03*
X77559Y455512D02*
D03*
X164961Y511811D02*
D03*
X153937Y475591D02*
D03*
X109449Y505512D02*
D03*
Y475984D02*
D03*
X160630Y367323D02*
D03*
X109843Y367717D02*
D03*
X157874Y337795D02*
D03*
X109449D02*
D03*
X116142Y309842D02*
D03*
X159449Y460630D02*
D03*
X116929Y456299D02*
D03*
X121701Y364824D02*
D03*
X179750Y465354D02*
D03*
X164173Y474016D02*
D03*
X174803Y455512D02*
D03*
X286614Y511811D02*
D03*
X275590Y475591D02*
D03*
X231102Y505512D02*
D03*
Y475984D02*
D03*
X282283Y367323D02*
D03*
X231496Y367717D02*
D03*
X279527Y337795D02*
D03*
X231102D02*
D03*
X237795Y309842D02*
D03*
X281102Y460630D02*
D03*
X238583Y456299D02*
D03*
X243354Y364824D02*
D03*
X301404Y465354D02*
D03*
X285827Y474016D02*
D03*
X296457Y455512D02*
D03*
X383858Y511811D02*
D03*
X372835Y475591D02*
D03*
X328346Y505512D02*
D03*
Y475984D02*
D03*
X379528Y367323D02*
D03*
X328740Y367717D02*
D03*
X376772Y337795D02*
D03*
X328346D02*
D03*
X335039Y309842D02*
D03*
X378346Y460630D02*
D03*
X335827Y456299D02*
D03*
X340598Y364824D02*
D03*
X398648Y465354D02*
D03*
X383071Y474016D02*
D03*
X393701Y455512D02*
D03*
X505512Y511811D02*
D03*
X494488Y475591D02*
D03*
X450000Y505512D02*
D03*
Y475984D02*
D03*
X501181Y367323D02*
D03*
X450394Y367717D02*
D03*
X498425Y337795D02*
D03*
X450000D02*
D03*
X456693Y309842D02*
D03*
X500000Y460630D02*
D03*
X457480Y456299D02*
D03*
X462252Y364824D02*
D03*
X520301Y465354D02*
D03*
X504724Y474016D02*
D03*
X515354Y455512D02*
D03*
X554724Y456299D02*
D03*
X31496Y203150D02*
D03*
X37402D02*
D03*
X26632Y172759D02*
D03*
X131890Y258662D02*
D03*
X116142Y281102D02*
D03*
X139173Y258662D02*
D03*
X116142Y289567D02*
D03*
X36614Y233858D02*
D03*
X67716Y224803D02*
D03*
X50000D02*
D03*
X612598Y455512D02*
D03*
X591732Y475591D02*
D03*
X601968Y474016D02*
D03*
X602756Y511811D02*
D03*
X597244Y460630D02*
D03*
X617546Y465354D02*
D03*
X598425Y367323D02*
D03*
X547244Y337795D02*
D03*
X595669D02*
D03*
X553937Y309842D02*
D03*
X547638Y367717D02*
D03*
X559496Y364824D02*
D03*
X547244Y475984D02*
D03*
Y505512D02*
D03*
D114*
X193087Y37311D02*
D03*
D125*
X103241Y115552D02*
X145971D01*
X146063Y115644D01*
X103150Y115461D02*
X103241Y115552D01*
X173941Y108842D02*
X173946Y108837D01*
X171079Y108661D02*
Y121269D01*
X168217Y108661D02*
Y120083D01*
X165354Y108661D02*
Y118898D01*
X176803Y108873D02*
Y123640D01*
X179665Y108761D02*
Y124826D01*
X173941Y108842D02*
Y122454D01*
X179665Y108761D02*
X179769Y108658D01*
X176803Y108873D02*
X176909Y108767D01*
X198106Y121260D02*
X198425D01*
X197515Y121851D02*
X198106Y121260D01*
X197484Y121851D02*
X197515D01*
X198106Y124122D02*
X198425D01*
X197515Y124713D02*
X198106Y124122D01*
X197484Y124713D02*
X197515D01*
X198106Y126984D02*
X198425D01*
X197515Y127575D02*
X198106Y126984D01*
X197484Y127575D02*
X197515D01*
X172848Y146487D02*
X197484Y121851D01*
X198075Y129847D02*
X198425D01*
X198075Y135571D02*
X198425D01*
X198075Y132709D02*
X198425D01*
X205309Y222076D02*
X208359Y225127D01*
X172622Y147244D02*
X172848Y147018D01*
Y146487D02*
Y147018D01*
X175484Y147244D02*
X175710Y147018D01*
Y146487D02*
Y147018D01*
X178347Y147244D02*
X178572Y147018D01*
Y146487D02*
Y147018D01*
X182146Y145775D02*
Y147638D01*
X180555Y204815D02*
X189141D01*
X185008Y147638D02*
X185234Y147412D01*
Y145550D02*
Y147412D01*
X175710Y146487D02*
X197484Y124713D01*
X187870Y145775D02*
Y147638D01*
X178572Y146487D02*
X197484Y127575D01*
X189141Y204815D02*
X190232Y205906D01*
X182146Y145775D02*
X198075Y129847D01*
X190232Y205906D02*
X190551D01*
X190732Y145775D02*
Y147638D01*
X185234Y145550D02*
X198075Y132709D01*
X187870Y145775D02*
X198075Y135571D01*
X193595Y147638D02*
X193821Y147412D01*
Y145550D02*
Y147412D01*
X190732Y145775D02*
X198075Y138433D01*
X172047Y213323D02*
Y222441D01*
Y213323D02*
X180555Y204815D01*
X185705Y213415D02*
Y221776D01*
X174692Y224693D02*
X181496Y217889D01*
X176716Y226716D02*
X184024Y219409D01*
X181496Y207087D02*
Y217889D01*
X178740Y228740D02*
X185705Y221776D01*
X184024Y207421D02*
Y219409D01*
Y207421D02*
X184358Y207087D01*
X185705Y213415D02*
X187221Y211899D01*
Y207087D02*
Y211899D01*
X187386Y214111D02*
Y227278D01*
X189067Y214807D02*
Y216689D01*
X187386Y214111D02*
X192048Y209449D01*
X189067Y214807D02*
X190398Y213476D01*
X187386Y227278D02*
X194450Y234343D01*
X191339Y215748D02*
X191432D01*
X189067Y216689D02*
X196678Y224300D01*
X194450Y234343D02*
X194450D01*
X190398Y213476D02*
X196004D01*
X192048Y209449D02*
X196819D01*
X193821Y145550D02*
X198075Y141295D01*
X196457Y146126D02*
Y147638D01*
Y146126D02*
X198425Y144158D01*
X196004Y213476D02*
X199091Y210390D01*
X198075Y138433D02*
X198425D01*
X198075Y141295D02*
X198425D01*
X199091Y210359D02*
Y210390D01*
Y210359D02*
X199681Y209768D01*
Y209449D02*
Y209768D01*
X202543Y209449D02*
Y221688D01*
X205309Y209546D02*
Y222076D01*
Y209546D02*
X205405Y209449D01*
X207580Y220866D02*
Y220866D01*
X208268Y209449D02*
Y212769D01*
X215748Y209449D02*
X218359Y212060D01*
X208268Y212769D02*
X216678Y221179D01*
X211130Y209449D02*
X215748D01*
X196678Y224300D02*
Y225979D01*
X191432Y215748D02*
X202264Y226580D01*
X196678Y225979D02*
X200765Y230066D01*
X202264Y226580D02*
X202357D01*
X203088Y227310D01*
X202543Y221688D02*
X206678Y225823D01*
X203628Y231848D02*
X206678Y228798D01*
Y225823D02*
Y228798D01*
X218359Y212060D02*
Y231650D01*
X214575Y230901D02*
X216678Y228798D01*
Y221179D02*
Y228798D01*
X206678Y231175D02*
X208359Y229494D01*
Y225127D02*
Y229494D01*
X207580Y220866D02*
X210040Y223326D01*
Y224435D01*
X209575Y232844D02*
X210533Y231886D01*
Y231886D02*
Y231886D01*
Y231886D02*
X211518Y230901D01*
X210040Y224435D02*
X212916Y227310D01*
X213088D01*
X211518Y230901D02*
X214575D01*
X225197Y231496D02*
X226378D01*
X424635Y111250D02*
X426998D01*
X424409Y111024D02*
X424635Y111250D01*
X426998D02*
X430709Y114961D01*
X149828Y150615D02*
X176803Y123640D01*
X112889Y144669D02*
Y147252D01*
X136165Y170528D01*
X115751Y144488D02*
Y146066D01*
X138189Y168504D01*
X104299Y150814D02*
X130089Y176604D01*
X104299Y144488D02*
Y150814D01*
X145975Y112693D02*
X146063Y112782D01*
X103424Y112693D02*
X145975D01*
X103336Y112604D02*
X103424Y112693D01*
X103241Y109828D02*
X145971D01*
X146063Y109919D01*
X145970Y118415D02*
X146063Y118508D01*
X103242Y118415D02*
X145970D01*
X209575Y232844D02*
Y237572D01*
X209352Y237795D02*
X209575Y237572D01*
X194450Y234343D02*
X197903Y237795D01*
X316622Y254834D02*
Y259159D01*
X316396Y259385D02*
Y262702D01*
X311490Y253542D02*
Y262711D01*
X314016Y254228D02*
Y264293D01*
X316622Y254834D02*
X326968Y244488D01*
X321850Y253543D02*
Y258086D01*
X316396Y259385D02*
X316622Y259159D01*
X311490Y253542D02*
X320617Y244415D01*
X299016Y253543D02*
Y258086D01*
X293731Y254891D02*
Y262931D01*
Y254891D02*
X294065Y254557D01*
X291459Y261752D02*
Y265183D01*
X291374Y265268D02*
X291459Y265183D01*
Y261752D02*
X291794Y261417D01*
Y253616D02*
Y261417D01*
X266004Y253358D02*
Y262711D01*
X269094Y253480D02*
Y263386D01*
X271861Y253927D02*
X281299Y244488D01*
X280358Y242216D02*
X282240D01*
X269094Y253480D02*
X280358Y242216D01*
X282240D02*
X284160Y244137D01*
Y244410D01*
X266004Y253358D02*
X274957Y244406D01*
X288702Y252834D02*
X297441Y244094D01*
X288702Y252834D02*
Y262292D01*
X288962Y262553D01*
Y262873D02*
X289188Y263099D01*
X288962Y262553D02*
Y262873D01*
X253740Y253543D02*
Y258086D01*
X260736Y243578D02*
X261327Y244168D01*
Y244488D01*
X257423Y242216D02*
X259406D01*
X260736Y243547D01*
Y243578D01*
X271861Y253927D02*
Y262651D01*
X276575Y257767D02*
X277052Y257290D01*
X276575Y257767D02*
Y258086D01*
X277052Y253543D02*
Y257290D01*
X390354Y253543D02*
Y258086D01*
X380040Y252834D02*
X389173Y243701D01*
X382783Y253571D02*
X394138Y242216D01*
X397350Y243578D02*
X397941Y244168D01*
X291794Y253616D02*
X303193Y242216D01*
X394138D02*
X396020D01*
X397941Y244168D02*
Y244488D01*
X385254Y254313D02*
X395079Y244488D01*
X385254Y254313D02*
Y262928D01*
X396020Y242216D02*
X397350Y243547D01*
Y243578D01*
X374516D02*
X375106Y244168D01*
X373185Y242216D02*
X374516Y243547D01*
X371303Y242216D02*
X373185D01*
X374516Y243547D02*
Y243578D01*
X294065Y254557D02*
X304134Y244488D01*
X303193Y242216D02*
X305075D01*
X306406Y243547D02*
Y243578D01*
X305075Y242216D02*
X306406Y243547D01*
Y243578D02*
X306996Y244168D01*
Y244488D01*
X314016Y254228D02*
X326028Y242216D01*
X327909D01*
X329240Y243547D01*
Y243578D01*
X329831Y244168D01*
Y244488D01*
X197903Y237795D02*
Y237795D01*
X206490D02*
X206678Y237607D01*
X162205Y242913D02*
X172441D01*
X196390D02*
X213779D01*
X230906Y253543D02*
Y258086D01*
X248622Y254331D02*
X258465Y244488D01*
X248622Y254331D02*
Y258917D01*
X248936Y259231D01*
Y262875D01*
X246114Y253525D02*
Y263791D01*
Y253525D02*
X257423Y242216D01*
X246114Y263791D02*
X246291Y263968D01*
X243701Y252559D02*
X252165Y244094D01*
X243613Y262959D02*
X243701Y262871D01*
Y252559D02*
Y262871D01*
X175573Y260006D02*
X175749Y260182D01*
X184076D02*
X184252Y260358D01*
X175749Y260182D02*
X184076D01*
X382783Y253571D02*
Y264067D01*
X380040Y262961D02*
X380070Y262991D01*
X382677Y264173D02*
X382783Y264067D01*
X380040Y252834D02*
Y262961D01*
X362067Y254665D02*
Y263099D01*
X359705Y253815D02*
Y265067D01*
X362067Y254665D02*
X362402Y254331D01*
X357284Y252362D02*
Y262807D01*
X357225Y262866D02*
X357284Y262807D01*
X375106Y244168D02*
Y244488D01*
X362402Y254331D02*
X372244Y244488D01*
X357284Y252362D02*
X365551Y244094D01*
X359705Y253815D02*
X371303Y242216D01*
X367520Y253543D02*
Y258086D01*
X334344Y252754D02*
Y262731D01*
X339260Y258497D02*
X339567Y258191D01*
Y254331D02*
Y258191D01*
X339260Y258497D02*
Y262677D01*
X336917Y253831D02*
Y264321D01*
X344685Y253543D02*
Y258086D01*
X336917Y253831D02*
X340354Y250394D01*
X339567Y254331D02*
X349409Y244488D01*
X340354Y250331D02*
Y250394D01*
X348469Y242216D02*
X350350D01*
X340354Y250331D02*
X348469Y242216D01*
X351681Y243547D02*
Y243578D01*
X350350Y242216D02*
X351681Y243547D01*
Y243578D02*
X352272Y244168D01*
Y244488D01*
X334344Y252754D02*
X342717Y244382D01*
X213779Y242913D02*
X225197Y231496D01*
X200765Y230066D02*
Y237795D01*
X203628Y231848D02*
Y237795D01*
X206678Y231175D02*
Y237607D01*
X212214Y237795D02*
X218359Y231650D01*
X143756Y144544D02*
X168217Y120083D01*
X141732Y142520D02*
X165354Y118898D01*
X151852Y152639D02*
X179665Y124826D01*
X145780Y146567D02*
X171079Y121269D01*
X147804Y148591D02*
X173941Y122454D01*
X107167Y149626D02*
X132117Y174575D01*
X107167Y144674D02*
Y149626D01*
X110028Y144581D02*
Y148439D01*
X134141Y172552D01*
X103150Y118323D02*
X103242Y118415D01*
X103150Y109736D02*
X103241Y109828D01*
X94094Y97069D02*
Y120079D01*
X120472Y92913D02*
Y101575D01*
X112992Y85433D02*
X120472Y92913D01*
X116141Y93222D02*
Y96456D01*
X110720Y87801D02*
X116141Y93222D01*
X80432Y114056D02*
Y114844D01*
X75591Y119685D02*
X80432Y114844D01*
Y114056D02*
X85433Y109055D01*
X431890Y123228D02*
X443216D01*
X427559Y118898D02*
X431890Y123228D01*
X431102Y118898D02*
X443307D01*
X427165Y114961D02*
X431102Y118898D01*
X109039Y82236D02*
X124346Y66929D01*
X124409D01*
X109039Y82236D02*
Y85449D01*
X110720Y83768D02*
X120079Y74410D01*
X110720Y83768D02*
Y87801D01*
X107358Y78862D02*
X117323Y68898D01*
X107358Y78862D02*
Y83805D01*
X98031Y96457D02*
X109039Y85449D01*
X94094Y97069D02*
X107358Y83805D01*
X55728Y191161D02*
X60630Y196063D01*
X55728Y187906D02*
Y191161D01*
X55532Y188102D02*
X55728Y187906D01*
D130*
X26536Y365253D02*
X64056Y402774D01*
X24886Y365253D02*
X26536D01*
X24457Y364824D02*
X24886Y365253D01*
X66929Y474016D02*
X73845D01*
X82506Y465354D01*
X77965Y448878D02*
Y455105D01*
X77559Y455512D02*
X77965Y455105D01*
Y448878D02*
X89050Y437794D01*
X123780Y365253D02*
X161300Y402774D01*
X122130Y365253D02*
X123780D01*
X121701Y364824D02*
X122130Y365253D01*
X164173Y474016D02*
X171089D01*
X179750Y465354D01*
X175209Y448878D02*
Y455105D01*
X174803Y455512D02*
X175209Y455105D01*
Y448878D02*
X186293Y437794D01*
X245434Y365253D02*
X282954Y402774D01*
X243784Y365253D02*
X245434D01*
X243354Y364824D02*
X243784Y365253D01*
X285827Y474016D02*
X292742D01*
X301404Y465354D01*
X296863Y448878D02*
Y455105D01*
X296457Y455512D02*
X296863Y455105D01*
Y448878D02*
X307947Y437794D01*
X342678Y365253D02*
X380198Y402774D01*
X341028Y365253D02*
X342678D01*
X340598Y364824D02*
X341028Y365253D01*
X383071Y474016D02*
X389986D01*
X398648Y465354D01*
X394107Y448878D02*
Y455105D01*
X393701Y455512D02*
X394107Y455105D01*
Y448878D02*
X405191Y437794D01*
X464331Y365253D02*
X501852Y402774D01*
X462681Y365253D02*
X464331D01*
X462252Y364824D02*
X462681Y365253D01*
X504724Y474016D02*
X511640D01*
X520301Y465354D01*
X515761Y448878D02*
Y455105D01*
X515354Y455512D02*
X515761Y455105D01*
Y448878D02*
X526845Y437794D01*
X613005Y448878D02*
X624089Y437794D01*
X559496Y364824D02*
X559925Y365253D01*
X561575D01*
X601968Y474016D02*
X608884D01*
X612598Y455512D02*
X613005Y455105D01*
Y448878D02*
Y455105D01*
X608884Y474016D02*
X617546Y465354D01*
X561575Y365253D02*
X599096Y402774D01*
D131*
X17704Y170602D02*
D03*
Y189696D02*
D03*
D132*
X7152Y194420D02*
D03*
Y165878D02*
D03*
D133*
X86805Y46941D02*
D03*
X82081D02*
D03*
X77356D02*
D03*
X72632D02*
D03*
X86805Y51665D02*
D03*
X82081D02*
D03*
X77356D02*
D03*
X72632D02*
D03*
X86805Y56390D02*
D03*
X82081D02*
D03*
X77356D02*
D03*
X72632D02*
D03*
X86805Y61114D02*
D03*
X82081D02*
D03*
X77356D02*
D03*
X72632D02*
D03*
D134*
X10236Y100866D02*
D03*
Y110866D02*
D03*
Y120866D02*
D03*
D135*
Y130866D02*
D03*
D136*
X436614Y48622D02*
D03*
Y81299D02*
D03*
D137*
Y64961D02*
D03*
Y72835D02*
D03*
Y57087D02*
D03*
D138*
X89128Y417294D02*
D03*
Y427294D02*
D03*
Y437294D02*
D03*
Y447294D02*
D03*
Y457294D02*
D03*
X186372Y417294D02*
D03*
Y427294D02*
D03*
Y437294D02*
D03*
Y447294D02*
D03*
Y457294D02*
D03*
X308026Y417294D02*
D03*
Y427294D02*
D03*
Y437294D02*
D03*
Y447294D02*
D03*
Y457294D02*
D03*
X405270Y417294D02*
D03*
Y427294D02*
D03*
Y437294D02*
D03*
Y447294D02*
D03*
Y457294D02*
D03*
X526924Y417294D02*
D03*
Y427294D02*
D03*
Y437294D02*
D03*
Y447294D02*
D03*
Y457294D02*
D03*
X624089Y417794D02*
D03*
Y427794D02*
D03*
Y437794D02*
D03*
Y447794D02*
D03*
Y457794D02*
D03*
D139*
X89128Y467294D02*
D03*
X186372D02*
D03*
X308026Y467294D02*
D03*
X405270D02*
D03*
X526924D02*
D03*
X624089Y467794D02*
D03*
D140*
X561417Y97244D02*
D03*
D141*
X457874Y24016D02*
D03*
X18110Y67716D02*
D03*
X431890Y524409D02*
D03*
X212598Y523622D02*
D03*
D142*
X438189Y276772D02*
D03*
Y231102D02*
D03*
D143*
X171588Y402774D02*
D03*
X390485Y402774D02*
D03*
X609096Y402774D02*
D03*
X293241D02*
D03*
X512139D02*
D03*
X74344D02*
D03*
D144*
X161588Y402774D02*
D03*
X151588D02*
D03*
X141588D02*
D03*
X131588D02*
D03*
X380485Y402774D02*
D03*
X370485D02*
D03*
X360485D02*
D03*
X350485D02*
D03*
X599096Y402774D02*
D03*
X589096D02*
D03*
X579096D02*
D03*
X569096D02*
D03*
X283241D02*
D03*
X273241D02*
D03*
X263241D02*
D03*
X253241D02*
D03*
X502139D02*
D03*
X492139D02*
D03*
X482139D02*
D03*
X472139D02*
D03*
X64344D02*
D03*
X54344D02*
D03*
X44344D02*
D03*
X34344D02*
D03*
D145*
X107480Y17717D02*
D03*
D146*
Y22717D02*
D03*
X112480Y17717D02*
D03*
Y22717D02*
D03*
X117480Y17717D02*
D03*
Y22717D02*
D03*
X122480Y17717D02*
D03*
Y22717D02*
D03*
X127480Y17717D02*
D03*
Y22717D02*
D03*
D147*
X20669Y222146D02*
D03*
X16339D02*
D03*
D148*
X146063Y115644D02*
D03*
X171079Y108661D02*
D03*
X176909Y108767D02*
D03*
X173946Y108837D02*
D03*
X179769Y108658D02*
D03*
X165354Y108661D02*
D03*
X168217D02*
D03*
X82284Y158268D02*
D03*
X81115Y178199D02*
D03*
X16535Y110630D02*
D03*
Y120472D02*
D03*
Y130709D02*
D03*
X558561Y102557D02*
D03*
X556158Y100205D02*
D03*
X552796D02*
D03*
X549434D02*
D03*
X546072D02*
D03*
X542709D02*
D03*
X539347D02*
D03*
X535985D02*
D03*
X532623D02*
D03*
X529261D02*
D03*
X525898D02*
D03*
X522536D02*
D03*
X519174D02*
D03*
X515812D02*
D03*
X512450D02*
D03*
X509087D02*
D03*
X505725D02*
D03*
X502363D02*
D03*
X499001D02*
D03*
X495639D02*
D03*
X492276D02*
D03*
X488914D02*
D03*
X485552D02*
D03*
X482190D02*
D03*
X482293Y94283D02*
D03*
X485655D02*
D03*
X489018D02*
D03*
X492380D02*
D03*
X499104D02*
D03*
X505829D02*
D03*
X509191D02*
D03*
X515915D02*
D03*
X522640D02*
D03*
X529364D02*
D03*
X532726D02*
D03*
X539451D02*
D03*
X546175D02*
D03*
X552899D02*
D03*
X556258Y94129D02*
D03*
X562032Y91250D02*
D03*
X567109Y95245D02*
D03*
X567298Y98602D02*
D03*
X565645Y101530D02*
D03*
X562699Y103150D02*
D03*
X46063Y53543D02*
D03*
X37402Y41732D02*
D03*
X40551Y46457D02*
D03*
X42126Y41732D02*
D03*
X43307Y50000D02*
D03*
X374351Y232822D02*
D03*
X179223Y24212D02*
D03*
X239561D02*
D03*
X420574D02*
D03*
X175484Y147244D02*
D03*
X172622D02*
D03*
X178347D02*
D03*
X172047Y222441D02*
D03*
X174692Y224693D02*
D03*
X176716Y226716D02*
D03*
X182146Y147638D02*
D03*
X198425Y144158D02*
D03*
X193595Y147638D02*
D03*
X185008D02*
D03*
X198425Y121260D02*
D03*
Y124122D02*
D03*
Y126984D02*
D03*
Y129847D02*
D03*
Y132709D02*
D03*
Y135571D02*
D03*
Y138433D02*
D03*
Y141295D02*
D03*
X187870Y147638D02*
D03*
X190732D02*
D03*
X196457D02*
D03*
X190551Y205906D02*
D03*
X181496Y207087D02*
D03*
X184358D02*
D03*
X187221D02*
D03*
X196819Y209449D02*
D03*
X211130D02*
D03*
X205405D02*
D03*
X199681D02*
D03*
X208268D02*
D03*
X202543D02*
D03*
X191339Y215748D02*
D03*
X207580Y220866D02*
D03*
X178740Y228740D02*
D03*
X299899Y24212D02*
D03*
X364509Y232822D02*
D03*
X354666D02*
D03*
X344036D02*
D03*
X360236Y24212D02*
D03*
X424409Y111024D02*
D03*
X136165Y170528D02*
D03*
X130089Y176604D02*
D03*
X146063Y112782D02*
D03*
Y109919D02*
D03*
X16142Y238968D02*
D03*
X190157Y236910D02*
D03*
X146063Y118508D02*
D03*
X2362Y37795D02*
D03*
X7087D02*
D03*
X11812D02*
D03*
X16538D02*
D03*
X21263D02*
D03*
X25988D02*
D03*
X30713D02*
D03*
X35438D02*
D03*
X40163D02*
D03*
X66142Y3937D02*
D03*
Y8196D02*
D03*
X162205Y242913D02*
D03*
X60238Y111762D02*
D03*
X60630Y133732D02*
D03*
X58532Y137432D02*
D03*
X206693Y284252D02*
D03*
X212205D02*
D03*
X208680Y280980D02*
D03*
X218110Y284252D02*
D03*
X216142Y281937D02*
D03*
X326721Y278179D02*
D03*
X216142Y279075D02*
D03*
Y276213D02*
D03*
X206299Y279134D02*
D03*
X203563Y277572D02*
D03*
X201181Y275984D02*
D03*
X293900Y277751D02*
D03*
X304311Y277178D02*
D03*
X306693Y275590D02*
D03*
X316929Y277559D02*
D03*
X334646Y278346D02*
D03*
X350000D02*
D03*
X382677Y275984D02*
D03*
X385433Y278346D02*
D03*
X209352Y237795D02*
D03*
X221791Y253075D02*
D03*
X197244Y280315D02*
D03*
X230906Y253543D02*
D03*
Y258086D02*
D03*
X203628Y237795D02*
D03*
X200765D02*
D03*
X197903D02*
D03*
X206490D02*
D03*
X221791Y267248D02*
D03*
X212214Y237795D02*
D03*
X196390Y242913D02*
D03*
X228150Y266535D02*
D03*
X156299Y237008D02*
D03*
X172441Y242913D02*
D03*
X193445Y280240D02*
D03*
X187933Y253075D02*
D03*
Y267248D02*
D03*
X184252Y260358D02*
D03*
X175573Y260006D02*
D03*
X163523Y280634D02*
D03*
X159586D02*
D03*
X398031Y276378D02*
D03*
X390158Y277953D02*
D03*
X392913Y275984D02*
D03*
X375197D02*
D03*
X380315Y278346D02*
D03*
X395276D02*
D03*
X372835D02*
D03*
X367717D02*
D03*
X370079Y275984D02*
D03*
X293898Y240945D02*
D03*
X267126D02*
D03*
X271063D02*
D03*
X248622D02*
D03*
X316732D02*
D03*
X289961D02*
D03*
X312795D02*
D03*
X335630D02*
D03*
X339567D02*
D03*
X244685D02*
D03*
X358071D02*
D03*
X362008D02*
D03*
X384736Y240885D02*
D03*
X403740Y240551D02*
D03*
X380906Y240945D02*
D03*
X407677Y240551D02*
D03*
X389173Y243701D02*
D03*
X397941Y244488D02*
D03*
X395079D02*
D03*
X375106D02*
D03*
X372244D02*
D03*
X365551Y244094D02*
D03*
X342717Y244382D02*
D03*
X344685Y258086D02*
D03*
X349409Y244488D02*
D03*
X352272D02*
D03*
X362205Y278346D02*
D03*
X347244Y275984D02*
D03*
X359796D02*
D03*
X357480Y278346D02*
D03*
X352756Y276378D02*
D03*
X344882Y278346D02*
D03*
X339370D02*
D03*
X321850Y253543D02*
D03*
Y258086D02*
D03*
X316396Y262702D02*
D03*
X309252Y266535D02*
D03*
X320662Y266505D02*
D03*
X324713Y253543D02*
D03*
X299016D02*
D03*
Y258086D02*
D03*
X297941Y266201D02*
D03*
X301878Y253543D02*
D03*
X293731Y262931D02*
D03*
X291374Y265268D02*
D03*
X289188Y263099D02*
D03*
X311490Y262711D02*
D03*
X314016Y264293D02*
D03*
X274957Y244406D02*
D03*
X326968Y244488D02*
D03*
X281299D02*
D03*
X284160Y244410D02*
D03*
X252165Y244094D02*
D03*
X258465Y244488D02*
D03*
X261327D02*
D03*
X304134D02*
D03*
X306996D02*
D03*
X297441Y244094D02*
D03*
X320617Y244415D02*
D03*
X329831Y244488D02*
D03*
X400197Y266535D02*
D03*
X366331Y266505D02*
D03*
X377756Y266535D02*
D03*
X387638Y266554D02*
D03*
X380070Y262991D02*
D03*
X393390Y253543D02*
D03*
X385254Y262928D02*
D03*
X382677Y264173D02*
D03*
X370669Y253543D02*
D03*
X283858Y275590D02*
D03*
X277052Y253543D02*
D03*
X276575Y258086D02*
D03*
X278740Y275590D02*
D03*
X281496Y277559D02*
D03*
X271654D02*
D03*
X271861Y262651D02*
D03*
X269094Y275590D02*
D03*
Y263386D02*
D03*
X266004Y262711D02*
D03*
X266535Y277559D02*
D03*
X280033Y253854D02*
D03*
X276378Y277559D02*
D03*
X324356Y276261D02*
D03*
X322047Y277953D02*
D03*
X336989Y276378D02*
D03*
X329142D02*
D03*
X298819Y277559D02*
D03*
X291535Y275984D02*
D03*
X288976Y277559D02*
D03*
X301575Y275590D02*
D03*
X311416Y277179D02*
D03*
X314016Y275984D02*
D03*
X246287Y275657D02*
D03*
X252601Y266448D02*
D03*
X253740Y253543D02*
D03*
Y258086D02*
D03*
X248425Y277559D02*
D03*
X246291Y263968D02*
D03*
X256299Y275590D02*
D03*
X256602Y253543D02*
D03*
X248936Y262875D02*
D03*
X253543Y277559D02*
D03*
X261024Y275590D02*
D03*
X258661Y277559D02*
D03*
X357225Y262866D02*
D03*
X362067Y263099D02*
D03*
X354921Y266535D02*
D03*
X359705Y265067D02*
D03*
X344685Y253543D02*
D03*
X347547D02*
D03*
X339260Y262677D02*
D03*
X336917Y264321D02*
D03*
X334344Y262731D02*
D03*
X342028Y266712D02*
D03*
X332087Y266535D02*
D03*
X230709Y275984D02*
D03*
X235843Y275968D02*
D03*
X233465Y277559D02*
D03*
X241142Y266535D02*
D03*
X243613Y262959D02*
D03*
X243701Y277559D02*
D03*
X238583D02*
D03*
X263583Y266535D02*
D03*
X286417D02*
D03*
X275436Y266448D02*
D03*
X390354Y253543D02*
D03*
X367520Y258086D02*
D03*
Y253543D02*
D03*
X390354Y258086D02*
D03*
X276424Y519685D02*
D03*
X276642Y489764D02*
D03*
X229890Y519291D02*
D03*
X229103Y489764D02*
D03*
X276378Y381496D02*
D03*
X228346Y321654D02*
D03*
X276378D02*
D03*
X228611Y351575D02*
D03*
X276249Y351181D02*
D03*
X228482Y381496D02*
D03*
X154770Y519685D02*
D03*
X154989Y489764D02*
D03*
X108237Y519291D02*
D03*
X107449Y489764D02*
D03*
X154724Y381496D02*
D03*
X106693Y321654D02*
D03*
X154724D02*
D03*
X106957Y351575D02*
D03*
X154595Y351181D02*
D03*
X106828Y381496D02*
D03*
X57745Y489764D02*
D03*
X9449Y321654D02*
D03*
X57480D02*
D03*
X9713Y351575D02*
D03*
X57351Y351181D02*
D03*
X9584Y381496D02*
D03*
X57480D02*
D03*
X10205Y489764D02*
D03*
X10993Y519291D02*
D03*
X57526Y519685D02*
D03*
X325591Y321654D02*
D03*
X373622D02*
D03*
X325855Y351575D02*
D03*
X373493Y351181D02*
D03*
X325726Y381496D02*
D03*
X373622D02*
D03*
X326347Y489764D02*
D03*
X327135Y519291D02*
D03*
X373887Y489764D02*
D03*
X373668Y519685D02*
D03*
X447244Y321654D02*
D03*
X495275D02*
D03*
X447508Y351575D02*
D03*
X495146Y351181D02*
D03*
X447379Y381496D02*
D03*
X495321Y519685D02*
D03*
X495540Y489764D02*
D03*
X448788Y519291D02*
D03*
X448001Y489764D02*
D03*
X495275Y381496D02*
D03*
X592784Y489764D02*
D03*
X544623Y381496D02*
D03*
X592390Y351181D02*
D03*
X544488Y321654D02*
D03*
X592520D02*
D03*
X544753Y351575D02*
D03*
X592565Y519685D02*
D03*
X546032Y519291D02*
D03*
X545245Y489764D02*
D03*
X592520Y381496D02*
D03*
X67097Y468810D02*
D03*
X51468Y447244D02*
D03*
X164341Y468810D02*
D03*
X148713Y447244D02*
D03*
X285995Y468810D02*
D03*
X270366Y447244D02*
D03*
X383239Y468810D02*
D03*
X367610Y447244D02*
D03*
X504892Y468810D02*
D03*
X489264Y447244D02*
D03*
X602137Y468810D02*
D03*
X586508Y447244D02*
D03*
X143756Y144544D02*
D03*
X141732Y142520D02*
D03*
X151852Y152639D02*
D03*
X145780Y146567D02*
D03*
X147804Y148591D02*
D03*
X149828Y150615D02*
D03*
X104299Y144488D02*
D03*
X107167Y144674D02*
D03*
X115751Y144488D02*
D03*
X112889Y144669D02*
D03*
X110028Y144581D02*
D03*
X132117Y174575D02*
D03*
X134141Y172552D02*
D03*
X138189Y168504D02*
D03*
X134252Y142776D02*
D03*
X103150Y115461D02*
D03*
Y118323D02*
D03*
X103336Y112604D02*
D03*
X103150Y109736D02*
D03*
X94094Y120079D02*
D03*
X120472Y101575D02*
D03*
X116141Y96456D02*
D03*
X75591Y119685D02*
D03*
X443216Y123228D02*
D03*
X427559Y118898D02*
D03*
X443307D02*
D03*
X427165Y114961D02*
D03*
X430709D02*
D03*
X442913Y105905D02*
D03*
X470472Y92913D02*
D03*
X124409Y66929D02*
D03*
X120079Y74410D02*
D03*
X117323Y68898D02*
D03*
X112992Y85433D02*
D03*
X116572Y85236D02*
D03*
X120866Y82677D02*
D03*
X98031Y96457D02*
D03*
X85433Y109055D02*
D03*
X97992Y81102D02*
D03*
X94094D02*
D03*
X132283Y137008D02*
D03*
X133858Y147244D02*
D03*
X147894Y46496D02*
D03*
X92126Y156693D02*
D03*
X49961Y156555D02*
D03*
X84765Y156664D02*
D03*
X58622Y153405D02*
D03*
X68344Y156732D02*
D03*
X55079Y156555D02*
D03*
X78580Y156732D02*
D03*
X43661Y156555D02*
D03*
X35000Y123397D02*
D03*
Y133721D02*
D03*
Y97588D02*
D03*
Y118235D02*
D03*
Y102749D02*
D03*
X36181Y138051D02*
D03*
X35000Y128559D02*
D03*
Y92426D02*
D03*
Y113073D02*
D03*
Y87264D02*
D03*
Y107911D02*
D03*
X52323Y85689D02*
D03*
X51142Y104193D02*
D03*
X39724Y83327D02*
D03*
X52812Y117973D02*
D03*
X57835Y108130D02*
D03*
X53110Y90807D02*
D03*
X48780Y83374D02*
D03*
X53110Y95925D02*
D03*
X57774Y104321D02*
D03*
X51142Y108524D02*
D03*
X53110Y100256D02*
D03*
X77399Y82323D02*
D03*
X73855D02*
D03*
X49567Y152618D02*
D03*
X39724Y141201D02*
D03*
X40512Y146713D02*
D03*
Y152618D02*
D03*
X48295Y131752D02*
D03*
X94094Y77953D02*
D03*
X61730Y143741D02*
D03*
X70943Y122087D02*
D03*
X70975Y129981D02*
D03*
X84213Y146319D02*
D03*
X59055Y121758D02*
D03*
X58622Y146713D02*
D03*
X55079Y141201D02*
D03*
X52888Y127473D02*
D03*
X44888Y37690D02*
D03*
X54437Y44185D02*
D03*
X55125Y36903D02*
D03*
X44889Y44777D02*
D03*
X63183Y37886D02*
D03*
X65348Y43791D02*
D03*
X59456Y36903D02*
D03*
X51916Y39946D02*
D03*
X56096Y40248D02*
D03*
X51582Y47927D02*
D03*
X65009Y47801D02*
D03*
X41732Y53543D02*
D03*
X46523Y58057D02*
D03*
X52500Y59738D02*
D03*
X50400Y55801D02*
D03*
X69088Y67807D02*
D03*
X71844Y72532D02*
D03*
X77953Y74410D02*
D03*
X81496Y74803D02*
D03*
X81293Y68595D02*
D03*
X74132Y68664D02*
D03*
X65348Y67807D02*
D03*
X103734Y49697D02*
D03*
X102947Y62500D02*
D03*
X99010Y52059D02*
D03*
X90551Y70866D02*
D03*
X100000Y67716D02*
D03*
X96457D02*
D03*
X92520Y64567D02*
D03*
Y67429D02*
D03*
X96612Y56813D02*
D03*
X95860Y52204D02*
D03*
X108667Y53092D02*
D03*
X73467Y32286D02*
D03*
X74206Y39854D02*
D03*
X67907Y37886D02*
D03*
X66148Y25234D02*
D03*
X79547Y24278D02*
D03*
X66148Y20975D02*
D03*
Y29494D02*
D03*
Y33753D02*
D03*
X87469Y33485D02*
D03*
X86884Y39159D02*
D03*
X93498Y37886D02*
D03*
X90887Y40642D02*
D03*
X86940Y36298D02*
D03*
X60637Y56588D02*
D03*
X58143Y59738D02*
D03*
X63786D02*
D03*
X55519Y56588D02*
D03*
X64851Y55378D02*
D03*
X66148Y12456D02*
D03*
Y16715D02*
D03*
X62992Y172441D02*
D03*
X61449Y177784D02*
D03*
X66535Y185433D02*
D03*
X49606Y183465D02*
D03*
X60630Y196063D02*
D03*
X75984Y192520D02*
D03*
X442913Y127559D02*
D03*
Y97244D02*
D03*
Y101575D02*
D03*
X470472D02*
D03*
X484252Y129527D02*
D03*
Y111811D02*
D03*
X14567Y259449D02*
D03*
X9449Y233260D02*
D03*
X25197Y243307D02*
D03*
X10236Y205512D02*
D03*
X9055Y220079D02*
D03*
X31496Y220473D02*
D03*
Y224016D02*
D03*
X28346Y209055D02*
D03*
X31496Y209842D02*
D03*
X27953Y214961D02*
D03*
X31496Y213386D02*
D03*
Y216929D02*
D03*
X55728Y187906D02*
D03*
M02*
