G04*
G04 #@! TF.GenerationSoftware,Altium Limited,Altium Designer,24.5.2 (23)*
G04*
G04 Layer_Color=4214928*
%FSLAX25Y25*%
%MOIN*%
G70*
G04*
G04 #@! TF.SameCoordinates,7521D7B9-249F-48D2-9375-4659AF460BCF*
G04*
G04*
G04 #@! TF.FilePolarity,Negative*
G04*
G01*
G75*
%ADD104C,0.05709*%
%ADD105O,0.07677X0.05709*%
%ADD106C,0.07284*%
%ADD107R,0.07284X0.07284*%
%ADD108O,0.12402X0.08465*%
%ADD109O,0.06890X0.06890*%
%ADD110C,0.06890*%
%ADD111R,0.07677X0.07677*%
%ADD112C,0.08189*%
%ADD113C,0.05000*%
%ADD114R,0.05000X0.05000*%
%ADD115C,0.24213*%
%ADD116C,0.08071*%
%ADD117R,0.06591X0.06591*%
%ADD118C,0.06591*%
%ADD119R,0.04725X0.04725*%
%ADD120C,0.04725*%
%ADD121C,0.05591*%
%ADD122C,0.02559*%
%ADD123C,0.02953*%
D104*
X17704Y170602D02*
D03*
Y189696D02*
D03*
D105*
X7152Y194420D02*
D03*
Y165878D02*
D03*
D106*
X10236Y100866D02*
D03*
Y110866D02*
D03*
Y120866D02*
D03*
D107*
Y130866D02*
D03*
D108*
X436614Y48622D02*
D03*
Y81299D02*
D03*
D109*
Y64961D02*
D03*
Y72835D02*
D03*
Y57087D02*
D03*
D110*
X89128Y417294D02*
D03*
Y427294D02*
D03*
Y437294D02*
D03*
Y447294D02*
D03*
Y457294D02*
D03*
X186372Y417294D02*
D03*
Y427294D02*
D03*
Y437294D02*
D03*
Y447294D02*
D03*
Y457294D02*
D03*
X308026Y417294D02*
D03*
Y427294D02*
D03*
Y437294D02*
D03*
Y447294D02*
D03*
Y457294D02*
D03*
X405270Y417294D02*
D03*
Y427294D02*
D03*
Y437294D02*
D03*
Y447294D02*
D03*
Y457294D02*
D03*
X526924Y417294D02*
D03*
Y427294D02*
D03*
Y437294D02*
D03*
Y447294D02*
D03*
Y457294D02*
D03*
X624089Y417794D02*
D03*
Y427794D02*
D03*
Y437794D02*
D03*
Y447794D02*
D03*
Y457794D02*
D03*
D111*
X89128Y467294D02*
D03*
X186372D02*
D03*
X308026Y467294D02*
D03*
X405270D02*
D03*
X526924D02*
D03*
X624089Y467794D02*
D03*
D112*
X561417Y97244D02*
D03*
D113*
X193087Y227311D02*
D03*
X203087D02*
D03*
X213088D02*
D03*
X223088D02*
D03*
X233087D02*
D03*
X243088D02*
D03*
X253087D02*
D03*
X263088D02*
D03*
X273088D02*
D03*
X283087D02*
D03*
X293088D02*
D03*
X303087D02*
D03*
X313088D02*
D03*
X323088D02*
D03*
X333087D02*
D03*
X343088D02*
D03*
X353087D02*
D03*
X363088D02*
D03*
X373088D02*
D03*
X383087D02*
D03*
Y37311D02*
D03*
X373088D02*
D03*
X363088D02*
D03*
X213088D02*
D03*
X203087D02*
D03*
D114*
X193087D02*
D03*
D115*
X457874Y24016D02*
D03*
X18110Y67716D02*
D03*
X431890Y524409D02*
D03*
X212598Y523622D02*
D03*
D116*
X438189Y276772D02*
D03*
Y231102D02*
D03*
D117*
X171588Y402774D02*
D03*
X390485Y402774D02*
D03*
X609096Y402774D02*
D03*
X293241D02*
D03*
X512139D02*
D03*
X74344D02*
D03*
D118*
X161588Y402774D02*
D03*
X151588D02*
D03*
X141588D02*
D03*
X131588D02*
D03*
X380485Y402774D02*
D03*
X370485D02*
D03*
X360485D02*
D03*
X350485D02*
D03*
X599096Y402774D02*
D03*
X589096D02*
D03*
X579096D02*
D03*
X569096D02*
D03*
X283241D02*
D03*
X273241D02*
D03*
X263241D02*
D03*
X253241D02*
D03*
X502139D02*
D03*
X492139D02*
D03*
X482139D02*
D03*
X472139D02*
D03*
X64344D02*
D03*
X54344D02*
D03*
X44344D02*
D03*
X34344D02*
D03*
D119*
X107480Y17717D02*
D03*
D120*
Y22717D02*
D03*
X112480Y17717D02*
D03*
Y22717D02*
D03*
X117480Y17717D02*
D03*
Y22717D02*
D03*
X122480Y17717D02*
D03*
Y22717D02*
D03*
X127480Y17717D02*
D03*
Y22717D02*
D03*
D121*
X26759Y187450D02*
D03*
X8661Y187402D02*
D03*
X8650Y172758D02*
D03*
X16929Y248031D02*
D03*
X163779Y309549D02*
D03*
X285233Y309440D02*
D03*
X601575Y309055D02*
D03*
X66535D02*
D03*
X383465Y313779D02*
D03*
X503937Y308661D02*
D03*
X67716Y511811D02*
D03*
X56693Y475591D02*
D03*
X12205Y505512D02*
D03*
Y475984D02*
D03*
X63386Y367323D02*
D03*
X12598Y367717D02*
D03*
X60630Y337795D02*
D03*
X12205D02*
D03*
X18898Y309842D02*
D03*
X62205Y460630D02*
D03*
X19685Y456299D02*
D03*
X24457Y364824D02*
D03*
X82506Y465354D02*
D03*
X66929Y474016D02*
D03*
X77559Y455512D02*
D03*
X164961Y511811D02*
D03*
X153937Y475591D02*
D03*
X109449Y505512D02*
D03*
Y475984D02*
D03*
X160630Y367323D02*
D03*
X109843Y367717D02*
D03*
X157874Y337795D02*
D03*
X109449D02*
D03*
X116142Y309842D02*
D03*
X159449Y460630D02*
D03*
X116929Y456299D02*
D03*
X121701Y364824D02*
D03*
X179750Y465354D02*
D03*
X164173Y474016D02*
D03*
X174803Y455512D02*
D03*
X286614Y511811D02*
D03*
X275590Y475591D02*
D03*
X231102Y505512D02*
D03*
Y475984D02*
D03*
X282283Y367323D02*
D03*
X231496Y367717D02*
D03*
X279527Y337795D02*
D03*
X231102D02*
D03*
X237795Y309842D02*
D03*
X281102Y460630D02*
D03*
X238583Y456299D02*
D03*
X243354Y364824D02*
D03*
X301404Y465354D02*
D03*
X285827Y474016D02*
D03*
X296457Y455512D02*
D03*
X383858Y511811D02*
D03*
X372835Y475591D02*
D03*
X328346Y505512D02*
D03*
Y475984D02*
D03*
X379528Y367323D02*
D03*
X328740Y367717D02*
D03*
X376772Y337795D02*
D03*
X328346D02*
D03*
X335039Y309842D02*
D03*
X378346Y460630D02*
D03*
X335827Y456299D02*
D03*
X340598Y364824D02*
D03*
X398648Y465354D02*
D03*
X383071Y474016D02*
D03*
X393701Y455512D02*
D03*
X505512Y511811D02*
D03*
X494488Y475591D02*
D03*
X450000Y505512D02*
D03*
Y475984D02*
D03*
X501181Y367323D02*
D03*
X450394Y367717D02*
D03*
X498425Y337795D02*
D03*
X450000D02*
D03*
X456693Y309842D02*
D03*
X500000Y460630D02*
D03*
X457480Y456299D02*
D03*
X462252Y364824D02*
D03*
X520301Y465354D02*
D03*
X504724Y474016D02*
D03*
X515354Y455512D02*
D03*
X554724Y456299D02*
D03*
X31496Y203150D02*
D03*
X37402D02*
D03*
X26632Y172759D02*
D03*
X131890Y258662D02*
D03*
X116142Y281102D02*
D03*
X139173Y258662D02*
D03*
X116142Y289567D02*
D03*
X36614Y233858D02*
D03*
X67716Y224803D02*
D03*
X50000D02*
D03*
X612598Y455512D02*
D03*
X591732Y475591D02*
D03*
X601968Y474016D02*
D03*
X602756Y511811D02*
D03*
X597244Y460630D02*
D03*
X617546Y465354D02*
D03*
X598425Y367323D02*
D03*
X547244Y337795D02*
D03*
X595669D02*
D03*
X553937Y309842D02*
D03*
X547638Y367717D02*
D03*
X559496Y364824D02*
D03*
X547244Y475984D02*
D03*
Y505512D02*
D03*
D122*
X20669Y222146D02*
D03*
X16339D02*
D03*
D123*
X146063Y115644D02*
D03*
X171079Y108661D02*
D03*
X176909Y108767D02*
D03*
X173946Y108837D02*
D03*
X179769Y108658D02*
D03*
X165354Y108661D02*
D03*
X168217D02*
D03*
X82284Y158268D02*
D03*
X81115Y178199D02*
D03*
X16535Y110630D02*
D03*
Y120472D02*
D03*
Y130709D02*
D03*
X558561Y102557D02*
D03*
X556158Y100205D02*
D03*
X552796D02*
D03*
X549434D02*
D03*
X546072D02*
D03*
X542709D02*
D03*
X539347D02*
D03*
X535985D02*
D03*
X532623D02*
D03*
X529261D02*
D03*
X525898D02*
D03*
X522536D02*
D03*
X519174D02*
D03*
X515812D02*
D03*
X512450D02*
D03*
X509087D02*
D03*
X505725D02*
D03*
X502363D02*
D03*
X499001D02*
D03*
X495639D02*
D03*
X492276D02*
D03*
X488914D02*
D03*
X485552D02*
D03*
X482190D02*
D03*
X482293Y94283D02*
D03*
X485655D02*
D03*
X489018D02*
D03*
X492380D02*
D03*
X499104D02*
D03*
X505829D02*
D03*
X509191D02*
D03*
X515915D02*
D03*
X522640D02*
D03*
X529364D02*
D03*
X532726D02*
D03*
X539451D02*
D03*
X546175D02*
D03*
X552899D02*
D03*
X556258Y94129D02*
D03*
X562032Y91250D02*
D03*
X567109Y95245D02*
D03*
X567298Y98602D02*
D03*
X565645Y101530D02*
D03*
X562699Y103150D02*
D03*
X46063Y53543D02*
D03*
X37402Y41732D02*
D03*
X40551Y46457D02*
D03*
X42126Y41732D02*
D03*
X43307Y50000D02*
D03*
X374351Y232822D02*
D03*
X179223Y24212D02*
D03*
X239561D02*
D03*
X420574D02*
D03*
X175484Y147244D02*
D03*
X172622D02*
D03*
X178347D02*
D03*
X172047Y222441D02*
D03*
X174692Y224693D02*
D03*
X176716Y226716D02*
D03*
X182146Y147638D02*
D03*
X198425Y144158D02*
D03*
X193595Y147638D02*
D03*
X185008D02*
D03*
X198425Y121260D02*
D03*
Y124122D02*
D03*
Y126984D02*
D03*
Y129847D02*
D03*
Y132709D02*
D03*
Y135571D02*
D03*
Y138433D02*
D03*
Y141295D02*
D03*
X187870Y147638D02*
D03*
X190732D02*
D03*
X196457D02*
D03*
X190551Y205906D02*
D03*
X181496Y207087D02*
D03*
X184358D02*
D03*
X187221D02*
D03*
X196819Y209449D02*
D03*
X211130D02*
D03*
X205405D02*
D03*
X199681D02*
D03*
X208268D02*
D03*
X202543D02*
D03*
X191339Y215748D02*
D03*
X207580Y220866D02*
D03*
X178740Y228740D02*
D03*
X299899Y24212D02*
D03*
X364509Y232822D02*
D03*
X354666D02*
D03*
X344036D02*
D03*
X360236Y24212D02*
D03*
X424409Y111024D02*
D03*
X136165Y170528D02*
D03*
X130089Y176604D02*
D03*
X146063Y112782D02*
D03*
Y109919D02*
D03*
X16142Y238968D02*
D03*
X190157Y236910D02*
D03*
X146063Y118508D02*
D03*
X2362Y37795D02*
D03*
X7087D02*
D03*
X11812D02*
D03*
X16538D02*
D03*
X21263D02*
D03*
X25988D02*
D03*
X30713D02*
D03*
X35438D02*
D03*
X40163D02*
D03*
X66142Y3937D02*
D03*
Y8196D02*
D03*
X162205Y242913D02*
D03*
X60238Y111762D02*
D03*
X60630Y133732D02*
D03*
X58532Y137432D02*
D03*
X206693Y284252D02*
D03*
X212205D02*
D03*
X208680Y280980D02*
D03*
X218110Y284252D02*
D03*
X216142Y281937D02*
D03*
X326721Y278179D02*
D03*
X216142Y279075D02*
D03*
Y276213D02*
D03*
X206299Y279134D02*
D03*
X203563Y277572D02*
D03*
X201181Y275984D02*
D03*
X293900Y277751D02*
D03*
X304311Y277178D02*
D03*
X306693Y275590D02*
D03*
X316929Y277559D02*
D03*
X334646Y278346D02*
D03*
X350000D02*
D03*
X382677Y275984D02*
D03*
X385433Y278346D02*
D03*
X209352Y237795D02*
D03*
X221791Y253075D02*
D03*
X197244Y280315D02*
D03*
X230906Y253543D02*
D03*
Y258086D02*
D03*
X203628Y237795D02*
D03*
X200765D02*
D03*
X197903D02*
D03*
X206490D02*
D03*
X221791Y267248D02*
D03*
X212214Y237795D02*
D03*
X196390Y242913D02*
D03*
X228150Y266535D02*
D03*
X156299Y237008D02*
D03*
X172441Y242913D02*
D03*
X193445Y280240D02*
D03*
X187933Y253075D02*
D03*
Y267248D02*
D03*
X184252Y260358D02*
D03*
X175573Y260006D02*
D03*
X163523Y280634D02*
D03*
X159586D02*
D03*
X398031Y276378D02*
D03*
X390158Y277953D02*
D03*
X392913Y275984D02*
D03*
X375197D02*
D03*
X380315Y278346D02*
D03*
X395276D02*
D03*
X372835D02*
D03*
X367717D02*
D03*
X370079Y275984D02*
D03*
X293898Y240945D02*
D03*
X267126D02*
D03*
X271063D02*
D03*
X248622D02*
D03*
X316732D02*
D03*
X289961D02*
D03*
X312795D02*
D03*
X335630D02*
D03*
X339567D02*
D03*
X244685D02*
D03*
X358071D02*
D03*
X362008D02*
D03*
X384736Y240885D02*
D03*
X403740Y240551D02*
D03*
X380906Y240945D02*
D03*
X407677Y240551D02*
D03*
X389173Y243701D02*
D03*
X397941Y244488D02*
D03*
X395079D02*
D03*
X375106D02*
D03*
X372244D02*
D03*
X365551Y244094D02*
D03*
X342717Y244382D02*
D03*
X344685Y258086D02*
D03*
X349409Y244488D02*
D03*
X352272D02*
D03*
X362205Y278346D02*
D03*
X347244Y275984D02*
D03*
X359796D02*
D03*
X357480Y278346D02*
D03*
X352756Y276378D02*
D03*
X344882Y278346D02*
D03*
X339370D02*
D03*
X321850Y253543D02*
D03*
Y258086D02*
D03*
X316396Y262702D02*
D03*
X309252Y266535D02*
D03*
X320662Y266505D02*
D03*
X324713Y253543D02*
D03*
X299016D02*
D03*
Y258086D02*
D03*
X297941Y266201D02*
D03*
X301878Y253543D02*
D03*
X293731Y262931D02*
D03*
X291374Y265268D02*
D03*
X289188Y263099D02*
D03*
X311490Y262711D02*
D03*
X314016Y264293D02*
D03*
X274957Y244406D02*
D03*
X326968Y244488D02*
D03*
X281299D02*
D03*
X284160Y244410D02*
D03*
X252165Y244094D02*
D03*
X258465Y244488D02*
D03*
X261327D02*
D03*
X304134D02*
D03*
X306996D02*
D03*
X297441Y244094D02*
D03*
X320617Y244415D02*
D03*
X329831Y244488D02*
D03*
X400197Y266535D02*
D03*
X366331Y266505D02*
D03*
X377756Y266535D02*
D03*
X387638Y266554D02*
D03*
X380070Y262991D02*
D03*
X393390Y253543D02*
D03*
X385254Y262928D02*
D03*
X382677Y264173D02*
D03*
X370669Y253543D02*
D03*
X283858Y275590D02*
D03*
X277052Y253543D02*
D03*
X276575Y258086D02*
D03*
X278740Y275590D02*
D03*
X281496Y277559D02*
D03*
X271654D02*
D03*
X271861Y262651D02*
D03*
X269094Y275590D02*
D03*
Y263386D02*
D03*
X266004Y262711D02*
D03*
X266535Y277559D02*
D03*
X280033Y253854D02*
D03*
X276378Y277559D02*
D03*
X324356Y276261D02*
D03*
X322047Y277953D02*
D03*
X336989Y276378D02*
D03*
X329142D02*
D03*
X298819Y277559D02*
D03*
X291535Y275984D02*
D03*
X288976Y277559D02*
D03*
X301575Y275590D02*
D03*
X311416Y277179D02*
D03*
X314016Y275984D02*
D03*
X246287Y275657D02*
D03*
X252601Y266448D02*
D03*
X253740Y253543D02*
D03*
Y258086D02*
D03*
X248425Y277559D02*
D03*
X246291Y263968D02*
D03*
X256299Y275590D02*
D03*
X256602Y253543D02*
D03*
X248936Y262875D02*
D03*
X253543Y277559D02*
D03*
X261024Y275590D02*
D03*
X258661Y277559D02*
D03*
X357225Y262866D02*
D03*
X362067Y263099D02*
D03*
X354921Y266535D02*
D03*
X359705Y265067D02*
D03*
X344685Y253543D02*
D03*
X347547D02*
D03*
X339260Y262677D02*
D03*
X336917Y264321D02*
D03*
X334344Y262731D02*
D03*
X342028Y266712D02*
D03*
X332087Y266535D02*
D03*
X230709Y275984D02*
D03*
X235843Y275968D02*
D03*
X233465Y277559D02*
D03*
X241142Y266535D02*
D03*
X243613Y262959D02*
D03*
X243701Y277559D02*
D03*
X238583D02*
D03*
X263583Y266535D02*
D03*
X286417D02*
D03*
X275436Y266448D02*
D03*
X390354Y253543D02*
D03*
X367520Y258086D02*
D03*
Y253543D02*
D03*
X390354Y258086D02*
D03*
X276424Y519685D02*
D03*
X276642Y489764D02*
D03*
X229890Y519291D02*
D03*
X229103Y489764D02*
D03*
X276378Y381496D02*
D03*
X228346Y321654D02*
D03*
X276378D02*
D03*
X228611Y351575D02*
D03*
X276249Y351181D02*
D03*
X228482Y381496D02*
D03*
X154770Y519685D02*
D03*
X154989Y489764D02*
D03*
X108237Y519291D02*
D03*
X107449Y489764D02*
D03*
X154724Y381496D02*
D03*
X106693Y321654D02*
D03*
X154724D02*
D03*
X106957Y351575D02*
D03*
X154595Y351181D02*
D03*
X106828Y381496D02*
D03*
X57745Y489764D02*
D03*
X9449Y321654D02*
D03*
X57480D02*
D03*
X9713Y351575D02*
D03*
X57351Y351181D02*
D03*
X9584Y381496D02*
D03*
X57480D02*
D03*
X10205Y489764D02*
D03*
X10993Y519291D02*
D03*
X57526Y519685D02*
D03*
X325591Y321654D02*
D03*
X373622D02*
D03*
X325855Y351575D02*
D03*
X373493Y351181D02*
D03*
X325726Y381496D02*
D03*
X373622D02*
D03*
X326347Y489764D02*
D03*
X327135Y519291D02*
D03*
X373887Y489764D02*
D03*
X373668Y519685D02*
D03*
X447244Y321654D02*
D03*
X495275D02*
D03*
X447508Y351575D02*
D03*
X495146Y351181D02*
D03*
X447379Y381496D02*
D03*
X495321Y519685D02*
D03*
X495540Y489764D02*
D03*
X448788Y519291D02*
D03*
X448001Y489764D02*
D03*
X495275Y381496D02*
D03*
X592784Y489764D02*
D03*
X544623Y381496D02*
D03*
X592390Y351181D02*
D03*
X544488Y321654D02*
D03*
X592520D02*
D03*
X544753Y351575D02*
D03*
X592565Y519685D02*
D03*
X546032Y519291D02*
D03*
X545245Y489764D02*
D03*
X592520Y381496D02*
D03*
X67097Y468810D02*
D03*
X51468Y447244D02*
D03*
X164341Y468810D02*
D03*
X148713Y447244D02*
D03*
X285995Y468810D02*
D03*
X270366Y447244D02*
D03*
X383239Y468810D02*
D03*
X367610Y447244D02*
D03*
X504892Y468810D02*
D03*
X489264Y447244D02*
D03*
X602137Y468810D02*
D03*
X586508Y447244D02*
D03*
X143756Y144544D02*
D03*
X141732Y142520D02*
D03*
X151852Y152639D02*
D03*
X145780Y146567D02*
D03*
X147804Y148591D02*
D03*
X149828Y150615D02*
D03*
X104299Y144488D02*
D03*
X107167Y144674D02*
D03*
X115751Y144488D02*
D03*
X112889Y144669D02*
D03*
X110028Y144581D02*
D03*
X132117Y174575D02*
D03*
X134141Y172552D02*
D03*
X138189Y168504D02*
D03*
X134252Y142776D02*
D03*
X103150Y115461D02*
D03*
Y118323D02*
D03*
X103336Y112604D02*
D03*
X103150Y109736D02*
D03*
X94094Y120079D02*
D03*
X120472Y101575D02*
D03*
X116141Y96456D02*
D03*
X75591Y119685D02*
D03*
X443216Y123228D02*
D03*
X427559Y118898D02*
D03*
X443307D02*
D03*
X427165Y114961D02*
D03*
X430709D02*
D03*
X442913Y105905D02*
D03*
X470472Y92913D02*
D03*
X124409Y66929D02*
D03*
X120079Y74410D02*
D03*
X117323Y68898D02*
D03*
X112992Y85433D02*
D03*
X116572Y85236D02*
D03*
X120866Y82677D02*
D03*
X98031Y96457D02*
D03*
X85433Y109055D02*
D03*
X97992Y81102D02*
D03*
X94094D02*
D03*
X132283Y137008D02*
D03*
X133858Y147244D02*
D03*
X147894Y46496D02*
D03*
X92126Y156693D02*
D03*
X49961Y156555D02*
D03*
X84765Y156664D02*
D03*
X58622Y153405D02*
D03*
X68344Y156732D02*
D03*
X55079Y156555D02*
D03*
X78580Y156732D02*
D03*
X43661Y156555D02*
D03*
X35000Y123397D02*
D03*
Y133721D02*
D03*
Y97588D02*
D03*
Y118235D02*
D03*
Y102749D02*
D03*
X36181Y138051D02*
D03*
X35000Y128559D02*
D03*
Y92426D02*
D03*
Y113073D02*
D03*
Y87264D02*
D03*
Y107911D02*
D03*
X52323Y85689D02*
D03*
X51142Y104193D02*
D03*
X39724Y83327D02*
D03*
X52812Y117973D02*
D03*
X57835Y108130D02*
D03*
X53110Y90807D02*
D03*
X48780Y83374D02*
D03*
X53110Y95925D02*
D03*
X57774Y104321D02*
D03*
X51142Y108524D02*
D03*
X53110Y100256D02*
D03*
X77399Y82323D02*
D03*
X73855D02*
D03*
X49567Y152618D02*
D03*
X39724Y141201D02*
D03*
X40512Y146713D02*
D03*
Y152618D02*
D03*
X48295Y131752D02*
D03*
X94094Y77953D02*
D03*
X61730Y143741D02*
D03*
X70943Y122087D02*
D03*
X70975Y129981D02*
D03*
X84213Y146319D02*
D03*
X59055Y121758D02*
D03*
X58622Y146713D02*
D03*
X55079Y141201D02*
D03*
X52888Y127473D02*
D03*
X44888Y37690D02*
D03*
X54437Y44185D02*
D03*
X55125Y36903D02*
D03*
X44889Y44777D02*
D03*
X63183Y37886D02*
D03*
X65348Y43791D02*
D03*
X59456Y36903D02*
D03*
X51916Y39946D02*
D03*
X56096Y40248D02*
D03*
X51582Y47927D02*
D03*
X65009Y47801D02*
D03*
X41732Y53543D02*
D03*
X46523Y58057D02*
D03*
X52500Y59738D02*
D03*
X50400Y55801D02*
D03*
X69088Y67807D02*
D03*
X71844Y72532D02*
D03*
X77953Y74410D02*
D03*
X81496Y74803D02*
D03*
X81293Y68595D02*
D03*
X74132Y68664D02*
D03*
X65348Y67807D02*
D03*
X103734Y49697D02*
D03*
X102947Y62500D02*
D03*
X99010Y52059D02*
D03*
X90551Y70866D02*
D03*
X100000Y67716D02*
D03*
X96457D02*
D03*
X92520Y64567D02*
D03*
Y67429D02*
D03*
X96612Y56813D02*
D03*
X95860Y52204D02*
D03*
X108667Y53092D02*
D03*
X73467Y32286D02*
D03*
X74206Y39854D02*
D03*
X67907Y37886D02*
D03*
X66148Y25234D02*
D03*
X79547Y24278D02*
D03*
X66148Y20975D02*
D03*
Y29494D02*
D03*
Y33753D02*
D03*
X87469Y33485D02*
D03*
X86884Y39159D02*
D03*
X93498Y37886D02*
D03*
X90887Y40642D02*
D03*
X86940Y36298D02*
D03*
X60637Y56588D02*
D03*
X58143Y59738D02*
D03*
X63786D02*
D03*
X55519Y56588D02*
D03*
X64851Y55378D02*
D03*
X66148Y12456D02*
D03*
Y16715D02*
D03*
X62992Y172441D02*
D03*
X61449Y177784D02*
D03*
X66535Y185433D02*
D03*
X49606Y183465D02*
D03*
X60630Y196063D02*
D03*
X75984Y192520D02*
D03*
X442913Y127559D02*
D03*
Y97244D02*
D03*
Y101575D02*
D03*
X470472D02*
D03*
X484252Y129527D02*
D03*
Y111811D02*
D03*
X14567Y259449D02*
D03*
X9449Y233260D02*
D03*
X25197Y243307D02*
D03*
X10236Y205512D02*
D03*
X9055Y220079D02*
D03*
X31496Y220473D02*
D03*
Y224016D02*
D03*
X28346Y209055D02*
D03*
X31496Y209842D02*
D03*
X27953Y214961D02*
D03*
X31496Y213386D02*
D03*
Y216929D02*
D03*
X55728Y187906D02*
D03*
M02*
