G04*
G04 #@! TF.GenerationSoftware,Altium Limited,Altium Designer,24.5.2 (23)*
G04*
G04 Layer_Color=6854848*
%FSLAX25Y25*%
%MOIN*%
G70*
G04*
G04 #@! TF.SameCoordinates,7521D7B9-249F-48D2-9375-4659AF460BCF*
G04*
G04*
G04 #@! TF.FilePolarity,Positive*
G04*
G01*
G75*
%ADD113C,0.05000*%
%ADD114R,0.05000X0.05000*%
%ADD131C,0.05118*%
%ADD132O,0.07087X0.05118*%
%ADD133C,0.02480*%
%ADD134C,0.06693*%
%ADD135R,0.06693X0.06693*%
%ADD136O,0.11811X0.07874*%
%ADD137O,0.06299X0.06299*%
%ADD138C,0.06299*%
%ADD139R,0.07087X0.07087*%
%ADD140C,0.07598*%
%ADD141C,0.23622*%
%ADD142C,0.07480*%
%ADD143R,0.06000X0.06000*%
%ADD144C,0.06000*%
%ADD145R,0.04134X0.04134*%
%ADD146C,0.04134*%
D113*
X193087Y227311D02*
D03*
X203087D02*
D03*
X213088D02*
D03*
X223088D02*
D03*
X233087D02*
D03*
X243088D02*
D03*
X253087D02*
D03*
X263088D02*
D03*
X273088D02*
D03*
X283087D02*
D03*
X293088D02*
D03*
X303087D02*
D03*
X313088D02*
D03*
X323088D02*
D03*
X333087D02*
D03*
X343088D02*
D03*
X353087D02*
D03*
X363088D02*
D03*
X373088D02*
D03*
X383087D02*
D03*
Y37311D02*
D03*
X373088D02*
D03*
X363088D02*
D03*
X213088D02*
D03*
X203087D02*
D03*
D114*
X193087D02*
D03*
D131*
X17704Y170602D02*
D03*
Y189696D02*
D03*
D132*
X7152Y194420D02*
D03*
Y165878D02*
D03*
D133*
X86805Y46941D02*
D03*
X82081D02*
D03*
X77356D02*
D03*
X72632D02*
D03*
X86805Y51665D02*
D03*
X82081D02*
D03*
X77356D02*
D03*
X72632D02*
D03*
X86805Y56390D02*
D03*
X82081D02*
D03*
X77356D02*
D03*
X72632D02*
D03*
X86805Y61114D02*
D03*
X82081D02*
D03*
X77356D02*
D03*
X72632D02*
D03*
D134*
X10236Y100866D02*
D03*
Y110866D02*
D03*
Y120866D02*
D03*
D135*
Y130866D02*
D03*
D136*
X436614Y48622D02*
D03*
Y81299D02*
D03*
D137*
Y64961D02*
D03*
Y72835D02*
D03*
Y57087D02*
D03*
D138*
X89128Y417294D02*
D03*
Y427294D02*
D03*
Y437294D02*
D03*
Y447294D02*
D03*
Y457294D02*
D03*
X186372Y417294D02*
D03*
Y427294D02*
D03*
Y437294D02*
D03*
Y447294D02*
D03*
Y457294D02*
D03*
X308026Y417294D02*
D03*
Y427294D02*
D03*
Y437294D02*
D03*
Y447294D02*
D03*
Y457294D02*
D03*
X405270Y417294D02*
D03*
Y427294D02*
D03*
Y437294D02*
D03*
Y447294D02*
D03*
Y457294D02*
D03*
X526924Y417294D02*
D03*
Y427294D02*
D03*
Y437294D02*
D03*
Y447294D02*
D03*
Y457294D02*
D03*
X624089Y417794D02*
D03*
Y427794D02*
D03*
Y437794D02*
D03*
Y447794D02*
D03*
Y457794D02*
D03*
D139*
X89128Y467294D02*
D03*
X186372D02*
D03*
X308026Y467294D02*
D03*
X405270D02*
D03*
X526924D02*
D03*
X624089Y467794D02*
D03*
D140*
X561417Y97244D02*
D03*
D141*
X457874Y24016D02*
D03*
X18110Y67716D02*
D03*
X431890Y524409D02*
D03*
X212598Y523622D02*
D03*
D142*
X438189Y276772D02*
D03*
Y231102D02*
D03*
D143*
X171588Y402774D02*
D03*
X390485Y402774D02*
D03*
X609096Y402774D02*
D03*
X293241D02*
D03*
X512139D02*
D03*
X74344D02*
D03*
D144*
X161588Y402774D02*
D03*
X151588D02*
D03*
X141588D02*
D03*
X131588D02*
D03*
X380485Y402774D02*
D03*
X370485D02*
D03*
X360485D02*
D03*
X350485D02*
D03*
X599096Y402774D02*
D03*
X589096D02*
D03*
X579096D02*
D03*
X569096D02*
D03*
X283241D02*
D03*
X273241D02*
D03*
X263241D02*
D03*
X253241D02*
D03*
X502139D02*
D03*
X492139D02*
D03*
X482139D02*
D03*
X472139D02*
D03*
X64344D02*
D03*
X54344D02*
D03*
X44344D02*
D03*
X34344D02*
D03*
D145*
X107480Y17717D02*
D03*
D146*
Y22717D02*
D03*
X112480Y17717D02*
D03*
Y22717D02*
D03*
X117480Y17717D02*
D03*
Y22717D02*
D03*
X122480Y17717D02*
D03*
Y22717D02*
D03*
X127480Y17717D02*
D03*
Y22717D02*
D03*
M02*
