G04*
G04 #@! TF.GenerationSoftware,Altium Limited,Altium Designer,24.5.2 (23)*
G04*
G04 Layer_Color=4222992*
%FSLAX25Y25*%
%MOIN*%
G70*
G04*
G04 #@! TF.SameCoordinates,A4DC4032-6D30-441B-857C-BBE942529F2D*
G04*
G04*
G04 #@! TF.FilePolarity,Positive*
G04*
G01*
G75*
%ADD150C,0.00394*%
D150*
X234055Y260236D02*
X237992D01*
X236024Y258268D02*
Y262205D01*
X256693Y260236D02*
X260630D01*
X258661Y258268D02*
Y262205D01*
X279528Y260236D02*
X283465D01*
X281496Y258268D02*
Y262205D01*
X302165Y260236D02*
X306102D01*
X304134Y258268D02*
Y262205D01*
X325000Y260236D02*
X328937D01*
X326969Y258268D02*
Y262205D01*
X347835Y260236D02*
X351772D01*
X349803Y258268D02*
Y262205D01*
X370669Y260236D02*
X374606D01*
X372638Y258268D02*
Y262205D01*
X393307Y260236D02*
X397244D01*
X395276Y258268D02*
Y262205D01*
X205649Y260161D02*
X209586D01*
X207618Y258193D02*
Y262130D01*
X171791Y260161D02*
X175728D01*
X173760Y258193D02*
Y262130D01*
X66929Y445669D02*
Y449606D01*
X64961Y447638D02*
X68898D01*
X164173Y445669D02*
Y449606D01*
X162205Y447638D02*
X166142D01*
X285827Y445669D02*
Y449606D01*
X283858Y447638D02*
X287795D01*
X383071Y445669D02*
Y449606D01*
X381102Y447638D02*
X385039D01*
X504724Y445669D02*
Y449606D01*
X502756Y447638D02*
X506693D01*
X601968Y445669D02*
Y449606D01*
X600000Y447638D02*
X603937D01*
X28287Y321654D02*
X32224D01*
X30256Y319686D02*
Y323623D01*
X125531Y321654D02*
X129469D01*
X127500Y319686D02*
Y323623D01*
X247185Y321654D02*
X251122D01*
X249153Y319686D02*
Y323623D01*
X344429Y321654D02*
X348366D01*
X346398Y319686D02*
Y323623D01*
X466083Y321654D02*
X470020D01*
X468051Y319686D02*
Y323623D01*
X563327Y321654D02*
X567264D01*
X565295Y319686D02*
Y323623D01*
X76553Y321654D02*
X80490D01*
X78521Y319686D02*
Y323623D01*
X173797Y321654D02*
X177734D01*
X175765Y319686D02*
Y323623D01*
X392694Y321654D02*
X396631D01*
X394663Y319686D02*
Y323623D01*
X611592Y321654D02*
X615529D01*
X613560Y319686D02*
Y323623D01*
X28476Y351576D02*
X32413D01*
X30444Y349607D02*
Y353544D01*
X125720Y351576D02*
X129657D01*
X127688Y349607D02*
Y353544D01*
X247373Y351576D02*
X251310D01*
X249342Y349607D02*
Y353544D01*
X344617Y351576D02*
X348554D01*
X346586Y349607D02*
Y353544D01*
X466271Y351576D02*
X470208D01*
X468239Y349607D02*
Y353544D01*
X563515Y351576D02*
X567452D01*
X565484Y349607D02*
Y353544D01*
X76553Y519291D02*
X80490D01*
X78521Y517323D02*
Y521260D01*
X173797Y519291D02*
X177734D01*
X175765Y517323D02*
Y521260D01*
X295450Y519291D02*
X299387D01*
X297419Y517323D02*
Y521260D01*
X392694Y519291D02*
X396631D01*
X394663Y517323D02*
Y521260D01*
X514348Y519291D02*
X518285D01*
X516316Y517323D02*
Y521260D01*
X611592Y519291D02*
X615529D01*
X613560Y517323D02*
Y521260D01*
X50007Y35722D02*
Y39659D01*
X48038Y37690D02*
X51975D01*
X46070Y30997D02*
X50007D01*
X48038Y29029D02*
Y32966D01*
X102159Y41035D02*
Y44972D01*
X100191Y43004D02*
X104128D01*
X76988Y191449D02*
X80925D01*
X78957Y189480D02*
Y193417D01*
X76988Y191449D02*
X80925D01*
X78957Y189480D02*
Y193417D01*
X63386Y174016D02*
X67323D01*
X65354Y172047D02*
Y175984D01*
X63386Y174016D02*
X67323D01*
X65354Y172047D02*
Y175984D01*
X377895Y228885D02*
Y232822D01*
X375926Y230854D02*
X379863D01*
X377895Y228885D02*
Y232822D01*
X375926Y230854D02*
X379863D01*
X368052Y228885D02*
Y232822D01*
X366084Y230854D02*
X370021D01*
X368052Y228885D02*
Y232822D01*
X366084Y230854D02*
X370021D01*
X358210Y228885D02*
Y232822D01*
X356241Y230854D02*
X360178D01*
X358210Y228885D02*
Y232822D01*
X356241Y230854D02*
X360178D01*
X347973Y228885D02*
Y232822D01*
X346005Y230854D02*
X349942D01*
X347973Y228885D02*
Y232822D01*
X346005Y230854D02*
X349942D01*
X338131Y228885D02*
Y232822D01*
X336162Y230854D02*
X340099D01*
X338131Y228885D02*
Y232822D01*
X336162Y230854D02*
X340099D01*
X318137Y228885D02*
Y232822D01*
X316168Y230854D02*
X320105D01*
X318137Y228885D02*
Y232822D01*
X316168Y230854D02*
X320105D01*
X298367Y228885D02*
Y232822D01*
X296399Y230854D02*
X300336D01*
X298367Y228885D02*
Y232822D01*
X296399Y230854D02*
X300336D01*
X268052Y228885D02*
Y232822D01*
X266084Y230854D02*
X270021D01*
X268052Y228885D02*
Y232822D01*
X266084Y230854D02*
X270021D01*
X287737Y228885D02*
Y232822D01*
X285769Y230854D02*
X289706D01*
X287737Y228885D02*
Y232822D01*
X285769Y230854D02*
X289706D01*
X82474Y35917D02*
X86411D01*
X84443Y33949D02*
Y37886D01*
X82474Y35917D02*
X86411D01*
X84443Y33949D02*
Y37886D01*
X97435Y52846D02*
Y56783D01*
X95466Y54815D02*
X99403D01*
X97435Y52846D02*
Y56783D01*
X95466Y54815D02*
X99403D01*
X91529Y41823D02*
X95466D01*
X93498Y39854D02*
Y43791D01*
X91529Y41823D02*
X95466D01*
X93498Y39854D02*
Y43791D01*
X66333Y38280D02*
Y42217D01*
X64364Y40248D02*
X68301D01*
X66333Y38280D02*
Y42217D01*
X64364Y40248D02*
X68301D01*
X97435Y47335D02*
Y51272D01*
X95466Y49303D02*
X99403D01*
X97435Y47335D02*
Y51272D01*
X95466Y49303D02*
X99403D01*
X98616Y59047D02*
Y62984D01*
X96648Y61016D02*
X100584D01*
X98616Y59047D02*
Y62984D01*
X96648Y61016D02*
X100584D01*
X79718Y35917D02*
X83655D01*
X81687Y33949D02*
Y37886D01*
X79718Y35917D02*
X83655D01*
X81687Y33949D02*
Y37886D01*
X74600Y35917D02*
X78537D01*
X76569Y33949D02*
Y37886D01*
X74600Y35917D02*
X78537D01*
X76569Y33949D02*
Y37886D01*
X104128Y50878D02*
Y54815D01*
X102159Y52846D02*
X106096D01*
X104128Y50878D02*
Y54815D01*
X102159Y52846D02*
X106096D01*
X98616Y61803D02*
Y65740D01*
X96648Y63772D02*
X100584D01*
X98616Y61803D02*
Y65740D01*
X96648Y63772D02*
X100584D01*
X46070Y44496D02*
X50007D01*
X48038Y42527D02*
Y46464D01*
X60118Y38673D02*
Y42610D01*
X58149Y40642D02*
X62086D01*
X60118Y38673D02*
Y42610D01*
X58149Y40642D02*
X62086D01*
X88189Y154724D02*
Y158661D01*
X86221Y156693D02*
X90158D01*
X88189Y154724D02*
Y158661D01*
X86221Y156693D02*
X90158D01*
X392694Y351575D02*
X396631D01*
X394663Y349606D02*
Y353543D01*
X125591Y489764D02*
X129527D01*
X127559Y487795D02*
Y491732D01*
X466142Y489764D02*
X470079D01*
X468110Y487795D02*
Y491732D01*
X392694Y489764D02*
X396631D01*
X394663Y487795D02*
Y491732D01*
X32677Y268898D02*
Y272835D01*
X30709Y270866D02*
X34646D01*
X456693Y108268D02*
Y112205D01*
X454724Y110236D02*
X458661D01*
X12402Y263386D02*
X16339D01*
X14370Y261417D02*
Y265354D01*
X12402Y263386D02*
X16339D01*
X14370Y261417D02*
Y265354D01*
X25197Y237008D02*
Y240945D01*
Y237008D02*
Y240945D01*
X23228Y238976D02*
X27165D01*
X23228D02*
X27165D01*
X613560Y349606D02*
Y353543D01*
X611592Y351575D02*
X615529D01*
X565520Y379527D02*
Y383465D01*
X563552Y381496D02*
X567489D01*
X613560Y379527D02*
Y383465D01*
X611592Y381496D02*
X615529D01*
X565354Y487795D02*
Y491732D01*
X563386Y489764D02*
X567323D01*
X565354Y517323D02*
Y521260D01*
X563386Y519291D02*
X567323D01*
X613560Y487795D02*
Y491732D01*
X611592Y489764D02*
X615529D01*
X175765Y349606D02*
Y353543D01*
X173797Y351575D02*
X177734D01*
X297419Y349606D02*
Y353543D01*
X295450Y351575D02*
X299387D01*
X297419Y319686D02*
Y323623D01*
X295450Y321655D02*
X299387D01*
X127725Y379527D02*
Y383465D01*
X125757Y381496D02*
X129694D01*
X127559Y517323D02*
Y521260D01*
X125591Y519291D02*
X129528D01*
X30481Y379527D02*
Y383465D01*
X28513Y381496D02*
X32450D01*
X30315Y487795D02*
Y491732D01*
X28346Y489764D02*
X32283D01*
X30315Y517323D02*
Y521260D01*
X28346Y519291D02*
X32283D01*
X78521Y349606D02*
Y353543D01*
X76553Y351575D02*
X80490D01*
X78521Y379527D02*
Y383465D01*
X76553Y381496D02*
X80490D01*
X78521Y487795D02*
Y491732D01*
X76553Y489764D02*
X80490D01*
X516316Y379527D02*
Y383465D01*
X514348Y381496D02*
X518285D01*
X516316Y349606D02*
Y353543D01*
X514348Y351575D02*
X518285D01*
X468276Y379527D02*
Y383465D01*
X466308Y381496D02*
X470245D01*
X346457Y517323D02*
Y521260D01*
X344488Y519291D02*
X348425D01*
X346457Y487795D02*
Y491732D01*
X344488Y489764D02*
X348425D01*
X297419Y379527D02*
Y383465D01*
X295450Y381496D02*
X299387D01*
X297419Y487795D02*
Y491732D01*
X295450Y489764D02*
X299387D01*
X394663Y379527D02*
Y383465D01*
X392694Y381496D02*
X396631D01*
X346623Y379527D02*
Y383465D01*
X344654Y381496D02*
X348591D01*
X516316Y487795D02*
Y491732D01*
X514348Y489764D02*
X518285D01*
X468110Y517323D02*
Y521260D01*
X466142Y519291D02*
X470079D01*
X516316Y319686D02*
Y323623D01*
X514348Y321655D02*
X518285D01*
X175765Y487795D02*
Y491732D01*
X173797Y489764D02*
X177734D01*
X175765Y379527D02*
Y383465D01*
X173797Y381496D02*
X177734D01*
X249379Y379527D02*
Y383465D01*
X247410Y381496D02*
X251347D01*
X249213Y487795D02*
Y491732D01*
X247244Y489764D02*
X251181D01*
X249213Y517323D02*
Y521260D01*
X247244Y519291D02*
X251181D01*
M02*
