G04*
G04 #@! TF.GenerationSoftware,Altium Limited,Altium Designer,24.5.2 (23)*
G04*
G04 Layer_Color=13664464*
%FSLAX25Y25*%
%MOIN*%
G70*
G04*
G04 #@! TF.SameCoordinates,A4DC4032-6D30-441B-857C-BBE942529F2D*
G04*
G04*
G04 #@! TF.FilePolarity,Positive*
G04*
G01*
G75*
%ADD13C,0.00787*%
D13*
X225984Y269094D02*
X246063D01*
X225984Y251378D02*
Y269094D01*
Y251378D02*
X246063D01*
Y269094D01*
X248622Y269094D02*
X268701D01*
X248622Y251378D02*
Y269094D01*
Y251378D02*
X268701D01*
Y269094D01*
X271457D02*
X291535D01*
X271457Y251378D02*
Y269094D01*
Y251378D02*
X291535D01*
Y269094D01*
X294094D02*
X314173D01*
X294094Y251378D02*
Y269094D01*
Y251378D02*
X314173D01*
Y269094D01*
X316929Y269094D02*
X337008D01*
X316929Y251378D02*
Y269094D01*
Y251378D02*
X337008D01*
Y269094D01*
X339764D02*
X359842D01*
X339764Y251378D02*
Y269094D01*
Y251378D02*
X359842D01*
Y269094D01*
X362598D02*
X382677D01*
X362598Y251378D02*
Y269094D01*
Y251378D02*
X382677D01*
Y269094D01*
X385236Y269094D02*
X405315D01*
X385236Y251378D02*
Y269094D01*
Y251378D02*
X405315D01*
Y269094D01*
X192067Y251303D02*
X223169D01*
Y269020D01*
X192067D02*
X223169D01*
X192067Y251303D02*
Y269020D01*
X158208Y251303D02*
X189311D01*
Y269020D01*
X158208D02*
X189311D01*
X158208Y251303D02*
Y269020D01*
X80177Y432146D02*
Y456634D01*
X53681D02*
X80177D01*
X53681Y432146D02*
Y456634D01*
Y432146D02*
X80177D01*
X177421D02*
Y456634D01*
X150925D02*
X177421D01*
X150925Y432146D02*
Y456634D01*
Y432146D02*
X177421D01*
X299075Y432146D02*
Y456634D01*
X272579D02*
X299075D01*
X272579Y432146D02*
Y456634D01*
Y432146D02*
X299075D01*
X396319D02*
Y456634D01*
X369823D02*
X396319D01*
X369823Y432146D02*
Y456634D01*
Y432146D02*
X396319D01*
X517972D02*
Y456634D01*
X491476D02*
X517972D01*
X491476Y432146D02*
Y456634D01*
Y432146D02*
X517972D01*
X615216D02*
Y456634D01*
X588720D02*
X615216D01*
X588720Y432146D02*
Y456634D01*
Y432146D02*
X615216D01*
X21260Y334903D02*
X45748D01*
X21260Y308406D02*
Y334903D01*
Y308406D02*
X45748D01*
Y334903D01*
X118504D02*
X142992D01*
X118504Y308406D02*
Y334903D01*
Y308406D02*
X142992D01*
Y334903D01*
X240157Y334902D02*
X264646D01*
X240157Y308406D02*
Y334902D01*
Y308406D02*
X264646D01*
Y334902D01*
X337402D02*
X361890D01*
X337402Y308406D02*
Y334902D01*
Y308406D02*
X361890D01*
Y334902D01*
X459055D02*
X483543D01*
X459055Y308406D02*
Y334902D01*
Y308406D02*
X483543D01*
Y334902D01*
X556299D02*
X580787D01*
X556299Y308406D02*
Y334902D01*
Y308406D02*
X580787D01*
Y334902D01*
X69525Y334903D02*
X94013D01*
X69525Y308406D02*
Y334903D01*
Y308406D02*
X94013D01*
Y334903D01*
X166769D02*
X191257D01*
X166769Y308406D02*
Y334903D01*
Y308406D02*
X191257D01*
Y334903D01*
X385667Y334903D02*
X410155D01*
X385667Y308406D02*
Y334903D01*
Y308406D02*
X410155D01*
Y334903D01*
X604564D02*
X629053D01*
X604564Y308406D02*
Y334903D01*
Y308406D02*
X629053D01*
Y334903D01*
X21448Y364824D02*
X45936D01*
X21448Y338328D02*
Y364824D01*
Y338328D02*
X45936D01*
Y364824D01*
X118692D02*
X143180D01*
X118692Y338328D02*
Y364824D01*
Y338328D02*
X143180D01*
Y364824D01*
X240346Y364824D02*
X264834D01*
X240346Y338328D02*
Y364824D01*
Y338328D02*
X264834D01*
Y364824D01*
X337590D02*
X362078D01*
X337590Y338328D02*
Y364824D01*
Y338328D02*
X362078D01*
Y364824D01*
X459243D02*
X483732D01*
X459243Y338328D02*
Y364824D01*
Y338328D02*
X483732D01*
Y364824D01*
X556488D02*
X580976D01*
X556488Y338328D02*
Y364824D01*
Y338328D02*
X580976D01*
Y364824D01*
X69525Y532539D02*
X94013D01*
X69525Y506043D02*
Y532539D01*
Y506043D02*
X94013D01*
Y532539D01*
X166769D02*
X191257D01*
X166769Y506043D02*
Y532539D01*
Y506043D02*
X191257D01*
Y532539D01*
X288423Y532539D02*
X312911D01*
X288423Y506043D02*
Y532539D01*
Y506043D02*
X312911D01*
Y532539D01*
X385667D02*
X410155D01*
X385667Y506043D02*
Y532539D01*
Y506043D02*
X410155D01*
Y532539D01*
X507320D02*
X531809D01*
X507320Y506043D02*
Y532539D01*
Y506043D02*
X531809D01*
Y532539D01*
X604564D02*
X629053D01*
X604564Y506043D02*
Y532539D01*
Y506043D02*
X629053D01*
Y532539D01*
X48038Y36706D02*
Y38675D01*
Y36706D02*
X51975D01*
Y38675D01*
X48038D02*
X51975D01*
X47054Y29029D02*
X49023D01*
Y32966D01*
X47054D02*
X49023D01*
X47054Y29029D02*
Y32966D01*
X97238Y39067D02*
Y46941D01*
Y39067D02*
X107080D01*
Y46941D01*
X97238D02*
X107080D01*
X77972Y193417D02*
X79941D01*
X77972Y189480D02*
Y193417D01*
Y189480D02*
X79941D01*
Y193417D01*
X64370Y172047D02*
X66339D01*
Y175984D01*
X64370D02*
X66339D01*
X64370Y172047D02*
Y175984D01*
X379863Y229870D02*
Y231838D01*
X375926D02*
X379863D01*
X375926Y229870D02*
Y231838D01*
Y229870D02*
X379863D01*
X370021D02*
Y231838D01*
X366084D02*
X370021D01*
X366084Y229870D02*
Y231838D01*
Y229870D02*
X370021D01*
X360178D02*
Y231838D01*
X356241D02*
X360178D01*
X356241Y229870D02*
Y231838D01*
Y229870D02*
X360178D01*
X349942D02*
Y231838D01*
X346005D02*
X349942D01*
X346005Y229870D02*
Y231838D01*
Y229870D02*
X349942D01*
X340099D02*
Y231838D01*
X336162D02*
X340099D01*
X336162Y229870D02*
Y231838D01*
Y229870D02*
X340099D01*
X316168D02*
Y231838D01*
Y229870D02*
X320105D01*
Y231838D01*
X316168D02*
X320105D01*
X296399Y229870D02*
Y231838D01*
Y229870D02*
X300336D01*
Y231838D01*
X296399D02*
X300336D01*
X270021Y229870D02*
Y231838D01*
X266084D02*
X270021D01*
X266084Y229870D02*
Y231838D01*
Y229870D02*
X270021D01*
X285769D02*
Y231838D01*
Y229870D02*
X289706D01*
Y231838D01*
X285769D02*
X289706D01*
X83459Y37886D02*
X85427D01*
X83459Y33949D02*
Y37886D01*
Y33949D02*
X85427D01*
Y37886D01*
X95466Y53831D02*
Y55799D01*
Y53831D02*
X99403D01*
Y55799D01*
X95466D02*
X99403D01*
X92514Y43791D02*
X94482D01*
X92514Y39854D02*
Y43791D01*
Y39854D02*
X94482D01*
Y43791D01*
X68301Y39264D02*
Y41232D01*
X64364D02*
X68301D01*
X64364Y39264D02*
Y41232D01*
Y39264D02*
X68301D01*
X95466Y48319D02*
Y50287D01*
Y48319D02*
X99403D01*
Y50287D01*
X95466D02*
X99403D01*
X96648Y60031D02*
Y62000D01*
Y60031D02*
X100584D01*
Y62000D01*
X96648D02*
X100584D01*
X80703Y37886D02*
X82671D01*
X80703Y33949D02*
Y37886D01*
Y33949D02*
X82671D01*
Y37886D01*
X75585D02*
X77553D01*
X75585Y33949D02*
Y37886D01*
Y33949D02*
X77553D01*
Y37886D01*
X102159Y51862D02*
Y53831D01*
Y51862D02*
X106096D01*
Y53831D01*
X102159D02*
X106096D01*
X96648Y62787D02*
Y64756D01*
Y62787D02*
X100584D01*
Y64756D01*
X96648D02*
X100584D01*
X47054Y42527D02*
X49023D01*
Y46464D01*
X47054D02*
X49023D01*
X47054Y42527D02*
Y46464D01*
X62086Y39658D02*
Y41626D01*
X58149D02*
X62086D01*
X58149Y39658D02*
Y41626D01*
Y39658D02*
X62086D01*
X86221Y155709D02*
Y157677D01*
Y155709D02*
X90158D01*
Y157677D01*
X86221D02*
X90158D01*
X385667Y364823D02*
X410155D01*
X385667Y338327D02*
Y364823D01*
Y338327D02*
X410155D01*
Y364823D01*
X118563Y503012D02*
X143051D01*
X118563Y476516D02*
Y503012D01*
Y476516D02*
X143051D01*
Y503012D01*
X459114Y503012D02*
X483602D01*
X459114Y476516D02*
Y503012D01*
Y476516D02*
X483602D01*
Y503012D01*
X385667D02*
X410155D01*
X385667Y476516D02*
Y503012D01*
Y476516D02*
X410155D01*
Y503012D01*
X19429Y261870D02*
Y286358D01*
Y261870D02*
X45925D01*
Y286358D01*
X19429D02*
X45925D01*
X437402Y89173D02*
Y131299D01*
Y89173D02*
X475984D01*
Y131299D01*
X437402D02*
X475984D01*
X13386Y261417D02*
X15354D01*
Y265354D01*
X13386D02*
X15354D01*
X13386Y261417D02*
Y265354D01*
X26181Y237008D02*
Y240945D01*
X24213Y237008D02*
X26181D01*
X24213D02*
Y240945D01*
X26181D01*
X604564Y338327D02*
Y364823D01*
X629053D01*
Y338327D02*
Y364823D01*
X604564Y338327D02*
X629053D01*
X556524Y368248D02*
Y394744D01*
X581013D01*
Y368248D02*
Y394744D01*
X556524Y368248D02*
X581013D01*
X604564D02*
Y394744D01*
X629053D01*
Y368248D02*
Y394744D01*
X604564Y368248D02*
X629053D01*
X556358Y476516D02*
Y503012D01*
X580846D01*
Y476516D02*
Y503012D01*
X556358Y476516D02*
X580846D01*
X556358Y506043D02*
Y532539D01*
X580846D01*
Y506043D02*
Y532539D01*
X556358Y506043D02*
X580846D01*
X604564Y476516D02*
Y503012D01*
X629053D01*
Y476516D02*
Y503012D01*
X604564Y476516D02*
X629053D01*
X166769Y338327D02*
Y364823D01*
X191257D01*
Y338327D02*
Y364823D01*
X166769Y338327D02*
X191257D01*
X288423D02*
Y364823D01*
X312911D01*
Y338327D02*
Y364823D01*
X288423Y338327D02*
X312911D01*
X288423Y308406D02*
Y334903D01*
X312911D01*
Y308406D02*
Y334903D01*
X288423Y308406D02*
X312911D01*
X118729Y368248D02*
Y394744D01*
X143217D01*
Y368248D02*
Y394744D01*
X118729Y368248D02*
X143217D01*
X118563Y506043D02*
Y532539D01*
X143051D01*
Y506043D02*
Y532539D01*
X118563Y506043D02*
X143051D01*
X21485Y368248D02*
Y394744D01*
X45973D01*
Y368248D02*
Y394744D01*
X21485Y368248D02*
X45973D01*
X21319Y476516D02*
Y503012D01*
X45807D01*
Y476516D02*
Y503012D01*
X21319Y476516D02*
X45807D01*
X21319Y506043D02*
Y532539D01*
X45807D01*
Y506043D02*
Y532539D01*
X21319Y506043D02*
X45807D01*
X69525Y338327D02*
Y364823D01*
X94013D01*
Y338327D02*
Y364823D01*
X69525Y338327D02*
X94013D01*
X69525Y368248D02*
Y394744D01*
X94013D01*
Y368248D02*
Y394744D01*
X69525Y368248D02*
X94013D01*
X69525Y476516D02*
Y503012D01*
X94013D01*
Y476516D02*
Y503012D01*
X69525Y476516D02*
X94013D01*
X507320Y368248D02*
Y394744D01*
X531808D01*
Y368248D02*
Y394744D01*
X507320Y368248D02*
X531808D01*
X507320Y338327D02*
Y364823D01*
X531808D01*
Y338327D02*
Y364823D01*
X507320Y338327D02*
X531808D01*
X459280Y368248D02*
Y394744D01*
X483768D01*
Y368248D02*
Y394744D01*
X459280Y368248D02*
X483768D01*
X337461Y506043D02*
Y532539D01*
X361949D01*
Y506043D02*
Y532539D01*
X337461Y506043D02*
X361949D01*
X337461Y476516D02*
Y503012D01*
X361949D01*
Y476516D02*
Y503012D01*
X337461Y476516D02*
X361949D01*
X288423Y368248D02*
Y394744D01*
X312911D01*
Y368248D02*
Y394744D01*
X288423Y368248D02*
X312911D01*
X288423Y476516D02*
Y503012D01*
X312911D01*
Y476516D02*
Y503012D01*
X288423Y476516D02*
X312911D01*
X385667Y368248D02*
Y394744D01*
X410155D01*
Y368248D02*
Y394744D01*
X385667Y368248D02*
X410155D01*
X337627D02*
Y394744D01*
X362115D01*
Y368248D02*
Y394744D01*
X337627Y368248D02*
X362115D01*
X507320Y476516D02*
Y503012D01*
X531808D01*
Y476516D02*
Y503012D01*
X507320Y476516D02*
X531808D01*
X459114Y506043D02*
Y532539D01*
X483602D01*
Y506043D02*
Y532539D01*
X459114Y506043D02*
X483602D01*
X507320Y308406D02*
Y334903D01*
X531808D01*
Y308406D02*
Y334903D01*
X507320Y308406D02*
X531808D01*
X166769Y476516D02*
Y503012D01*
X191257D01*
Y476516D02*
Y503012D01*
X166769Y476516D02*
X191257D01*
X166769Y368248D02*
Y394744D01*
X191257D01*
Y368248D02*
Y394744D01*
X166769Y368248D02*
X191257D01*
X240383D02*
Y394744D01*
X264871D01*
Y368248D02*
Y394744D01*
X240383Y368248D02*
X264871D01*
X240216Y476516D02*
Y503012D01*
X264705D01*
Y476516D02*
Y503012D01*
X240216Y476516D02*
X264705D01*
X240216Y506043D02*
Y532539D01*
X264705D01*
Y506043D02*
Y532539D01*
X240216Y506043D02*
X264705D01*
M02*
