G04*
G04 #@! TF.GenerationSoftware,Altium Limited,Altium Designer,24.5.2 (23)*
G04*
G04 Layer_Color=4214928*
%FSLAX25Y25*%
%MOIN*%
G70*
G04*
G04 #@! TF.SameCoordinates,7521D7B9-249F-48D2-9375-4659AF460BCF*
G04*
G04*
G04 #@! TF.FilePolarity,Negative*
G04*
G01*
G75*
G04:AMPARAMS|DCode=34|XSize=59.06mil|YSize=17.72mil|CornerRadius=1.95mil|HoleSize=0mil|Usage=FLASHONLY|Rotation=90.000|XOffset=0mil|YOffset=0mil|HoleType=Round|Shape=RoundedRectangle|*
%AMROUNDEDRECTD34*
21,1,0.05906,0.01382,0,0,90.0*
21,1,0.05516,0.01772,0,0,90.0*
1,1,0.00390,0.00691,0.02758*
1,1,0.00390,0.00691,-0.02758*
1,1,0.00390,-0.00691,-0.02758*
1,1,0.00390,-0.00691,0.02758*
%
%ADD34ROUNDEDRECTD34*%
%ADD46R,0.27559X0.27559*%
%ADD47R,0.05906X0.09843*%
%ADD48R,0.27559X0.27559*%
%ADD49R,0.09843X0.05906*%
%ADD50R,0.02029X0.01860*%
%ADD51R,0.02648X0.02816*%
%ADD52R,0.05334X0.08686*%
%ADD54R,0.01860X0.02029*%
%ADD57R,0.02254X0.02423*%
%ADD67R,0.08465X0.02165*%
%ADD68R,0.05709X0.22244*%
%ADD69R,0.04528X0.07677*%
%ADD70R,0.06102X0.05315*%
%ADD71R,0.03268X0.01693*%
%ADD72C,0.01410*%
%ADD73R,0.18701X0.18701*%
%ADD74O,0.01378X0.03347*%
%ADD75O,0.03347X0.01378*%
%ADD76O,0.06890X0.01772*%
%ADD77O,0.01772X0.06890*%
%ADD78R,0.01378X0.06299*%
%ADD79R,0.07992X0.07205*%
%ADD80O,0.01772X0.06890*%
%ADD81R,0.07638X0.14094*%
%ADD82R,0.04528X0.03543*%
%ADD83R,0.02818X0.02717*%
%ADD84R,0.03766X0.03992*%
%ADD85R,0.02717X0.02818*%
%ADD86R,0.02953X0.03543*%
%ADD87R,0.03992X0.03766*%
%ADD88R,0.42191X0.33661*%
%ADD89R,0.05709X0.16339*%
%ADD90R,0.06890X0.03740*%
%ADD91R,0.03740X0.04134*%
%ADD92R,0.02717X0.02559*%
%ADD93R,0.02559X0.02717*%
%ADD94R,0.05709X0.06102*%
%ADD95R,0.06142X0.05906*%
%ADD96R,0.06437X0.07394*%
G04:AMPARAMS|DCode=97|XSize=25.59mil|YSize=27.17mil|CornerRadius=0mil|HoleSize=0mil|Usage=FLASHONLY|Rotation=45.000|XOffset=0mil|YOffset=0mil|HoleType=Round|Shape=Rectangle|*
%AMROTATEDRECTD97*
4,1,4,0.00056,-0.01865,-0.01865,0.00056,-0.00056,0.01865,0.01865,-0.00056,0.00056,-0.01865,0.0*
%
%ADD97ROTATEDRECTD97*%

%ADD98R,0.03425X0.03583*%
%ADD99R,0.03583X0.03425*%
%ADD100R,0.07087X0.02756*%
%ADD101R,0.07087X0.03150*%
%ADD102R,0.06496X0.02953*%
%ADD103R,0.15591X0.11591*%
%ADD104C,0.05709*%
%ADD105O,0.07677X0.05709*%
%ADD106C,0.07284*%
%ADD107R,0.07284X0.07284*%
%ADD108O,0.12402X0.08465*%
%ADD109O,0.06890X0.06890*%
%ADD110C,0.06890*%
%ADD111R,0.07677X0.07677*%
%ADD112C,0.08189*%
%ADD113C,0.05000*%
%ADD114R,0.05000X0.05000*%
%ADD115C,0.24213*%
%ADD116C,0.08071*%
%ADD117R,0.06591X0.06591*%
%ADD118C,0.06591*%
%ADD119R,0.04725X0.04725*%
%ADD120C,0.04725*%
%ADD121C,0.05591*%
%ADD122C,0.02559*%
%ADD123C,0.02953*%
D34*
X193543Y271579D02*
D03*
X196102D02*
D03*
X198661D02*
D03*
X201220D02*
D03*
X203779D02*
D03*
X206338D02*
D03*
X208897D02*
D03*
X211456D02*
D03*
X214016D02*
D03*
X216575D02*
D03*
X219134D02*
D03*
X221693D02*
D03*
Y248744D02*
D03*
X219134D02*
D03*
X216575D02*
D03*
X214016D02*
D03*
X211456D02*
D03*
X208897D02*
D03*
X206338D02*
D03*
X203779D02*
D03*
X201220D02*
D03*
X198661D02*
D03*
X196102D02*
D03*
X193543D02*
D03*
X159685Y271579D02*
D03*
X162244D02*
D03*
X164803D02*
D03*
X167362D02*
D03*
X169921D02*
D03*
X172480D02*
D03*
X175039D02*
D03*
X177598D02*
D03*
X180157D02*
D03*
X182716D02*
D03*
X185275D02*
D03*
X187834D02*
D03*
Y248744D02*
D03*
X185275D02*
D03*
X182716D02*
D03*
X180157D02*
D03*
X177598D02*
D03*
X175039D02*
D03*
X172480D02*
D03*
X169921D02*
D03*
X167362D02*
D03*
X164803D02*
D03*
X162244D02*
D03*
X159685D02*
D03*
D46*
X66929Y438484D02*
D03*
X164173D02*
D03*
X285827Y438484D02*
D03*
X383071D02*
D03*
X504724D02*
D03*
X601968D02*
D03*
X32677Y280020D02*
D03*
D47*
X57874Y465650D02*
D03*
X75984D02*
D03*
X155118D02*
D03*
X173228D02*
D03*
X276772Y465650D02*
D03*
X294882D02*
D03*
X374016D02*
D03*
X392126D02*
D03*
X495669D02*
D03*
X513779D02*
D03*
X592913D02*
D03*
X611024D02*
D03*
X41732Y252854D02*
D03*
X23622D02*
D03*
D48*
X39409Y321654D02*
D03*
X136653D02*
D03*
X258307Y321654D02*
D03*
X355551D02*
D03*
X477205D02*
D03*
X574449D02*
D03*
X87675Y321654D02*
D03*
X184919D02*
D03*
X403816Y321654D02*
D03*
X622714D02*
D03*
X39598Y351576D02*
D03*
X136842D02*
D03*
X258495Y351576D02*
D03*
X355739D02*
D03*
X477393D02*
D03*
X574637D02*
D03*
X87675Y519291D02*
D03*
X184919D02*
D03*
X306572Y519291D02*
D03*
X403816D02*
D03*
X525470D02*
D03*
X622714D02*
D03*
X403816Y351575D02*
D03*
X136713Y489764D02*
D03*
X477264Y489764D02*
D03*
X403816D02*
D03*
X622714Y351575D02*
D03*
X574674Y381496D02*
D03*
X622714D02*
D03*
X574508Y489764D02*
D03*
Y519291D02*
D03*
X622714Y489764D02*
D03*
X184919Y351575D02*
D03*
X306572D02*
D03*
Y321655D02*
D03*
X136879Y381496D02*
D03*
X136713Y519291D02*
D03*
X39635Y381496D02*
D03*
X39468Y489764D02*
D03*
Y519291D02*
D03*
X87675Y351575D02*
D03*
Y381496D02*
D03*
Y489764D02*
D03*
X525470Y381496D02*
D03*
Y351575D02*
D03*
X477430Y381496D02*
D03*
X355610Y519291D02*
D03*
Y489764D02*
D03*
X306572Y381496D02*
D03*
Y489764D02*
D03*
X403816Y381496D02*
D03*
X355776D02*
D03*
X525470Y489764D02*
D03*
X477264Y519291D02*
D03*
X525470Y321655D02*
D03*
X184919Y489764D02*
D03*
Y381496D02*
D03*
X258532D02*
D03*
X258366Y489764D02*
D03*
Y519291D02*
D03*
D49*
X12244Y312599D02*
D03*
Y330710D02*
D03*
X109488Y312599D02*
D03*
Y330710D02*
D03*
X231142Y312599D02*
D03*
Y330710D02*
D03*
X328386Y312599D02*
D03*
Y330710D02*
D03*
X450039Y312599D02*
D03*
Y330710D02*
D03*
X547283Y312599D02*
D03*
Y330710D02*
D03*
X60509Y312599D02*
D03*
Y330710D02*
D03*
X157753Y312599D02*
D03*
Y330710D02*
D03*
X376651Y312599D02*
D03*
Y330710D02*
D03*
X595549Y312599D02*
D03*
Y330710D02*
D03*
X12432Y342521D02*
D03*
Y360631D02*
D03*
X109676Y342521D02*
D03*
Y360631D02*
D03*
X231330Y342521D02*
D03*
Y360631D02*
D03*
X328574Y342521D02*
D03*
Y360631D02*
D03*
X450228Y342521D02*
D03*
Y360631D02*
D03*
X547472Y342521D02*
D03*
Y360631D02*
D03*
X60509Y510236D02*
D03*
Y528346D02*
D03*
X157753Y510236D02*
D03*
Y528346D02*
D03*
X279407Y510236D02*
D03*
Y528346D02*
D03*
X376651Y510236D02*
D03*
Y528346D02*
D03*
X498305Y510236D02*
D03*
Y528346D02*
D03*
X595549Y510236D02*
D03*
Y528346D02*
D03*
X376651Y342520D02*
D03*
Y360630D02*
D03*
X109547Y480709D02*
D03*
Y498819D02*
D03*
X450098Y480709D02*
D03*
Y498819D02*
D03*
X376651Y480709D02*
D03*
Y498819D02*
D03*
X595549Y342520D02*
D03*
Y360630D02*
D03*
X547509Y372441D02*
D03*
Y390551D02*
D03*
X595549Y372441D02*
D03*
Y390551D02*
D03*
X547342Y480709D02*
D03*
Y498819D02*
D03*
Y510236D02*
D03*
Y528346D02*
D03*
X595549Y480709D02*
D03*
Y498819D02*
D03*
X157753Y342520D02*
D03*
Y360630D02*
D03*
X279407Y342520D02*
D03*
Y360630D02*
D03*
Y312599D02*
D03*
Y330710D02*
D03*
X109713Y372441D02*
D03*
Y390551D02*
D03*
X109547Y510236D02*
D03*
Y528346D02*
D03*
X12469Y372441D02*
D03*
Y390551D02*
D03*
X12303Y480709D02*
D03*
Y498819D02*
D03*
Y510236D02*
D03*
Y528346D02*
D03*
X60509Y342520D02*
D03*
Y360630D02*
D03*
Y372441D02*
D03*
Y390551D02*
D03*
Y480709D02*
D03*
Y498819D02*
D03*
X498305Y372441D02*
D03*
Y390551D02*
D03*
Y342520D02*
D03*
Y360630D02*
D03*
X450264Y372441D02*
D03*
Y390551D02*
D03*
X328445Y510236D02*
D03*
Y528346D02*
D03*
Y480709D02*
D03*
Y498819D02*
D03*
X279407Y372441D02*
D03*
Y390551D02*
D03*
Y480709D02*
D03*
Y498819D02*
D03*
X376651Y372441D02*
D03*
Y390551D02*
D03*
X328611Y372441D02*
D03*
Y390551D02*
D03*
X498305Y480709D02*
D03*
Y498819D02*
D03*
X450098Y510236D02*
D03*
Y528346D02*
D03*
X498305Y312599D02*
D03*
Y330710D02*
D03*
X157753Y480709D02*
D03*
Y498819D02*
D03*
Y372441D02*
D03*
Y390551D02*
D03*
X231367Y372441D02*
D03*
Y390551D02*
D03*
X231201Y480709D02*
D03*
Y498819D02*
D03*
Y510236D02*
D03*
Y528346D02*
D03*
D50*
X51497Y37690D02*
D03*
X48516D02*
D03*
X376404Y230854D02*
D03*
X379385D02*
D03*
X366562D02*
D03*
X369543D02*
D03*
X356719D02*
D03*
X359700D02*
D03*
X346483D02*
D03*
X349464D02*
D03*
X336640D02*
D03*
X339621D02*
D03*
X319627D02*
D03*
X316646D02*
D03*
X299857D02*
D03*
X296877D02*
D03*
X266562D02*
D03*
X269543D02*
D03*
X289228D02*
D03*
X286247D02*
D03*
X98925Y54815D02*
D03*
X95944D02*
D03*
X64842Y40248D02*
D03*
X67823D02*
D03*
X98925Y49303D02*
D03*
X95944D02*
D03*
X100106Y61016D02*
D03*
X97126D02*
D03*
X105618Y52846D02*
D03*
X102637D02*
D03*
X100106Y63772D02*
D03*
X97126D02*
D03*
X58627Y40642D02*
D03*
X61608D02*
D03*
X89679Y156693D02*
D03*
X86699D02*
D03*
D51*
X48038Y32882D02*
D03*
Y29113D02*
D03*
D52*
X106197Y43004D02*
D03*
X98121D02*
D03*
D54*
X78957Y189958D02*
D03*
Y192939D02*
D03*
X65354Y175506D02*
D03*
Y172525D02*
D03*
X84443Y34427D02*
D03*
Y37408D02*
D03*
X93498Y40332D02*
D03*
Y43313D02*
D03*
X81687Y34427D02*
D03*
Y37408D02*
D03*
X76569Y34427D02*
D03*
Y37408D02*
D03*
X14370Y264876D02*
D03*
Y261895D02*
D03*
X25197Y240467D02*
D03*
Y237486D02*
D03*
D57*
X48038Y46183D02*
D03*
Y42809D02*
D03*
D67*
X17673Y175031D02*
D03*
Y177590D02*
D03*
Y180149D02*
D03*
Y182708D02*
D03*
Y185267D02*
D03*
D68*
X44055Y94142D02*
D03*
Y129992D02*
D03*
D69*
X54584Y146712D02*
D03*
X44741D02*
D03*
D70*
X74994Y28634D02*
D03*
X83656D02*
D03*
Y21941D02*
D03*
X74994D02*
D03*
D71*
X56929Y179331D02*
D03*
Y181299D02*
D03*
Y183267D02*
D03*
Y185237D02*
D03*
X61969D02*
D03*
Y183267D02*
D03*
Y181299D02*
D03*
Y179331D02*
D03*
D72*
X69482Y70956D02*
D03*
Y69382D02*
D03*
X71056Y70956D02*
D03*
Y69382D02*
D03*
D73*
X79718Y54028D02*
D03*
D74*
X71057Y66035D02*
D03*
X72632D02*
D03*
X74207D02*
D03*
X75781D02*
D03*
X77356D02*
D03*
X78931D02*
D03*
X80506D02*
D03*
X82081D02*
D03*
X83655D02*
D03*
X85230D02*
D03*
X86805D02*
D03*
X88380D02*
D03*
Y42217D02*
D03*
X86805D02*
D03*
X85230D02*
D03*
X83655D02*
D03*
X82081D02*
D03*
X80506D02*
D03*
X78931D02*
D03*
X77356D02*
D03*
X75781D02*
D03*
X74207D02*
D03*
X72632D02*
D03*
X71057D02*
D03*
D75*
X91529Y62689D02*
D03*
Y61114D02*
D03*
Y59539D02*
D03*
Y57965D02*
D03*
Y56390D02*
D03*
Y54815D02*
D03*
Y53240D02*
D03*
Y51665D02*
D03*
Y50091D02*
D03*
Y48516D02*
D03*
Y46941D02*
D03*
Y45366D02*
D03*
X67907D02*
D03*
Y46941D02*
D03*
Y48516D02*
D03*
Y50091D02*
D03*
Y51665D02*
D03*
Y53240D02*
D03*
Y54815D02*
D03*
Y56390D02*
D03*
Y57965D02*
D03*
Y59539D02*
D03*
Y61114D02*
D03*
Y62689D02*
D03*
D76*
X66337Y144725D02*
D03*
Y142757D02*
D03*
Y140788D02*
D03*
Y138820D02*
D03*
Y136851D02*
D03*
Y134883D02*
D03*
Y132914D02*
D03*
Y130946D02*
D03*
Y128977D02*
D03*
Y127009D02*
D03*
Y125040D02*
D03*
Y123071D02*
D03*
Y121103D02*
D03*
Y119134D02*
D03*
Y117166D02*
D03*
Y115197D02*
D03*
Y113229D02*
D03*
Y111260D02*
D03*
Y109292D02*
D03*
Y107323D02*
D03*
Y105355D02*
D03*
Y103386D02*
D03*
Y101418D02*
D03*
Y99449D02*
D03*
Y97481D02*
D03*
X125785D02*
D03*
Y99449D02*
D03*
Y101418D02*
D03*
Y103386D02*
D03*
Y105355D02*
D03*
Y107323D02*
D03*
Y109292D02*
D03*
Y111260D02*
D03*
Y113229D02*
D03*
Y115197D02*
D03*
Y117166D02*
D03*
Y119134D02*
D03*
Y121103D02*
D03*
Y123071D02*
D03*
Y125040D02*
D03*
Y127009D02*
D03*
Y128977D02*
D03*
Y130946D02*
D03*
Y132914D02*
D03*
Y134883D02*
D03*
Y136851D02*
D03*
Y138820D02*
D03*
Y140788D02*
D03*
Y142757D02*
D03*
Y144725D02*
D03*
D77*
X72439Y91379D02*
D03*
X74407D02*
D03*
X76376D02*
D03*
X78344D02*
D03*
X80313D02*
D03*
X82281D02*
D03*
X84250D02*
D03*
X86218D02*
D03*
X88187D02*
D03*
X90155D02*
D03*
X92124D02*
D03*
X94093D02*
D03*
X96061D02*
D03*
X98030D02*
D03*
X99998D02*
D03*
X101967D02*
D03*
X103935D02*
D03*
X105904D02*
D03*
X107872D02*
D03*
X109841D02*
D03*
X111809D02*
D03*
X113777D02*
D03*
X115746D02*
D03*
X117715D02*
D03*
X119683D02*
D03*
Y150827D02*
D03*
X117715D02*
D03*
X115746D02*
D03*
X113777D02*
D03*
X111809D02*
D03*
X109841D02*
D03*
X107872D02*
D03*
X105904D02*
D03*
X103935D02*
D03*
X101967D02*
D03*
X99998D02*
D03*
X98030D02*
D03*
X96061D02*
D03*
X94093D02*
D03*
X92124D02*
D03*
X90155D02*
D03*
X88187D02*
D03*
X86218D02*
D03*
X84250D02*
D03*
X82281D02*
D03*
X80313D02*
D03*
X78344D02*
D03*
X76376D02*
D03*
X74407D02*
D03*
X72439D02*
D03*
D78*
X243701Y249213D02*
D03*
X241142D02*
D03*
X238583D02*
D03*
X236024D02*
D03*
X233465D02*
D03*
X230906D02*
D03*
X228346D02*
D03*
Y271260D02*
D03*
X230906D02*
D03*
X233465D02*
D03*
X236024D02*
D03*
X238583D02*
D03*
X241142D02*
D03*
X243701D02*
D03*
X266339Y249213D02*
D03*
X263779D02*
D03*
X261221D02*
D03*
X258661D02*
D03*
X256102D02*
D03*
X253543D02*
D03*
X250984D02*
D03*
Y271260D02*
D03*
X253543D02*
D03*
X256102D02*
D03*
X258661D02*
D03*
X261221D02*
D03*
X263779D02*
D03*
X266339D02*
D03*
X289173Y249213D02*
D03*
X286614D02*
D03*
X284055D02*
D03*
X281496D02*
D03*
X278937D02*
D03*
X276378D02*
D03*
X273819D02*
D03*
Y271260D02*
D03*
X276378D02*
D03*
X278937D02*
D03*
X281496D02*
D03*
X284055D02*
D03*
X286614D02*
D03*
X289173D02*
D03*
X311811Y249213D02*
D03*
X309252D02*
D03*
X306693D02*
D03*
X304134D02*
D03*
X301575D02*
D03*
X299016D02*
D03*
X296457D02*
D03*
Y271260D02*
D03*
X299016D02*
D03*
X301575D02*
D03*
X304134D02*
D03*
X306693D02*
D03*
X309252D02*
D03*
X311811D02*
D03*
X334646Y249213D02*
D03*
X332087D02*
D03*
X329528D02*
D03*
X326969D02*
D03*
X324409D02*
D03*
X321850D02*
D03*
X319291D02*
D03*
Y271260D02*
D03*
X321850D02*
D03*
X324409D02*
D03*
X326969D02*
D03*
X329528D02*
D03*
X332087D02*
D03*
X334646D02*
D03*
X357480Y249213D02*
D03*
X354921D02*
D03*
X352362D02*
D03*
X349803D02*
D03*
X347244D02*
D03*
X344685D02*
D03*
X342126D02*
D03*
Y271260D02*
D03*
X344685D02*
D03*
X347244D02*
D03*
X349803D02*
D03*
X352362D02*
D03*
X354921D02*
D03*
X357480D02*
D03*
X380315Y249213D02*
D03*
X377756D02*
D03*
X375197D02*
D03*
X372638D02*
D03*
X370079D02*
D03*
X367520D02*
D03*
X364961D02*
D03*
Y271260D02*
D03*
X367520D02*
D03*
X370079D02*
D03*
X372638D02*
D03*
X375197D02*
D03*
X377756D02*
D03*
X380315D02*
D03*
X402953Y249213D02*
D03*
X400394D02*
D03*
X397835D02*
D03*
X395276D02*
D03*
X392717D02*
D03*
X390158D02*
D03*
X387598D02*
D03*
Y271260D02*
D03*
X390158D02*
D03*
X392717D02*
D03*
X395276D02*
D03*
X397835D02*
D03*
X400394D02*
D03*
X402953D02*
D03*
D79*
X18504Y222146D02*
D03*
D80*
X22441Y230512D02*
D03*
X20472D02*
D03*
X18504D02*
D03*
X16535D02*
D03*
X14567D02*
D03*
X22441Y213780D02*
D03*
X20472D02*
D03*
X18504D02*
D03*
X16535D02*
D03*
X14567D02*
D03*
D81*
X106890Y215138D02*
D03*
X97047D02*
D03*
X87205D02*
D03*
X77362D02*
D03*
X67520D02*
D03*
X57677D02*
D03*
Y295098D02*
D03*
X67520D02*
D03*
X77362D02*
D03*
X87205D02*
D03*
X97047D02*
D03*
X106890D02*
D03*
D82*
X420574Y16929D02*
D03*
X396952D02*
D03*
X420574Y31495D02*
D03*
X396952D02*
D03*
X360236Y16929D02*
D03*
X336614D02*
D03*
X360236Y31495D02*
D03*
X336614D02*
D03*
X299899Y16929D02*
D03*
X276276D02*
D03*
X299899Y31495D02*
D03*
X276276D02*
D03*
X239561Y16929D02*
D03*
X215939D02*
D03*
X239561Y31495D02*
D03*
X215939D02*
D03*
X179223Y16929D02*
D03*
X155601D02*
D03*
X179223Y31495D02*
D03*
X155601D02*
D03*
X124272Y53779D02*
D03*
X147894D02*
D03*
X124272Y39213D02*
D03*
X147894D02*
D03*
D83*
X73228Y192126D02*
D03*
X69820D02*
D03*
X76439Y71350D02*
D03*
X79848D02*
D03*
X9449Y324410D02*
D03*
X12857D02*
D03*
X106693D02*
D03*
X110101D02*
D03*
X228346Y324409D02*
D03*
X231754D02*
D03*
X325590D02*
D03*
X328998D02*
D03*
X447244D02*
D03*
X450652D02*
D03*
X544488D02*
D03*
X547896D02*
D03*
X9449Y318898D02*
D03*
X12857D02*
D03*
X106693D02*
D03*
X110101D02*
D03*
X228346Y318898D02*
D03*
X231754D02*
D03*
X325590D02*
D03*
X328998D02*
D03*
X447244D02*
D03*
X450652D02*
D03*
X544488D02*
D03*
X547896D02*
D03*
X57480Y324410D02*
D03*
X60888D02*
D03*
X154724D02*
D03*
X158132D02*
D03*
X276378Y324409D02*
D03*
X279786D02*
D03*
X373622D02*
D03*
X377030D02*
D03*
X495276D02*
D03*
X498684D02*
D03*
X592520D02*
D03*
X595928D02*
D03*
X57480Y318898D02*
D03*
X60888D02*
D03*
X154724D02*
D03*
X158132D02*
D03*
X276378Y318898D02*
D03*
X279786D02*
D03*
X373622D02*
D03*
X377030D02*
D03*
X495276D02*
D03*
X498684D02*
D03*
X592520D02*
D03*
X595928D02*
D03*
X9713Y354331D02*
D03*
X13121D02*
D03*
X106957D02*
D03*
X110365D02*
D03*
X228611Y354331D02*
D03*
X232019D02*
D03*
X325855D02*
D03*
X329263D02*
D03*
X447509D02*
D03*
X450917D02*
D03*
X544753D02*
D03*
X548161D02*
D03*
X9713Y348819D02*
D03*
X13121D02*
D03*
X106957D02*
D03*
X110365D02*
D03*
X228611Y348819D02*
D03*
X232019D02*
D03*
X325855D02*
D03*
X329263D02*
D03*
X447509D02*
D03*
X450917D02*
D03*
X544753D02*
D03*
X548161D02*
D03*
X57351Y353937D02*
D03*
X60759D02*
D03*
X154595D02*
D03*
X158003D02*
D03*
X276249Y353937D02*
D03*
X279657D02*
D03*
X373493D02*
D03*
X376901D02*
D03*
X495146D02*
D03*
X498554D02*
D03*
X592390D02*
D03*
X595798D02*
D03*
X57351Y348425D02*
D03*
X60759D02*
D03*
X154595D02*
D03*
X158003D02*
D03*
X276249Y348425D02*
D03*
X279657D02*
D03*
X373493D02*
D03*
X376901D02*
D03*
X495146D02*
D03*
X498554D02*
D03*
X592390D02*
D03*
X595798D02*
D03*
X9584Y384252D02*
D03*
X12992D02*
D03*
X106828D02*
D03*
X110236D02*
D03*
X228482Y384252D02*
D03*
X231890D02*
D03*
X325726D02*
D03*
X329134D02*
D03*
X447379D02*
D03*
X450787D02*
D03*
X544624D02*
D03*
X548032D02*
D03*
X9584Y378740D02*
D03*
X12992D02*
D03*
X106828D02*
D03*
X110236D02*
D03*
X228482Y378740D02*
D03*
X231890D02*
D03*
X325726D02*
D03*
X329134D02*
D03*
X447379D02*
D03*
X450787D02*
D03*
X544624D02*
D03*
X548032D02*
D03*
X57480Y384252D02*
D03*
X60888D02*
D03*
X154724D02*
D03*
X158132D02*
D03*
X276378Y384252D02*
D03*
X279786D02*
D03*
X373622D02*
D03*
X377030D02*
D03*
X495276D02*
D03*
X498684D02*
D03*
X592520D02*
D03*
X595928D02*
D03*
X57480Y378740D02*
D03*
X60888D02*
D03*
X154724D02*
D03*
X158132D02*
D03*
X276378Y378740D02*
D03*
X279786D02*
D03*
X373622D02*
D03*
X377030D02*
D03*
X495276D02*
D03*
X498684D02*
D03*
X592520D02*
D03*
X595928D02*
D03*
X10205Y492520D02*
D03*
X13613D02*
D03*
X107449D02*
D03*
X110857D02*
D03*
X229103Y492520D02*
D03*
X232511D02*
D03*
X326347D02*
D03*
X329755D02*
D03*
X448001D02*
D03*
X451409D02*
D03*
X545245D02*
D03*
X548653D02*
D03*
X10205Y487008D02*
D03*
X13613D02*
D03*
X107449D02*
D03*
X110857D02*
D03*
X229103Y487008D02*
D03*
X232511D02*
D03*
X326347D02*
D03*
X329755D02*
D03*
X448001D02*
D03*
X451409D02*
D03*
X545245D02*
D03*
X548653D02*
D03*
X10993Y522047D02*
D03*
X14401D02*
D03*
X108237D02*
D03*
X111645D02*
D03*
X229890Y522047D02*
D03*
X233298D02*
D03*
X327135D02*
D03*
X330543D02*
D03*
X448788D02*
D03*
X452196D02*
D03*
X546032D02*
D03*
X549440D02*
D03*
X10993Y516535D02*
D03*
X14401D02*
D03*
X108237D02*
D03*
X111645D02*
D03*
X229890Y516535D02*
D03*
X233298D02*
D03*
X327135D02*
D03*
X330543D02*
D03*
X448788D02*
D03*
X452196D02*
D03*
X546032D02*
D03*
X549440D02*
D03*
X57745Y492520D02*
D03*
X61153D02*
D03*
X154989D02*
D03*
X158397D02*
D03*
X276642Y492520D02*
D03*
X280050D02*
D03*
X373886D02*
D03*
X377294D02*
D03*
X495540D02*
D03*
X498948D02*
D03*
X592784D02*
D03*
X596192D02*
D03*
X57745Y487008D02*
D03*
X61153D02*
D03*
X154989D02*
D03*
X158397D02*
D03*
X276642Y487008D02*
D03*
X280050D02*
D03*
X373886D02*
D03*
X377294D02*
D03*
X495540D02*
D03*
X498948D02*
D03*
X592784D02*
D03*
X596192D02*
D03*
X57526Y522441D02*
D03*
X60934D02*
D03*
X154770D02*
D03*
X158178D02*
D03*
X276423Y522441D02*
D03*
X279831D02*
D03*
X373668D02*
D03*
X377076D02*
D03*
X495321D02*
D03*
X498729D02*
D03*
X592565D02*
D03*
X595973D02*
D03*
X57526Y516929D02*
D03*
X60934D02*
D03*
X154770D02*
D03*
X158178D02*
D03*
X276423Y516929D02*
D03*
X279831D02*
D03*
X373668D02*
D03*
X377076D02*
D03*
X495321D02*
D03*
X498729D02*
D03*
X592565D02*
D03*
X595973D02*
D03*
X16665Y237106D02*
D03*
X13257D02*
D03*
X19556Y203150D02*
D03*
X22964D02*
D03*
D84*
X64206Y191449D02*
D03*
X58274D02*
D03*
X552546Y404331D02*
D03*
X558478D02*
D03*
X114750D02*
D03*
X120682D02*
D03*
X17506D02*
D03*
X23438D02*
D03*
X455302D02*
D03*
X461234D02*
D03*
X333648D02*
D03*
X339580D02*
D03*
X236404D02*
D03*
X242336D02*
D03*
D85*
X52185Y191972D02*
D03*
Y188564D02*
D03*
Y179902D02*
D03*
Y183310D02*
D03*
X484252Y126636D02*
D03*
Y123228D02*
D03*
X484252Y115225D02*
D03*
Y118633D02*
D03*
X110630Y49083D02*
D03*
Y52491D02*
D03*
X59111Y114556D02*
D03*
Y117964D02*
D03*
X64341Y465402D02*
D03*
Y468810D02*
D03*
X161585Y465402D02*
D03*
Y468810D02*
D03*
X283239Y465402D02*
D03*
Y468810D02*
D03*
X380483Y465402D02*
D03*
Y468810D02*
D03*
X502137Y465402D02*
D03*
Y468810D02*
D03*
X599381Y465402D02*
D03*
Y468810D02*
D03*
X69853Y465402D02*
D03*
Y468810D02*
D03*
X167097Y465402D02*
D03*
Y468810D02*
D03*
X288751Y465402D02*
D03*
Y468810D02*
D03*
X385995Y465402D02*
D03*
Y468810D02*
D03*
X507648Y465402D02*
D03*
Y468810D02*
D03*
X604893Y465402D02*
D03*
Y468810D02*
D03*
X11693Y214501D02*
D03*
Y211092D02*
D03*
X25591Y214696D02*
D03*
Y211288D02*
D03*
X12992Y203808D02*
D03*
Y207216D02*
D03*
X25197Y234381D02*
D03*
Y230973D02*
D03*
X16535Y208791D02*
D03*
Y205383D02*
D03*
X14370Y272570D02*
D03*
Y269162D02*
D03*
D86*
X27953Y227067D02*
D03*
Y222539D02*
D03*
D87*
X9449Y236529D02*
D03*
Y230597D02*
D03*
X568110Y470289D02*
D03*
Y464357D02*
D03*
X561024Y470289D02*
D03*
Y464357D02*
D03*
X123228Y470289D02*
D03*
Y464357D02*
D03*
X130315Y470289D02*
D03*
Y464357D02*
D03*
X25984Y470289D02*
D03*
Y464357D02*
D03*
X33071Y470289D02*
D03*
Y464357D02*
D03*
X342126Y470289D02*
D03*
Y464357D02*
D03*
X349213Y470289D02*
D03*
Y464357D02*
D03*
X470866Y470289D02*
D03*
Y464357D02*
D03*
X463779Y470289D02*
D03*
Y464357D02*
D03*
X244882Y470289D02*
D03*
Y464357D02*
D03*
X251968Y470289D02*
D03*
Y464357D02*
D03*
D88*
X29528Y426040D02*
D03*
X126772D02*
D03*
X248425Y426040D02*
D03*
X345669D02*
D03*
X467323D02*
D03*
X564567D02*
D03*
D89*
X19527Y466086D02*
D03*
X39527D02*
D03*
X116772D02*
D03*
X136772D02*
D03*
X238425Y466086D02*
D03*
X258425D02*
D03*
X335669D02*
D03*
X355669D02*
D03*
X457323D02*
D03*
X477323D02*
D03*
X554567D02*
D03*
X574567D02*
D03*
D90*
X48123Y26273D02*
D03*
Y12887D02*
D03*
D91*
X102947Y56783D02*
D03*
X108459D02*
D03*
X61130Y48122D02*
D03*
X55618D02*
D03*
D92*
X70663Y37571D02*
D03*
Y34263D02*
D03*
X73419Y37571D02*
D03*
Y34263D02*
D03*
X55568Y117914D02*
D03*
Y114606D02*
D03*
Y127500D02*
D03*
Y124193D02*
D03*
X8661Y207795D02*
D03*
Y211103D02*
D03*
Y217796D02*
D03*
Y214488D02*
D03*
D93*
X47379Y152815D02*
D03*
X44071D02*
D03*
X51946D02*
D03*
X55253D02*
D03*
X149606Y117717D02*
D03*
Y109055D02*
D03*
Y114961D02*
D03*
Y112205D02*
D03*
X103935Y83286D02*
D03*
X101969Y86614D02*
D03*
X98032Y83858D02*
D03*
X96063Y86614D02*
D03*
X94095Y83858D02*
D03*
X92126Y86614D02*
D03*
X90158Y83858D02*
D03*
D94*
X11811Y243406D02*
D03*
X18110D02*
D03*
D95*
X44094Y229528D02*
D03*
X36220D02*
D03*
X44094Y222441D02*
D03*
X36220D02*
D03*
X44094Y215354D02*
D03*
X36220D02*
D03*
X44094Y208268D02*
D03*
X36220D02*
D03*
D96*
X124832Y266535D02*
D03*
X137372D02*
D03*
X124832Y276378D02*
D03*
X137372D02*
D03*
X124832Y286221D02*
D03*
X137372D02*
D03*
D97*
X141655Y172554D02*
D03*
X139608Y174639D02*
D03*
X137697Y176704D02*
D03*
X135433Y178740D02*
D03*
X133465Y180709D02*
D03*
D98*
X190157Y243169D02*
D03*
Y239311D02*
D03*
X156299Y243268D02*
D03*
Y239409D02*
D03*
X61080Y136909D02*
D03*
Y140768D02*
D03*
X131336Y143780D02*
D03*
Y147638D02*
D03*
X60470Y104410D02*
D03*
Y108268D02*
D03*
X55079Y104232D02*
D03*
Y108090D02*
D03*
X60470Y124094D02*
D03*
Y127953D02*
D03*
D99*
X339488Y243701D02*
D03*
X335630D02*
D03*
X316653Y243701D02*
D03*
X312795D02*
D03*
X293819Y243701D02*
D03*
X289961D02*
D03*
X361968D02*
D03*
X358110D02*
D03*
X407638D02*
D03*
X403780D02*
D03*
X384803Y243701D02*
D03*
X380945D02*
D03*
X271024Y243701D02*
D03*
X267165D02*
D03*
X248583D02*
D03*
X244724D02*
D03*
X133898Y59449D02*
D03*
X137756D02*
D03*
X22087Y206693D02*
D03*
X25945D02*
D03*
X193484Y277484D02*
D03*
X197342D02*
D03*
X159626Y277878D02*
D03*
X163484D02*
D03*
X120666Y85473D02*
D03*
X116808D02*
D03*
X135233Y139803D02*
D03*
X131375D02*
D03*
X77359Y85473D02*
D03*
X73501D02*
D03*
X75391Y156732D02*
D03*
X71533D02*
D03*
X61962Y43791D02*
D03*
X58104D02*
D03*
X65506Y65445D02*
D03*
X61647D02*
D03*
D100*
X475394Y127559D02*
D03*
Y92913D02*
D03*
X437992D02*
D03*
Y127559D02*
D03*
D101*
X475394Y123228D02*
D03*
Y118898D02*
D03*
Y114567D02*
D03*
Y110236D02*
D03*
Y105905D02*
D03*
Y101575D02*
D03*
Y97244D02*
D03*
X437992D02*
D03*
Y101575D02*
D03*
Y105905D02*
D03*
Y110236D02*
D03*
Y114567D02*
D03*
Y118898D02*
D03*
Y123228D02*
D03*
D102*
X77362Y178150D02*
D03*
Y185630D02*
D03*
X68307Y181890D02*
D03*
D103*
X131102Y244364D02*
D03*
Y216266D02*
D03*
D104*
X17704Y170602D02*
D03*
Y189696D02*
D03*
D105*
X7152Y194420D02*
D03*
Y165878D02*
D03*
D106*
X10236Y100866D02*
D03*
Y110866D02*
D03*
Y120866D02*
D03*
D107*
Y130866D02*
D03*
D108*
X436614Y48622D02*
D03*
Y81299D02*
D03*
D109*
Y64961D02*
D03*
Y72835D02*
D03*
Y57087D02*
D03*
D110*
X89128Y417294D02*
D03*
Y427294D02*
D03*
Y437294D02*
D03*
Y447294D02*
D03*
Y457294D02*
D03*
X186372Y417294D02*
D03*
Y427294D02*
D03*
Y437294D02*
D03*
Y447294D02*
D03*
Y457294D02*
D03*
X308026Y417294D02*
D03*
Y427294D02*
D03*
Y437294D02*
D03*
Y447294D02*
D03*
Y457294D02*
D03*
X405270Y417294D02*
D03*
Y427294D02*
D03*
Y437294D02*
D03*
Y447294D02*
D03*
Y457294D02*
D03*
X526924Y417294D02*
D03*
Y427294D02*
D03*
Y437294D02*
D03*
Y447294D02*
D03*
Y457294D02*
D03*
X624089Y417794D02*
D03*
Y427794D02*
D03*
Y437794D02*
D03*
Y447794D02*
D03*
Y457794D02*
D03*
D111*
X89128Y467294D02*
D03*
X186372D02*
D03*
X308026Y467294D02*
D03*
X405270D02*
D03*
X526924D02*
D03*
X624089Y467794D02*
D03*
D112*
X561417Y97244D02*
D03*
D113*
X193087Y227311D02*
D03*
X203087D02*
D03*
X213088D02*
D03*
X223088D02*
D03*
X233087D02*
D03*
X243088D02*
D03*
X253087D02*
D03*
X263088D02*
D03*
X273088D02*
D03*
X283087D02*
D03*
X293088D02*
D03*
X303087D02*
D03*
X313088D02*
D03*
X323088D02*
D03*
X333087D02*
D03*
X343088D02*
D03*
X353087D02*
D03*
X363088D02*
D03*
X373088D02*
D03*
X383087D02*
D03*
Y37311D02*
D03*
X373088D02*
D03*
X363088D02*
D03*
X213088D02*
D03*
X203087D02*
D03*
D114*
X193087D02*
D03*
D115*
X457874Y24016D02*
D03*
X18110Y67716D02*
D03*
X431890Y524409D02*
D03*
X212598Y523622D02*
D03*
D116*
X438189Y276772D02*
D03*
Y231102D02*
D03*
D117*
X171588Y402774D02*
D03*
X390485Y402774D02*
D03*
X609096Y402774D02*
D03*
X293241D02*
D03*
X512139D02*
D03*
X74344D02*
D03*
D118*
X161588Y402774D02*
D03*
X151588D02*
D03*
X141588D02*
D03*
X131588D02*
D03*
X380485Y402774D02*
D03*
X370485D02*
D03*
X360485D02*
D03*
X350485D02*
D03*
X599096Y402774D02*
D03*
X589096D02*
D03*
X579096D02*
D03*
X569096D02*
D03*
X283241D02*
D03*
X273241D02*
D03*
X263241D02*
D03*
X253241D02*
D03*
X502139D02*
D03*
X492139D02*
D03*
X482139D02*
D03*
X472139D02*
D03*
X64344D02*
D03*
X54344D02*
D03*
X44344D02*
D03*
X34344D02*
D03*
D119*
X107480Y17717D02*
D03*
D120*
Y22717D02*
D03*
X112480Y17717D02*
D03*
Y22717D02*
D03*
X117480Y17717D02*
D03*
Y22717D02*
D03*
X122480Y17717D02*
D03*
Y22717D02*
D03*
X127480Y17717D02*
D03*
Y22717D02*
D03*
D121*
X26759Y187450D02*
D03*
X8661Y187402D02*
D03*
X8650Y172758D02*
D03*
X16929Y248031D02*
D03*
X163779Y309549D02*
D03*
X285233Y309440D02*
D03*
X601575Y309055D02*
D03*
X66535D02*
D03*
X383465Y313779D02*
D03*
X503937Y308661D02*
D03*
X67716Y511811D02*
D03*
X56693Y475591D02*
D03*
X12205Y505512D02*
D03*
Y475984D02*
D03*
X63386Y367323D02*
D03*
X12598Y367717D02*
D03*
X60630Y337795D02*
D03*
X12205D02*
D03*
X18898Y309842D02*
D03*
X62205Y460630D02*
D03*
X19685Y456299D02*
D03*
X24457Y364824D02*
D03*
X82506Y465354D02*
D03*
X66929Y474016D02*
D03*
X77559Y455512D02*
D03*
X164961Y511811D02*
D03*
X153937Y475591D02*
D03*
X109449Y505512D02*
D03*
Y475984D02*
D03*
X160630Y367323D02*
D03*
X109843Y367717D02*
D03*
X157874Y337795D02*
D03*
X109449D02*
D03*
X116142Y309842D02*
D03*
X159449Y460630D02*
D03*
X116929Y456299D02*
D03*
X121701Y364824D02*
D03*
X179750Y465354D02*
D03*
X164173Y474016D02*
D03*
X174803Y455512D02*
D03*
X286614Y511811D02*
D03*
X275590Y475591D02*
D03*
X231102Y505512D02*
D03*
Y475984D02*
D03*
X282283Y367323D02*
D03*
X231496Y367717D02*
D03*
X279527Y337795D02*
D03*
X231102D02*
D03*
X237795Y309842D02*
D03*
X281102Y460630D02*
D03*
X238583Y456299D02*
D03*
X243354Y364824D02*
D03*
X301404Y465354D02*
D03*
X285827Y474016D02*
D03*
X296457Y455512D02*
D03*
X383858Y511811D02*
D03*
X372835Y475591D02*
D03*
X328346Y505512D02*
D03*
Y475984D02*
D03*
X379528Y367323D02*
D03*
X328740Y367717D02*
D03*
X376772Y337795D02*
D03*
X328346D02*
D03*
X335039Y309842D02*
D03*
X378346Y460630D02*
D03*
X335827Y456299D02*
D03*
X340598Y364824D02*
D03*
X398648Y465354D02*
D03*
X383071Y474016D02*
D03*
X393701Y455512D02*
D03*
X505512Y511811D02*
D03*
X494488Y475591D02*
D03*
X450000Y505512D02*
D03*
Y475984D02*
D03*
X501181Y367323D02*
D03*
X450394Y367717D02*
D03*
X498425Y337795D02*
D03*
X450000D02*
D03*
X456693Y309842D02*
D03*
X500000Y460630D02*
D03*
X457480Y456299D02*
D03*
X462252Y364824D02*
D03*
X520301Y465354D02*
D03*
X504724Y474016D02*
D03*
X515354Y455512D02*
D03*
X554724Y456299D02*
D03*
X31496Y203150D02*
D03*
X37402D02*
D03*
X26632Y172759D02*
D03*
X131890Y258662D02*
D03*
X116142Y281102D02*
D03*
X139173Y258662D02*
D03*
X116142Y289567D02*
D03*
X36614Y233858D02*
D03*
X67716Y224803D02*
D03*
X50000D02*
D03*
X612598Y455512D02*
D03*
X591732Y475591D02*
D03*
X601968Y474016D02*
D03*
X602756Y511811D02*
D03*
X597244Y460630D02*
D03*
X617546Y465354D02*
D03*
X598425Y367323D02*
D03*
X547244Y337795D02*
D03*
X595669D02*
D03*
X553937Y309842D02*
D03*
X547638Y367717D02*
D03*
X559496Y364824D02*
D03*
X547244Y475984D02*
D03*
Y505512D02*
D03*
D122*
X20669Y222146D02*
D03*
X16339D02*
D03*
D123*
X146063Y115644D02*
D03*
X171079Y108661D02*
D03*
X176909Y108767D02*
D03*
X173946Y108837D02*
D03*
X179769Y108658D02*
D03*
X165354Y108661D02*
D03*
X168217D02*
D03*
X82284Y158268D02*
D03*
X81115Y178199D02*
D03*
X16535Y110630D02*
D03*
Y120472D02*
D03*
Y130709D02*
D03*
X558561Y102557D02*
D03*
X556158Y100205D02*
D03*
X552796D02*
D03*
X549434D02*
D03*
X546072D02*
D03*
X542709D02*
D03*
X539347D02*
D03*
X535985D02*
D03*
X532623D02*
D03*
X529261D02*
D03*
X525898D02*
D03*
X522536D02*
D03*
X519174D02*
D03*
X515812D02*
D03*
X512450D02*
D03*
X509087D02*
D03*
X505725D02*
D03*
X502363D02*
D03*
X499001D02*
D03*
X495639D02*
D03*
X492276D02*
D03*
X488914D02*
D03*
X485552D02*
D03*
X482190D02*
D03*
X482293Y94283D02*
D03*
X485655D02*
D03*
X489018D02*
D03*
X492380D02*
D03*
X499104D02*
D03*
X505829D02*
D03*
X509191D02*
D03*
X515915D02*
D03*
X522640D02*
D03*
X529364D02*
D03*
X532726D02*
D03*
X539451D02*
D03*
X546175D02*
D03*
X552899D02*
D03*
X556258Y94129D02*
D03*
X562032Y91250D02*
D03*
X567109Y95245D02*
D03*
X567298Y98602D02*
D03*
X565645Y101530D02*
D03*
X562699Y103150D02*
D03*
X46063Y53543D02*
D03*
X37402Y41732D02*
D03*
X40551Y46457D02*
D03*
X42126Y41732D02*
D03*
X43307Y50000D02*
D03*
X374351Y232822D02*
D03*
X179223Y24212D02*
D03*
X239561D02*
D03*
X420574D02*
D03*
X175484Y147244D02*
D03*
X172622D02*
D03*
X178347D02*
D03*
X172047Y222441D02*
D03*
X174692Y224693D02*
D03*
X176716Y226716D02*
D03*
X182146Y147638D02*
D03*
X198425Y144158D02*
D03*
X193595Y147638D02*
D03*
X185008D02*
D03*
X198425Y121260D02*
D03*
Y124122D02*
D03*
Y126984D02*
D03*
Y129847D02*
D03*
Y132709D02*
D03*
Y135571D02*
D03*
Y138433D02*
D03*
Y141295D02*
D03*
X187870Y147638D02*
D03*
X190732D02*
D03*
X196457D02*
D03*
X190551Y205906D02*
D03*
X181496Y207087D02*
D03*
X184358D02*
D03*
X187221D02*
D03*
X196819Y209449D02*
D03*
X211130D02*
D03*
X205405D02*
D03*
X199681D02*
D03*
X208268D02*
D03*
X202543D02*
D03*
X191339Y215748D02*
D03*
X207580Y220866D02*
D03*
X178740Y228740D02*
D03*
X299899Y24212D02*
D03*
X364509Y232822D02*
D03*
X354666D02*
D03*
X344036D02*
D03*
X360236Y24212D02*
D03*
X424409Y111024D02*
D03*
X136165Y170528D02*
D03*
X130089Y176604D02*
D03*
X146063Y112782D02*
D03*
Y109919D02*
D03*
X16142Y238968D02*
D03*
X190157Y236910D02*
D03*
X146063Y118508D02*
D03*
X2362Y37795D02*
D03*
X7087D02*
D03*
X11812D02*
D03*
X16538D02*
D03*
X21263D02*
D03*
X25988D02*
D03*
X30713D02*
D03*
X35438D02*
D03*
X40163D02*
D03*
X66142Y3937D02*
D03*
Y8196D02*
D03*
X162205Y242913D02*
D03*
X60238Y111762D02*
D03*
X60630Y133732D02*
D03*
X58532Y137432D02*
D03*
X206693Y284252D02*
D03*
X212205D02*
D03*
X208680Y280980D02*
D03*
X218110Y284252D02*
D03*
X216142Y281937D02*
D03*
X326721Y278179D02*
D03*
X216142Y279075D02*
D03*
Y276213D02*
D03*
X206299Y279134D02*
D03*
X203563Y277572D02*
D03*
X201181Y275984D02*
D03*
X293900Y277751D02*
D03*
X304311Y277178D02*
D03*
X306693Y275590D02*
D03*
X316929Y277559D02*
D03*
X334646Y278346D02*
D03*
X350000D02*
D03*
X382677Y275984D02*
D03*
X385433Y278346D02*
D03*
X209352Y237795D02*
D03*
X221791Y253075D02*
D03*
X197244Y280315D02*
D03*
X230906Y253543D02*
D03*
Y258086D02*
D03*
X203628Y237795D02*
D03*
X200765D02*
D03*
X197903D02*
D03*
X206490D02*
D03*
X221791Y267248D02*
D03*
X212214Y237795D02*
D03*
X196390Y242913D02*
D03*
X228150Y266535D02*
D03*
X156299Y237008D02*
D03*
X172441Y242913D02*
D03*
X193445Y280240D02*
D03*
X187933Y253075D02*
D03*
Y267248D02*
D03*
X184252Y260358D02*
D03*
X175573Y260006D02*
D03*
X163523Y280634D02*
D03*
X159586D02*
D03*
X398031Y276378D02*
D03*
X390158Y277953D02*
D03*
X392913Y275984D02*
D03*
X375197D02*
D03*
X380315Y278346D02*
D03*
X395276D02*
D03*
X372835D02*
D03*
X367717D02*
D03*
X370079Y275984D02*
D03*
X293898Y240945D02*
D03*
X267126D02*
D03*
X271063D02*
D03*
X248622D02*
D03*
X316732D02*
D03*
X289961D02*
D03*
X312795D02*
D03*
X335630D02*
D03*
X339567D02*
D03*
X244685D02*
D03*
X358071D02*
D03*
X362008D02*
D03*
X384736Y240885D02*
D03*
X403740Y240551D02*
D03*
X380906Y240945D02*
D03*
X407677Y240551D02*
D03*
X389173Y243701D02*
D03*
X397941Y244488D02*
D03*
X395079D02*
D03*
X375106D02*
D03*
X372244D02*
D03*
X365551Y244094D02*
D03*
X342717Y244382D02*
D03*
X344685Y258086D02*
D03*
X349409Y244488D02*
D03*
X352272D02*
D03*
X362205Y278346D02*
D03*
X347244Y275984D02*
D03*
X359796D02*
D03*
X357480Y278346D02*
D03*
X352756Y276378D02*
D03*
X344882Y278346D02*
D03*
X339370D02*
D03*
X321850Y253543D02*
D03*
Y258086D02*
D03*
X316396Y262702D02*
D03*
X309252Y266535D02*
D03*
X320662Y266505D02*
D03*
X324713Y253543D02*
D03*
X299016D02*
D03*
Y258086D02*
D03*
X297941Y266201D02*
D03*
X301878Y253543D02*
D03*
X293731Y262931D02*
D03*
X291374Y265268D02*
D03*
X289188Y263099D02*
D03*
X311490Y262711D02*
D03*
X314016Y264293D02*
D03*
X274957Y244406D02*
D03*
X326968Y244488D02*
D03*
X281299D02*
D03*
X284160Y244410D02*
D03*
X252165Y244094D02*
D03*
X258465Y244488D02*
D03*
X261327D02*
D03*
X304134D02*
D03*
X306996D02*
D03*
X297441Y244094D02*
D03*
X320617Y244415D02*
D03*
X329831Y244488D02*
D03*
X400197Y266535D02*
D03*
X366331Y266505D02*
D03*
X377756Y266535D02*
D03*
X387638Y266554D02*
D03*
X380070Y262991D02*
D03*
X393390Y253543D02*
D03*
X385254Y262928D02*
D03*
X382677Y264173D02*
D03*
X370669Y253543D02*
D03*
X283858Y275590D02*
D03*
X277052Y253543D02*
D03*
X276575Y258086D02*
D03*
X278740Y275590D02*
D03*
X281496Y277559D02*
D03*
X271654D02*
D03*
X271861Y262651D02*
D03*
X269094Y275590D02*
D03*
Y263386D02*
D03*
X266004Y262711D02*
D03*
X266535Y277559D02*
D03*
X280033Y253854D02*
D03*
X276378Y277559D02*
D03*
X324356Y276261D02*
D03*
X322047Y277953D02*
D03*
X336989Y276378D02*
D03*
X329142D02*
D03*
X298819Y277559D02*
D03*
X291535Y275984D02*
D03*
X288976Y277559D02*
D03*
X301575Y275590D02*
D03*
X311416Y277179D02*
D03*
X314016Y275984D02*
D03*
X246287Y275657D02*
D03*
X252601Y266448D02*
D03*
X253740Y253543D02*
D03*
Y258086D02*
D03*
X248425Y277559D02*
D03*
X246291Y263968D02*
D03*
X256299Y275590D02*
D03*
X256602Y253543D02*
D03*
X248936Y262875D02*
D03*
X253543Y277559D02*
D03*
X261024Y275590D02*
D03*
X258661Y277559D02*
D03*
X357225Y262866D02*
D03*
X362067Y263099D02*
D03*
X354921Y266535D02*
D03*
X359705Y265067D02*
D03*
X344685Y253543D02*
D03*
X347547D02*
D03*
X339260Y262677D02*
D03*
X336917Y264321D02*
D03*
X334344Y262731D02*
D03*
X342028Y266712D02*
D03*
X332087Y266535D02*
D03*
X230709Y275984D02*
D03*
X235843Y275968D02*
D03*
X233465Y277559D02*
D03*
X241142Y266535D02*
D03*
X243613Y262959D02*
D03*
X243701Y277559D02*
D03*
X238583D02*
D03*
X263583Y266535D02*
D03*
X286417D02*
D03*
X275436Y266448D02*
D03*
X390354Y253543D02*
D03*
X367520Y258086D02*
D03*
Y253543D02*
D03*
X390354Y258086D02*
D03*
X276424Y519685D02*
D03*
X276642Y489764D02*
D03*
X229890Y519291D02*
D03*
X229103Y489764D02*
D03*
X276378Y381496D02*
D03*
X228346Y321654D02*
D03*
X276378D02*
D03*
X228611Y351575D02*
D03*
X276249Y351181D02*
D03*
X228482Y381496D02*
D03*
X154770Y519685D02*
D03*
X154989Y489764D02*
D03*
X108237Y519291D02*
D03*
X107449Y489764D02*
D03*
X154724Y381496D02*
D03*
X106693Y321654D02*
D03*
X154724D02*
D03*
X106957Y351575D02*
D03*
X154595Y351181D02*
D03*
X106828Y381496D02*
D03*
X57745Y489764D02*
D03*
X9449Y321654D02*
D03*
X57480D02*
D03*
X9713Y351575D02*
D03*
X57351Y351181D02*
D03*
X9584Y381496D02*
D03*
X57480D02*
D03*
X10205Y489764D02*
D03*
X10993Y519291D02*
D03*
X57526Y519685D02*
D03*
X325591Y321654D02*
D03*
X373622D02*
D03*
X325855Y351575D02*
D03*
X373493Y351181D02*
D03*
X325726Y381496D02*
D03*
X373622D02*
D03*
X326347Y489764D02*
D03*
X327135Y519291D02*
D03*
X373887Y489764D02*
D03*
X373668Y519685D02*
D03*
X447244Y321654D02*
D03*
X495275D02*
D03*
X447508Y351575D02*
D03*
X495146Y351181D02*
D03*
X447379Y381496D02*
D03*
X495321Y519685D02*
D03*
X495540Y489764D02*
D03*
X448788Y519291D02*
D03*
X448001Y489764D02*
D03*
X495275Y381496D02*
D03*
X592784Y489764D02*
D03*
X544623Y381496D02*
D03*
X592390Y351181D02*
D03*
X544488Y321654D02*
D03*
X592520D02*
D03*
X544753Y351575D02*
D03*
X592565Y519685D02*
D03*
X546032Y519291D02*
D03*
X545245Y489764D02*
D03*
X592520Y381496D02*
D03*
X67097Y468810D02*
D03*
X51468Y447244D02*
D03*
X164341Y468810D02*
D03*
X148713Y447244D02*
D03*
X285995Y468810D02*
D03*
X270366Y447244D02*
D03*
X383239Y468810D02*
D03*
X367610Y447244D02*
D03*
X504892Y468810D02*
D03*
X489264Y447244D02*
D03*
X602137Y468810D02*
D03*
X586508Y447244D02*
D03*
X143756Y144544D02*
D03*
X141732Y142520D02*
D03*
X151852Y152639D02*
D03*
X145780Y146567D02*
D03*
X147804Y148591D02*
D03*
X149828Y150615D02*
D03*
X104299Y144488D02*
D03*
X107167Y144674D02*
D03*
X115751Y144488D02*
D03*
X112889Y144669D02*
D03*
X110028Y144581D02*
D03*
X132117Y174575D02*
D03*
X134141Y172552D02*
D03*
X138189Y168504D02*
D03*
X134252Y142776D02*
D03*
X103150Y115461D02*
D03*
Y118323D02*
D03*
X103336Y112604D02*
D03*
X103150Y109736D02*
D03*
X94094Y120079D02*
D03*
X120472Y101575D02*
D03*
X116141Y96456D02*
D03*
X75591Y119685D02*
D03*
X443216Y123228D02*
D03*
X427559Y118898D02*
D03*
X443307D02*
D03*
X427165Y114961D02*
D03*
X430709D02*
D03*
X442913Y105905D02*
D03*
X470472Y92913D02*
D03*
X124409Y66929D02*
D03*
X120079Y74410D02*
D03*
X117323Y68898D02*
D03*
X112992Y85433D02*
D03*
X116572Y85236D02*
D03*
X120866Y82677D02*
D03*
X98031Y96457D02*
D03*
X85433Y109055D02*
D03*
X97992Y81102D02*
D03*
X94094D02*
D03*
X132283Y137008D02*
D03*
X133858Y147244D02*
D03*
X147894Y46496D02*
D03*
X92126Y156693D02*
D03*
X49961Y156555D02*
D03*
X84765Y156664D02*
D03*
X58622Y153405D02*
D03*
X68344Y156732D02*
D03*
X55079Y156555D02*
D03*
X78580Y156732D02*
D03*
X43661Y156555D02*
D03*
X35000Y123397D02*
D03*
Y133721D02*
D03*
Y97588D02*
D03*
Y118235D02*
D03*
Y102749D02*
D03*
X36181Y138051D02*
D03*
X35000Y128559D02*
D03*
Y92426D02*
D03*
Y113073D02*
D03*
Y87264D02*
D03*
Y107911D02*
D03*
X52323Y85689D02*
D03*
X51142Y104193D02*
D03*
X39724Y83327D02*
D03*
X52812Y117973D02*
D03*
X57835Y108130D02*
D03*
X53110Y90807D02*
D03*
X48780Y83374D02*
D03*
X53110Y95925D02*
D03*
X57774Y104321D02*
D03*
X51142Y108524D02*
D03*
X53110Y100256D02*
D03*
X77399Y82323D02*
D03*
X73855D02*
D03*
X49567Y152618D02*
D03*
X39724Y141201D02*
D03*
X40512Y146713D02*
D03*
Y152618D02*
D03*
X48295Y131752D02*
D03*
X94094Y77953D02*
D03*
X61730Y143741D02*
D03*
X70943Y122087D02*
D03*
X70975Y129981D02*
D03*
X84213Y146319D02*
D03*
X59055Y121758D02*
D03*
X58622Y146713D02*
D03*
X55079Y141201D02*
D03*
X52888Y127473D02*
D03*
X44888Y37690D02*
D03*
X54437Y44185D02*
D03*
X55125Y36903D02*
D03*
X44889Y44777D02*
D03*
X63183Y37886D02*
D03*
X65348Y43791D02*
D03*
X59456Y36903D02*
D03*
X51916Y39946D02*
D03*
X56096Y40248D02*
D03*
X51582Y47927D02*
D03*
X65009Y47801D02*
D03*
X41732Y53543D02*
D03*
X46523Y58057D02*
D03*
X52500Y59738D02*
D03*
X50400Y55801D02*
D03*
X69088Y67807D02*
D03*
X71844Y72532D02*
D03*
X77953Y74410D02*
D03*
X81496Y74803D02*
D03*
X81293Y68595D02*
D03*
X74132Y68664D02*
D03*
X65348Y67807D02*
D03*
X103734Y49697D02*
D03*
X102947Y62500D02*
D03*
X99010Y52059D02*
D03*
X90551Y70866D02*
D03*
X100000Y67716D02*
D03*
X96457D02*
D03*
X92520Y64567D02*
D03*
Y67429D02*
D03*
X96612Y56813D02*
D03*
X95860Y52204D02*
D03*
X108667Y53092D02*
D03*
X73467Y32286D02*
D03*
X74206Y39854D02*
D03*
X67907Y37886D02*
D03*
X66148Y25234D02*
D03*
X79547Y24278D02*
D03*
X66148Y20975D02*
D03*
Y29494D02*
D03*
Y33753D02*
D03*
X87469Y33485D02*
D03*
X86884Y39159D02*
D03*
X93498Y37886D02*
D03*
X90887Y40642D02*
D03*
X86940Y36298D02*
D03*
X60637Y56588D02*
D03*
X58143Y59738D02*
D03*
X63786D02*
D03*
X55519Y56588D02*
D03*
X64851Y55378D02*
D03*
X66148Y12456D02*
D03*
Y16715D02*
D03*
X62992Y172441D02*
D03*
X61449Y177784D02*
D03*
X66535Y185433D02*
D03*
X49606Y183465D02*
D03*
X60630Y196063D02*
D03*
X75984Y192520D02*
D03*
X442913Y127559D02*
D03*
Y97244D02*
D03*
Y101575D02*
D03*
X470472D02*
D03*
X484252Y129527D02*
D03*
Y111811D02*
D03*
X14567Y259449D02*
D03*
X9449Y233260D02*
D03*
X25197Y243307D02*
D03*
X10236Y205512D02*
D03*
X9055Y220079D02*
D03*
X31496Y220473D02*
D03*
Y224016D02*
D03*
X28346Y209055D02*
D03*
X31496Y209842D02*
D03*
X27953Y214961D02*
D03*
X31496Y213386D02*
D03*
Y216929D02*
D03*
X55728Y187906D02*
D03*
M02*
