G04*
G04 #@! TF.GenerationSoftware,Altium Limited,Altium Designer,24.5.2 (23)*
G04*
G04 Layer_Color=10522760*
%FSLAX25Y25*%
%MOIN*%
G70*
G04*
G04 #@! TF.SameCoordinates,A4DC4032-6D30-441B-857C-BBE942529F2D*
G04*
G04*
G04 #@! TF.FilePolarity,Positive*
G04*
G01*
G75*
%ADD22R,0.01181X0.06102*%
%ADD23R,0.01181X0.06102*%
%ADD24R,0.05118X0.21654*%
%ADD25R,0.03937X0.07087*%
%ADD26R,0.05512X0.04724*%
%ADD27R,0.07874X0.01575*%
%ADD28R,0.02677X0.01102*%
%ADD29C,0.00819*%
%ADD30O,0.00787X0.02756*%
%ADD31O,0.02756X0.00787*%
%ADD32O,0.06299X0.01181*%
%ADD33O,0.01181X0.06299*%
G04:AMPARAMS|DCode=34|XSize=59.06mil|YSize=17.72mil|CornerRadius=1.95mil|HoleSize=0mil|Usage=FLASHONLY|Rotation=90.000|XOffset=0mil|YOffset=0mil|HoleType=Round|Shape=RoundedRectangle|*
%AMROUNDEDRECTD34*
21,1,0.05906,0.01382,0,0,90.0*
21,1,0.05516,0.01772,0,0,90.0*
1,1,0.00390,0.00691,0.02758*
1,1,0.00390,0.00691,-0.02758*
1,1,0.00390,-0.00691,-0.02758*
1,1,0.00390,-0.00691,0.02758*
%
%ADD34ROUNDEDRECTD34*%
%ADD35R,0.07402X0.06614*%
%ADD36O,0.01181X0.06299*%
%ADD37R,0.07047X0.13504*%
%ADD38R,0.03937X0.02953*%
%ADD39R,0.02227X0.02126*%
%ADD40R,0.03175X0.03402*%
%ADD41R,0.02126X0.02227*%
%ADD42R,0.02362X0.02953*%
%ADD43R,0.03402X0.03175*%
%ADD44R,0.41600X0.33071*%
%ADD45R,0.05118X0.15748*%
%ADD46R,0.27559X0.27559*%
%ADD47R,0.05906X0.09843*%
%ADD48R,0.27559X0.27559*%
%ADD49R,0.09843X0.05906*%
%ADD50R,0.02029X0.01860*%
%ADD51R,0.02648X0.02816*%
%ADD52R,0.05334X0.08686*%
%ADD53R,0.06299X0.03150*%
%ADD54R,0.01860X0.02029*%
%ADD55R,0.03150X0.03543*%
%ADD56R,0.02126X0.01968*%
%ADD57R,0.02254X0.02423*%
%ADD58R,0.01968X0.02126*%
%ADD59R,0.05118X0.05512*%
%ADD60R,0.05551X0.05315*%
%ADD61R,0.05847X0.06803*%
G04:AMPARAMS|DCode=62|XSize=19.68mil|YSize=21.26mil|CornerRadius=0mil|HoleSize=0mil|Usage=FLASHONLY|Rotation=45.000|XOffset=0mil|YOffset=0mil|HoleType=Round|Shape=Rectangle|*
%AMROTATEDRECTD62*
4,1,4,0.00056,-0.01448,-0.01448,0.00056,-0.00056,0.01448,0.01448,-0.00056,0.00056,-0.01448,0.0*
%
%ADD62ROTATEDRECTD62*%

%ADD63R,0.02835X0.02992*%
%ADD64R,0.02992X0.02835*%
%ADD65R,0.05906X0.02362*%
%ADD66R,0.15000X0.11000*%
G36*
X159291Y523347D02*
Y521535D01*
X159134Y521378D01*
X157163D01*
X157005Y521535D01*
Y523347D01*
X157163Y523504D01*
X159134D01*
X159291Y523347D01*
D02*
G37*
G36*
X155942D02*
Y521535D01*
X155785Y521378D01*
X153814D01*
X153656Y521535D01*
Y523347D01*
X153814Y523504D01*
X155785D01*
X155942Y523347D01*
D02*
G37*
G36*
X62047D02*
Y521535D01*
X61890Y521378D01*
X59919D01*
X59761Y521535D01*
Y523347D01*
X59919Y523504D01*
X61890D01*
X62047Y523347D01*
D02*
G37*
G36*
X58698D02*
Y521535D01*
X58541Y521378D01*
X56570D01*
X56412Y521535D01*
Y523347D01*
X56570Y523504D01*
X58541D01*
X58698Y523347D01*
D02*
G37*
G36*
X597087Y523347D02*
Y521535D01*
X596929Y521378D01*
X594958D01*
X594801Y521535D01*
Y523347D01*
X594958Y523504D01*
X596929D01*
X597087Y523347D01*
D02*
G37*
G36*
X593738D02*
Y521535D01*
X593580Y521378D01*
X591609D01*
X591452Y521535D01*
Y523347D01*
X591609Y523504D01*
X593580D01*
X593738Y523347D01*
D02*
G37*
G36*
X499843D02*
Y521535D01*
X499685Y521378D01*
X497714D01*
X497556Y521535D01*
Y523347D01*
X497714Y523504D01*
X499685D01*
X499843Y523347D01*
D02*
G37*
G36*
X496493D02*
Y521535D01*
X496336Y521378D01*
X494365D01*
X494207Y521535D01*
Y523347D01*
X494365Y523504D01*
X496336D01*
X496493Y523347D01*
D02*
G37*
G36*
X378189D02*
Y521535D01*
X378031Y521378D01*
X376061D01*
X375903Y521535D01*
Y523347D01*
X376061Y523504D01*
X378031D01*
X378189Y523347D01*
D02*
G37*
G36*
X374840D02*
Y521535D01*
X374682Y521378D01*
X372711D01*
X372554Y521535D01*
Y523347D01*
X372711Y523504D01*
X374682D01*
X374840Y523347D01*
D02*
G37*
G36*
X280945D02*
Y521535D01*
X280787Y521378D01*
X278816D01*
X278659Y521535D01*
Y523347D01*
X278816Y523504D01*
X280787D01*
X280945Y523347D01*
D02*
G37*
G36*
X277596D02*
Y521535D01*
X277438Y521378D01*
X275467D01*
X275310Y521535D01*
Y523347D01*
X275467Y523504D01*
X277438D01*
X277596Y523347D01*
D02*
G37*
G36*
X112758Y522953D02*
Y521142D01*
X112601Y520984D01*
X110630D01*
X110472Y521142D01*
Y522953D01*
X110630Y523110D01*
X112601D01*
X112758Y522953D01*
D02*
G37*
G36*
X109409D02*
Y521142D01*
X109252Y520984D01*
X107281D01*
X107123Y521142D01*
Y522953D01*
X107281Y523110D01*
X109252D01*
X109409Y522953D01*
D02*
G37*
G36*
X15514D02*
Y521142D01*
X15357Y520984D01*
X13386D01*
X13228Y521142D01*
Y522953D01*
X13386Y523110D01*
X15357D01*
X15514Y522953D01*
D02*
G37*
G36*
X12165D02*
Y521142D01*
X12008Y520984D01*
X10037D01*
X9879Y521142D01*
Y522953D01*
X10037Y523110D01*
X12008D01*
X12165Y522953D01*
D02*
G37*
G36*
X550554Y522953D02*
Y521142D01*
X550396Y520984D01*
X548425D01*
X548268Y521142D01*
Y522953D01*
X548425Y523110D01*
X550396D01*
X550554Y522953D01*
D02*
G37*
G36*
X547205D02*
Y521142D01*
X547047Y520984D01*
X545076D01*
X544919Y521142D01*
Y522953D01*
X545076Y523110D01*
X547047D01*
X547205Y522953D01*
D02*
G37*
G36*
X453310D02*
Y521142D01*
X453152Y520984D01*
X451181D01*
X451024Y521142D01*
Y522953D01*
X451181Y523110D01*
X453152D01*
X453310Y522953D01*
D02*
G37*
G36*
X449961D02*
Y521142D01*
X449803Y520984D01*
X447832D01*
X447675Y521142D01*
Y522953D01*
X447832Y523110D01*
X449803D01*
X449961Y522953D01*
D02*
G37*
G36*
X331656D02*
Y521142D01*
X331499Y520984D01*
X329528D01*
X329370Y521142D01*
Y522953D01*
X329528Y523110D01*
X331499D01*
X331656Y522953D01*
D02*
G37*
G36*
X328307D02*
Y521142D01*
X328150Y520984D01*
X326179D01*
X326021Y521142D01*
Y522953D01*
X326179Y523110D01*
X328150D01*
X328307Y522953D01*
D02*
G37*
G36*
X234412D02*
Y521142D01*
X234254Y520984D01*
X232283D01*
X232126Y521142D01*
Y522953D01*
X232283Y523110D01*
X234254D01*
X234412Y522953D01*
D02*
G37*
G36*
X231063D02*
Y521142D01*
X230906Y520984D01*
X228935D01*
X228777Y521142D01*
Y522953D01*
X228935Y523110D01*
X230906D01*
X231063Y522953D01*
D02*
G37*
G36*
X159291Y517835D02*
Y516024D01*
X159134Y515866D01*
X157163D01*
X157005Y516024D01*
Y517835D01*
X157163Y517992D01*
X159134D01*
X159291Y517835D01*
D02*
G37*
G36*
X155942D02*
Y516024D01*
X155785Y515866D01*
X153814D01*
X153656Y516024D01*
Y517835D01*
X153814Y517992D01*
X155785D01*
X155942Y517835D01*
D02*
G37*
G36*
X62047D02*
Y516024D01*
X61890Y515866D01*
X59919D01*
X59761Y516024D01*
Y517835D01*
X59919Y517992D01*
X61890D01*
X62047Y517835D01*
D02*
G37*
G36*
X58698D02*
Y516024D01*
X58541Y515866D01*
X56570D01*
X56412Y516024D01*
Y517835D01*
X56570Y517992D01*
X58541D01*
X58698Y517835D01*
D02*
G37*
G36*
X597087Y517835D02*
Y516024D01*
X596929Y515866D01*
X594958D01*
X594801Y516024D01*
Y517835D01*
X594958Y517992D01*
X596929D01*
X597087Y517835D01*
D02*
G37*
G36*
X593738D02*
Y516024D01*
X593580Y515866D01*
X591609D01*
X591452Y516024D01*
Y517835D01*
X591609Y517992D01*
X593580D01*
X593738Y517835D01*
D02*
G37*
G36*
X499843D02*
Y516024D01*
X499685Y515866D01*
X497714D01*
X497556Y516024D01*
Y517835D01*
X497714Y517992D01*
X499685D01*
X499843Y517835D01*
D02*
G37*
G36*
X496493D02*
Y516024D01*
X496336Y515866D01*
X494365D01*
X494207Y516024D01*
Y517835D01*
X494365Y517992D01*
X496336D01*
X496493Y517835D01*
D02*
G37*
G36*
X378189D02*
Y516024D01*
X378031Y515866D01*
X376061D01*
X375903Y516024D01*
Y517835D01*
X376061Y517992D01*
X378031D01*
X378189Y517835D01*
D02*
G37*
G36*
X374840D02*
Y516024D01*
X374682Y515866D01*
X372711D01*
X372554Y516024D01*
Y517835D01*
X372711Y517992D01*
X374682D01*
X374840Y517835D01*
D02*
G37*
G36*
X280945D02*
Y516024D01*
X280787Y515866D01*
X278816D01*
X278659Y516024D01*
Y517835D01*
X278816Y517992D01*
X280787D01*
X280945Y517835D01*
D02*
G37*
G36*
X277596D02*
Y516024D01*
X277438Y515866D01*
X275467D01*
X275310Y516024D01*
Y517835D01*
X275467Y517992D01*
X277438D01*
X277596Y517835D01*
D02*
G37*
G36*
X112758Y517441D02*
Y515630D01*
X112601Y515472D01*
X110630D01*
X110472Y515630D01*
Y517441D01*
X110630Y517598D01*
X112601D01*
X112758Y517441D01*
D02*
G37*
G36*
X109409D02*
Y515630D01*
X109252Y515472D01*
X107281D01*
X107123Y515630D01*
Y517441D01*
X107281Y517598D01*
X109252D01*
X109409Y517441D01*
D02*
G37*
G36*
X15514D02*
Y515630D01*
X15357Y515472D01*
X13386D01*
X13228Y515630D01*
Y517441D01*
X13386Y517598D01*
X15357D01*
X15514Y517441D01*
D02*
G37*
G36*
X12165D02*
Y515630D01*
X12008Y515472D01*
X10037D01*
X9879Y515630D01*
Y517441D01*
X10037Y517598D01*
X12008D01*
X12165Y517441D01*
D02*
G37*
G36*
X550554Y517441D02*
Y515630D01*
X550396Y515472D01*
X548425D01*
X548268Y515630D01*
Y517441D01*
X548425Y517598D01*
X550396D01*
X550554Y517441D01*
D02*
G37*
G36*
X547205D02*
Y515630D01*
X547047Y515472D01*
X545076D01*
X544919Y515630D01*
Y517441D01*
X545076Y517598D01*
X547047D01*
X547205Y517441D01*
D02*
G37*
G36*
X453310D02*
Y515630D01*
X453152Y515472D01*
X451181D01*
X451024Y515630D01*
Y517441D01*
X451181Y517598D01*
X453152D01*
X453310Y517441D01*
D02*
G37*
G36*
X449961D02*
Y515630D01*
X449803Y515472D01*
X447832D01*
X447675Y515630D01*
Y517441D01*
X447832Y517598D01*
X449803D01*
X449961Y517441D01*
D02*
G37*
G36*
X331656D02*
Y515630D01*
X331499Y515472D01*
X329528D01*
X329370Y515630D01*
Y517441D01*
X329528Y517598D01*
X331499D01*
X331656Y517441D01*
D02*
G37*
G36*
X328307D02*
Y515630D01*
X328150Y515472D01*
X326179D01*
X326021Y515630D01*
Y517441D01*
X326179Y517598D01*
X328150D01*
X328307Y517441D01*
D02*
G37*
G36*
X234412D02*
Y515630D01*
X234254Y515472D01*
X232283D01*
X232126Y515630D01*
Y517441D01*
X232283Y517598D01*
X234254D01*
X234412Y517441D01*
D02*
G37*
G36*
X231063D02*
Y515630D01*
X230906Y515472D01*
X228935D01*
X228777Y515630D01*
Y517441D01*
X228935Y517598D01*
X230906D01*
X231063Y517441D01*
D02*
G37*
G36*
X159510Y493425D02*
Y491614D01*
X159353Y491457D01*
X157382D01*
X157224Y491614D01*
Y493425D01*
X157382Y493583D01*
X159353D01*
X159510Y493425D01*
D02*
G37*
G36*
X156161D02*
Y491614D01*
X156004Y491457D01*
X154033D01*
X153875Y491614D01*
Y493425D01*
X154033Y493583D01*
X156004D01*
X156161Y493425D01*
D02*
G37*
G36*
X111971D02*
Y491614D01*
X111813Y491457D01*
X109843D01*
X109685Y491614D01*
Y493425D01*
X109843Y493583D01*
X111813D01*
X111971Y493425D01*
D02*
G37*
G36*
X108622D02*
Y491614D01*
X108465Y491457D01*
X106493D01*
X106336Y491614D01*
Y493425D01*
X106493Y493583D01*
X108465D01*
X108622Y493425D01*
D02*
G37*
G36*
X62266D02*
Y491614D01*
X62109Y491457D01*
X60138D01*
X59980Y491614D01*
Y493425D01*
X60138Y493583D01*
X62109D01*
X62266Y493425D01*
D02*
G37*
G36*
X58917D02*
Y491614D01*
X58760Y491457D01*
X56789D01*
X56631Y491614D01*
Y493425D01*
X56789Y493583D01*
X58760D01*
X58917Y493425D01*
D02*
G37*
G36*
X14727D02*
Y491614D01*
X14569Y491457D01*
X12598D01*
X12441Y491614D01*
Y493425D01*
X12598Y493583D01*
X14569D01*
X14727Y493425D01*
D02*
G37*
G36*
X11378D02*
Y491614D01*
X11220Y491457D01*
X9249D01*
X9092Y491614D01*
Y493425D01*
X9249Y493583D01*
X11220D01*
X11378Y493425D01*
D02*
G37*
G36*
X597306Y493425D02*
Y491614D01*
X597148Y491457D01*
X595177D01*
X595020Y491614D01*
Y493425D01*
X595177Y493583D01*
X597148D01*
X597306Y493425D01*
D02*
G37*
G36*
X593957D02*
Y491614D01*
X593799Y491457D01*
X591828D01*
X591671Y491614D01*
Y493425D01*
X591828Y493583D01*
X593799D01*
X593957Y493425D01*
D02*
G37*
G36*
X549766D02*
Y491614D01*
X549609Y491457D01*
X547638D01*
X547480Y491614D01*
Y493425D01*
X547638Y493583D01*
X549609D01*
X549766Y493425D01*
D02*
G37*
G36*
X546417D02*
Y491614D01*
X546260Y491457D01*
X544289D01*
X544131Y491614D01*
Y493425D01*
X544289Y493583D01*
X546260D01*
X546417Y493425D01*
D02*
G37*
G36*
X500062D02*
Y491614D01*
X499904Y491457D01*
X497933D01*
X497776Y491614D01*
Y493425D01*
X497933Y493583D01*
X499904D01*
X500062Y493425D01*
D02*
G37*
G36*
X496713D02*
Y491614D01*
X496555Y491457D01*
X494584D01*
X494427Y491614D01*
Y493425D01*
X494584Y493583D01*
X496555D01*
X496713Y493425D01*
D02*
G37*
G36*
X452522D02*
Y491614D01*
X452365Y491457D01*
X450394D01*
X450236Y491614D01*
Y493425D01*
X450394Y493583D01*
X452365D01*
X452522Y493425D01*
D02*
G37*
G36*
X449173D02*
Y491614D01*
X449016Y491457D01*
X447045D01*
X446887Y491614D01*
Y493425D01*
X447045Y493583D01*
X449016D01*
X449173Y493425D01*
D02*
G37*
G36*
X378408D02*
Y491614D01*
X378251Y491457D01*
X376279D01*
X376122Y491614D01*
Y493425D01*
X376279Y493583D01*
X378251D01*
X378408Y493425D01*
D02*
G37*
G36*
X375059D02*
Y491614D01*
X374902Y491457D01*
X372931D01*
X372773Y491614D01*
Y493425D01*
X372931Y493583D01*
X374902D01*
X375059Y493425D01*
D02*
G37*
G36*
X330869D02*
Y491614D01*
X330711Y491457D01*
X328740D01*
X328583Y491614D01*
Y493425D01*
X328740Y493583D01*
X330711D01*
X330869Y493425D01*
D02*
G37*
G36*
X327520D02*
Y491614D01*
X327362Y491457D01*
X325391D01*
X325234Y491614D01*
Y493425D01*
X325391Y493583D01*
X327362D01*
X327520Y493425D01*
D02*
G37*
G36*
X281164D02*
Y491614D01*
X281006Y491457D01*
X279035D01*
X278878Y491614D01*
Y493425D01*
X279035Y493583D01*
X281006D01*
X281164Y493425D01*
D02*
G37*
G36*
X277815D02*
Y491614D01*
X277657Y491457D01*
X275686D01*
X275529Y491614D01*
Y493425D01*
X275686Y493583D01*
X277657D01*
X277815Y493425D01*
D02*
G37*
G36*
X233625D02*
Y491614D01*
X233467Y491457D01*
X231496D01*
X231339Y491614D01*
Y493425D01*
X231496Y493583D01*
X233467D01*
X233625Y493425D01*
D02*
G37*
G36*
X230276D02*
Y491614D01*
X230118Y491457D01*
X228147D01*
X227990Y491614D01*
Y493425D01*
X228147Y493583D01*
X230118D01*
X230276Y493425D01*
D02*
G37*
G36*
X159510Y487913D02*
Y486102D01*
X159353Y485945D01*
X157382D01*
X157224Y486102D01*
Y487913D01*
X157382Y488071D01*
X159353D01*
X159510Y487913D01*
D02*
G37*
G36*
X156161D02*
Y486102D01*
X156004Y485945D01*
X154033D01*
X153875Y486102D01*
Y487913D01*
X154033Y488071D01*
X156004D01*
X156161Y487913D01*
D02*
G37*
G36*
X62266D02*
Y486102D01*
X62109Y485945D01*
X60138D01*
X59980Y486102D01*
Y487913D01*
X60138Y488071D01*
X62109D01*
X62266Y487913D01*
D02*
G37*
G36*
X58917D02*
Y486102D01*
X58760Y485945D01*
X56789D01*
X56631Y486102D01*
Y487913D01*
X56789Y488071D01*
X58760D01*
X58917Y487913D01*
D02*
G37*
G36*
X597306Y487913D02*
Y486102D01*
X597148Y485945D01*
X595177D01*
X595020Y486102D01*
Y487913D01*
X595177Y488071D01*
X597148D01*
X597306Y487913D01*
D02*
G37*
G36*
X593957D02*
Y486102D01*
X593799Y485945D01*
X591828D01*
X591671Y486102D01*
Y487913D01*
X591828Y488071D01*
X593799D01*
X593957Y487913D01*
D02*
G37*
G36*
X500062D02*
Y486102D01*
X499904Y485945D01*
X497933D01*
X497776Y486102D01*
Y487913D01*
X497933Y488071D01*
X499904D01*
X500062Y487913D01*
D02*
G37*
G36*
X496713D02*
Y486102D01*
X496555Y485945D01*
X494584D01*
X494427Y486102D01*
Y487913D01*
X494584Y488071D01*
X496555D01*
X496713Y487913D01*
D02*
G37*
G36*
X378408D02*
Y486102D01*
X378251Y485945D01*
X376279D01*
X376122Y486102D01*
Y487913D01*
X376279Y488071D01*
X378251D01*
X378408Y487913D01*
D02*
G37*
G36*
X375059D02*
Y486102D01*
X374902Y485945D01*
X372931D01*
X372773Y486102D01*
Y487913D01*
X372931Y488071D01*
X374902D01*
X375059Y487913D01*
D02*
G37*
G36*
X281164D02*
Y486102D01*
X281006Y485945D01*
X279035D01*
X278878Y486102D01*
Y487913D01*
X279035Y488071D01*
X281006D01*
X281164Y487913D01*
D02*
G37*
G36*
X277815D02*
Y486102D01*
X277657Y485945D01*
X275686D01*
X275529Y486102D01*
Y487913D01*
X275686Y488071D01*
X277657D01*
X277815Y487913D01*
D02*
G37*
G36*
X111971D02*
Y486102D01*
X111813Y485945D01*
X109843D01*
X109685Y486102D01*
Y487913D01*
X109843Y488071D01*
X111813D01*
X111971Y487913D01*
D02*
G37*
G36*
X108622D02*
Y486102D01*
X108465Y485945D01*
X106493D01*
X106336Y486102D01*
Y487913D01*
X106493Y488071D01*
X108465D01*
X108622Y487913D01*
D02*
G37*
G36*
X14727D02*
Y486102D01*
X14569Y485945D01*
X12598D01*
X12441Y486102D01*
Y487913D01*
X12598Y488071D01*
X14569D01*
X14727Y487913D01*
D02*
G37*
G36*
X11378D02*
Y486102D01*
X11220Y485945D01*
X9249D01*
X9092Y486102D01*
Y487913D01*
X9249Y488071D01*
X11220D01*
X11378Y487913D01*
D02*
G37*
G36*
X549766Y487913D02*
Y486102D01*
X549609Y485945D01*
X547638D01*
X547480Y486102D01*
Y487913D01*
X547638Y488071D01*
X549609D01*
X549766Y487913D01*
D02*
G37*
G36*
X546417D02*
Y486102D01*
X546260Y485945D01*
X544289D01*
X544131Y486102D01*
Y487913D01*
X544289Y488071D01*
X546260D01*
X546417Y487913D01*
D02*
G37*
G36*
X452522D02*
Y486102D01*
X452365Y485945D01*
X450394D01*
X450236Y486102D01*
Y487913D01*
X450394Y488071D01*
X452365D01*
X452522Y487913D01*
D02*
G37*
G36*
X449173D02*
Y486102D01*
X449016Y485945D01*
X447045D01*
X446887Y486102D01*
Y487913D01*
X447045Y488071D01*
X449016D01*
X449173Y487913D01*
D02*
G37*
G36*
X330869D02*
Y486102D01*
X330711Y485945D01*
X328740D01*
X328583Y486102D01*
Y487913D01*
X328740Y488071D01*
X330711D01*
X330869Y487913D01*
D02*
G37*
G36*
X327520D02*
Y486102D01*
X327362Y485945D01*
X325391D01*
X325234Y486102D01*
Y487913D01*
X325391Y488071D01*
X327362D01*
X327520Y487913D01*
D02*
G37*
G36*
X233625D02*
Y486102D01*
X233467Y485945D01*
X231496D01*
X231339Y486102D01*
Y487913D01*
X231496Y488071D01*
X233467D01*
X233625Y487913D01*
D02*
G37*
G36*
X230276D02*
Y486102D01*
X230118Y485945D01*
X228147D01*
X227990Y486102D01*
Y487913D01*
X228147Y488071D01*
X230118D01*
X230276Y487913D01*
D02*
G37*
G36*
X125000Y472028D02*
Y468878D01*
X124803Y468681D01*
X123850D01*
Y470138D01*
X122551D01*
Y468681D01*
X121654D01*
X121457Y468878D01*
Y472028D01*
X121654Y472224D01*
X124803D01*
X125000Y472028D01*
D02*
G37*
G36*
X27756D02*
Y468878D01*
X27559Y468681D01*
X26606D01*
Y470138D01*
X25307D01*
Y468681D01*
X24409D01*
X24213Y468878D01*
Y472028D01*
X24409Y472224D01*
X27559D01*
X27756Y472028D01*
D02*
G37*
G36*
X562795Y472028D02*
Y468878D01*
X562599Y468681D01*
X561646D01*
Y470138D01*
X560346D01*
Y468681D01*
X559449D01*
X559252Y468878D01*
Y472028D01*
X559449Y472224D01*
X562599D01*
X562795Y472028D01*
D02*
G37*
G36*
X465551D02*
Y468878D01*
X465354Y468681D01*
X464401D01*
Y470138D01*
X463102D01*
Y468681D01*
X462205D01*
X462008Y468878D01*
Y472028D01*
X462205Y472224D01*
X465354D01*
X465551Y472028D01*
D02*
G37*
G36*
X343898D02*
Y468878D01*
X343701Y468681D01*
X342748D01*
Y470138D01*
X341449D01*
Y468681D01*
X340551D01*
X340354Y468878D01*
Y472028D01*
X340551Y472224D01*
X343701D01*
X343898Y472028D01*
D02*
G37*
G36*
X246654D02*
Y468878D01*
X246457Y468681D01*
X245504D01*
Y470138D01*
X244205D01*
Y468681D01*
X243307D01*
X243110Y468878D01*
Y472028D01*
X243307Y472224D01*
X246457D01*
X246654Y472028D01*
D02*
G37*
G36*
X132087D02*
Y468878D01*
X131890Y468681D01*
X130937D01*
Y470138D01*
X129638D01*
Y468681D01*
X128740D01*
X128543Y468878D01*
Y472028D01*
X128740Y472224D01*
X131890D01*
X132087Y472028D01*
D02*
G37*
G36*
X34843D02*
Y468878D01*
X34646Y468681D01*
X33693D01*
Y470138D01*
X32394D01*
Y468681D01*
X31496D01*
X31299Y468878D01*
Y472028D01*
X31496Y472224D01*
X34646D01*
X34843Y472028D01*
D02*
G37*
G36*
X569882Y472028D02*
Y468878D01*
X569685Y468681D01*
X568732D01*
Y470138D01*
X567433D01*
Y468681D01*
X566536D01*
X566339Y468878D01*
Y472028D01*
X566536Y472224D01*
X569685D01*
X569882Y472028D01*
D02*
G37*
G36*
X472638D02*
Y468878D01*
X472441Y468681D01*
X471488D01*
Y470138D01*
X470189D01*
Y468681D01*
X469291D01*
X469095Y468878D01*
Y472028D01*
X469291Y472224D01*
X472441D01*
X472638Y472028D01*
D02*
G37*
G36*
X350984D02*
Y468878D01*
X350787Y468681D01*
X349835D01*
Y470138D01*
X348535D01*
Y468681D01*
X347638D01*
X347441Y468878D01*
Y472028D01*
X347638Y472224D01*
X350787D01*
X350984Y472028D01*
D02*
G37*
G36*
X253740D02*
Y468878D01*
X253543Y468681D01*
X252590D01*
Y470138D01*
X251291D01*
Y468681D01*
X250394D01*
X250197Y468878D01*
Y472028D01*
X250394Y472224D01*
X253543D01*
X253740Y472028D01*
D02*
G37*
G36*
X168160Y469766D02*
Y467795D01*
X168003Y467638D01*
X166192D01*
X166034Y467795D01*
Y469766D01*
X166192Y469924D01*
X168003D01*
X168160Y469766D01*
D02*
G37*
G36*
X162648D02*
Y467795D01*
X162491Y467638D01*
X160680D01*
X160522Y467795D01*
Y469766D01*
X160680Y469924D01*
X162491D01*
X162648Y469766D01*
D02*
G37*
G36*
X70916D02*
Y467795D01*
X70759Y467638D01*
X68948D01*
X68790Y467795D01*
Y469766D01*
X68948Y469924D01*
X70759D01*
X70916Y469766D01*
D02*
G37*
G36*
X65404D02*
Y467795D01*
X65247Y467638D01*
X63436D01*
X63278Y467795D01*
Y469766D01*
X63436Y469924D01*
X65247D01*
X65404Y469766D01*
D02*
G37*
G36*
X605956Y469766D02*
Y467795D01*
X605798Y467638D01*
X603987D01*
X603830Y467795D01*
Y469766D01*
X603987Y469924D01*
X605798D01*
X605956Y469766D01*
D02*
G37*
G36*
X600444D02*
Y467795D01*
X600286Y467638D01*
X598475D01*
X598318Y467795D01*
Y469766D01*
X598475Y469924D01*
X600286D01*
X600444Y469766D01*
D02*
G37*
G36*
X508711D02*
Y467795D01*
X508554Y467638D01*
X506743D01*
X506586Y467795D01*
Y469766D01*
X506743Y469924D01*
X508554D01*
X508711Y469766D01*
D02*
G37*
G36*
X503200D02*
Y467795D01*
X503042Y467638D01*
X501231D01*
X501074Y467795D01*
Y469766D01*
X501231Y469924D01*
X503042D01*
X503200Y469766D01*
D02*
G37*
G36*
X387058D02*
Y467795D01*
X386900Y467638D01*
X385089D01*
X384932Y467795D01*
Y469766D01*
X385089Y469924D01*
X386900D01*
X387058Y469766D01*
D02*
G37*
G36*
X381546D02*
Y467795D01*
X381389Y467638D01*
X379578D01*
X379420Y467795D01*
Y469766D01*
X379578Y469924D01*
X381389D01*
X381546Y469766D01*
D02*
G37*
G36*
X289814D02*
Y467795D01*
X289656Y467638D01*
X287845D01*
X287688Y467795D01*
Y469766D01*
X287845Y469924D01*
X289656D01*
X289814Y469766D01*
D02*
G37*
G36*
X284302D02*
Y467795D01*
X284144Y467638D01*
X282333D01*
X282176Y467795D01*
Y469766D01*
X282333Y469924D01*
X284144D01*
X284302Y469766D01*
D02*
G37*
G36*
X125000Y465768D02*
Y462618D01*
X124803Y462421D01*
X121653D01*
X121457Y462618D01*
Y465768D01*
X121653Y465965D01*
X122606D01*
Y464508D01*
X123906D01*
Y465965D01*
X124803D01*
X125000Y465768D01*
D02*
G37*
G36*
X27756D02*
Y462618D01*
X27559Y462421D01*
X24409D01*
X24213Y462618D01*
Y465768D01*
X24409Y465965D01*
X25362D01*
Y464508D01*
X26661D01*
Y465965D01*
X27559D01*
X27756Y465768D01*
D02*
G37*
G36*
X562795Y465768D02*
Y462618D01*
X562598Y462421D01*
X559449D01*
X559252Y462618D01*
Y465768D01*
X559449Y465965D01*
X560402D01*
Y464508D01*
X561701D01*
Y465965D01*
X562598D01*
X562795Y465768D01*
D02*
G37*
G36*
X465551D02*
Y462618D01*
X465354Y462421D01*
X462205D01*
X462008Y462618D01*
Y465768D01*
X462205Y465965D01*
X463158D01*
Y464508D01*
X464457D01*
Y465965D01*
X465354D01*
X465551Y465768D01*
D02*
G37*
G36*
X343898D02*
Y462618D01*
X343701Y462421D01*
X340551D01*
X340354Y462618D01*
Y465768D01*
X340551Y465965D01*
X341504D01*
Y464508D01*
X342803D01*
Y465965D01*
X343701D01*
X343898Y465768D01*
D02*
G37*
G36*
X246654D02*
Y462618D01*
X246457Y462421D01*
X243307D01*
X243110Y462618D01*
Y465768D01*
X243307Y465965D01*
X244260D01*
Y464508D01*
X245559D01*
Y465965D01*
X246457D01*
X246654Y465768D01*
D02*
G37*
G36*
X132087D02*
Y462618D01*
X131890Y462421D01*
X128740D01*
X128543Y462618D01*
Y465768D01*
X128740Y465965D01*
X129693D01*
Y464508D01*
X130992D01*
Y465965D01*
X131890D01*
X132087Y465768D01*
D02*
G37*
G36*
X34842D02*
Y462618D01*
X34646Y462421D01*
X31496D01*
X31299Y462618D01*
Y465768D01*
X31496Y465965D01*
X32449D01*
Y464508D01*
X33748D01*
Y465965D01*
X34646D01*
X34842Y465768D01*
D02*
G37*
G36*
X569882Y465768D02*
Y462618D01*
X569685Y462421D01*
X566535D01*
X566338Y462618D01*
Y465768D01*
X566535Y465965D01*
X567488D01*
Y464508D01*
X568787D01*
Y465965D01*
X569685D01*
X569882Y465768D01*
D02*
G37*
G36*
X472638D02*
Y462618D01*
X472441Y462421D01*
X469291D01*
X469094Y462618D01*
Y465768D01*
X469291Y465965D01*
X470244D01*
Y464508D01*
X471543D01*
Y465965D01*
X472441D01*
X472638Y465768D01*
D02*
G37*
G36*
X350984D02*
Y462618D01*
X350787Y462421D01*
X347638D01*
X347441Y462618D01*
Y465768D01*
X347638Y465965D01*
X348591D01*
Y464508D01*
X349890D01*
Y465965D01*
X350787D01*
X350984Y465768D01*
D02*
G37*
G36*
X253740D02*
Y462618D01*
X253543Y462421D01*
X250394D01*
X250197Y462618D01*
Y465768D01*
X250394Y465965D01*
X251346D01*
Y464508D01*
X252646D01*
Y465965D01*
X253543D01*
X253740Y465768D01*
D02*
G37*
G36*
X168160Y466417D02*
Y464446D01*
X168003Y464289D01*
X166192D01*
X166034Y464446D01*
Y466417D01*
X166192Y466575D01*
X168003D01*
X168160Y466417D01*
D02*
G37*
G36*
X162648D02*
Y464446D01*
X162491Y464289D01*
X160680D01*
X160522Y464446D01*
Y466417D01*
X160680Y466575D01*
X162491D01*
X162648Y466417D01*
D02*
G37*
G36*
X70916D02*
Y464446D01*
X70759Y464289D01*
X68948D01*
X68790Y464446D01*
Y466417D01*
X68948Y466575D01*
X70759D01*
X70916Y466417D01*
D02*
G37*
G36*
X65404D02*
Y464446D01*
X65247Y464289D01*
X63436D01*
X63278Y464446D01*
Y466417D01*
X63436Y466575D01*
X65247D01*
X65404Y466417D01*
D02*
G37*
G36*
X605956Y466417D02*
Y464446D01*
X605798Y464289D01*
X603987D01*
X603830Y464446D01*
Y466417D01*
X603987Y466575D01*
X605798D01*
X605956Y466417D01*
D02*
G37*
G36*
X600444D02*
Y464446D01*
X600286Y464289D01*
X598475D01*
X598318Y464446D01*
Y466417D01*
X598475Y466575D01*
X600286D01*
X600444Y466417D01*
D02*
G37*
G36*
X508711D02*
Y464446D01*
X508554Y464289D01*
X506743D01*
X506586Y464446D01*
Y466417D01*
X506743Y466575D01*
X508554D01*
X508711Y466417D01*
D02*
G37*
G36*
X503200D02*
Y464446D01*
X503042Y464289D01*
X501231D01*
X501074Y464446D01*
Y466417D01*
X501231Y466575D01*
X503042D01*
X503200Y466417D01*
D02*
G37*
G36*
X387058D02*
Y464446D01*
X386900Y464289D01*
X385089D01*
X384932Y464446D01*
Y466417D01*
X385089Y466575D01*
X386900D01*
X387058Y466417D01*
D02*
G37*
G36*
X381546D02*
Y464446D01*
X381389Y464289D01*
X379578D01*
X379420Y464446D01*
Y466417D01*
X379578Y466575D01*
X381389D01*
X381546Y466417D01*
D02*
G37*
G36*
X289814D02*
Y464446D01*
X289656Y464289D01*
X287845D01*
X287688Y464446D01*
Y466417D01*
X287845Y466575D01*
X289656D01*
X289814Y466417D01*
D02*
G37*
G36*
X284302D02*
Y464446D01*
X284144Y464289D01*
X282333D01*
X282176Y464446D01*
Y466417D01*
X282333Y466575D01*
X284144D01*
X284302Y466417D01*
D02*
G37*
G36*
X116358Y405906D02*
Y404953D01*
X114901D01*
Y403653D01*
X116358D01*
Y402756D01*
X116161Y402559D01*
X113012D01*
X112815Y402756D01*
Y405906D01*
X113012Y406102D01*
X116161D01*
X116358Y405906D01*
D02*
G37*
G36*
X19114D02*
Y404953D01*
X17657D01*
Y403653D01*
X19114D01*
Y402756D01*
X18917Y402559D01*
X15768D01*
X15571Y402756D01*
Y405906D01*
X15768Y406102D01*
X18917D01*
X19114Y405906D01*
D02*
G37*
G36*
X554153Y405906D02*
Y404953D01*
X552697D01*
Y403653D01*
X554153D01*
Y402756D01*
X553957Y402559D01*
X550807D01*
X550610Y402756D01*
Y405906D01*
X550807Y406102D01*
X553957D01*
X554153Y405906D01*
D02*
G37*
G36*
X456909D02*
Y404953D01*
X455453D01*
Y403653D01*
X456909D01*
Y402756D01*
X456712Y402559D01*
X453563D01*
X453366Y402756D01*
Y405906D01*
X453563Y406102D01*
X456712D01*
X456909Y405906D01*
D02*
G37*
G36*
X335256D02*
Y404953D01*
X333799D01*
Y403653D01*
X335256D01*
Y402756D01*
X335059Y402559D01*
X331909D01*
X331713Y402756D01*
Y405906D01*
X331909Y406102D01*
X335059D01*
X335256Y405906D01*
D02*
G37*
G36*
X238012D02*
Y404953D01*
X236555D01*
Y403653D01*
X238012D01*
Y402756D01*
X237815Y402559D01*
X234665D01*
X234468Y402756D01*
Y405906D01*
X234665Y406102D01*
X237815D01*
X238012Y405906D01*
D02*
G37*
G36*
X122618Y405905D02*
Y402756D01*
X122421Y402559D01*
X119272D01*
X119075Y402756D01*
Y403709D01*
X120531D01*
Y405008D01*
X119075D01*
Y405905D01*
X119272Y406102D01*
X122421D01*
X122618Y405905D01*
D02*
G37*
G36*
X25374D02*
Y402756D01*
X25177Y402559D01*
X22028D01*
X21831Y402756D01*
Y403709D01*
X23287D01*
Y405008D01*
X21831D01*
Y405905D01*
X22028Y406102D01*
X25177D01*
X25374Y405905D01*
D02*
G37*
G36*
X560413Y405905D02*
Y402756D01*
X560217Y402559D01*
X557067D01*
X556870Y402756D01*
Y403709D01*
X558327D01*
Y405008D01*
X556870D01*
Y405905D01*
X557067Y406102D01*
X560217D01*
X560413Y405905D01*
D02*
G37*
G36*
X463169D02*
Y402756D01*
X462972Y402559D01*
X459823D01*
X459626Y402756D01*
Y403709D01*
X461083D01*
Y405008D01*
X459626D01*
Y405905D01*
X459823Y406102D01*
X462972D01*
X463169Y405905D01*
D02*
G37*
G36*
X341516D02*
Y402756D01*
X341319Y402559D01*
X338169D01*
X337972Y402756D01*
Y403709D01*
X339429D01*
Y405008D01*
X337972D01*
Y405905D01*
X338169Y406102D01*
X341319D01*
X341516Y405905D01*
D02*
G37*
G36*
X244272D02*
Y402756D01*
X244075Y402559D01*
X240925D01*
X240728Y402756D01*
Y403709D01*
X242185D01*
Y405008D01*
X240728D01*
Y405905D01*
X240925Y406102D01*
X244075D01*
X244272Y405905D01*
D02*
G37*
G36*
X159246Y385157D02*
Y383347D01*
X159088Y383189D01*
X157117D01*
X156960Y383347D01*
Y385157D01*
X157117Y385315D01*
X159088D01*
X159246Y385157D01*
D02*
G37*
G36*
X155897D02*
Y383347D01*
X155739Y383189D01*
X153768D01*
X153611Y383347D01*
Y385157D01*
X153768Y385315D01*
X155739D01*
X155897Y385157D01*
D02*
G37*
G36*
X111350D02*
Y383347D01*
X111192Y383189D01*
X109221D01*
X109064Y383347D01*
Y385157D01*
X109221Y385315D01*
X111192D01*
X111350Y385157D01*
D02*
G37*
G36*
X108001D02*
Y383347D01*
X107843Y383189D01*
X105872D01*
X105715Y383347D01*
Y385157D01*
X105872Y385315D01*
X107843D01*
X108001Y385157D01*
D02*
G37*
G36*
X62002D02*
Y383347D01*
X61844Y383189D01*
X59873D01*
X59716Y383347D01*
Y385157D01*
X59873Y385315D01*
X61844D01*
X62002Y385157D01*
D02*
G37*
G36*
X58653D02*
Y383347D01*
X58495Y383189D01*
X56524D01*
X56367Y383347D01*
Y385157D01*
X56524Y385315D01*
X58495D01*
X58653Y385157D01*
D02*
G37*
G36*
X14106D02*
Y383347D01*
X13948Y383189D01*
X11977D01*
X11820Y383347D01*
Y385157D01*
X11977Y385315D01*
X13948D01*
X14106Y385157D01*
D02*
G37*
G36*
X10757D02*
Y383347D01*
X10599Y383189D01*
X8628D01*
X8471Y383347D01*
Y385157D01*
X8628Y385315D01*
X10599D01*
X10757Y385157D01*
D02*
G37*
G36*
X597041Y385157D02*
Y383347D01*
X596884Y383189D01*
X594913D01*
X594755Y383347D01*
Y385157D01*
X594913Y385315D01*
X596884D01*
X597041Y385157D01*
D02*
G37*
G36*
X593692D02*
Y383347D01*
X593535Y383189D01*
X591564D01*
X591406Y383347D01*
Y385157D01*
X591564Y385315D01*
X593535D01*
X593692Y385157D01*
D02*
G37*
G36*
X549145D02*
Y383347D01*
X548987Y383189D01*
X547016D01*
X546859Y383347D01*
Y385157D01*
X547016Y385315D01*
X548987D01*
X549145Y385157D01*
D02*
G37*
G36*
X545796D02*
Y383347D01*
X545639Y383189D01*
X543668D01*
X543510Y383347D01*
Y385157D01*
X543668Y385315D01*
X545639D01*
X545796Y385157D01*
D02*
G37*
G36*
X499797D02*
Y383347D01*
X499640Y383189D01*
X497669D01*
X497511Y383347D01*
Y385157D01*
X497669Y385315D01*
X499640D01*
X499797Y385157D01*
D02*
G37*
G36*
X496448D02*
Y383347D01*
X496291Y383189D01*
X494320D01*
X494162Y383347D01*
Y385157D01*
X494320Y385315D01*
X496291D01*
X496448Y385157D01*
D02*
G37*
G36*
X451901D02*
Y383347D01*
X451743Y383189D01*
X449772D01*
X449615Y383347D01*
Y385157D01*
X449772Y385315D01*
X451743D01*
X451901Y385157D01*
D02*
G37*
G36*
X448552D02*
Y383347D01*
X448394Y383189D01*
X446423D01*
X446266Y383347D01*
Y385157D01*
X446423Y385315D01*
X448394D01*
X448552Y385157D01*
D02*
G37*
G36*
X378144D02*
Y383347D01*
X377986Y383189D01*
X376015D01*
X375857Y383347D01*
Y385157D01*
X376015Y385315D01*
X377986D01*
X378144Y385157D01*
D02*
G37*
G36*
X374795D02*
Y383347D01*
X374637Y383189D01*
X372666D01*
X372509Y383347D01*
Y385157D01*
X372666Y385315D01*
X374637D01*
X374795Y385157D01*
D02*
G37*
G36*
X330247D02*
Y383347D01*
X330090Y383189D01*
X328119D01*
X327961Y383347D01*
Y385157D01*
X328119Y385315D01*
X330090D01*
X330247Y385157D01*
D02*
G37*
G36*
X326898D02*
Y383347D01*
X326741Y383189D01*
X324770D01*
X324612Y383347D01*
Y385157D01*
X324770Y385315D01*
X326741D01*
X326898Y385157D01*
D02*
G37*
G36*
X280899D02*
Y383347D01*
X280742Y383189D01*
X278771D01*
X278613Y383347D01*
Y385157D01*
X278771Y385315D01*
X280742D01*
X280899Y385157D01*
D02*
G37*
G36*
X277550D02*
Y383347D01*
X277393Y383189D01*
X275422D01*
X275264Y383347D01*
Y385157D01*
X275422Y385315D01*
X277393D01*
X277550Y385157D01*
D02*
G37*
G36*
X233003D02*
Y383347D01*
X232846Y383189D01*
X230875D01*
X230717Y383347D01*
Y385157D01*
X230875Y385315D01*
X232846D01*
X233003Y385157D01*
D02*
G37*
G36*
X229654D02*
Y383347D01*
X229497Y383189D01*
X227526D01*
X227368Y383347D01*
Y385157D01*
X227526Y385315D01*
X229497D01*
X229654Y385157D01*
D02*
G37*
G36*
X159246Y379646D02*
Y377835D01*
X159088Y377677D01*
X157117D01*
X156960Y377835D01*
Y379646D01*
X157117Y379803D01*
X159088D01*
X159246Y379646D01*
D02*
G37*
G36*
X155897D02*
Y377835D01*
X155739Y377677D01*
X153768D01*
X153611Y377835D01*
Y379646D01*
X153768Y379803D01*
X155739D01*
X155897Y379646D01*
D02*
G37*
G36*
X111350D02*
Y377835D01*
X111192Y377677D01*
X109221D01*
X109064Y377835D01*
Y379646D01*
X109221Y379803D01*
X111192D01*
X111350Y379646D01*
D02*
G37*
G36*
X108001D02*
Y377835D01*
X107843Y377677D01*
X105872D01*
X105715Y377835D01*
Y379646D01*
X105872Y379803D01*
X107843D01*
X108001Y379646D01*
D02*
G37*
G36*
X62002D02*
Y377835D01*
X61844Y377677D01*
X59873D01*
X59716Y377835D01*
Y379646D01*
X59873Y379803D01*
X61844D01*
X62002Y379646D01*
D02*
G37*
G36*
X58653D02*
Y377835D01*
X58495Y377677D01*
X56524D01*
X56367Y377835D01*
Y379646D01*
X56524Y379803D01*
X58495D01*
X58653Y379646D01*
D02*
G37*
G36*
X14106D02*
Y377835D01*
X13948Y377677D01*
X11977D01*
X11820Y377835D01*
Y379646D01*
X11977Y379803D01*
X13948D01*
X14106Y379646D01*
D02*
G37*
G36*
X10757D02*
Y377835D01*
X10599Y377677D01*
X8628D01*
X8471Y377835D01*
Y379646D01*
X8628Y379803D01*
X10599D01*
X10757Y379646D01*
D02*
G37*
G36*
X597041Y379646D02*
Y377835D01*
X596884Y377677D01*
X594913D01*
X594755Y377835D01*
Y379646D01*
X594913Y379803D01*
X596884D01*
X597041Y379646D01*
D02*
G37*
G36*
X593692D02*
Y377835D01*
X593535Y377677D01*
X591564D01*
X591406Y377835D01*
Y379646D01*
X591564Y379803D01*
X593535D01*
X593692Y379646D01*
D02*
G37*
G36*
X549145D02*
Y377835D01*
X548987Y377677D01*
X547016D01*
X546859Y377835D01*
Y379646D01*
X547016Y379803D01*
X548987D01*
X549145Y379646D01*
D02*
G37*
G36*
X545796D02*
Y377835D01*
X545639Y377677D01*
X543668D01*
X543510Y377835D01*
Y379646D01*
X543668Y379803D01*
X545639D01*
X545796Y379646D01*
D02*
G37*
G36*
X499797D02*
Y377835D01*
X499640Y377677D01*
X497669D01*
X497511Y377835D01*
Y379646D01*
X497669Y379803D01*
X499640D01*
X499797Y379646D01*
D02*
G37*
G36*
X496448D02*
Y377835D01*
X496291Y377677D01*
X494320D01*
X494162Y377835D01*
Y379646D01*
X494320Y379803D01*
X496291D01*
X496448Y379646D01*
D02*
G37*
G36*
X451901D02*
Y377835D01*
X451743Y377677D01*
X449772D01*
X449615Y377835D01*
Y379646D01*
X449772Y379803D01*
X451743D01*
X451901Y379646D01*
D02*
G37*
G36*
X448552D02*
Y377835D01*
X448394Y377677D01*
X446423D01*
X446266Y377835D01*
Y379646D01*
X446423Y379803D01*
X448394D01*
X448552Y379646D01*
D02*
G37*
G36*
X378144D02*
Y377835D01*
X377986Y377677D01*
X376015D01*
X375857Y377835D01*
Y379646D01*
X376015Y379803D01*
X377986D01*
X378144Y379646D01*
D02*
G37*
G36*
X374795D02*
Y377835D01*
X374637Y377677D01*
X372666D01*
X372509Y377835D01*
Y379646D01*
X372666Y379803D01*
X374637D01*
X374795Y379646D01*
D02*
G37*
G36*
X330247D02*
Y377835D01*
X330090Y377677D01*
X328119D01*
X327961Y377835D01*
Y379646D01*
X328119Y379803D01*
X330090D01*
X330247Y379646D01*
D02*
G37*
G36*
X326898D02*
Y377835D01*
X326741Y377677D01*
X324770D01*
X324612Y377835D01*
Y379646D01*
X324770Y379803D01*
X326741D01*
X326898Y379646D01*
D02*
G37*
G36*
X280899D02*
Y377835D01*
X280742Y377677D01*
X278771D01*
X278613Y377835D01*
Y379646D01*
X278771Y379803D01*
X280742D01*
X280899Y379646D01*
D02*
G37*
G36*
X277550D02*
Y377835D01*
X277393Y377677D01*
X275422D01*
X275264Y377835D01*
Y379646D01*
X275422Y379803D01*
X277393D01*
X277550Y379646D01*
D02*
G37*
G36*
X233003D02*
Y377835D01*
X232846Y377677D01*
X230875D01*
X230717Y377835D01*
Y379646D01*
X230875Y379803D01*
X232846D01*
X233003Y379646D01*
D02*
G37*
G36*
X229654D02*
Y377835D01*
X229497Y377677D01*
X227526D01*
X227368Y377835D01*
Y379646D01*
X227526Y379803D01*
X229497D01*
X229654Y379646D01*
D02*
G37*
G36*
X111479Y355236D02*
Y353425D01*
X111321Y353268D01*
X109350D01*
X109193Y353425D01*
Y355236D01*
X109350Y355394D01*
X111321D01*
X111479Y355236D01*
D02*
G37*
G36*
X108130D02*
Y353425D01*
X107972Y353268D01*
X106001D01*
X105844Y353425D01*
Y355236D01*
X106001Y355394D01*
X107972D01*
X108130Y355236D01*
D02*
G37*
G36*
X14235D02*
Y353425D01*
X14077Y353268D01*
X12106D01*
X11949Y353425D01*
Y355236D01*
X12106Y355394D01*
X14077D01*
X14235Y355236D01*
D02*
G37*
G36*
X10886D02*
Y353425D01*
X10728Y353268D01*
X8757D01*
X8600Y353425D01*
Y355236D01*
X8757Y355394D01*
X10728D01*
X10886Y355236D01*
D02*
G37*
G36*
X549274Y355236D02*
Y353425D01*
X549117Y353268D01*
X547146D01*
X546988Y353425D01*
Y355236D01*
X547146Y355394D01*
X549117D01*
X549274Y355236D01*
D02*
G37*
G36*
X545925D02*
Y353425D01*
X545768Y353268D01*
X543797D01*
X543639Y353425D01*
Y355236D01*
X543797Y355394D01*
X545768D01*
X545925Y355236D01*
D02*
G37*
G36*
X452030D02*
Y353425D01*
X451872Y353268D01*
X449902D01*
X449744Y353425D01*
Y355236D01*
X449902Y355394D01*
X451872D01*
X452030Y355236D01*
D02*
G37*
G36*
X448681D02*
Y353425D01*
X448524Y353268D01*
X446553D01*
X446395Y353425D01*
Y355236D01*
X446553Y355394D01*
X448524D01*
X448681Y355236D01*
D02*
G37*
G36*
X330377D02*
Y353425D01*
X330219Y353268D01*
X328248D01*
X328091Y353425D01*
Y355236D01*
X328248Y355394D01*
X330219D01*
X330377Y355236D01*
D02*
G37*
G36*
X327028D02*
Y353425D01*
X326870Y353268D01*
X324899D01*
X324742Y353425D01*
Y355236D01*
X324899Y355394D01*
X326870D01*
X327028Y355236D01*
D02*
G37*
G36*
X233132D02*
Y353425D01*
X232975Y353268D01*
X231004D01*
X230846Y353425D01*
Y355236D01*
X231004Y355394D01*
X232975D01*
X233132Y355236D01*
D02*
G37*
G36*
X229783D02*
Y353425D01*
X229626Y353268D01*
X227655D01*
X227497Y353425D01*
Y355236D01*
X227655Y355394D01*
X229626D01*
X229783Y355236D01*
D02*
G37*
G36*
X159117Y354842D02*
Y353031D01*
X158959Y352874D01*
X156988D01*
X156831Y353031D01*
Y354842D01*
X156988Y355000D01*
X158959D01*
X159117Y354842D01*
D02*
G37*
G36*
X155768D02*
Y353031D01*
X155610Y352874D01*
X153639D01*
X153482Y353031D01*
Y354842D01*
X153639Y355000D01*
X155610D01*
X155768Y354842D01*
D02*
G37*
G36*
X61873D02*
Y353031D01*
X61715Y352874D01*
X59744D01*
X59587Y353031D01*
Y354842D01*
X59744Y355000D01*
X61715D01*
X61873Y354842D01*
D02*
G37*
G36*
X58524D02*
Y353031D01*
X58366Y352874D01*
X56395D01*
X56238Y353031D01*
Y354842D01*
X56395Y355000D01*
X58366D01*
X58524Y354842D01*
D02*
G37*
G36*
X596912Y354842D02*
Y353031D01*
X596754Y352874D01*
X594783D01*
X594626Y353031D01*
Y354842D01*
X594783Y355000D01*
X596754D01*
X596912Y354842D01*
D02*
G37*
G36*
X593563D02*
Y353031D01*
X593405Y352874D01*
X591434D01*
X591277Y353031D01*
Y354842D01*
X591434Y355000D01*
X593405D01*
X593563Y354842D01*
D02*
G37*
G36*
X499668D02*
Y353031D01*
X499510Y352874D01*
X497539D01*
X497382Y353031D01*
Y354842D01*
X497539Y355000D01*
X499510D01*
X499668Y354842D01*
D02*
G37*
G36*
X496319D02*
Y353031D01*
X496161Y352874D01*
X494190D01*
X494033Y353031D01*
Y354842D01*
X494190Y355000D01*
X496161D01*
X496319Y354842D01*
D02*
G37*
G36*
X378014D02*
Y353031D01*
X377857Y352874D01*
X375886D01*
X375728Y353031D01*
Y354842D01*
X375886Y355000D01*
X377857D01*
X378014Y354842D01*
D02*
G37*
G36*
X374665D02*
Y353031D01*
X374508Y352874D01*
X372537D01*
X372379Y353031D01*
Y354842D01*
X372537Y355000D01*
X374508D01*
X374665Y354842D01*
D02*
G37*
G36*
X280770D02*
Y353031D01*
X280613Y352874D01*
X278642D01*
X278484Y353031D01*
Y354842D01*
X278642Y355000D01*
X280613D01*
X280770Y354842D01*
D02*
G37*
G36*
X277421D02*
Y353031D01*
X277264Y352874D01*
X275293D01*
X275135Y353031D01*
Y354842D01*
X275293Y355000D01*
X277264D01*
X277421Y354842D01*
D02*
G37*
G36*
X111479Y349724D02*
Y347913D01*
X111321Y347756D01*
X109350D01*
X109193Y347913D01*
Y349724D01*
X109350Y349882D01*
X111321D01*
X111479Y349724D01*
D02*
G37*
G36*
X108130D02*
Y347913D01*
X107972Y347756D01*
X106001D01*
X105844Y347913D01*
Y349724D01*
X106001Y349882D01*
X107972D01*
X108130Y349724D01*
D02*
G37*
G36*
X14235D02*
Y347913D01*
X14077Y347756D01*
X12106D01*
X11949Y347913D01*
Y349724D01*
X12106Y349882D01*
X14077D01*
X14235Y349724D01*
D02*
G37*
G36*
X10886D02*
Y347913D01*
X10728Y347756D01*
X8757D01*
X8600Y347913D01*
Y349724D01*
X8757Y349882D01*
X10728D01*
X10886Y349724D01*
D02*
G37*
G36*
X549274Y349724D02*
Y347913D01*
X549117Y347756D01*
X547146D01*
X546988Y347913D01*
Y349724D01*
X547146Y349882D01*
X549117D01*
X549274Y349724D01*
D02*
G37*
G36*
X545925D02*
Y347913D01*
X545768Y347756D01*
X543797D01*
X543639Y347913D01*
Y349724D01*
X543797Y349882D01*
X545768D01*
X545925Y349724D01*
D02*
G37*
G36*
X452030D02*
Y347913D01*
X451872Y347756D01*
X449902D01*
X449744Y347913D01*
Y349724D01*
X449902Y349882D01*
X451872D01*
X452030Y349724D01*
D02*
G37*
G36*
X448681D02*
Y347913D01*
X448524Y347756D01*
X446553D01*
X446395Y347913D01*
Y349724D01*
X446553Y349882D01*
X448524D01*
X448681Y349724D01*
D02*
G37*
G36*
X330377D02*
Y347913D01*
X330219Y347756D01*
X328248D01*
X328091Y347913D01*
Y349724D01*
X328248Y349882D01*
X330219D01*
X330377Y349724D01*
D02*
G37*
G36*
X327028D02*
Y347913D01*
X326870Y347756D01*
X324899D01*
X324742Y347913D01*
Y349724D01*
X324899Y349882D01*
X326870D01*
X327028Y349724D01*
D02*
G37*
G36*
X233132D02*
Y347913D01*
X232975Y347756D01*
X231004D01*
X230846Y347913D01*
Y349724D01*
X231004Y349882D01*
X232975D01*
X233132Y349724D01*
D02*
G37*
G36*
X229783D02*
Y347913D01*
X229626Y347756D01*
X227655D01*
X227497Y347913D01*
Y349724D01*
X227655Y349882D01*
X229626D01*
X229783Y349724D01*
D02*
G37*
G36*
X159117Y349331D02*
Y347520D01*
X158959Y347362D01*
X156988D01*
X156831Y347520D01*
Y349331D01*
X156988Y349488D01*
X158959D01*
X159117Y349331D01*
D02*
G37*
G36*
X155768D02*
Y347520D01*
X155610Y347362D01*
X153639D01*
X153482Y347520D01*
Y349331D01*
X153639Y349488D01*
X155610D01*
X155768Y349331D01*
D02*
G37*
G36*
X61873D02*
Y347520D01*
X61715Y347362D01*
X59744D01*
X59587Y347520D01*
Y349331D01*
X59744Y349488D01*
X61715D01*
X61873Y349331D01*
D02*
G37*
G36*
X58524D02*
Y347520D01*
X58366Y347362D01*
X56395D01*
X56238Y347520D01*
Y349331D01*
X56395Y349488D01*
X58366D01*
X58524Y349331D01*
D02*
G37*
G36*
X596912Y349331D02*
Y347520D01*
X596754Y347362D01*
X594783D01*
X594626Y347520D01*
Y349331D01*
X594783Y349488D01*
X596754D01*
X596912Y349331D01*
D02*
G37*
G36*
X593563D02*
Y347520D01*
X593405Y347362D01*
X591434D01*
X591277Y347520D01*
Y349331D01*
X591434Y349488D01*
X593405D01*
X593563Y349331D01*
D02*
G37*
G36*
X499668D02*
Y347520D01*
X499510Y347362D01*
X497539D01*
X497382Y347520D01*
Y349331D01*
X497539Y349488D01*
X499510D01*
X499668Y349331D01*
D02*
G37*
G36*
X496319D02*
Y347520D01*
X496161Y347362D01*
X494190D01*
X494033Y347520D01*
Y349331D01*
X494190Y349488D01*
X496161D01*
X496319Y349331D01*
D02*
G37*
G36*
X378014D02*
Y347520D01*
X377857Y347362D01*
X375886D01*
X375728Y347520D01*
Y349331D01*
X375886Y349488D01*
X377857D01*
X378014Y349331D01*
D02*
G37*
G36*
X374665D02*
Y347520D01*
X374508Y347362D01*
X372537D01*
X372379Y347520D01*
Y349331D01*
X372537Y349488D01*
X374508D01*
X374665Y349331D01*
D02*
G37*
G36*
X280770D02*
Y347520D01*
X280613Y347362D01*
X278642D01*
X278484Y347520D01*
Y349331D01*
X278642Y349488D01*
X280613D01*
X280770Y349331D01*
D02*
G37*
G36*
X277421D02*
Y347520D01*
X277264Y347362D01*
X275293D01*
X275135Y347520D01*
Y349331D01*
X275293Y349488D01*
X277264D01*
X277421Y349331D01*
D02*
G37*
G36*
X159246Y325315D02*
Y323504D01*
X159088Y323346D01*
X157117D01*
X156960Y323504D01*
Y325315D01*
X157117Y325472D01*
X159088D01*
X159246Y325315D01*
D02*
G37*
G36*
X155897D02*
Y323504D01*
X155739Y323346D01*
X153768D01*
X153611Y323504D01*
Y325315D01*
X153768Y325472D01*
X155739D01*
X155897Y325315D01*
D02*
G37*
G36*
X111214D02*
Y323504D01*
X111057Y323346D01*
X109086D01*
X108928Y323504D01*
Y325315D01*
X109086Y325472D01*
X111057D01*
X111214Y325315D01*
D02*
G37*
G36*
X107865D02*
Y323504D01*
X107708Y323346D01*
X105737D01*
X105579Y323504D01*
Y325315D01*
X105737Y325472D01*
X107708D01*
X107865Y325315D01*
D02*
G37*
G36*
X62002D02*
Y323504D01*
X61844Y323346D01*
X59873D01*
X59716Y323504D01*
Y325315D01*
X59873Y325472D01*
X61844D01*
X62002Y325315D01*
D02*
G37*
G36*
X58653D02*
Y323504D01*
X58495Y323346D01*
X56524D01*
X56367Y323504D01*
Y325315D01*
X56524Y325472D01*
X58495D01*
X58653Y325315D01*
D02*
G37*
G36*
X13970D02*
Y323504D01*
X13813Y323346D01*
X11842D01*
X11684Y323504D01*
Y325315D01*
X11842Y325472D01*
X13813D01*
X13970Y325315D01*
D02*
G37*
G36*
X10621D02*
Y323504D01*
X10464Y323346D01*
X8493D01*
X8335Y323504D01*
Y325315D01*
X8493Y325472D01*
X10464D01*
X10621Y325315D01*
D02*
G37*
G36*
X597041Y325315D02*
Y323504D01*
X596884Y323346D01*
X594913D01*
X594755Y323504D01*
Y325315D01*
X594913Y325472D01*
X596884D01*
X597041Y325315D01*
D02*
G37*
G36*
X593692D02*
Y323504D01*
X593535Y323346D01*
X591564D01*
X591406Y323504D01*
Y325315D01*
X591564Y325472D01*
X593535D01*
X593692Y325315D01*
D02*
G37*
G36*
X549010D02*
Y323504D01*
X548852Y323346D01*
X546881D01*
X546724Y323504D01*
Y325315D01*
X546881Y325472D01*
X548852D01*
X549010Y325315D01*
D02*
G37*
G36*
X545661D02*
Y323504D01*
X545503Y323346D01*
X543532D01*
X543375Y323504D01*
Y325315D01*
X543532Y325472D01*
X545503D01*
X545661Y325315D01*
D02*
G37*
G36*
X499797D02*
Y323504D01*
X499640Y323346D01*
X497669D01*
X497511Y323504D01*
Y325315D01*
X497669Y325472D01*
X499640D01*
X499797Y325315D01*
D02*
G37*
G36*
X496448D02*
Y323504D01*
X496291Y323346D01*
X494320D01*
X494162Y323504D01*
Y325315D01*
X494320Y325472D01*
X496291D01*
X496448Y325315D01*
D02*
G37*
G36*
X451766D02*
Y323504D01*
X451608Y323346D01*
X449637D01*
X449480Y323504D01*
Y325315D01*
X449637Y325472D01*
X451608D01*
X451766Y325315D01*
D02*
G37*
G36*
X448417D02*
Y323504D01*
X448259Y323346D01*
X446288D01*
X446131Y323504D01*
Y325315D01*
X446288Y325472D01*
X448259D01*
X448417Y325315D01*
D02*
G37*
G36*
X378144D02*
Y323504D01*
X377986Y323346D01*
X376015D01*
X375857Y323504D01*
Y325315D01*
X376015Y325472D01*
X377986D01*
X378144Y325315D01*
D02*
G37*
G36*
X374795D02*
Y323504D01*
X374637Y323346D01*
X372666D01*
X372509Y323504D01*
Y325315D01*
X372666Y325472D01*
X374637D01*
X374795Y325315D01*
D02*
G37*
G36*
X330112D02*
Y323504D01*
X329955Y323346D01*
X327983D01*
X327826Y323504D01*
Y325315D01*
X327983Y325472D01*
X329955D01*
X330112Y325315D01*
D02*
G37*
G36*
X326763D02*
Y323504D01*
X326606Y323346D01*
X324635D01*
X324477Y323504D01*
Y325315D01*
X324635Y325472D01*
X326606D01*
X326763Y325315D01*
D02*
G37*
G36*
X280899D02*
Y323504D01*
X280742Y323346D01*
X278771D01*
X278613Y323504D01*
Y325315D01*
X278771Y325472D01*
X280742D01*
X280899Y325315D01*
D02*
G37*
G36*
X277550D02*
Y323504D01*
X277393Y323346D01*
X275422D01*
X275264Y323504D01*
Y325315D01*
X275422Y325472D01*
X277393D01*
X277550Y325315D01*
D02*
G37*
G36*
X232868D02*
Y323504D01*
X232710Y323346D01*
X230739D01*
X230582Y323504D01*
Y325315D01*
X230739Y325472D01*
X232710D01*
X232868Y325315D01*
D02*
G37*
G36*
X229519D02*
Y323504D01*
X229361Y323346D01*
X227390D01*
X227233Y323504D01*
Y325315D01*
X227390Y325472D01*
X229361D01*
X229519Y325315D01*
D02*
G37*
G36*
X159246Y319803D02*
Y317992D01*
X159088Y317835D01*
X157117D01*
X156960Y317992D01*
Y319803D01*
X157117Y319961D01*
X159088D01*
X159246Y319803D01*
D02*
G37*
G36*
X155897D02*
Y317992D01*
X155739Y317835D01*
X153768D01*
X153611Y317992D01*
Y319803D01*
X153768Y319961D01*
X155739D01*
X155897Y319803D01*
D02*
G37*
G36*
X111214D02*
Y317992D01*
X111057Y317835D01*
X109086D01*
X108928Y317992D01*
Y319803D01*
X109086Y319961D01*
X111057D01*
X111214Y319803D01*
D02*
G37*
G36*
X107865D02*
Y317992D01*
X107708Y317835D01*
X105737D01*
X105579Y317992D01*
Y319803D01*
X105737Y319961D01*
X107708D01*
X107865Y319803D01*
D02*
G37*
G36*
X62002D02*
Y317992D01*
X61844Y317835D01*
X59873D01*
X59716Y317992D01*
Y319803D01*
X59873Y319961D01*
X61844D01*
X62002Y319803D01*
D02*
G37*
G36*
X58653D02*
Y317992D01*
X58495Y317835D01*
X56524D01*
X56367Y317992D01*
Y319803D01*
X56524Y319961D01*
X58495D01*
X58653Y319803D01*
D02*
G37*
G36*
X13970D02*
Y317992D01*
X13813Y317835D01*
X11842D01*
X11684Y317992D01*
Y319803D01*
X11842Y319961D01*
X13813D01*
X13970Y319803D01*
D02*
G37*
G36*
X10621D02*
Y317992D01*
X10464Y317835D01*
X8493D01*
X8335Y317992D01*
Y319803D01*
X8493Y319961D01*
X10464D01*
X10621Y319803D01*
D02*
G37*
G36*
X597041Y319803D02*
Y317992D01*
X596884Y317835D01*
X594913D01*
X594755Y317992D01*
Y319803D01*
X594913Y319961D01*
X596884D01*
X597041Y319803D01*
D02*
G37*
G36*
X593692D02*
Y317992D01*
X593535Y317835D01*
X591564D01*
X591406Y317992D01*
Y319803D01*
X591564Y319961D01*
X593535D01*
X593692Y319803D01*
D02*
G37*
G36*
X549010D02*
Y317992D01*
X548852Y317835D01*
X546881D01*
X546724Y317992D01*
Y319803D01*
X546881Y319961D01*
X548852D01*
X549010Y319803D01*
D02*
G37*
G36*
X545661D02*
Y317992D01*
X545503Y317835D01*
X543532D01*
X543375Y317992D01*
Y319803D01*
X543532Y319961D01*
X545503D01*
X545661Y319803D01*
D02*
G37*
G36*
X499797D02*
Y317992D01*
X499640Y317835D01*
X497669D01*
X497511Y317992D01*
Y319803D01*
X497669Y319961D01*
X499640D01*
X499797Y319803D01*
D02*
G37*
G36*
X496448D02*
Y317992D01*
X496291Y317835D01*
X494320D01*
X494162Y317992D01*
Y319803D01*
X494320Y319961D01*
X496291D01*
X496448Y319803D01*
D02*
G37*
G36*
X451766D02*
Y317992D01*
X451608Y317835D01*
X449637D01*
X449480Y317992D01*
Y319803D01*
X449637Y319961D01*
X451608D01*
X451766Y319803D01*
D02*
G37*
G36*
X448417D02*
Y317992D01*
X448259Y317835D01*
X446288D01*
X446131Y317992D01*
Y319803D01*
X446288Y319961D01*
X448259D01*
X448417Y319803D01*
D02*
G37*
G36*
X378144D02*
Y317992D01*
X377986Y317835D01*
X376015D01*
X375857Y317992D01*
Y319803D01*
X376015Y319961D01*
X377986D01*
X378144Y319803D01*
D02*
G37*
G36*
X374795D02*
Y317992D01*
X374637Y317835D01*
X372666D01*
X372509Y317992D01*
Y319803D01*
X372666Y319961D01*
X374637D01*
X374795Y319803D01*
D02*
G37*
G36*
X330112D02*
Y317992D01*
X329955Y317835D01*
X327983D01*
X327826Y317992D01*
Y319803D01*
X327983Y319961D01*
X329955D01*
X330112Y319803D01*
D02*
G37*
G36*
X326763D02*
Y317992D01*
X326606Y317835D01*
X324635D01*
X324477Y317992D01*
Y319803D01*
X324635Y319961D01*
X326606D01*
X326763Y319803D01*
D02*
G37*
G36*
X280899D02*
Y317992D01*
X280742Y317835D01*
X278771D01*
X278613Y317992D01*
Y319803D01*
X278771Y319961D01*
X280742D01*
X280899Y319803D01*
D02*
G37*
G36*
X277550D02*
Y317992D01*
X277393Y317835D01*
X275422D01*
X275264Y317992D01*
Y319803D01*
X275422Y319961D01*
X277393D01*
X277550Y319803D01*
D02*
G37*
G36*
X232868D02*
Y317992D01*
X232710Y317835D01*
X230739D01*
X230582Y317992D01*
Y319803D01*
X230739Y319961D01*
X232710D01*
X232868Y319803D01*
D02*
G37*
G36*
X229519D02*
Y317992D01*
X229361Y317835D01*
X227390D01*
X227233Y317992D01*
Y319803D01*
X227390Y319961D01*
X229361D01*
X229519Y319803D01*
D02*
G37*
G36*
X140295Y289228D02*
Y283213D01*
X139901Y282819D01*
X134843D01*
X134449Y283213D01*
Y284670D01*
X134843Y285064D01*
X136043D01*
X136437Y285458D01*
Y286983D01*
X136043Y287377D01*
X134843D01*
X134449Y287771D01*
Y289228D01*
X134843Y289622D01*
X139901D01*
X140295Y289228D01*
D02*
G37*
G36*
X127756D02*
Y287771D01*
X127362Y287377D01*
X126162D01*
X125768Y286983D01*
Y285458D01*
X126162Y285064D01*
X127362D01*
X127756Y284670D01*
Y283213D01*
X127362Y282819D01*
X122303D01*
X121909Y283213D01*
Y289228D01*
X122303Y289622D01*
X127362D01*
X127756Y289228D01*
D02*
G37*
G36*
X140295Y279386D02*
Y273370D01*
X139901Y272976D01*
X134843D01*
X134449Y273370D01*
Y274828D01*
X134843Y275221D01*
X136043D01*
X136437Y275615D01*
Y277141D01*
X136043Y277535D01*
X134843D01*
X134449Y277928D01*
Y279386D01*
X134843Y279780D01*
X139901D01*
X140295Y279386D01*
D02*
G37*
G36*
X127756D02*
Y277928D01*
X127362Y277535D01*
X126162D01*
X125768Y277141D01*
Y275615D01*
X126162Y275221D01*
X127362D01*
X127756Y274828D01*
Y273370D01*
X127362Y272976D01*
X122303D01*
X121909Y273370D01*
Y279386D01*
X122303Y279780D01*
X127362D01*
X127756Y279386D01*
D02*
G37*
G36*
X15433Y273526D02*
Y271555D01*
X15276Y271398D01*
X13465D01*
X13307Y271555D01*
Y273526D01*
X13465Y273684D01*
X15276D01*
X15433Y273526D01*
D02*
G37*
G36*
Y270177D02*
Y268206D01*
X15276Y268049D01*
X13465D01*
X13307Y268206D01*
Y270177D01*
X13465Y270335D01*
X15276D01*
X15433Y270177D01*
D02*
G37*
G36*
X140295Y269543D02*
Y263527D01*
X139901Y263134D01*
X134843D01*
X134449Y263527D01*
Y264985D01*
X134843Y265379D01*
X136043D01*
X136437Y265773D01*
Y267298D01*
X136043Y267692D01*
X134843D01*
X134449Y268086D01*
Y269543D01*
X134843Y269937D01*
X139901D01*
X140295Y269543D01*
D02*
G37*
G36*
X127756D02*
Y268086D01*
X127362Y267692D01*
X126162D01*
X125768Y267298D01*
Y265773D01*
X126162Y265379D01*
X127362D01*
X127756Y264985D01*
Y263527D01*
X127362Y263134D01*
X122303D01*
X121909Y263527D01*
Y269543D01*
X122303Y269937D01*
X127362D01*
X127756Y269543D01*
D02*
G37*
G36*
X17778Y238012D02*
Y236201D01*
X17621Y236043D01*
X15650D01*
X15492Y236201D01*
Y238012D01*
X15650Y238169D01*
X17621D01*
X17778Y238012D01*
D02*
G37*
G36*
X14429D02*
Y236201D01*
X14272Y236043D01*
X12301D01*
X12143Y236201D01*
Y238012D01*
X12301Y238169D01*
X14272D01*
X14429Y238012D01*
D02*
G37*
G36*
X11220Y238268D02*
Y235118D01*
X11024Y234921D01*
X10071D01*
Y236378D01*
X8772D01*
Y234921D01*
X7874D01*
X7677Y235118D01*
Y238268D01*
X7874Y238465D01*
X11024D01*
X11220Y238268D01*
D02*
G37*
G36*
X26260Y235337D02*
Y233366D01*
X26102Y233209D01*
X24291D01*
X24134Y233366D01*
Y235337D01*
X24291Y235495D01*
X26102D01*
X26260Y235337D01*
D02*
G37*
G36*
X11220Y232008D02*
Y228858D01*
X11023Y228661D01*
X7874D01*
X7677Y228858D01*
Y232008D01*
X7874Y232205D01*
X8827D01*
Y230748D01*
X10126D01*
Y232205D01*
X11023D01*
X11220Y232008D01*
D02*
G37*
G36*
X26260Y231988D02*
Y230017D01*
X26102Y229860D01*
X24291D01*
X24134Y230017D01*
Y231988D01*
X24291Y232146D01*
X26102D01*
X26260Y231988D01*
D02*
G37*
G36*
X46870Y232047D02*
Y227008D01*
X46673Y226811D01*
X42145D01*
X41949Y227008D01*
X41929Y228622D01*
X43701D01*
Y230394D01*
X41968D01*
X41949Y232047D01*
X42145Y232244D01*
X46673D01*
X46870Y232047D01*
D02*
G37*
G36*
X38366Y232047D02*
X38386Y230433D01*
X36614D01*
Y228661D01*
X38347D01*
X38366Y227008D01*
X38170Y226811D01*
X33642D01*
X33445Y227008D01*
Y232047D01*
X33642Y232244D01*
X38170D01*
X38366Y232047D01*
D02*
G37*
G36*
X46870Y224961D02*
Y219921D01*
X46673Y219724D01*
X42145D01*
X41949Y219921D01*
X41929Y221536D01*
X43701D01*
Y223307D01*
X41968D01*
X41949Y224961D01*
X42145Y225157D01*
X46673D01*
X46870Y224961D01*
D02*
G37*
G36*
X38366Y224961D02*
X38386Y223346D01*
X36614D01*
Y221575D01*
X38347D01*
X38366Y219921D01*
X38170Y219724D01*
X33642D01*
X33445Y219921D01*
Y224961D01*
X33642Y225157D01*
X38170D01*
X38366Y224961D01*
D02*
G37*
G36*
X26654Y215652D02*
Y213681D01*
X26496Y213524D01*
X24685D01*
X24528Y213681D01*
Y215652D01*
X24685Y215810D01*
X26496D01*
X26654Y215652D01*
D02*
G37*
G36*
X12756Y215457D02*
Y213486D01*
X12598Y213328D01*
X10787D01*
X10630Y213486D01*
Y215457D01*
X10787Y215614D01*
X12598D01*
X12756Y215457D01*
D02*
G37*
G36*
X46870Y217874D02*
Y212835D01*
X46673Y212638D01*
X42145D01*
X41949Y212835D01*
X41929Y214449D01*
X43701D01*
Y216221D01*
X41968D01*
X41949Y217874D01*
X42145Y218071D01*
X46673D01*
X46870Y217874D01*
D02*
G37*
G36*
X38366Y217874D02*
X38386Y216260D01*
X36614D01*
Y214488D01*
X38347D01*
X38366Y212835D01*
X38170Y212638D01*
X33642D01*
X33445Y212835D01*
Y217874D01*
X33642Y218071D01*
X38170D01*
X38366Y217874D01*
D02*
G37*
G36*
X26654Y212303D02*
Y210332D01*
X26496Y210175D01*
X24685D01*
X24528Y210332D01*
Y212303D01*
X24685Y212461D01*
X26496D01*
X26654Y212303D01*
D02*
G37*
G36*
X12756Y212108D02*
Y210137D01*
X12598Y209979D01*
X10787D01*
X10630Y210137D01*
Y212108D01*
X10787Y212265D01*
X12598D01*
X12756Y212108D01*
D02*
G37*
G36*
X17598Y209747D02*
Y207776D01*
X17441Y207618D01*
X15630D01*
X15472Y207776D01*
Y209747D01*
X15630Y209904D01*
X17441D01*
X17598Y209747D01*
D02*
G37*
G36*
X14055Y208172D02*
Y206201D01*
X13898Y206043D01*
X12087D01*
X11929Y206201D01*
Y208172D01*
X12087Y208329D01*
X13898D01*
X14055Y208172D01*
D02*
G37*
G36*
X46870Y210787D02*
Y205748D01*
X46673Y205551D01*
X42145D01*
X41949Y205748D01*
X41929Y207362D01*
X43701D01*
Y209134D01*
X41968D01*
X41949Y210787D01*
X42145Y210984D01*
X46673D01*
X46870Y210787D01*
D02*
G37*
G36*
X38366Y210787D02*
X38386Y209173D01*
X36614D01*
Y207401D01*
X38347D01*
X38366Y205748D01*
X38170Y205551D01*
X33642D01*
X33445Y205748D01*
Y210787D01*
X33642Y210984D01*
X38170D01*
X38366Y210787D01*
D02*
G37*
G36*
X17598Y206398D02*
Y204427D01*
X17441Y204269D01*
X15630D01*
X15472Y204427D01*
Y206398D01*
X15630Y206555D01*
X17441D01*
X17598Y206398D01*
D02*
G37*
G36*
X14055Y204823D02*
Y202852D01*
X13898Y202694D01*
X12087D01*
X11929Y202852D01*
Y204823D01*
X12087Y204980D01*
X13898D01*
X14055Y204823D01*
D02*
G37*
G36*
X24077Y204055D02*
Y202244D01*
X23920Y202087D01*
X21949D01*
X21791Y202244D01*
Y204055D01*
X21949Y204213D01*
X23920D01*
X24077Y204055D01*
D02*
G37*
G36*
X20728D02*
Y202244D01*
X20571Y202087D01*
X18600D01*
X18442Y202244D01*
Y204055D01*
X18600Y204213D01*
X20571D01*
X20728Y204055D01*
D02*
G37*
G36*
X74342Y193032D02*
Y191220D01*
X74184Y191063D01*
X72213D01*
X72056Y191220D01*
Y193032D01*
X72213Y193189D01*
X74184D01*
X74342Y193032D01*
D02*
G37*
G36*
X70993D02*
Y191220D01*
X70835Y191063D01*
X68864D01*
X68707Y191220D01*
Y193032D01*
X68864Y193189D01*
X70835D01*
X70993Y193032D01*
D02*
G37*
G36*
X53248Y192928D02*
Y190957D01*
X53091Y190799D01*
X51279D01*
X51122Y190957D01*
Y192928D01*
X51279Y193085D01*
X53091D01*
X53248Y192928D01*
D02*
G37*
G36*
X59882Y193024D02*
Y192071D01*
X58425D01*
Y190772D01*
X59882D01*
Y189874D01*
X59685Y189677D01*
X56535D01*
X56339Y189874D01*
Y193024D01*
X56535Y193220D01*
X59685D01*
X59882Y193024D01*
D02*
G37*
G36*
X66142Y193024D02*
Y189874D01*
X65945Y189677D01*
X62795D01*
X62598Y189874D01*
Y190827D01*
X64055D01*
Y192126D01*
X62598D01*
Y193024D01*
X62795Y193220D01*
X65945D01*
X66142Y193024D01*
D02*
G37*
G36*
X53248Y189579D02*
Y187608D01*
X53091Y187450D01*
X51279D01*
X51122Y187608D01*
Y189579D01*
X51279Y189736D01*
X53091D01*
X53248Y189579D01*
D02*
G37*
G36*
X25646Y184971D02*
X25621D01*
Y184925D01*
X20699D01*
Y186303D01*
X20725D01*
Y186349D01*
X25646D01*
Y184971D01*
D02*
G37*
G36*
Y182412D02*
X25621D01*
Y182366D01*
X20699D01*
Y183744D01*
X20725D01*
Y183790D01*
X25646D01*
Y182412D01*
D02*
G37*
G36*
X53248Y184266D02*
Y182295D01*
X53091Y182138D01*
X51279D01*
X51122Y182295D01*
Y184266D01*
X51279Y184424D01*
X53091D01*
X53248Y184266D01*
D02*
G37*
G36*
X25646Y179853D02*
X25621D01*
Y179807D01*
X20699D01*
Y181185D01*
X20725D01*
Y181231D01*
X25646D01*
Y179853D01*
D02*
G37*
G36*
X53248Y180917D02*
Y178946D01*
X53091Y178789D01*
X51279D01*
X51122Y178946D01*
Y180917D01*
X51279Y181075D01*
X53091D01*
X53248Y180917D01*
D02*
G37*
G36*
X25646Y177294D02*
X25621D01*
Y177248D01*
X20699D01*
Y178626D01*
X20725D01*
Y178672D01*
X25646D01*
Y177294D01*
D02*
G37*
G36*
Y174735D02*
X25621D01*
Y174689D01*
X20699D01*
Y176067D01*
X20725D01*
Y176113D01*
X25646D01*
Y174735D01*
D02*
G37*
G36*
X481299Y126181D02*
X475787D01*
Y126575D01*
X472244D01*
Y128543D01*
X475787D01*
Y128937D01*
X481299D01*
Y126181D01*
D02*
G37*
G36*
X437598Y128543D02*
X441142D01*
Y126575D01*
X437598D01*
Y126181D01*
X432087D01*
Y128937D01*
X437598D01*
Y128543D01*
D02*
G37*
G36*
X485315Y127592D02*
Y125621D01*
X485157Y125464D01*
X483347D01*
X483189Y125621D01*
Y127592D01*
X483347Y127750D01*
X485157D01*
X485315Y127592D01*
D02*
G37*
G36*
Y124243D02*
Y122272D01*
X485157Y122115D01*
X483347D01*
X483189Y122272D01*
Y124243D01*
X483347Y124401D01*
X485157D01*
X485315Y124243D01*
D02*
G37*
G36*
X481299Y121653D02*
X475787D01*
Y122047D01*
X472244D01*
Y124409D01*
X475787D01*
Y124803D01*
X481299D01*
Y121653D01*
D02*
G37*
G36*
X437598Y124409D02*
X441142D01*
Y122047D01*
X437598D01*
Y121653D01*
X432087D01*
Y124803D01*
X437598D01*
Y124409D01*
D02*
G37*
G36*
X485315Y119589D02*
Y117618D01*
X485157Y117461D01*
X483347D01*
X483189Y117618D01*
Y119589D01*
X483347Y119747D01*
X485157D01*
X485315Y119589D01*
D02*
G37*
G36*
X481299Y117323D02*
X475787D01*
Y117717D01*
X472244D01*
Y120079D01*
X475787D01*
Y120472D01*
X481299D01*
Y117323D01*
D02*
G37*
G36*
X437598Y120079D02*
X441142D01*
Y117717D01*
X437598D01*
Y117323D01*
X432087D01*
Y120472D01*
X437598D01*
Y120079D01*
D02*
G37*
G36*
X60174Y118920D02*
Y116949D01*
X60017Y116791D01*
X58206D01*
X58048Y116949D01*
Y118920D01*
X58206Y119077D01*
X60017D01*
X60174Y118920D01*
D02*
G37*
G36*
X485315Y116240D02*
Y114269D01*
X485157Y114112D01*
X483347D01*
X483189Y114269D01*
Y116240D01*
X483347Y116398D01*
X485157D01*
X485315Y116240D01*
D02*
G37*
G36*
X60174Y115571D02*
Y113600D01*
X60017Y113442D01*
X58206D01*
X58048Y113600D01*
Y115571D01*
X58206Y115728D01*
X60017D01*
X60174Y115571D01*
D02*
G37*
G36*
X481299Y112992D02*
X475787D01*
Y113386D01*
X472244D01*
Y115748D01*
X475787D01*
Y116142D01*
X481299D01*
Y112992D01*
D02*
G37*
G36*
X437598Y115748D02*
X441142D01*
Y113386D01*
X437598D01*
Y112992D01*
X432087D01*
Y116142D01*
X437598D01*
Y115748D01*
D02*
G37*
G36*
X481299Y108661D02*
X475787D01*
Y109055D01*
X472244D01*
Y111417D01*
X475787D01*
Y111811D01*
X481299D01*
Y108661D01*
D02*
G37*
G36*
X437598Y111417D02*
X441142D01*
Y109055D01*
X437598D01*
Y108661D01*
X432087D01*
Y111811D01*
X437598D01*
Y111417D01*
D02*
G37*
G36*
X481299Y104331D02*
X475787D01*
Y104724D01*
X472244D01*
Y107087D01*
X475787D01*
Y107480D01*
X481299D01*
Y104331D01*
D02*
G37*
G36*
X437598Y107087D02*
X441142D01*
Y104724D01*
X437598D01*
Y104331D01*
X432087D01*
Y107480D01*
X437598D01*
Y107087D01*
D02*
G37*
G36*
X481299Y100000D02*
X475787D01*
Y100394D01*
X472244D01*
Y102756D01*
X475787D01*
Y103150D01*
X481299D01*
Y100000D01*
D02*
G37*
G36*
X437598Y102756D02*
X441142D01*
Y100394D01*
X437598D01*
Y100000D01*
X432087D01*
Y103150D01*
X437598D01*
Y102756D01*
D02*
G37*
G36*
X481299Y95669D02*
X475787D01*
Y96063D01*
X472244D01*
Y98425D01*
X475787D01*
Y98819D01*
X481299D01*
Y95669D01*
D02*
G37*
G36*
X437598Y98425D02*
X441142D01*
Y96063D01*
X437598D01*
Y95669D01*
X432087D01*
Y98819D01*
X437598D01*
Y98425D01*
D02*
G37*
G36*
X481299Y91535D02*
X475787D01*
Y91929D01*
X472244D01*
Y93898D01*
X475787D01*
Y94291D01*
X481299D01*
Y91535D01*
D02*
G37*
G36*
X437598Y93898D02*
X441142D01*
Y91929D01*
X437598D01*
Y91535D01*
X432087D01*
Y94291D01*
X437598D01*
Y93898D01*
D02*
G37*
G36*
X71466Y71284D02*
X71385Y70547D01*
X70729D01*
X70648Y70629D01*
Y71284D01*
X70729Y71366D01*
X71385D01*
X71466Y71284D01*
D02*
G37*
G36*
X69892D02*
X69810Y70547D01*
X69155D01*
X69073Y70629D01*
Y71284D01*
X69155Y71366D01*
X69810D01*
X69892Y71284D01*
D02*
G37*
G36*
X80961Y72256D02*
Y70445D01*
X80804Y70287D01*
X78833D01*
X78675Y70445D01*
Y72256D01*
X78833Y72413D01*
X80804D01*
X80961Y72256D01*
D02*
G37*
G36*
X77612D02*
Y70445D01*
X77455Y70287D01*
X75484D01*
X75326Y70445D01*
Y72256D01*
X75484Y72413D01*
X77455D01*
X77612Y72256D01*
D02*
G37*
G36*
X71466Y69709D02*
X71385Y68972D01*
X70729D01*
X70648Y69054D01*
Y69709D01*
X70729Y69791D01*
X71385D01*
X71466Y69709D01*
D02*
G37*
G36*
X69892D02*
X69810Y68972D01*
X69155D01*
X69073Y69054D01*
Y69709D01*
X69155Y69791D01*
X69810D01*
X69892Y69709D01*
D02*
G37*
G36*
X87140Y55701D02*
X81392D01*
Y61449D01*
X87140D01*
Y55701D01*
D02*
G37*
G36*
X78045D02*
X72297D01*
Y61449D01*
X78045D01*
Y55701D01*
D02*
G37*
G36*
X111693Y53447D02*
Y51476D01*
X111535Y51319D01*
X109724D01*
X109567Y51476D01*
Y53447D01*
X109724Y53605D01*
X111535D01*
X111693Y53447D01*
D02*
G37*
G36*
Y50098D02*
Y48127D01*
X111535Y47970D01*
X109724D01*
X109567Y48127D01*
Y50098D01*
X109724Y50256D01*
X111535D01*
X111693Y50098D01*
D02*
G37*
G36*
X87140Y46606D02*
X81392D01*
Y52354D01*
X87140D01*
Y46606D01*
D02*
G37*
G36*
X78045D02*
X72297D01*
Y52354D01*
X78045D01*
Y46606D01*
D02*
G37*
D22*
X228346Y271260D02*
D03*
X233465Y271260D02*
D03*
X238583Y271260D02*
D03*
X243701D02*
D03*
X228346Y249213D02*
D03*
X233465Y249213D02*
D03*
X238583Y249213D02*
D03*
X243701D02*
D03*
X250984Y271260D02*
D03*
X256102Y271260D02*
D03*
X261221Y271260D02*
D03*
X266339D02*
D03*
X250984Y249213D02*
D03*
X256102Y249213D02*
D03*
X261221Y249213D02*
D03*
X266339D02*
D03*
X273819Y271260D02*
D03*
X278937D02*
D03*
X284055Y271260D02*
D03*
X289173Y271260D02*
D03*
X273819Y249213D02*
D03*
X278937D02*
D03*
X284055Y249213D02*
D03*
X289173Y249213D02*
D03*
X296457Y271260D02*
D03*
X301575Y271260D02*
D03*
X306693Y271260D02*
D03*
X311811D02*
D03*
X296457Y249213D02*
D03*
X301575Y249213D02*
D03*
X306693Y249213D02*
D03*
X311811D02*
D03*
X319291Y271260D02*
D03*
X324409Y271260D02*
D03*
X329527Y271260D02*
D03*
X334646D02*
D03*
X319291Y249213D02*
D03*
X324409Y249213D02*
D03*
X329527Y249213D02*
D03*
X334646D02*
D03*
X342126Y271260D02*
D03*
X347244D02*
D03*
X352362Y271260D02*
D03*
X357480Y271260D02*
D03*
X342126Y249213D02*
D03*
X347244D02*
D03*
X352362Y249213D02*
D03*
X357480Y249213D02*
D03*
X364961Y271260D02*
D03*
X370079D02*
D03*
X375197Y271260D02*
D03*
X380315Y271260D02*
D03*
X364961Y249213D02*
D03*
X370079D02*
D03*
X375197Y249213D02*
D03*
X380315Y249213D02*
D03*
X387598Y271260D02*
D03*
X392717Y271260D02*
D03*
X397835Y271260D02*
D03*
X402953D02*
D03*
X387598Y249213D02*
D03*
X392717Y249213D02*
D03*
X397835Y249213D02*
D03*
X402953D02*
D03*
D23*
X230906Y271260D02*
D03*
X236024Y271260D02*
D03*
X241142D02*
D03*
X230906Y249213D02*
D03*
X236024D02*
D03*
X241142Y249213D02*
D03*
X253543Y271260D02*
D03*
X258662Y271260D02*
D03*
X263779Y271260D02*
D03*
X253543Y249213D02*
D03*
X258662Y249213D02*
D03*
X263779Y249212D02*
D03*
X276378Y271260D02*
D03*
X281496Y271260D02*
D03*
X286614D02*
D03*
X276378Y249213D02*
D03*
X281496D02*
D03*
X286614Y249213D02*
D03*
X299016Y271260D02*
D03*
X304134Y271260D02*
D03*
X309252Y271260D02*
D03*
X299016Y249213D02*
D03*
X304134Y249213D02*
D03*
X309252Y249212D02*
D03*
X321850Y271260D02*
D03*
X326969Y271260D02*
D03*
X332087D02*
D03*
X321850Y249213D02*
D03*
X326969D02*
D03*
X332086Y249213D02*
D03*
X344685Y271260D02*
D03*
X349803Y271260D02*
D03*
X354921Y271260D02*
D03*
X344685Y249213D02*
D03*
X349803Y249213D02*
D03*
X354921Y249213D02*
D03*
X367520Y271260D02*
D03*
X372638Y271260D02*
D03*
X377756Y271260D02*
D03*
X367520Y249213D02*
D03*
X372638Y249213D02*
D03*
X377756Y249213D02*
D03*
X390158Y271260D02*
D03*
X395276Y271260D02*
D03*
X400394Y271260D02*
D03*
X390158Y249213D02*
D03*
X395276Y249213D02*
D03*
X400394Y249213D02*
D03*
D24*
X44055Y94142D02*
D03*
Y129992D02*
D03*
D25*
X54584Y146712D02*
D03*
X44741D02*
D03*
D26*
X74994Y28634D02*
D03*
X83656D02*
D03*
Y21941D02*
D03*
X74994D02*
D03*
D27*
X23185Y185660D02*
D03*
Y183101D02*
D03*
Y180542D02*
D03*
Y177983D02*
D03*
Y175424D02*
D03*
D28*
X56929Y179331D02*
D03*
Y181299D02*
D03*
Y183267D02*
D03*
Y185237D02*
D03*
X61969D02*
D03*
Y183267D02*
D03*
Y181299D02*
D03*
Y179331D02*
D03*
D29*
X69482Y70956D02*
D03*
Y69382D02*
D03*
X71056Y70956D02*
D03*
Y69382D02*
D03*
D30*
X71057Y66035D02*
D03*
X72632D02*
D03*
X74207D02*
D03*
X75781D02*
D03*
X77356D02*
D03*
X78931D02*
D03*
X80506D02*
D03*
X82081D02*
D03*
X83655D02*
D03*
X85230D02*
D03*
X86805D02*
D03*
X88380D02*
D03*
Y42217D02*
D03*
X86805D02*
D03*
X85230D02*
D03*
X83655D02*
D03*
X82081D02*
D03*
X80506D02*
D03*
X78931D02*
D03*
X77356D02*
D03*
X75781D02*
D03*
X74207D02*
D03*
X72632D02*
D03*
X71057D02*
D03*
D31*
X91529Y62689D02*
D03*
Y61114D02*
D03*
Y59539D02*
D03*
Y57965D02*
D03*
Y56390D02*
D03*
Y54815D02*
D03*
Y53240D02*
D03*
Y51665D02*
D03*
Y50091D02*
D03*
Y48516D02*
D03*
Y46941D02*
D03*
Y45366D02*
D03*
X67907D02*
D03*
Y46941D02*
D03*
Y48516D02*
D03*
Y50091D02*
D03*
Y51665D02*
D03*
Y53240D02*
D03*
Y54815D02*
D03*
Y56390D02*
D03*
Y57965D02*
D03*
Y59539D02*
D03*
Y61114D02*
D03*
Y62689D02*
D03*
D32*
X66337Y144725D02*
D03*
Y142757D02*
D03*
Y140788D02*
D03*
Y138820D02*
D03*
Y136851D02*
D03*
Y134883D02*
D03*
Y132914D02*
D03*
Y130946D02*
D03*
Y128977D02*
D03*
Y127009D02*
D03*
Y125040D02*
D03*
Y123071D02*
D03*
Y121103D02*
D03*
Y119134D02*
D03*
Y117166D02*
D03*
Y115197D02*
D03*
Y113229D02*
D03*
Y111260D02*
D03*
Y109292D02*
D03*
Y107323D02*
D03*
Y105355D02*
D03*
Y103386D02*
D03*
Y101418D02*
D03*
Y99449D02*
D03*
Y97481D02*
D03*
X125785D02*
D03*
Y99449D02*
D03*
Y101418D02*
D03*
Y103386D02*
D03*
Y105355D02*
D03*
Y107323D02*
D03*
Y109292D02*
D03*
Y111260D02*
D03*
Y113229D02*
D03*
Y115197D02*
D03*
Y117166D02*
D03*
Y119134D02*
D03*
Y121103D02*
D03*
Y123071D02*
D03*
Y125040D02*
D03*
Y127009D02*
D03*
Y128977D02*
D03*
Y130946D02*
D03*
Y132914D02*
D03*
Y134883D02*
D03*
Y136851D02*
D03*
Y138820D02*
D03*
Y140788D02*
D03*
Y142757D02*
D03*
Y144725D02*
D03*
D33*
X72439Y91379D02*
D03*
X74407D02*
D03*
X76376D02*
D03*
X78344D02*
D03*
X80313D02*
D03*
X82281D02*
D03*
X84250D02*
D03*
X86218D02*
D03*
X88187D02*
D03*
X90155D02*
D03*
X92124D02*
D03*
X94093D02*
D03*
X96061D02*
D03*
X98030D02*
D03*
X99998D02*
D03*
X101967D02*
D03*
X103935D02*
D03*
X105904D02*
D03*
X107872D02*
D03*
X109841D02*
D03*
X111809D02*
D03*
X113777D02*
D03*
X115746D02*
D03*
X117715D02*
D03*
X119683D02*
D03*
Y150827D02*
D03*
X117715D02*
D03*
X115746D02*
D03*
X113777D02*
D03*
X111809D02*
D03*
X109841D02*
D03*
X107872D02*
D03*
X105904D02*
D03*
X103935D02*
D03*
X101967D02*
D03*
X99998D02*
D03*
X98030D02*
D03*
X96061D02*
D03*
X94093D02*
D03*
X92124D02*
D03*
X90155D02*
D03*
X88187D02*
D03*
X86218D02*
D03*
X84250D02*
D03*
X82281D02*
D03*
X80313D02*
D03*
X78344D02*
D03*
X76376D02*
D03*
X74407D02*
D03*
X72439D02*
D03*
D34*
X193543Y271579D02*
D03*
X196102D02*
D03*
X198661D02*
D03*
X201220D02*
D03*
X203779D02*
D03*
X206338D02*
D03*
X208897D02*
D03*
X211456D02*
D03*
X214016D02*
D03*
X216575D02*
D03*
X219134D02*
D03*
X221693D02*
D03*
Y248744D02*
D03*
X219134D02*
D03*
X216575D02*
D03*
X214016D02*
D03*
X211456D02*
D03*
X208897D02*
D03*
X206338D02*
D03*
X203779D02*
D03*
X201220D02*
D03*
X198661D02*
D03*
X196102D02*
D03*
X193543D02*
D03*
X159685Y271579D02*
D03*
X162244D02*
D03*
X164803D02*
D03*
X167362D02*
D03*
X169921D02*
D03*
X172480D02*
D03*
X175039D02*
D03*
X177598D02*
D03*
X180157D02*
D03*
X182716D02*
D03*
X185275D02*
D03*
X187834D02*
D03*
Y248744D02*
D03*
X185275D02*
D03*
X182716D02*
D03*
X180157D02*
D03*
X177598D02*
D03*
X175039D02*
D03*
X172480D02*
D03*
X169921D02*
D03*
X167362D02*
D03*
X164803D02*
D03*
X162244D02*
D03*
X159685D02*
D03*
D35*
X18504Y222146D02*
D03*
D36*
X22441Y230512D02*
D03*
X20472D02*
D03*
X18504D02*
D03*
X16535D02*
D03*
X14567D02*
D03*
X22441Y213780D02*
D03*
X20472D02*
D03*
X18504D02*
D03*
X16535D02*
D03*
X14567D02*
D03*
D37*
X106890Y215138D02*
D03*
X97047D02*
D03*
X87205D02*
D03*
X77362D02*
D03*
X67520D02*
D03*
X57677D02*
D03*
Y295098D02*
D03*
X67520D02*
D03*
X77362D02*
D03*
X87205D02*
D03*
X97047D02*
D03*
X106890D02*
D03*
D38*
X420574Y16929D02*
D03*
X396952D02*
D03*
X420574Y31495D02*
D03*
X396952D02*
D03*
X360236Y16929D02*
D03*
X336614D02*
D03*
X360236Y31495D02*
D03*
X336614D02*
D03*
X299899Y16929D02*
D03*
X276276D02*
D03*
X299899Y31495D02*
D03*
X276276D02*
D03*
X239561Y16929D02*
D03*
X215939D02*
D03*
X239561Y31495D02*
D03*
X215939D02*
D03*
X179223Y16929D02*
D03*
X155601D02*
D03*
X179223Y31495D02*
D03*
X155601D02*
D03*
X124272Y53779D02*
D03*
X147894D02*
D03*
X124272Y39213D02*
D03*
X147894D02*
D03*
D39*
X73228Y192126D02*
D03*
X69820D02*
D03*
X76439Y71350D02*
D03*
X79848D02*
D03*
X9449Y324410D02*
D03*
X12857D02*
D03*
X106693D02*
D03*
X110101D02*
D03*
X228346Y324409D02*
D03*
X231754D02*
D03*
X325590D02*
D03*
X328998D02*
D03*
X447244D02*
D03*
X450652D02*
D03*
X544488D02*
D03*
X547896D02*
D03*
X9449Y318898D02*
D03*
X12857D02*
D03*
X106693D02*
D03*
X110101D02*
D03*
X228346Y318898D02*
D03*
X231754D02*
D03*
X325590D02*
D03*
X328998D02*
D03*
X447244D02*
D03*
X450652D02*
D03*
X544488D02*
D03*
X547896D02*
D03*
X57480Y324410D02*
D03*
X60888D02*
D03*
X154724D02*
D03*
X158132D02*
D03*
X276378Y324409D02*
D03*
X279786D02*
D03*
X373622D02*
D03*
X377030D02*
D03*
X495276D02*
D03*
X498684D02*
D03*
X592520D02*
D03*
X595928D02*
D03*
X57480Y318898D02*
D03*
X60888D02*
D03*
X154724D02*
D03*
X158132D02*
D03*
X276378Y318898D02*
D03*
X279786D02*
D03*
X373622D02*
D03*
X377030D02*
D03*
X495276D02*
D03*
X498684D02*
D03*
X592520D02*
D03*
X595928D02*
D03*
X9713Y354331D02*
D03*
X13121D02*
D03*
X106957D02*
D03*
X110365D02*
D03*
X228611Y354331D02*
D03*
X232019D02*
D03*
X325855D02*
D03*
X329263D02*
D03*
X447509D02*
D03*
X450917D02*
D03*
X544753D02*
D03*
X548161D02*
D03*
X9713Y348819D02*
D03*
X13121D02*
D03*
X106957D02*
D03*
X110365D02*
D03*
X228611Y348819D02*
D03*
X232019D02*
D03*
X325855D02*
D03*
X329263D02*
D03*
X447509D02*
D03*
X450917D02*
D03*
X544753D02*
D03*
X548161D02*
D03*
X57351Y353937D02*
D03*
X60759D02*
D03*
X154595D02*
D03*
X158003D02*
D03*
X276249Y353937D02*
D03*
X279657D02*
D03*
X373493D02*
D03*
X376901D02*
D03*
X495146D02*
D03*
X498554D02*
D03*
X592390D02*
D03*
X595798D02*
D03*
X57351Y348425D02*
D03*
X60759D02*
D03*
X154595D02*
D03*
X158003D02*
D03*
X276249Y348425D02*
D03*
X279657D02*
D03*
X373493D02*
D03*
X376901D02*
D03*
X495146D02*
D03*
X498554D02*
D03*
X592390D02*
D03*
X595798D02*
D03*
X9584Y384252D02*
D03*
X12992D02*
D03*
X106828D02*
D03*
X110236D02*
D03*
X228482Y384252D02*
D03*
X231890D02*
D03*
X325726D02*
D03*
X329134D02*
D03*
X447379D02*
D03*
X450787D02*
D03*
X544624D02*
D03*
X548032D02*
D03*
X9584Y378740D02*
D03*
X12992D02*
D03*
X106828D02*
D03*
X110236D02*
D03*
X228482Y378740D02*
D03*
X231890D02*
D03*
X325726D02*
D03*
X329134D02*
D03*
X447379D02*
D03*
X450787D02*
D03*
X544624D02*
D03*
X548032D02*
D03*
X57480Y384252D02*
D03*
X60888D02*
D03*
X154724D02*
D03*
X158132D02*
D03*
X276378Y384252D02*
D03*
X279786D02*
D03*
X373622D02*
D03*
X377030D02*
D03*
X495276D02*
D03*
X498684D02*
D03*
X592520D02*
D03*
X595928D02*
D03*
X57480Y378740D02*
D03*
X60888D02*
D03*
X154724D02*
D03*
X158132D02*
D03*
X276378Y378740D02*
D03*
X279786D02*
D03*
X373622D02*
D03*
X377030D02*
D03*
X495276D02*
D03*
X498684D02*
D03*
X592520D02*
D03*
X595928D02*
D03*
X10205Y492520D02*
D03*
X13613D02*
D03*
X107449D02*
D03*
X110857D02*
D03*
X229103Y492520D02*
D03*
X232511D02*
D03*
X326347D02*
D03*
X329755D02*
D03*
X448001D02*
D03*
X451409D02*
D03*
X545245D02*
D03*
X548653D02*
D03*
X10205Y487008D02*
D03*
X13613D02*
D03*
X107449D02*
D03*
X110857D02*
D03*
X229103Y487008D02*
D03*
X232511D02*
D03*
X326347D02*
D03*
X329755D02*
D03*
X448001D02*
D03*
X451409D02*
D03*
X545245D02*
D03*
X548653D02*
D03*
X10993Y522047D02*
D03*
X14401D02*
D03*
X108237D02*
D03*
X111645D02*
D03*
X229890Y522047D02*
D03*
X233298D02*
D03*
X327135D02*
D03*
X330543D02*
D03*
X448788D02*
D03*
X452196D02*
D03*
X546032D02*
D03*
X549440D02*
D03*
X10993Y516535D02*
D03*
X14401D02*
D03*
X108237D02*
D03*
X111645D02*
D03*
X229890Y516535D02*
D03*
X233298D02*
D03*
X327135D02*
D03*
X330543D02*
D03*
X448788D02*
D03*
X452196D02*
D03*
X546032D02*
D03*
X549440D02*
D03*
X57745Y492520D02*
D03*
X61153D02*
D03*
X154989D02*
D03*
X158397D02*
D03*
X276642Y492520D02*
D03*
X280050D02*
D03*
X373886D02*
D03*
X377294D02*
D03*
X495540D02*
D03*
X498948D02*
D03*
X592784D02*
D03*
X596192D02*
D03*
X57745Y487008D02*
D03*
X61153D02*
D03*
X154989D02*
D03*
X158397D02*
D03*
X276642Y487008D02*
D03*
X280050D02*
D03*
X373886D02*
D03*
X377294D02*
D03*
X495540D02*
D03*
X498948D02*
D03*
X592784D02*
D03*
X596192D02*
D03*
X57526Y522441D02*
D03*
X60934D02*
D03*
X154770D02*
D03*
X158178D02*
D03*
X276423Y522441D02*
D03*
X279831D02*
D03*
X373668D02*
D03*
X377076D02*
D03*
X495321D02*
D03*
X498729D02*
D03*
X592565D02*
D03*
X595973D02*
D03*
X57526Y516929D02*
D03*
X60934D02*
D03*
X154770D02*
D03*
X158178D02*
D03*
X276423Y516929D02*
D03*
X279831D02*
D03*
X373668D02*
D03*
X377076D02*
D03*
X495321D02*
D03*
X498729D02*
D03*
X592565D02*
D03*
X595973D02*
D03*
X16665Y237106D02*
D03*
X13257D02*
D03*
X19556Y203150D02*
D03*
X22964D02*
D03*
D40*
X64206Y191449D02*
D03*
X58274D02*
D03*
X552546Y404331D02*
D03*
X558478D02*
D03*
X114750D02*
D03*
X120682D02*
D03*
X17506D02*
D03*
X23438D02*
D03*
X455302D02*
D03*
X461234D02*
D03*
X333648D02*
D03*
X339580D02*
D03*
X236404D02*
D03*
X242336D02*
D03*
D41*
X52185Y191972D02*
D03*
Y188564D02*
D03*
Y179902D02*
D03*
Y183310D02*
D03*
X484252Y126636D02*
D03*
Y123228D02*
D03*
X484252Y115225D02*
D03*
Y118633D02*
D03*
X110630Y49083D02*
D03*
Y52491D02*
D03*
X59111Y114556D02*
D03*
Y117964D02*
D03*
X64341Y465402D02*
D03*
Y468810D02*
D03*
X161585Y465402D02*
D03*
Y468810D02*
D03*
X283239Y465402D02*
D03*
Y468810D02*
D03*
X380483Y465402D02*
D03*
Y468810D02*
D03*
X502137Y465402D02*
D03*
Y468810D02*
D03*
X599381Y465402D02*
D03*
Y468810D02*
D03*
X69853Y465402D02*
D03*
Y468810D02*
D03*
X167097Y465402D02*
D03*
Y468810D02*
D03*
X288751Y465402D02*
D03*
Y468810D02*
D03*
X385995Y465402D02*
D03*
Y468810D02*
D03*
X507648Y465402D02*
D03*
Y468810D02*
D03*
X604893Y465402D02*
D03*
Y468810D02*
D03*
X11693Y214501D02*
D03*
Y211092D02*
D03*
X25591Y214696D02*
D03*
Y211288D02*
D03*
X12992Y203808D02*
D03*
Y207216D02*
D03*
X25197Y234381D02*
D03*
Y230973D02*
D03*
X16535Y208791D02*
D03*
Y205383D02*
D03*
X14370Y272570D02*
D03*
Y269162D02*
D03*
D42*
X27953Y227067D02*
D03*
Y222539D02*
D03*
D43*
X9449Y236529D02*
D03*
Y230597D02*
D03*
X568110Y470289D02*
D03*
Y464357D02*
D03*
X561024Y470289D02*
D03*
Y464357D02*
D03*
X123228Y470289D02*
D03*
Y464357D02*
D03*
X130315Y470289D02*
D03*
Y464357D02*
D03*
X25984Y470289D02*
D03*
Y464357D02*
D03*
X33071Y470289D02*
D03*
Y464357D02*
D03*
X342126Y470289D02*
D03*
Y464357D02*
D03*
X349213Y470289D02*
D03*
Y464357D02*
D03*
X470866Y470289D02*
D03*
Y464357D02*
D03*
X463779Y470289D02*
D03*
Y464357D02*
D03*
X244882Y470289D02*
D03*
Y464357D02*
D03*
X251968Y470289D02*
D03*
Y464357D02*
D03*
D44*
X29528Y426040D02*
D03*
X126772D02*
D03*
X248425Y426040D02*
D03*
X345669D02*
D03*
X467323D02*
D03*
X564567D02*
D03*
D45*
X19527Y466086D02*
D03*
X39527D02*
D03*
X116772D02*
D03*
X136772D02*
D03*
X238425Y466086D02*
D03*
X258425D02*
D03*
X335669D02*
D03*
X355669D02*
D03*
X457323D02*
D03*
X477323D02*
D03*
X554567D02*
D03*
X574567D02*
D03*
D46*
X66929Y438484D02*
D03*
X164173D02*
D03*
X285827Y438484D02*
D03*
X383071D02*
D03*
X504724D02*
D03*
X601968D02*
D03*
X32677Y280020D02*
D03*
D47*
X57874Y465650D02*
D03*
X75984D02*
D03*
X155118D02*
D03*
X173228D02*
D03*
X276772Y465650D02*
D03*
X294882D02*
D03*
X374016D02*
D03*
X392126D02*
D03*
X495669D02*
D03*
X513779D02*
D03*
X592913D02*
D03*
X611024D02*
D03*
X41732Y252854D02*
D03*
X23622D02*
D03*
D48*
X39409Y321654D02*
D03*
X136653D02*
D03*
X258307Y321654D02*
D03*
X355551D02*
D03*
X477205D02*
D03*
X574449D02*
D03*
X87675Y321654D02*
D03*
X184919D02*
D03*
X403816Y321654D02*
D03*
X622714D02*
D03*
X39598Y351576D02*
D03*
X136842D02*
D03*
X258495Y351576D02*
D03*
X355739D02*
D03*
X477393D02*
D03*
X574637D02*
D03*
X87675Y519291D02*
D03*
X184919D02*
D03*
X306572Y519291D02*
D03*
X403816D02*
D03*
X525470D02*
D03*
X622714D02*
D03*
X403816Y351575D02*
D03*
X136713Y489764D02*
D03*
X477264Y489764D02*
D03*
X403816D02*
D03*
X622714Y351575D02*
D03*
X574674Y381496D02*
D03*
X622714D02*
D03*
X574508Y489764D02*
D03*
Y519291D02*
D03*
X622714Y489764D02*
D03*
X184919Y351575D02*
D03*
X306572D02*
D03*
Y321655D02*
D03*
X136879Y381496D02*
D03*
X136713Y519291D02*
D03*
X39635Y381496D02*
D03*
X39468Y489764D02*
D03*
Y519291D02*
D03*
X87675Y351575D02*
D03*
Y381496D02*
D03*
Y489764D02*
D03*
X525470Y381496D02*
D03*
Y351575D02*
D03*
X477430Y381496D02*
D03*
X355610Y519291D02*
D03*
Y489764D02*
D03*
X306572Y381496D02*
D03*
Y489764D02*
D03*
X403816Y381496D02*
D03*
X355776D02*
D03*
X525470Y489764D02*
D03*
X477264Y519291D02*
D03*
X525470Y321655D02*
D03*
X184919Y489764D02*
D03*
Y381496D02*
D03*
X258532D02*
D03*
X258366Y489764D02*
D03*
Y519291D02*
D03*
D49*
X12244Y312599D02*
D03*
Y330710D02*
D03*
X109488Y312599D02*
D03*
Y330710D02*
D03*
X231142Y312599D02*
D03*
Y330710D02*
D03*
X328386Y312599D02*
D03*
Y330710D02*
D03*
X450039Y312599D02*
D03*
Y330710D02*
D03*
X547283Y312599D02*
D03*
Y330710D02*
D03*
X60509Y312599D02*
D03*
Y330710D02*
D03*
X157753Y312599D02*
D03*
Y330710D02*
D03*
X376651Y312599D02*
D03*
Y330710D02*
D03*
X595549Y312599D02*
D03*
Y330710D02*
D03*
X12432Y342521D02*
D03*
Y360631D02*
D03*
X109676Y342521D02*
D03*
Y360631D02*
D03*
X231330Y342521D02*
D03*
Y360631D02*
D03*
X328574Y342521D02*
D03*
Y360631D02*
D03*
X450228Y342521D02*
D03*
Y360631D02*
D03*
X547472Y342521D02*
D03*
Y360631D02*
D03*
X60509Y510236D02*
D03*
Y528346D02*
D03*
X157753Y510236D02*
D03*
Y528346D02*
D03*
X279407Y510236D02*
D03*
Y528346D02*
D03*
X376651Y510236D02*
D03*
Y528346D02*
D03*
X498305Y510236D02*
D03*
Y528346D02*
D03*
X595549Y510236D02*
D03*
Y528346D02*
D03*
X376651Y342520D02*
D03*
Y360630D02*
D03*
X109547Y480709D02*
D03*
Y498819D02*
D03*
X450098Y480709D02*
D03*
Y498819D02*
D03*
X376651Y480709D02*
D03*
Y498819D02*
D03*
X595549Y342520D02*
D03*
Y360630D02*
D03*
X547509Y372441D02*
D03*
Y390551D02*
D03*
X595549Y372441D02*
D03*
Y390551D02*
D03*
X547342Y480709D02*
D03*
Y498819D02*
D03*
Y510236D02*
D03*
Y528346D02*
D03*
X595549Y480709D02*
D03*
Y498819D02*
D03*
X157753Y342520D02*
D03*
Y360630D02*
D03*
X279407Y342520D02*
D03*
Y360630D02*
D03*
Y312599D02*
D03*
Y330710D02*
D03*
X109713Y372441D02*
D03*
Y390551D02*
D03*
X109547Y510236D02*
D03*
Y528346D02*
D03*
X12469Y372441D02*
D03*
Y390551D02*
D03*
X12303Y480709D02*
D03*
Y498819D02*
D03*
Y510236D02*
D03*
Y528346D02*
D03*
X60509Y342520D02*
D03*
Y360630D02*
D03*
Y372441D02*
D03*
Y390551D02*
D03*
Y480709D02*
D03*
Y498819D02*
D03*
X498305Y372441D02*
D03*
Y390551D02*
D03*
Y342520D02*
D03*
Y360630D02*
D03*
X450264Y372441D02*
D03*
Y390551D02*
D03*
X328445Y510236D02*
D03*
Y528346D02*
D03*
Y480709D02*
D03*
Y498819D02*
D03*
X279407Y372441D02*
D03*
Y390551D02*
D03*
Y480709D02*
D03*
Y498819D02*
D03*
X376651Y372441D02*
D03*
Y390551D02*
D03*
X328611Y372441D02*
D03*
Y390551D02*
D03*
X498305Y480709D02*
D03*
Y498819D02*
D03*
X450098Y510236D02*
D03*
Y528346D02*
D03*
X498305Y312599D02*
D03*
Y330710D02*
D03*
X157753Y480709D02*
D03*
Y498819D02*
D03*
Y372441D02*
D03*
Y390551D02*
D03*
X231367Y372441D02*
D03*
Y390551D02*
D03*
X231201Y480709D02*
D03*
Y498819D02*
D03*
Y510236D02*
D03*
Y528346D02*
D03*
D50*
X51497Y37690D02*
D03*
X48516D02*
D03*
X376404Y230854D02*
D03*
X379385D02*
D03*
X366562D02*
D03*
X369543D02*
D03*
X356719D02*
D03*
X359700D02*
D03*
X346483D02*
D03*
X349464D02*
D03*
X336640D02*
D03*
X339621D02*
D03*
X319627D02*
D03*
X316646D02*
D03*
X299857D02*
D03*
X296877D02*
D03*
X266562D02*
D03*
X269543D02*
D03*
X289228D02*
D03*
X286247D02*
D03*
X98925Y54815D02*
D03*
X95944D02*
D03*
X64842Y40248D02*
D03*
X67823D02*
D03*
X98925Y49303D02*
D03*
X95944D02*
D03*
X100106Y61016D02*
D03*
X97126D02*
D03*
X105618Y52846D02*
D03*
X102637D02*
D03*
X100106Y63772D02*
D03*
X97126D02*
D03*
X58627Y40642D02*
D03*
X61608D02*
D03*
X89679Y156693D02*
D03*
X86699D02*
D03*
D51*
X48038Y32882D02*
D03*
Y29113D02*
D03*
D52*
X106197Y43004D02*
D03*
X98121D02*
D03*
D53*
X48123Y26273D02*
D03*
Y12887D02*
D03*
D54*
X78957Y189958D02*
D03*
Y192939D02*
D03*
X65354Y175506D02*
D03*
Y172525D02*
D03*
X84443Y34427D02*
D03*
Y37408D02*
D03*
X93498Y40332D02*
D03*
Y43313D02*
D03*
X81687Y34427D02*
D03*
Y37408D02*
D03*
X76569Y34427D02*
D03*
Y37408D02*
D03*
X14370Y264876D02*
D03*
Y261895D02*
D03*
X25197Y240467D02*
D03*
Y237486D02*
D03*
D55*
X102947Y56783D02*
D03*
X108459D02*
D03*
X61130Y48122D02*
D03*
X55618D02*
D03*
D56*
X70663Y37571D02*
D03*
Y34263D02*
D03*
X73419Y37571D02*
D03*
Y34263D02*
D03*
X55568Y117914D02*
D03*
Y114606D02*
D03*
Y127500D02*
D03*
Y124193D02*
D03*
X8661Y207795D02*
D03*
Y211103D02*
D03*
Y217796D02*
D03*
Y214488D02*
D03*
D57*
X48038Y46183D02*
D03*
Y42809D02*
D03*
D58*
X47379Y152815D02*
D03*
X44071D02*
D03*
X51946D02*
D03*
X55253D02*
D03*
X149606Y117717D02*
D03*
Y109055D02*
D03*
Y114961D02*
D03*
Y112205D02*
D03*
X103935Y83286D02*
D03*
X101969Y86614D02*
D03*
X98032Y83858D02*
D03*
X96063Y86614D02*
D03*
X94095Y83858D02*
D03*
X92126Y86614D02*
D03*
X90158Y83858D02*
D03*
D59*
X11811Y243406D02*
D03*
X18110D02*
D03*
D60*
X44094Y229528D02*
D03*
X36220D02*
D03*
X44094Y222441D02*
D03*
X36220D02*
D03*
X44094Y215354D02*
D03*
X36220D02*
D03*
X44094Y208268D02*
D03*
X36220D02*
D03*
D61*
X124832Y266535D02*
D03*
X137372D02*
D03*
X124832Y276378D02*
D03*
X137372D02*
D03*
X124832Y286221D02*
D03*
X137372D02*
D03*
D62*
X141655Y172554D02*
D03*
X139608Y174639D02*
D03*
X137697Y176704D02*
D03*
X135433Y178740D02*
D03*
X133465Y180709D02*
D03*
D63*
X190157Y243169D02*
D03*
Y239311D02*
D03*
X156299Y243268D02*
D03*
Y239409D02*
D03*
X61080Y136909D02*
D03*
Y140768D02*
D03*
X131336Y143780D02*
D03*
Y147638D02*
D03*
X60470Y104410D02*
D03*
Y108268D02*
D03*
X55079Y104232D02*
D03*
Y108090D02*
D03*
X60470Y124094D02*
D03*
Y127953D02*
D03*
D64*
X339488Y243701D02*
D03*
X335630D02*
D03*
X316653Y243701D02*
D03*
X312795D02*
D03*
X293819Y243701D02*
D03*
X289961D02*
D03*
X361968D02*
D03*
X358110D02*
D03*
X407638D02*
D03*
X403780D02*
D03*
X384803Y243701D02*
D03*
X380945D02*
D03*
X271024Y243701D02*
D03*
X267165D02*
D03*
X248583D02*
D03*
X244724D02*
D03*
X133898Y59449D02*
D03*
X137756D02*
D03*
X22087Y206693D02*
D03*
X25945D02*
D03*
X193484Y277484D02*
D03*
X197342D02*
D03*
X159626Y277878D02*
D03*
X163484D02*
D03*
X120666Y85473D02*
D03*
X116808D02*
D03*
X135233Y139803D02*
D03*
X131375D02*
D03*
X77359Y85473D02*
D03*
X73501D02*
D03*
X75391Y156732D02*
D03*
X71533D02*
D03*
X61962Y43791D02*
D03*
X58104D02*
D03*
X65506Y65445D02*
D03*
X61647D02*
D03*
D65*
X77362Y178150D02*
D03*
Y185630D02*
D03*
X68307Y181890D02*
D03*
D66*
X131102Y244364D02*
D03*
Y216266D02*
D03*
M02*
