G04*
G04 #@! TF.GenerationSoftware,Altium Limited,Altium Designer,24.5.2 (23)*
G04*
G04 Layer_Color=6854848*
%FSLAX25Y25*%
%MOIN*%
G70*
G04*
G04 #@! TF.SameCoordinates,7521D7B9-249F-48D2-9375-4659AF460BCF*
G04*
G04*
G04 #@! TF.FilePolarity,Positive*
G04*
G01*
G75*
%ADD24R,0.07874X0.01575*%
%ADD25R,0.05118X0.21654*%
%ADD26R,0.03937X0.07087*%
%ADD27R,0.05512X0.04724*%
%ADD28R,0.02677X0.01102*%
%ADD29C,0.00819*%
%ADD30O,0.00787X0.02756*%
%ADD31O,0.02756X0.00787*%
%ADD32O,0.06299X0.01181*%
%ADD33O,0.01181X0.06299*%
G04:AMPARAMS|DCode=34|XSize=59.06mil|YSize=17.72mil|CornerRadius=1.95mil|HoleSize=0mil|Usage=FLASHONLY|Rotation=90.000|XOffset=0mil|YOffset=0mil|HoleType=Round|Shape=RoundedRectangle|*
%AMROUNDEDRECTD34*
21,1,0.05906,0.01382,0,0,90.0*
21,1,0.05516,0.01772,0,0,90.0*
1,1,0.00390,0.00691,0.02758*
1,1,0.00390,0.00691,-0.02758*
1,1,0.00390,-0.00691,-0.02758*
1,1,0.00390,-0.00691,0.02758*
%
%ADD34ROUNDEDRECTD34*%
%ADD35R,0.07402X0.06614*%
%ADD36O,0.01181X0.06299*%
%ADD37R,0.07047X0.13504*%
%ADD38R,0.03937X0.02953*%
%ADD39R,0.02227X0.02126*%
%ADD40R,0.03175X0.03402*%
%ADD41R,0.02126X0.02227*%
%ADD42R,0.02362X0.02953*%
%ADD43R,0.03402X0.03175*%
%ADD44R,0.41600X0.33071*%
%ADD45R,0.05118X0.15748*%
%ADD46R,0.27559X0.27559*%
%ADD47R,0.05906X0.09843*%
%ADD48R,0.27559X0.27559*%
%ADD49R,0.09843X0.05906*%
%ADD50R,0.02029X0.01860*%
%ADD51R,0.02648X0.02816*%
%ADD52R,0.05334X0.08686*%
%ADD53R,0.06299X0.03150*%
%ADD54R,0.01860X0.02029*%
%ADD55R,0.03150X0.03543*%
%ADD56R,0.02126X0.01968*%
%ADD57R,0.02254X0.02423*%
%ADD58R,0.01968X0.02126*%
%ADD59R,0.05118X0.05512*%
%ADD60R,0.05551X0.05315*%
%ADD61R,0.05847X0.06803*%
G04:AMPARAMS|DCode=62|XSize=19.68mil|YSize=21.26mil|CornerRadius=0mil|HoleSize=0mil|Usage=FLASHONLY|Rotation=45.000|XOffset=0mil|YOffset=0mil|HoleType=Round|Shape=Rectangle|*
%AMROTATEDRECTD62*
4,1,4,0.00056,-0.01448,-0.01448,0.00056,-0.00056,0.01448,0.01448,-0.00056,0.00056,-0.01448,0.0*
%
%ADD62ROTATEDRECTD62*%

%ADD63R,0.02835X0.02992*%
%ADD64R,0.02992X0.02835*%
%ADD65R,0.05906X0.02362*%
%ADD66R,0.15000X0.11000*%
%ADD78R,0.01378X0.06299*%
%ADD100R,0.07087X0.02756*%
%ADD101R,0.07087X0.03150*%
%ADD113C,0.05000*%
%ADD114R,0.05000X0.05000*%
%ADD126R,0.18110X0.18110*%
%ADD131C,0.05118*%
%ADD132O,0.07087X0.05118*%
%ADD133C,0.02480*%
%ADD134C,0.06693*%
%ADD135R,0.06693X0.06693*%
%ADD136O,0.11811X0.07874*%
%ADD137O,0.06299X0.06299*%
%ADD138C,0.06299*%
%ADD139R,0.07087X0.07087*%
%ADD140C,0.07598*%
%ADD141C,0.23622*%
%ADD142C,0.07480*%
%ADD143R,0.06000X0.06000*%
%ADD144C,0.06000*%
%ADD145R,0.04134X0.04134*%
%ADD146C,0.04134*%
D24*
X17673Y175031D02*
D03*
Y177590D02*
D03*
Y180149D02*
D03*
Y182708D02*
D03*
Y185267D02*
D03*
D25*
X44055Y94142D02*
D03*
Y129992D02*
D03*
D26*
X54584Y146712D02*
D03*
X44741D02*
D03*
D27*
X74994Y28634D02*
D03*
X83656D02*
D03*
Y21941D02*
D03*
X74994D02*
D03*
D28*
X56929Y179331D02*
D03*
Y181299D02*
D03*
Y183267D02*
D03*
Y185237D02*
D03*
X61969D02*
D03*
Y183267D02*
D03*
Y181299D02*
D03*
Y179331D02*
D03*
D29*
X69482Y70956D02*
D03*
Y69382D02*
D03*
X71056Y70956D02*
D03*
Y69382D02*
D03*
D30*
X71057Y66035D02*
D03*
X72632D02*
D03*
X74207D02*
D03*
X75781D02*
D03*
X77356D02*
D03*
X78931D02*
D03*
X80506D02*
D03*
X82081D02*
D03*
X83655D02*
D03*
X85230D02*
D03*
X86805D02*
D03*
X88380D02*
D03*
Y42217D02*
D03*
X86805D02*
D03*
X85230D02*
D03*
X83655D02*
D03*
X82081D02*
D03*
X80506D02*
D03*
X78931D02*
D03*
X77356D02*
D03*
X75781D02*
D03*
X74207D02*
D03*
X72632D02*
D03*
X71057D02*
D03*
D31*
X91529Y62689D02*
D03*
Y61114D02*
D03*
Y59539D02*
D03*
Y57965D02*
D03*
Y56390D02*
D03*
Y54815D02*
D03*
Y53240D02*
D03*
Y51665D02*
D03*
Y50091D02*
D03*
Y48516D02*
D03*
Y46941D02*
D03*
Y45366D02*
D03*
X67907D02*
D03*
Y46941D02*
D03*
Y48516D02*
D03*
Y50091D02*
D03*
Y51665D02*
D03*
Y53240D02*
D03*
Y54815D02*
D03*
Y56390D02*
D03*
Y57965D02*
D03*
Y59539D02*
D03*
Y61114D02*
D03*
Y62689D02*
D03*
D32*
X66337Y144725D02*
D03*
Y142757D02*
D03*
Y140788D02*
D03*
Y138820D02*
D03*
Y136851D02*
D03*
Y134883D02*
D03*
Y132914D02*
D03*
Y130946D02*
D03*
Y128977D02*
D03*
Y127009D02*
D03*
Y125040D02*
D03*
Y123071D02*
D03*
Y121103D02*
D03*
Y119134D02*
D03*
Y117166D02*
D03*
Y115197D02*
D03*
Y113229D02*
D03*
Y111260D02*
D03*
Y109292D02*
D03*
Y107323D02*
D03*
Y105355D02*
D03*
Y103386D02*
D03*
Y101418D02*
D03*
Y99449D02*
D03*
Y97481D02*
D03*
X125785D02*
D03*
Y99449D02*
D03*
Y101418D02*
D03*
Y103386D02*
D03*
Y105355D02*
D03*
Y107323D02*
D03*
Y109292D02*
D03*
Y111260D02*
D03*
Y113229D02*
D03*
Y115197D02*
D03*
Y117166D02*
D03*
Y119134D02*
D03*
Y121103D02*
D03*
Y123071D02*
D03*
Y125040D02*
D03*
Y127009D02*
D03*
Y128977D02*
D03*
Y130946D02*
D03*
Y132914D02*
D03*
Y134883D02*
D03*
Y136851D02*
D03*
Y138820D02*
D03*
Y140788D02*
D03*
Y142757D02*
D03*
Y144725D02*
D03*
D33*
X72439Y91379D02*
D03*
X74407D02*
D03*
X76376D02*
D03*
X78344D02*
D03*
X80313D02*
D03*
X82281D02*
D03*
X84250D02*
D03*
X86218D02*
D03*
X88187D02*
D03*
X90155D02*
D03*
X92124D02*
D03*
X94093D02*
D03*
X96061D02*
D03*
X98030D02*
D03*
X99998D02*
D03*
X101967D02*
D03*
X103935D02*
D03*
X105904D02*
D03*
X107872D02*
D03*
X109841D02*
D03*
X111809D02*
D03*
X113777D02*
D03*
X115746D02*
D03*
X117715D02*
D03*
X119683D02*
D03*
Y150827D02*
D03*
X117715D02*
D03*
X115746D02*
D03*
X113777D02*
D03*
X111809D02*
D03*
X109841D02*
D03*
X107872D02*
D03*
X105904D02*
D03*
X103935D02*
D03*
X101967D02*
D03*
X99998D02*
D03*
X98030D02*
D03*
X96061D02*
D03*
X94093D02*
D03*
X92124D02*
D03*
X90155D02*
D03*
X88187D02*
D03*
X86218D02*
D03*
X84250D02*
D03*
X82281D02*
D03*
X80313D02*
D03*
X78344D02*
D03*
X76376D02*
D03*
X74407D02*
D03*
X72439D02*
D03*
D34*
X193543Y271579D02*
D03*
X196102D02*
D03*
X198661D02*
D03*
X201220D02*
D03*
X203779D02*
D03*
X206338D02*
D03*
X208897D02*
D03*
X211456D02*
D03*
X214016D02*
D03*
X216575D02*
D03*
X219134D02*
D03*
X221693D02*
D03*
Y248744D02*
D03*
X219134D02*
D03*
X216575D02*
D03*
X214016D02*
D03*
X211456D02*
D03*
X208897D02*
D03*
X206338D02*
D03*
X203779D02*
D03*
X201220D02*
D03*
X198661D02*
D03*
X196102D02*
D03*
X193543D02*
D03*
X159685Y271579D02*
D03*
X162244D02*
D03*
X164803D02*
D03*
X167362D02*
D03*
X169921D02*
D03*
X172480D02*
D03*
X175039D02*
D03*
X177598D02*
D03*
X180157D02*
D03*
X182716D02*
D03*
X185275D02*
D03*
X187834D02*
D03*
Y248744D02*
D03*
X185275D02*
D03*
X182716D02*
D03*
X180157D02*
D03*
X177598D02*
D03*
X175039D02*
D03*
X172480D02*
D03*
X169921D02*
D03*
X167362D02*
D03*
X164803D02*
D03*
X162244D02*
D03*
X159685D02*
D03*
D35*
X18504Y222146D02*
D03*
D36*
X22441Y230512D02*
D03*
X20472D02*
D03*
X18504D02*
D03*
X16535D02*
D03*
X14567D02*
D03*
X22441Y213780D02*
D03*
X20472D02*
D03*
X18504D02*
D03*
X16535D02*
D03*
X14567D02*
D03*
D37*
X106890Y215138D02*
D03*
X97047D02*
D03*
X87205D02*
D03*
X77362D02*
D03*
X67520D02*
D03*
X57677D02*
D03*
Y295098D02*
D03*
X67520D02*
D03*
X77362D02*
D03*
X87205D02*
D03*
X97047D02*
D03*
X106890D02*
D03*
D38*
X420574Y16929D02*
D03*
X396952D02*
D03*
X420574Y31495D02*
D03*
X396952D02*
D03*
X360236Y16929D02*
D03*
X336614D02*
D03*
X360236Y31495D02*
D03*
X336614D02*
D03*
X299899Y16929D02*
D03*
X276276D02*
D03*
X299899Y31495D02*
D03*
X276276D02*
D03*
X239561Y16929D02*
D03*
X215939D02*
D03*
X239561Y31495D02*
D03*
X215939D02*
D03*
X179223Y16929D02*
D03*
X155601D02*
D03*
X179223Y31495D02*
D03*
X155601D02*
D03*
X124272Y53779D02*
D03*
X147894D02*
D03*
X124272Y39213D02*
D03*
X147894D02*
D03*
D39*
X73228Y192126D02*
D03*
X69820D02*
D03*
X76439Y71350D02*
D03*
X79848D02*
D03*
X9449Y324410D02*
D03*
X12857D02*
D03*
X106693D02*
D03*
X110101D02*
D03*
X228346Y324409D02*
D03*
X231754D02*
D03*
X325590D02*
D03*
X328998D02*
D03*
X447244D02*
D03*
X450652D02*
D03*
X544488D02*
D03*
X547896D02*
D03*
X9449Y318898D02*
D03*
X12857D02*
D03*
X106693D02*
D03*
X110101D02*
D03*
X228346Y318898D02*
D03*
X231754D02*
D03*
X325590D02*
D03*
X328998D02*
D03*
X447244D02*
D03*
X450652D02*
D03*
X544488D02*
D03*
X547896D02*
D03*
X57480Y324410D02*
D03*
X60888D02*
D03*
X154724D02*
D03*
X158132D02*
D03*
X276378Y324409D02*
D03*
X279786D02*
D03*
X373622D02*
D03*
X377030D02*
D03*
X495276D02*
D03*
X498684D02*
D03*
X592520D02*
D03*
X595928D02*
D03*
X57480Y318898D02*
D03*
X60888D02*
D03*
X154724D02*
D03*
X158132D02*
D03*
X276378Y318898D02*
D03*
X279786D02*
D03*
X373622D02*
D03*
X377030D02*
D03*
X495276D02*
D03*
X498684D02*
D03*
X592520D02*
D03*
X595928D02*
D03*
X9713Y354331D02*
D03*
X13121D02*
D03*
X106957D02*
D03*
X110365D02*
D03*
X228611Y354331D02*
D03*
X232019D02*
D03*
X325855D02*
D03*
X329263D02*
D03*
X447509D02*
D03*
X450917D02*
D03*
X544753D02*
D03*
X548161D02*
D03*
X9713Y348819D02*
D03*
X13121D02*
D03*
X106957D02*
D03*
X110365D02*
D03*
X228611Y348819D02*
D03*
X232019D02*
D03*
X325855D02*
D03*
X329263D02*
D03*
X447509D02*
D03*
X450917D02*
D03*
X544753D02*
D03*
X548161D02*
D03*
X57351Y353937D02*
D03*
X60759D02*
D03*
X154595D02*
D03*
X158003D02*
D03*
X276249Y353937D02*
D03*
X279657D02*
D03*
X373493D02*
D03*
X376901D02*
D03*
X495146D02*
D03*
X498554D02*
D03*
X592390D02*
D03*
X595798D02*
D03*
X57351Y348425D02*
D03*
X60759D02*
D03*
X154595D02*
D03*
X158003D02*
D03*
X276249Y348425D02*
D03*
X279657D02*
D03*
X373493D02*
D03*
X376901D02*
D03*
X495146D02*
D03*
X498554D02*
D03*
X592390D02*
D03*
X595798D02*
D03*
X9584Y384252D02*
D03*
X12992D02*
D03*
X106828D02*
D03*
X110236D02*
D03*
X228482Y384252D02*
D03*
X231890D02*
D03*
X325726D02*
D03*
X329134D02*
D03*
X447379D02*
D03*
X450787D02*
D03*
X544624D02*
D03*
X548032D02*
D03*
X9584Y378740D02*
D03*
X12992D02*
D03*
X106828D02*
D03*
X110236D02*
D03*
X228482Y378740D02*
D03*
X231890D02*
D03*
X325726D02*
D03*
X329134D02*
D03*
X447379D02*
D03*
X450787D02*
D03*
X544624D02*
D03*
X548032D02*
D03*
X57480Y384252D02*
D03*
X60888D02*
D03*
X154724D02*
D03*
X158132D02*
D03*
X276378Y384252D02*
D03*
X279786D02*
D03*
X373622D02*
D03*
X377030D02*
D03*
X495276D02*
D03*
X498684D02*
D03*
X592520D02*
D03*
X595928D02*
D03*
X57480Y378740D02*
D03*
X60888D02*
D03*
X154724D02*
D03*
X158132D02*
D03*
X276378Y378740D02*
D03*
X279786D02*
D03*
X373622D02*
D03*
X377030D02*
D03*
X495276D02*
D03*
X498684D02*
D03*
X592520D02*
D03*
X595928D02*
D03*
X10205Y492520D02*
D03*
X13613D02*
D03*
X107449D02*
D03*
X110857D02*
D03*
X229103Y492520D02*
D03*
X232511D02*
D03*
X326347D02*
D03*
X329755D02*
D03*
X448001D02*
D03*
X451409D02*
D03*
X545245D02*
D03*
X548653D02*
D03*
X10205Y487008D02*
D03*
X13613D02*
D03*
X107449D02*
D03*
X110857D02*
D03*
X229103Y487008D02*
D03*
X232511D02*
D03*
X326347D02*
D03*
X329755D02*
D03*
X448001D02*
D03*
X451409D02*
D03*
X545245D02*
D03*
X548653D02*
D03*
X10993Y522047D02*
D03*
X14401D02*
D03*
X108237D02*
D03*
X111645D02*
D03*
X229890Y522047D02*
D03*
X233298D02*
D03*
X327135D02*
D03*
X330543D02*
D03*
X448788D02*
D03*
X452196D02*
D03*
X546032D02*
D03*
X549440D02*
D03*
X10993Y516535D02*
D03*
X14401D02*
D03*
X108237D02*
D03*
X111645D02*
D03*
X229890Y516535D02*
D03*
X233298D02*
D03*
X327135D02*
D03*
X330543D02*
D03*
X448788D02*
D03*
X452196D02*
D03*
X546032D02*
D03*
X549440D02*
D03*
X57745Y492520D02*
D03*
X61153D02*
D03*
X154989D02*
D03*
X158397D02*
D03*
X276642Y492520D02*
D03*
X280050D02*
D03*
X373886D02*
D03*
X377294D02*
D03*
X495540D02*
D03*
X498948D02*
D03*
X592784D02*
D03*
X596192D02*
D03*
X57745Y487008D02*
D03*
X61153D02*
D03*
X154989D02*
D03*
X158397D02*
D03*
X276642Y487008D02*
D03*
X280050D02*
D03*
X373886D02*
D03*
X377294D02*
D03*
X495540D02*
D03*
X498948D02*
D03*
X592784D02*
D03*
X596192D02*
D03*
X57526Y522441D02*
D03*
X60934D02*
D03*
X154770D02*
D03*
X158178D02*
D03*
X276423Y522441D02*
D03*
X279831D02*
D03*
X373668D02*
D03*
X377076D02*
D03*
X495321D02*
D03*
X498729D02*
D03*
X592565D02*
D03*
X595973D02*
D03*
X57526Y516929D02*
D03*
X60934D02*
D03*
X154770D02*
D03*
X158178D02*
D03*
X276423Y516929D02*
D03*
X279831D02*
D03*
X373668D02*
D03*
X377076D02*
D03*
X495321D02*
D03*
X498729D02*
D03*
X592565D02*
D03*
X595973D02*
D03*
X16665Y237106D02*
D03*
X13257D02*
D03*
X19556Y203150D02*
D03*
X22964D02*
D03*
D40*
X64206Y191449D02*
D03*
X58274D02*
D03*
X552546Y404331D02*
D03*
X558478D02*
D03*
X114750D02*
D03*
X120682D02*
D03*
X17506D02*
D03*
X23438D02*
D03*
X455302D02*
D03*
X461234D02*
D03*
X333648D02*
D03*
X339580D02*
D03*
X236404D02*
D03*
X242336D02*
D03*
D41*
X52185Y191972D02*
D03*
Y188564D02*
D03*
Y179902D02*
D03*
Y183310D02*
D03*
X484252Y126636D02*
D03*
Y123228D02*
D03*
X484252Y115225D02*
D03*
Y118633D02*
D03*
X110630Y49083D02*
D03*
Y52491D02*
D03*
X59111Y114556D02*
D03*
Y117964D02*
D03*
X64341Y465402D02*
D03*
Y468810D02*
D03*
X161585Y465402D02*
D03*
Y468810D02*
D03*
X283239Y465402D02*
D03*
Y468810D02*
D03*
X380483Y465402D02*
D03*
Y468810D02*
D03*
X502137Y465402D02*
D03*
Y468810D02*
D03*
X599381Y465402D02*
D03*
Y468810D02*
D03*
X69853Y465402D02*
D03*
Y468810D02*
D03*
X167097Y465402D02*
D03*
Y468810D02*
D03*
X288751Y465402D02*
D03*
Y468810D02*
D03*
X385995Y465402D02*
D03*
Y468810D02*
D03*
X507648Y465402D02*
D03*
Y468810D02*
D03*
X604893Y465402D02*
D03*
Y468810D02*
D03*
X11693Y214501D02*
D03*
Y211092D02*
D03*
X25591Y214696D02*
D03*
Y211288D02*
D03*
X12992Y203808D02*
D03*
Y207216D02*
D03*
X25197Y234381D02*
D03*
Y230973D02*
D03*
X16535Y208791D02*
D03*
Y205383D02*
D03*
X14370Y272570D02*
D03*
Y269162D02*
D03*
D42*
X27953Y227067D02*
D03*
Y222539D02*
D03*
D43*
X9449Y236529D02*
D03*
Y230597D02*
D03*
X568110Y470289D02*
D03*
Y464357D02*
D03*
X561024Y470289D02*
D03*
Y464357D02*
D03*
X123228Y470289D02*
D03*
Y464357D02*
D03*
X130315Y470289D02*
D03*
Y464357D02*
D03*
X25984Y470289D02*
D03*
Y464357D02*
D03*
X33071Y470289D02*
D03*
Y464357D02*
D03*
X342126Y470289D02*
D03*
Y464357D02*
D03*
X349213Y470289D02*
D03*
Y464357D02*
D03*
X470866Y470289D02*
D03*
Y464357D02*
D03*
X463779Y470289D02*
D03*
Y464357D02*
D03*
X244882Y470289D02*
D03*
Y464357D02*
D03*
X251968Y470289D02*
D03*
Y464357D02*
D03*
D44*
X29528Y426040D02*
D03*
X126772D02*
D03*
X248425Y426040D02*
D03*
X345669D02*
D03*
X467323D02*
D03*
X564567D02*
D03*
D45*
X19527Y466086D02*
D03*
X39527D02*
D03*
X116772D02*
D03*
X136772D02*
D03*
X238425Y466086D02*
D03*
X258425D02*
D03*
X335669D02*
D03*
X355669D02*
D03*
X457323D02*
D03*
X477323D02*
D03*
X554567D02*
D03*
X574567D02*
D03*
D46*
X66929Y438484D02*
D03*
X164173D02*
D03*
X285827Y438484D02*
D03*
X383071D02*
D03*
X504724D02*
D03*
X601968D02*
D03*
X32677Y280020D02*
D03*
D47*
X57874Y465650D02*
D03*
X75984D02*
D03*
X155118D02*
D03*
X173228D02*
D03*
X276772Y465650D02*
D03*
X294882D02*
D03*
X374016D02*
D03*
X392126D02*
D03*
X495669D02*
D03*
X513779D02*
D03*
X592913D02*
D03*
X611024D02*
D03*
X41732Y252854D02*
D03*
X23622D02*
D03*
D48*
X39409Y321654D02*
D03*
X136653D02*
D03*
X258307Y321654D02*
D03*
X355551D02*
D03*
X477205D02*
D03*
X574449D02*
D03*
X87675Y321654D02*
D03*
X184919D02*
D03*
X403816Y321654D02*
D03*
X622714D02*
D03*
X39598Y351576D02*
D03*
X136842D02*
D03*
X258495Y351576D02*
D03*
X355739D02*
D03*
X477393D02*
D03*
X574637D02*
D03*
X87675Y519291D02*
D03*
X184919D02*
D03*
X306572Y519291D02*
D03*
X403816D02*
D03*
X525470D02*
D03*
X622714D02*
D03*
X403816Y351575D02*
D03*
X136713Y489764D02*
D03*
X477264Y489764D02*
D03*
X403816D02*
D03*
X622714Y351575D02*
D03*
X574674Y381496D02*
D03*
X622714D02*
D03*
X574508Y489764D02*
D03*
Y519291D02*
D03*
X622714Y489764D02*
D03*
X184919Y351575D02*
D03*
X306572D02*
D03*
Y321655D02*
D03*
X136879Y381496D02*
D03*
X136713Y519291D02*
D03*
X39635Y381496D02*
D03*
X39468Y489764D02*
D03*
Y519291D02*
D03*
X87675Y351575D02*
D03*
Y381496D02*
D03*
Y489764D02*
D03*
X525470Y381496D02*
D03*
Y351575D02*
D03*
X477430Y381496D02*
D03*
X355610Y519291D02*
D03*
Y489764D02*
D03*
X306572Y381496D02*
D03*
Y489764D02*
D03*
X403816Y381496D02*
D03*
X355776D02*
D03*
X525470Y489764D02*
D03*
X477264Y519291D02*
D03*
X525470Y321655D02*
D03*
X184919Y489764D02*
D03*
Y381496D02*
D03*
X258532D02*
D03*
X258366Y489764D02*
D03*
Y519291D02*
D03*
D49*
X12244Y312599D02*
D03*
Y330710D02*
D03*
X109488Y312599D02*
D03*
Y330710D02*
D03*
X231142Y312599D02*
D03*
Y330710D02*
D03*
X328386Y312599D02*
D03*
Y330710D02*
D03*
X450039Y312599D02*
D03*
Y330710D02*
D03*
X547283Y312599D02*
D03*
Y330710D02*
D03*
X60509Y312599D02*
D03*
Y330710D02*
D03*
X157753Y312599D02*
D03*
Y330710D02*
D03*
X376651Y312599D02*
D03*
Y330710D02*
D03*
X595549Y312599D02*
D03*
Y330710D02*
D03*
X12432Y342521D02*
D03*
Y360631D02*
D03*
X109676Y342521D02*
D03*
Y360631D02*
D03*
X231330Y342521D02*
D03*
Y360631D02*
D03*
X328574Y342521D02*
D03*
Y360631D02*
D03*
X450228Y342521D02*
D03*
Y360631D02*
D03*
X547472Y342521D02*
D03*
Y360631D02*
D03*
X60509Y510236D02*
D03*
Y528346D02*
D03*
X157753Y510236D02*
D03*
Y528346D02*
D03*
X279407Y510236D02*
D03*
Y528346D02*
D03*
X376651Y510236D02*
D03*
Y528346D02*
D03*
X498305Y510236D02*
D03*
Y528346D02*
D03*
X595549Y510236D02*
D03*
Y528346D02*
D03*
X376651Y342520D02*
D03*
Y360630D02*
D03*
X109547Y480709D02*
D03*
Y498819D02*
D03*
X450098Y480709D02*
D03*
Y498819D02*
D03*
X376651Y480709D02*
D03*
Y498819D02*
D03*
X595549Y342520D02*
D03*
Y360630D02*
D03*
X547509Y372441D02*
D03*
Y390551D02*
D03*
X595549Y372441D02*
D03*
Y390551D02*
D03*
X547342Y480709D02*
D03*
Y498819D02*
D03*
Y510236D02*
D03*
Y528346D02*
D03*
X595549Y480709D02*
D03*
Y498819D02*
D03*
X157753Y342520D02*
D03*
Y360630D02*
D03*
X279407Y342520D02*
D03*
Y360630D02*
D03*
Y312599D02*
D03*
Y330710D02*
D03*
X109713Y372441D02*
D03*
Y390551D02*
D03*
X109547Y510236D02*
D03*
Y528346D02*
D03*
X12469Y372441D02*
D03*
Y390551D02*
D03*
X12303Y480709D02*
D03*
Y498819D02*
D03*
Y510236D02*
D03*
Y528346D02*
D03*
X60509Y342520D02*
D03*
Y360630D02*
D03*
Y372441D02*
D03*
Y390551D02*
D03*
Y480709D02*
D03*
Y498819D02*
D03*
X498305Y372441D02*
D03*
Y390551D02*
D03*
Y342520D02*
D03*
Y360630D02*
D03*
X450264Y372441D02*
D03*
Y390551D02*
D03*
X328445Y510236D02*
D03*
Y528346D02*
D03*
Y480709D02*
D03*
Y498819D02*
D03*
X279407Y372441D02*
D03*
Y390551D02*
D03*
Y480709D02*
D03*
Y498819D02*
D03*
X376651Y372441D02*
D03*
Y390551D02*
D03*
X328611Y372441D02*
D03*
Y390551D02*
D03*
X498305Y480709D02*
D03*
Y498819D02*
D03*
X450098Y510236D02*
D03*
Y528346D02*
D03*
X498305Y312599D02*
D03*
Y330710D02*
D03*
X157753Y480709D02*
D03*
Y498819D02*
D03*
Y372441D02*
D03*
Y390551D02*
D03*
X231367Y372441D02*
D03*
Y390551D02*
D03*
X231201Y480709D02*
D03*
Y498819D02*
D03*
Y510236D02*
D03*
Y528346D02*
D03*
D50*
X51497Y37690D02*
D03*
X48516D02*
D03*
X376404Y230854D02*
D03*
X379385D02*
D03*
X366562D02*
D03*
X369543D02*
D03*
X356719D02*
D03*
X359700D02*
D03*
X346483D02*
D03*
X349464D02*
D03*
X336640D02*
D03*
X339621D02*
D03*
X319627D02*
D03*
X316646D02*
D03*
X299857D02*
D03*
X296877D02*
D03*
X266562D02*
D03*
X269543D02*
D03*
X289228D02*
D03*
X286247D02*
D03*
X98925Y54815D02*
D03*
X95944D02*
D03*
X64842Y40248D02*
D03*
X67823D02*
D03*
X98925Y49303D02*
D03*
X95944D02*
D03*
X100106Y61016D02*
D03*
X97126D02*
D03*
X105618Y52846D02*
D03*
X102637D02*
D03*
X100106Y63772D02*
D03*
X97126D02*
D03*
X58627Y40642D02*
D03*
X61608D02*
D03*
X89679Y156693D02*
D03*
X86699D02*
D03*
D51*
X48038Y32882D02*
D03*
Y29113D02*
D03*
D52*
X106197Y43004D02*
D03*
X98121D02*
D03*
D53*
X48123Y26273D02*
D03*
Y12887D02*
D03*
D54*
X78957Y189958D02*
D03*
Y192939D02*
D03*
X65354Y175506D02*
D03*
Y172525D02*
D03*
X84443Y34427D02*
D03*
Y37408D02*
D03*
X93498Y40332D02*
D03*
Y43313D02*
D03*
X81687Y34427D02*
D03*
Y37408D02*
D03*
X76569Y34427D02*
D03*
Y37408D02*
D03*
X14370Y264876D02*
D03*
Y261895D02*
D03*
X25197Y240467D02*
D03*
Y237486D02*
D03*
D55*
X102947Y56783D02*
D03*
X108459D02*
D03*
X61130Y48122D02*
D03*
X55618D02*
D03*
D56*
X70663Y37571D02*
D03*
Y34263D02*
D03*
X73419Y37571D02*
D03*
Y34263D02*
D03*
X55568Y117914D02*
D03*
Y114606D02*
D03*
Y127500D02*
D03*
Y124193D02*
D03*
X8661Y207795D02*
D03*
Y211103D02*
D03*
Y217796D02*
D03*
Y214488D02*
D03*
D57*
X48038Y46183D02*
D03*
Y42809D02*
D03*
D58*
X47379Y152815D02*
D03*
X44071D02*
D03*
X51946D02*
D03*
X55253D02*
D03*
X149606Y117717D02*
D03*
Y109055D02*
D03*
Y114961D02*
D03*
Y112205D02*
D03*
X103935Y83286D02*
D03*
X101969Y86614D02*
D03*
X98032Y83858D02*
D03*
X96063Y86614D02*
D03*
X94095Y83858D02*
D03*
X92126Y86614D02*
D03*
X90158Y83858D02*
D03*
D59*
X11811Y243406D02*
D03*
X18110D02*
D03*
D60*
X44094Y229528D02*
D03*
X36220D02*
D03*
X44094Y222441D02*
D03*
X36220D02*
D03*
X44094Y215354D02*
D03*
X36220D02*
D03*
X44094Y208268D02*
D03*
X36220D02*
D03*
D61*
X124832Y266535D02*
D03*
X137372D02*
D03*
X124832Y276378D02*
D03*
X137372D02*
D03*
X124832Y286221D02*
D03*
X137372D02*
D03*
D62*
X141655Y172554D02*
D03*
X139608Y174639D02*
D03*
X137697Y176704D02*
D03*
X135433Y178740D02*
D03*
X133465Y180709D02*
D03*
D63*
X190157Y243169D02*
D03*
Y239311D02*
D03*
X156299Y243268D02*
D03*
Y239409D02*
D03*
X61080Y136909D02*
D03*
Y140768D02*
D03*
X131336Y143780D02*
D03*
Y147638D02*
D03*
X60470Y104410D02*
D03*
Y108268D02*
D03*
X55079Y104232D02*
D03*
Y108090D02*
D03*
X60470Y124094D02*
D03*
Y127953D02*
D03*
D64*
X339488Y243701D02*
D03*
X335630D02*
D03*
X316653Y243701D02*
D03*
X312795D02*
D03*
X293819Y243701D02*
D03*
X289961D02*
D03*
X361968D02*
D03*
X358110D02*
D03*
X407638D02*
D03*
X403780D02*
D03*
X384803Y243701D02*
D03*
X380945D02*
D03*
X271024Y243701D02*
D03*
X267165D02*
D03*
X248583D02*
D03*
X244724D02*
D03*
X133898Y59449D02*
D03*
X137756D02*
D03*
X22087Y206693D02*
D03*
X25945D02*
D03*
X193484Y277484D02*
D03*
X197342D02*
D03*
X159626Y277878D02*
D03*
X163484D02*
D03*
X120666Y85473D02*
D03*
X116808D02*
D03*
X135233Y139803D02*
D03*
X131375D02*
D03*
X77359Y85473D02*
D03*
X73501D02*
D03*
X75391Y156732D02*
D03*
X71533D02*
D03*
X61962Y43791D02*
D03*
X58104D02*
D03*
X65506Y65445D02*
D03*
X61647D02*
D03*
D65*
X77362Y178150D02*
D03*
Y185630D02*
D03*
X68307Y181890D02*
D03*
D66*
X131102Y244364D02*
D03*
Y216266D02*
D03*
D78*
X243701Y249213D02*
D03*
X241142D02*
D03*
X238583D02*
D03*
X236024D02*
D03*
X233465D02*
D03*
X230906D02*
D03*
X228346D02*
D03*
Y271260D02*
D03*
X230906D02*
D03*
X233465D02*
D03*
X236024D02*
D03*
X238583D02*
D03*
X241142D02*
D03*
X243701D02*
D03*
X266339Y249213D02*
D03*
X263779D02*
D03*
X261221D02*
D03*
X258661D02*
D03*
X256102D02*
D03*
X253543D02*
D03*
X250984D02*
D03*
Y271260D02*
D03*
X253543D02*
D03*
X256102D02*
D03*
X258661D02*
D03*
X261221D02*
D03*
X263779D02*
D03*
X266339D02*
D03*
X289173Y249213D02*
D03*
X286614D02*
D03*
X284055D02*
D03*
X281496D02*
D03*
X278937D02*
D03*
X276378D02*
D03*
X273819D02*
D03*
Y271260D02*
D03*
X276378D02*
D03*
X278937D02*
D03*
X281496D02*
D03*
X284055D02*
D03*
X286614D02*
D03*
X289173D02*
D03*
X311811Y249213D02*
D03*
X309252D02*
D03*
X306693D02*
D03*
X304134D02*
D03*
X301575D02*
D03*
X299016D02*
D03*
X296457D02*
D03*
Y271260D02*
D03*
X299016D02*
D03*
X301575D02*
D03*
X304134D02*
D03*
X306693D02*
D03*
X309252D02*
D03*
X311811D02*
D03*
X334646Y249213D02*
D03*
X332087D02*
D03*
X329528D02*
D03*
X326969D02*
D03*
X324409D02*
D03*
X321850D02*
D03*
X319291D02*
D03*
Y271260D02*
D03*
X321850D02*
D03*
X324409D02*
D03*
X326969D02*
D03*
X329528D02*
D03*
X332087D02*
D03*
X334646D02*
D03*
X357480Y249213D02*
D03*
X354921D02*
D03*
X352362D02*
D03*
X349803D02*
D03*
X347244D02*
D03*
X344685D02*
D03*
X342126D02*
D03*
Y271260D02*
D03*
X344685D02*
D03*
X347244D02*
D03*
X349803D02*
D03*
X352362D02*
D03*
X354921D02*
D03*
X357480D02*
D03*
X380315Y249213D02*
D03*
X377756D02*
D03*
X375197D02*
D03*
X372638D02*
D03*
X370079D02*
D03*
X367520D02*
D03*
X364961D02*
D03*
Y271260D02*
D03*
X367520D02*
D03*
X370079D02*
D03*
X372638D02*
D03*
X375197D02*
D03*
X377756D02*
D03*
X380315D02*
D03*
X402953Y249213D02*
D03*
X400394D02*
D03*
X397835D02*
D03*
X395276D02*
D03*
X392717D02*
D03*
X390158D02*
D03*
X387598D02*
D03*
Y271260D02*
D03*
X390158D02*
D03*
X392717D02*
D03*
X395276D02*
D03*
X397835D02*
D03*
X400394D02*
D03*
X402953D02*
D03*
D100*
X475394Y127559D02*
D03*
Y92913D02*
D03*
X437992D02*
D03*
Y127559D02*
D03*
D101*
X475394Y123228D02*
D03*
Y118898D02*
D03*
Y114567D02*
D03*
Y110236D02*
D03*
Y105905D02*
D03*
Y101575D02*
D03*
Y97244D02*
D03*
X437992D02*
D03*
Y101575D02*
D03*
Y105905D02*
D03*
Y110236D02*
D03*
Y114567D02*
D03*
Y118898D02*
D03*
Y123228D02*
D03*
D113*
X193087Y227311D02*
D03*
X203087D02*
D03*
X213088D02*
D03*
X223088D02*
D03*
X233087D02*
D03*
X243088D02*
D03*
X253087D02*
D03*
X263088D02*
D03*
X273088D02*
D03*
X283087D02*
D03*
X293088D02*
D03*
X303087D02*
D03*
X313088D02*
D03*
X323088D02*
D03*
X333087D02*
D03*
X343088D02*
D03*
X353087D02*
D03*
X363088D02*
D03*
X373088D02*
D03*
X383087D02*
D03*
Y37311D02*
D03*
X373088D02*
D03*
X363088D02*
D03*
X213088D02*
D03*
X203087D02*
D03*
D114*
X193087D02*
D03*
D126*
X79718Y54028D02*
D03*
D131*
X17704Y170602D02*
D03*
Y189696D02*
D03*
D132*
X7152Y194420D02*
D03*
Y165878D02*
D03*
D133*
X86805Y46941D02*
D03*
X82081D02*
D03*
X77356D02*
D03*
X72632D02*
D03*
X86805Y51665D02*
D03*
X82081D02*
D03*
X77356D02*
D03*
X72632D02*
D03*
X86805Y56390D02*
D03*
X82081D02*
D03*
X77356D02*
D03*
X72632D02*
D03*
X86805Y61114D02*
D03*
X82081D02*
D03*
X77356D02*
D03*
X72632D02*
D03*
D134*
X10236Y100866D02*
D03*
Y110866D02*
D03*
Y120866D02*
D03*
D135*
Y130866D02*
D03*
D136*
X436614Y48622D02*
D03*
Y81299D02*
D03*
D137*
Y64961D02*
D03*
Y72835D02*
D03*
Y57087D02*
D03*
D138*
X89128Y417294D02*
D03*
Y427294D02*
D03*
Y437294D02*
D03*
Y447294D02*
D03*
Y457294D02*
D03*
X186372Y417294D02*
D03*
Y427294D02*
D03*
Y437294D02*
D03*
Y447294D02*
D03*
Y457294D02*
D03*
X308026Y417294D02*
D03*
Y427294D02*
D03*
Y437294D02*
D03*
Y447294D02*
D03*
Y457294D02*
D03*
X405270Y417294D02*
D03*
Y427294D02*
D03*
Y437294D02*
D03*
Y447294D02*
D03*
Y457294D02*
D03*
X526924Y417294D02*
D03*
Y427294D02*
D03*
Y437294D02*
D03*
Y447294D02*
D03*
Y457294D02*
D03*
X624089Y417794D02*
D03*
Y427794D02*
D03*
Y437794D02*
D03*
Y447794D02*
D03*
Y457794D02*
D03*
D139*
X89128Y467294D02*
D03*
X186372D02*
D03*
X308026Y467294D02*
D03*
X405270D02*
D03*
X526924D02*
D03*
X624089Y467794D02*
D03*
D140*
X561417Y97244D02*
D03*
D141*
X457874Y24016D02*
D03*
X18110Y67716D02*
D03*
X431890Y524409D02*
D03*
X212598Y523622D02*
D03*
D142*
X438189Y276772D02*
D03*
Y231102D02*
D03*
D143*
X171588Y402774D02*
D03*
X390485Y402774D02*
D03*
X609096Y402774D02*
D03*
X293241D02*
D03*
X512139D02*
D03*
X74344D02*
D03*
D144*
X161588Y402774D02*
D03*
X151588D02*
D03*
X141588D02*
D03*
X131588D02*
D03*
X380485Y402774D02*
D03*
X370485D02*
D03*
X360485D02*
D03*
X350485D02*
D03*
X599096Y402774D02*
D03*
X589096D02*
D03*
X579096D02*
D03*
X569096D02*
D03*
X283241D02*
D03*
X273241D02*
D03*
X263241D02*
D03*
X253241D02*
D03*
X502139D02*
D03*
X492139D02*
D03*
X482139D02*
D03*
X472139D02*
D03*
X64344D02*
D03*
X54344D02*
D03*
X44344D02*
D03*
X34344D02*
D03*
D145*
X107480Y17717D02*
D03*
D146*
Y22717D02*
D03*
X112480Y17717D02*
D03*
Y22717D02*
D03*
X117480Y17717D02*
D03*
Y22717D02*
D03*
X122480Y17717D02*
D03*
Y22717D02*
D03*
X127480Y17717D02*
D03*
Y22717D02*
D03*
M02*
