G04*
G04 #@! TF.GenerationSoftware,Altium Limited,Altium Designer,24.5.2 (23)*
G04*
G04 Layer_Color=6314112*
%FSLAX25Y25*%
%MOIN*%
G70*
G04*
G04 #@! TF.SameCoordinates,A4DC4032-6D30-441B-857C-BBE942529F2D*
G04*
G04*
G04 #@! TF.FilePolarity,Positive*
G04*
G01*
G75*
%ADD15C,0.00500*%
D15*
X11286Y166271D02*
X14042D01*
X12664Y164893D02*
Y167649D01*
X11286Y194813D02*
X14042D01*
X12664Y193435D02*
Y196191D01*
X21838Y190089D02*
X24594D01*
X23216Y188711D02*
Y191467D01*
X21838Y170995D02*
X24594D01*
X23216Y169617D02*
Y172373D01*
X86155Y46941D02*
X87454D01*
X86805Y46291D02*
Y47591D01*
X81431Y46941D02*
X82730D01*
X82081Y46291D02*
Y47591D01*
X76706Y46941D02*
X78006D01*
X77356Y46291D02*
Y47591D01*
X71982Y46941D02*
X73281D01*
X72632Y46291D02*
Y47591D01*
X86155Y51665D02*
X87454D01*
X86805Y51016D02*
Y52315D01*
X81431Y51665D02*
X82730D01*
X82081Y51016D02*
Y52315D01*
X76706Y51665D02*
X78006D01*
X77356Y51016D02*
Y52315D01*
X71982Y51665D02*
X73281D01*
X72632Y51016D02*
Y52315D01*
X86155Y56390D02*
X87454D01*
X86805Y55740D02*
Y57039D01*
X81431Y56390D02*
X82730D01*
X82081Y55740D02*
Y57039D01*
X76706Y56390D02*
X78006D01*
X77356Y55740D02*
Y57039D01*
X71982Y56390D02*
X73281D01*
X72632Y55740D02*
Y57039D01*
X86155Y61114D02*
X87454D01*
X86805Y60465D02*
Y61764D01*
X81431Y61114D02*
X82730D01*
X82081Y60465D02*
Y61764D01*
X76706Y61114D02*
X78006D01*
X77356Y60465D02*
Y61764D01*
X71982Y61114D02*
X73281D01*
X72632Y60465D02*
Y61764D01*
X8071Y100866D02*
X12402D01*
X10236Y98701D02*
Y103032D01*
X8071Y110866D02*
X12402D01*
X10236Y108701D02*
Y113031D01*
X8071Y120866D02*
X12402D01*
X10236Y118701D02*
Y123031D01*
X8071Y130866D02*
X12402D01*
X10236Y128701D02*
Y133031D01*
X434646Y48622D02*
X438583D01*
X436614Y46654D02*
Y50591D01*
X434646Y81299D02*
X438583D01*
X436614Y79331D02*
Y83268D01*
X434646Y64961D02*
X438583D01*
X436614Y62992D02*
Y66929D01*
X434646Y72835D02*
X438583D01*
X436614Y70866D02*
Y74803D01*
X434646Y57087D02*
X438583D01*
X436614Y55118D02*
Y59055D01*
X87120Y417294D02*
X91136D01*
X89128Y415286D02*
Y419302D01*
X87120Y427294D02*
X91136D01*
X89128Y425286D02*
Y429302D01*
X87120Y437294D02*
X91136D01*
X89128Y435286D02*
Y439302D01*
X87120Y447294D02*
X91136D01*
X89128Y445286D02*
Y449302D01*
X87120Y457294D02*
X91136D01*
X89128Y455286D02*
Y459302D01*
X87120Y467294D02*
X91136D01*
X89128Y465286D02*
Y469302D01*
X184364Y417294D02*
X188380D01*
X186372Y415286D02*
Y419302D01*
X184364Y427294D02*
X188380D01*
X186372Y425286D02*
Y429302D01*
X184364Y437294D02*
X188380D01*
X186372Y435286D02*
Y439302D01*
X184364Y447294D02*
X188380D01*
X186372Y445286D02*
Y449302D01*
X184364Y457294D02*
X188380D01*
X186372Y455286D02*
Y459302D01*
X184364Y467294D02*
X188380D01*
X186372Y465286D02*
Y469302D01*
X306018Y417294D02*
X310034D01*
X308026Y415286D02*
Y419302D01*
X306018Y427294D02*
X310034D01*
X308026Y425286D02*
Y429302D01*
X306018Y437294D02*
X310034D01*
X308026Y435286D02*
Y439302D01*
X306018Y447294D02*
X310034D01*
X308026Y445286D02*
Y449302D01*
X306018Y457294D02*
X310034D01*
X308026Y455286D02*
Y459302D01*
X306018Y467294D02*
X310034D01*
X308026Y465286D02*
Y469302D01*
X403262Y417294D02*
X407278D01*
X405270Y415286D02*
Y419302D01*
X403262Y427294D02*
X407278D01*
X405270Y425286D02*
Y429302D01*
X403262Y437294D02*
X407278D01*
X405270Y435286D02*
Y439302D01*
X403262Y447294D02*
X407278D01*
X405270Y445286D02*
Y449302D01*
X403262Y457294D02*
X407278D01*
X405270Y455286D02*
Y459302D01*
X403262Y467294D02*
X407278D01*
X405270Y465286D02*
Y469302D01*
X524916Y417294D02*
X528931D01*
X526924Y415286D02*
Y419302D01*
X524916Y427294D02*
X528931D01*
X526924Y425286D02*
Y429302D01*
X524916Y437294D02*
X528931D01*
X526924Y435286D02*
Y439302D01*
X524916Y447294D02*
X528931D01*
X526924Y445286D02*
Y449302D01*
X524916Y457294D02*
X528931D01*
X526924Y455286D02*
Y459302D01*
X524916Y467294D02*
X528931D01*
X526924Y465286D02*
Y469302D01*
X622081Y417794D02*
X626097D01*
X624089Y415786D02*
Y419802D01*
X622081Y427794D02*
X626097D01*
X624089Y425786D02*
Y429802D01*
X622081Y437794D02*
X626097D01*
X624089Y435786D02*
Y439802D01*
X622081Y447794D02*
X626097D01*
X624089Y445786D02*
Y449802D01*
X622081Y457794D02*
X626097D01*
X624089Y455786D02*
Y459802D01*
X622081Y467794D02*
X626097D01*
X624089Y465786D02*
Y469802D01*
X559117Y97244D02*
X563717D01*
X561417Y94944D02*
Y99544D01*
X191587Y227311D02*
X194588D01*
X193087Y225811D02*
Y228811D01*
X201588Y227311D02*
X204588D01*
X203087Y225811D02*
Y228811D01*
X211588Y227311D02*
X214587D01*
X213088Y225811D02*
Y228811D01*
X221587Y227311D02*
X224587D01*
X223088Y225811D02*
Y228811D01*
X231588Y227311D02*
X234588D01*
X233087Y225811D02*
Y228811D01*
X241587Y227311D02*
X244587D01*
X243088Y225811D02*
Y228811D01*
X251588Y227311D02*
X254588D01*
X253087Y225811D02*
Y228811D01*
X261588Y227311D02*
X264587D01*
X263088Y225811D02*
Y228811D01*
X271587Y227311D02*
X274587D01*
X273088Y225811D02*
Y228811D01*
X281588Y227311D02*
X284588D01*
X283087Y225811D02*
Y228811D01*
X291587Y227311D02*
X294587D01*
X293088Y225811D02*
Y228811D01*
X301588Y227311D02*
X304588D01*
X303087Y225811D02*
Y228811D01*
X311588Y227311D02*
X314587D01*
X313088Y225811D02*
Y228811D01*
X321587Y227311D02*
X324587D01*
X323088Y225811D02*
Y228811D01*
X331588Y227311D02*
X334588D01*
X333087Y225811D02*
Y228811D01*
X341587Y227311D02*
X344587D01*
X343088Y225811D02*
Y228811D01*
X351588Y227311D02*
X354588D01*
X353087Y225811D02*
Y228811D01*
X361588Y227311D02*
X364587D01*
X363088Y225811D02*
Y228811D01*
X371587Y227311D02*
X374587D01*
X373088Y225811D02*
Y228811D01*
X381588Y227311D02*
X384588D01*
X383087Y225811D02*
Y228811D01*
X381588Y37311D02*
X384588D01*
X383087Y35811D02*
Y38811D01*
X371587Y37311D02*
X374587D01*
X373088Y35811D02*
Y38811D01*
X361588Y37311D02*
X364587D01*
X363088Y35811D02*
Y38811D01*
X211588Y37311D02*
X214587D01*
X213088Y35811D02*
Y38811D01*
X201588Y37311D02*
X204588D01*
X203087Y35811D02*
Y38811D01*
X191587Y37311D02*
X194588D01*
X193087Y35811D02*
Y38811D01*
X451968Y24016D02*
X463779D01*
X457874Y18110D02*
Y29921D01*
X12205Y67716D02*
X24016D01*
X18110Y61811D02*
Y73622D01*
X425984Y524409D02*
X437795D01*
X431890Y518504D02*
Y530315D01*
X206693Y523622D02*
X218504D01*
X212598Y517717D02*
Y529528D01*
X435827Y276772D02*
X440551D01*
X438189Y274409D02*
Y279134D01*
X435827Y231102D02*
X440551D01*
X438189Y228740D02*
Y233465D01*
X169788Y402774D02*
X173388D01*
X171588Y400974D02*
Y404574D01*
X159788Y402774D02*
X163388D01*
X161588Y400974D02*
Y404574D01*
X149788Y402774D02*
X153388D01*
X151588Y400974D02*
Y404574D01*
X139788Y402774D02*
X143388D01*
X141588Y400974D02*
Y404574D01*
X129788Y402774D02*
X133388D01*
X131588Y400974D02*
Y404574D01*
X388685Y402774D02*
X392285D01*
X390485Y400974D02*
Y404574D01*
X378685Y402774D02*
X382285D01*
X380485Y400974D02*
Y404574D01*
X368685Y402774D02*
X372285D01*
X370485Y400974D02*
Y404574D01*
X358685Y402774D02*
X362285D01*
X360485Y400974D02*
Y404574D01*
X348685Y402774D02*
X352285D01*
X350485Y400974D02*
Y404574D01*
X106102Y17717D02*
X108858D01*
X107480Y16339D02*
Y19095D01*
X106102Y22717D02*
X108858D01*
X107480Y21339D02*
Y24095D01*
X111102Y17717D02*
X113858D01*
X112480Y16339D02*
Y19095D01*
X111102Y22717D02*
X113858D01*
X112480Y21339D02*
Y24095D01*
X116102Y17717D02*
X118858D01*
X117480Y16339D02*
Y19095D01*
X116102Y22717D02*
X118858D01*
X117480Y21339D02*
Y24095D01*
X121102Y17717D02*
X123858D01*
X122480Y16339D02*
Y19095D01*
X121102Y22717D02*
X123858D01*
X122480Y21339D02*
Y24095D01*
X126102Y17717D02*
X128858D01*
X127480Y16339D02*
Y19095D01*
X126102Y22717D02*
X128858D01*
X127480Y21339D02*
Y24095D01*
X607296Y402774D02*
X610896D01*
X609096Y400974D02*
Y404573D01*
X597296Y402774D02*
X600896D01*
X599096Y400974D02*
Y404573D01*
X587296Y402774D02*
X590896D01*
X589096Y400974D02*
Y404573D01*
X577296Y402774D02*
X580896D01*
X579096Y400974D02*
Y404573D01*
X567296Y402774D02*
X570896D01*
X569096Y400974D02*
Y404573D01*
X291441Y402774D02*
X295041D01*
X293241Y400974D02*
Y404573D01*
X281441Y402774D02*
X285041D01*
X283241Y400974D02*
Y404573D01*
X271441Y402774D02*
X275041D01*
X273241Y400974D02*
Y404573D01*
X261441Y402774D02*
X265041D01*
X263241Y400974D02*
Y404573D01*
X251441Y402774D02*
X255041D01*
X253241Y400974D02*
Y404573D01*
X510339Y402774D02*
X513939D01*
X512139Y400974D02*
Y404573D01*
X500339Y402774D02*
X503939D01*
X502139Y400974D02*
Y404573D01*
X490339Y402774D02*
X493939D01*
X492139Y400974D02*
Y404573D01*
X480339Y402774D02*
X483939D01*
X482139Y400974D02*
Y404573D01*
X470339Y402774D02*
X473939D01*
X472139Y400974D02*
Y404573D01*
X72544Y402774D02*
X76144D01*
X74344Y400974D02*
Y404573D01*
X62544Y402774D02*
X66144D01*
X64344Y400974D02*
Y404573D01*
X52544Y402774D02*
X56144D01*
X54344Y400974D02*
Y404573D01*
X42544Y402774D02*
X46144D01*
X44344Y400974D02*
Y404573D01*
X32544Y402774D02*
X36144D01*
X34344Y400974D02*
Y404573D01*
X20276Y222146D02*
X21063D01*
X20669Y221752D02*
Y222539D01*
X15945Y222146D02*
X16732D01*
X16339Y221752D02*
Y222539D01*
X12773Y187795D02*
X15573D01*
X14173Y186395D02*
Y189195D01*
X145473Y115644D02*
X146654D01*
X146063Y115053D02*
Y116234D01*
X170488Y108661D02*
X171669D01*
X171079Y108071D02*
Y109252D01*
X176318Y108767D02*
X177499D01*
X176909Y108177D02*
Y109358D01*
X173356Y108837D02*
X174537D01*
X173946Y108246D02*
Y109427D01*
X179178Y108658D02*
X180359D01*
X179769Y108067D02*
Y109248D01*
X164764Y108661D02*
X165945D01*
X165354Y108071D02*
Y109252D01*
X167626Y108661D02*
X168807D01*
X168217Y108071D02*
Y109252D01*
X81693Y158268D02*
X82874D01*
X82284Y157677D02*
Y158858D01*
X80524Y178199D02*
X81706D01*
X81115Y177608D02*
Y178789D01*
X15945Y110630D02*
X17126D01*
X16535Y110039D02*
Y111221D01*
X15945Y120472D02*
X17126D01*
X16535Y119882D02*
Y121063D01*
X15945Y130709D02*
X17126D01*
X16535Y130118D02*
Y131299D01*
X557970Y102557D02*
X559151D01*
X558561Y101967D02*
Y103148D01*
X555568Y100205D02*
X556749D01*
X556158Y99615D02*
Y100796D01*
X552205Y100205D02*
X553386D01*
X552796Y99615D02*
Y100796D01*
X548843Y100205D02*
X550024D01*
X549434Y99615D02*
Y100796D01*
X545481Y100205D02*
X546662D01*
X546072Y99615D02*
Y100796D01*
X542119Y100205D02*
X543300D01*
X542709Y99615D02*
Y100796D01*
X538757Y100205D02*
X539938D01*
X539347Y99615D02*
Y100796D01*
X535394Y100205D02*
X536576D01*
X535985Y99615D02*
Y100796D01*
X532032Y100205D02*
X533213D01*
X532623Y99615D02*
Y100796D01*
X528670Y100205D02*
X529851D01*
X529261Y99615D02*
Y100796D01*
X525308Y100205D02*
X526489D01*
X525898Y99615D02*
Y100796D01*
X521946Y100205D02*
X523127D01*
X522536Y99615D02*
Y100796D01*
X518583Y100205D02*
X519765D01*
X519174Y99615D02*
Y100796D01*
X515221Y100205D02*
X516402D01*
X515812Y99615D02*
Y100796D01*
X511859Y100205D02*
X513040D01*
X512450Y99615D02*
Y100796D01*
X508497Y100205D02*
X509678D01*
X509087Y99615D02*
Y100796D01*
X505135Y100205D02*
X506316D01*
X505725Y99615D02*
Y100796D01*
X501772Y100205D02*
X502953D01*
X502363Y99615D02*
Y100796D01*
X498410Y100205D02*
X499591D01*
X499001Y99615D02*
Y100796D01*
X495048Y100205D02*
X496229D01*
X495639Y99615D02*
Y100796D01*
X491686Y100205D02*
X492867D01*
X492276Y99615D02*
Y100796D01*
X488324Y100205D02*
X489505D01*
X488914Y99615D02*
Y100796D01*
X484961Y100205D02*
X486142D01*
X485552Y99615D02*
Y100796D01*
X481599Y100205D02*
X482780D01*
X482190Y99615D02*
Y100796D01*
X481703Y94283D02*
X482884D01*
X482293Y93692D02*
Y94873D01*
X485065Y94283D02*
X486246D01*
X485655Y93692D02*
Y94873D01*
X488427Y94283D02*
X489608D01*
X489018Y93692D02*
Y94873D01*
X491789Y94283D02*
X492970D01*
X492380Y93692D02*
Y94873D01*
X498514Y94283D02*
X499695D01*
X499104Y93692D02*
Y94873D01*
X505238Y94283D02*
X506419D01*
X505829Y93692D02*
Y94873D01*
X508600Y94283D02*
X509781D01*
X509191Y93692D02*
Y94873D01*
X515325Y94283D02*
X516506D01*
X515915Y93692D02*
Y94873D01*
X522049Y94283D02*
X523230D01*
X522640Y93692D02*
Y94873D01*
X528773Y94283D02*
X529955D01*
X529364Y93692D02*
Y94873D01*
X532136Y94283D02*
X533317D01*
X532726Y93692D02*
Y94873D01*
X538860Y94283D02*
X540041D01*
X539451Y93692D02*
Y94873D01*
X545584Y94283D02*
X546766D01*
X546175Y93692D02*
Y94873D01*
X552309Y94283D02*
X553490D01*
X552899Y93692D02*
Y94873D01*
X555668Y94129D02*
X556849D01*
X556258Y93538D02*
Y94720D01*
X561441Y91250D02*
X562622D01*
X562032Y90659D02*
Y91840D01*
X566518Y95245D02*
X567699D01*
X567109Y94655D02*
Y95836D01*
X566707Y98602D02*
X567888D01*
X567298Y98011D02*
Y99193D01*
X565055Y101530D02*
X566236D01*
X565645Y100940D02*
Y102121D01*
X562109Y103150D02*
X563290D01*
X562699Y102560D02*
Y103741D01*
X45472Y53543D02*
X46654D01*
X46063Y52953D02*
Y54134D01*
X36811Y41732D02*
X37992D01*
X37402Y41142D02*
Y42323D01*
X39961Y46457D02*
X41142D01*
X40551Y45866D02*
Y47047D01*
X41535Y41732D02*
X42717D01*
X42126Y41142D02*
Y42323D01*
X42717Y50000D02*
X43898D01*
X43307Y49409D02*
Y50591D01*
X373761Y232822D02*
X374942D01*
X374351Y232232D02*
Y233413D01*
X178633Y24212D02*
X179814D01*
X179223Y23622D02*
Y24803D01*
X238970Y24212D02*
X240152D01*
X239561Y23622D02*
Y24803D01*
X419983Y24212D02*
X421164D01*
X420574Y23622D02*
Y24803D01*
X174894Y147244D02*
X176075D01*
X175484Y146653D02*
Y147835D01*
X172031Y147244D02*
X173213D01*
X172622Y146653D02*
Y147835D01*
X177756Y147244D02*
X178937D01*
X178347Y146653D02*
Y147835D01*
X171457Y222441D02*
X172638D01*
X172047Y221850D02*
Y223031D01*
X174102Y224693D02*
X175283D01*
X174692Y224102D02*
Y225283D01*
X176126Y226716D02*
X177307D01*
X176716Y226126D02*
Y227307D01*
X181555Y147638D02*
X182736D01*
X182146Y147047D02*
Y148228D01*
X197835Y144158D02*
X199016D01*
X198425Y143567D02*
Y144748D01*
X193004Y147638D02*
X194185D01*
X193595Y147047D02*
Y148228D01*
X184417Y147638D02*
X185598D01*
X185008Y147047D02*
Y148228D01*
X197835Y121260D02*
X199016D01*
X198425Y120669D02*
Y121851D01*
X197835Y124122D02*
X199016D01*
X198425Y123531D02*
Y124713D01*
X197835Y126984D02*
X199016D01*
X198425Y126394D02*
Y127575D01*
X197835Y129847D02*
X199016D01*
X198425Y129256D02*
Y130437D01*
X197835Y132709D02*
X199016D01*
X198425Y132118D02*
Y133299D01*
X197835Y135571D02*
X199016D01*
X198425Y134980D02*
Y136161D01*
X197835Y138433D02*
X199016D01*
X198425Y137843D02*
Y139024D01*
X197835Y141295D02*
X199016D01*
X198425Y140705D02*
Y141886D01*
X187279Y147638D02*
X188461D01*
X187870Y147047D02*
Y148228D01*
X190142Y147638D02*
X191323D01*
X190732Y147047D02*
Y148228D01*
X195866Y147638D02*
X197047D01*
X196457Y147047D02*
Y148228D01*
X189961Y205906D02*
X191142D01*
X190551Y205315D02*
Y206496D01*
X180905Y207087D02*
X182087D01*
X181496Y206496D02*
Y207677D01*
X183768Y207087D02*
X184949D01*
X184358Y206496D02*
Y207677D01*
X186630Y207087D02*
X187811D01*
X187221Y206496D02*
Y207677D01*
X196228Y209449D02*
X197409D01*
X196819Y208858D02*
Y210039D01*
X210539Y209449D02*
X211720D01*
X211130Y208858D02*
Y210039D01*
X204815Y209449D02*
X205996D01*
X205405Y208858D02*
Y210039D01*
X199091Y209449D02*
X200272D01*
X199681Y208858D02*
Y210039D01*
X207677Y209449D02*
X208858D01*
X208268Y208858D02*
Y210039D01*
X201953Y209449D02*
X203134D01*
X202543Y208858D02*
Y210039D01*
X190748Y215748D02*
X191929D01*
X191339Y215158D02*
Y216339D01*
X206990Y220866D02*
X208171D01*
X207580Y220276D02*
Y221457D01*
X178150Y228740D02*
X179331D01*
X178740Y228150D02*
Y229331D01*
X299308Y24212D02*
X300489D01*
X299899Y23622D02*
Y24803D01*
X363918Y232822D02*
X365099D01*
X364509Y232232D02*
Y233413D01*
X354076Y232822D02*
X355257D01*
X354666Y232232D02*
Y233413D01*
X343446Y232822D02*
X344627D01*
X344036Y232232D02*
Y233413D01*
X359646Y24212D02*
X360827D01*
X360236Y23622D02*
Y24803D01*
X423819Y111024D02*
X425000D01*
X424409Y110433D02*
Y111614D01*
X135574Y170528D02*
X136756D01*
X136165Y169937D02*
Y171118D01*
X129499Y176604D02*
X130680D01*
X130089Y176013D02*
Y177194D01*
X12762Y173151D02*
X15562D01*
X14162Y171751D02*
Y174551D01*
X145473Y112782D02*
X146654D01*
X146063Y112191D02*
Y113372D01*
X145473Y109919D02*
X146654D01*
X146063Y109329D02*
Y110510D01*
X15748Y248031D02*
X18110D01*
X16929Y246850D02*
Y249213D01*
X15551Y238968D02*
X16732D01*
X16142Y238378D02*
Y239559D01*
X162598Y309549D02*
X164961D01*
X163779Y308368D02*
Y310730D01*
X284052Y309440D02*
X286414D01*
X285233Y308259D02*
Y310621D01*
X600394Y309055D02*
X602756D01*
X601575Y307874D02*
Y310236D01*
X65354Y309055D02*
X67716D01*
X66535Y307874D02*
Y310236D01*
X382283Y313779D02*
X384646D01*
X383465Y312598D02*
Y314961D01*
X502756Y308661D02*
X505118D01*
X503937Y307480D02*
Y309842D01*
X189567Y236910D02*
X190748D01*
X190157Y236319D02*
Y237500D01*
X145473Y118508D02*
X146654D01*
X146063Y117918D02*
Y119099D01*
X1772Y37795D02*
X2953D01*
X2362Y37205D02*
Y38386D01*
X6497Y37795D02*
X7678D01*
X7087Y37205D02*
Y38386D01*
X11222Y37795D02*
X12403D01*
X11812Y37205D02*
Y38386D01*
X15947Y37795D02*
X17128D01*
X16538Y37205D02*
Y38386D01*
X20672Y37795D02*
X21853D01*
X21263Y37205D02*
Y38386D01*
X25397Y37795D02*
X26579D01*
X25988Y37205D02*
Y38386D01*
X30123Y37795D02*
X31304D01*
X30713Y37205D02*
Y38386D01*
X34848Y37795D02*
X36029D01*
X35438Y37205D02*
Y38386D01*
X39573Y37795D02*
X40754D01*
X40163Y37205D02*
Y38386D01*
X65551Y3937D02*
X66732D01*
X66142Y3347D02*
Y4528D01*
X65551Y8196D02*
X66732D01*
X66142Y7606D02*
Y8787D01*
X161614Y242913D02*
X162795D01*
X162205Y242323D02*
Y243504D01*
X59648Y111762D02*
X60829D01*
X60238Y111172D02*
Y112353D01*
X60039Y133732D02*
X61221D01*
X60630Y133142D02*
Y134323D01*
X57941Y137432D02*
X59122D01*
X58532Y136841D02*
Y138022D01*
X206102Y284252D02*
X207283D01*
X206693Y283661D02*
Y284842D01*
X211614Y284252D02*
X212795D01*
X212205Y283661D02*
Y284842D01*
X208089Y280980D02*
X209271D01*
X208680Y280390D02*
Y281571D01*
X217520Y284252D02*
X218701D01*
X218110Y283661D02*
Y284842D01*
X215551Y281937D02*
X216732D01*
X216142Y281346D02*
Y282527D01*
X326130Y278179D02*
X327311D01*
X326721Y277588D02*
Y278769D01*
X215551Y279075D02*
X216732D01*
X216142Y278484D02*
Y279665D01*
X215551Y276213D02*
X216732D01*
X216142Y275622D02*
Y276803D01*
X205709Y279134D02*
X206890D01*
X206299Y278543D02*
Y279724D01*
X202972Y277572D02*
X204153D01*
X203563Y276981D02*
Y278163D01*
X200591Y275984D02*
X201772D01*
X201181Y275394D02*
Y276575D01*
X293310Y277751D02*
X294491D01*
X293900Y277160D02*
Y278341D01*
X303721Y277178D02*
X304902D01*
X304311Y276588D02*
Y277769D01*
X306102Y275590D02*
X307283D01*
X306693Y275000D02*
Y276181D01*
X316339Y277559D02*
X317520D01*
X316929Y276969D02*
Y278150D01*
X334055Y278346D02*
X335236D01*
X334646Y277756D02*
Y278937D01*
X349410Y278346D02*
X350590D01*
X350000Y277756D02*
Y278937D01*
X382087Y275984D02*
X383268D01*
X382677Y275394D02*
Y276575D01*
X384842Y278346D02*
X386024D01*
X385433Y277756D02*
Y278937D01*
X208762Y237795D02*
X209943D01*
X209352Y237205D02*
Y238386D01*
X221200Y253075D02*
X222382D01*
X221791Y252484D02*
Y253665D01*
X196653Y280315D02*
X197835D01*
X197244Y279724D02*
Y280906D01*
X230315Y253543D02*
X231496D01*
X230906Y252953D02*
Y254134D01*
X230315Y258086D02*
X231496D01*
X230906Y257496D02*
Y258677D01*
X203037Y237795D02*
X204218D01*
X203628Y237205D02*
Y238386D01*
X200175Y237795D02*
X201356D01*
X200765Y237205D02*
Y238386D01*
X197313Y237795D02*
X198494D01*
X197903Y237205D02*
Y238386D01*
X205899Y237795D02*
X207080D01*
X206490Y237205D02*
Y238386D01*
X221200Y267248D02*
X222382D01*
X221791Y266657D02*
Y267839D01*
X211624Y237795D02*
X212805D01*
X212214Y237205D02*
Y238386D01*
X195799Y242913D02*
X196980D01*
X196390Y242323D02*
Y243504D01*
X227559Y266535D02*
X228740D01*
X228150Y265945D02*
Y267126D01*
X155709Y237008D02*
X156890D01*
X156299Y236417D02*
Y237598D01*
X171850Y242913D02*
X173031D01*
X172441Y242323D02*
Y243504D01*
X192854Y280240D02*
X194035D01*
X193445Y279649D02*
Y280831D01*
X187342Y253075D02*
X188523D01*
X187933Y252484D02*
Y253665D01*
X187342Y267248D02*
X188523D01*
X187933Y266657D02*
Y267839D01*
X183661Y260358D02*
X184843D01*
X184252Y259768D02*
Y260949D01*
X174983Y260006D02*
X176164D01*
X175573Y259416D02*
Y260597D01*
X162933Y280634D02*
X164114D01*
X163523Y280043D02*
Y281224D01*
X158996Y280634D02*
X160177D01*
X159586Y280043D02*
Y281224D01*
X397441Y276378D02*
X398622D01*
X398031Y275787D02*
Y276969D01*
X389567Y277953D02*
X390748D01*
X390158Y277362D02*
Y278543D01*
X392323Y275984D02*
X393504D01*
X392913Y275394D02*
Y276575D01*
X374606Y275984D02*
X375787D01*
X375197Y275394D02*
Y276575D01*
X379725Y278346D02*
X380906D01*
X380315Y277756D02*
Y278937D01*
X394685Y278346D02*
X395866D01*
X395276Y277756D02*
Y278937D01*
X372244Y278346D02*
X373425D01*
X372835Y277756D02*
Y278937D01*
X367126Y278346D02*
X368307D01*
X367717Y277756D02*
Y278937D01*
X369488Y275984D02*
X370669D01*
X370079Y275394D02*
Y276575D01*
X293307Y240945D02*
X294488D01*
X293898Y240354D02*
Y241535D01*
X266535Y240945D02*
X267717D01*
X267126Y240354D02*
Y241535D01*
X270473Y240945D02*
X271654D01*
X271063Y240354D02*
Y241535D01*
X248031Y240945D02*
X249213D01*
X248622Y240354D02*
Y241535D01*
X316142Y240945D02*
X317323D01*
X316732Y240354D02*
Y241535D01*
X289370Y240945D02*
X290551D01*
X289961Y240354D02*
Y241535D01*
X312205Y240945D02*
X313386D01*
X312795Y240354D02*
Y241535D01*
X335039Y240945D02*
X336221D01*
X335630Y240354D02*
Y241535D01*
X338977Y240945D02*
X340158D01*
X339567Y240354D02*
Y241535D01*
X244094Y240945D02*
X245276D01*
X244685Y240354D02*
Y241535D01*
X357480Y240945D02*
X358661D01*
X358071Y240354D02*
Y241535D01*
X361417Y240945D02*
X362598D01*
X362008Y240354D02*
Y241535D01*
X384146Y240885D02*
X385327D01*
X384736Y240295D02*
Y241476D01*
X403150Y240551D02*
X404331D01*
X403740Y239961D02*
Y241142D01*
X380315Y240945D02*
X381496D01*
X380906Y240354D02*
Y241535D01*
X407087Y240551D02*
X408268D01*
X407677Y239961D02*
Y241142D01*
X388583Y243701D02*
X389764D01*
X389173Y243110D02*
Y244291D01*
X397351Y244488D02*
X398532D01*
X397941Y243898D02*
Y245079D01*
X394488Y244488D02*
X395669D01*
X395079Y243898D02*
Y245079D01*
X374516Y244488D02*
X375697D01*
X375106Y243898D02*
Y245079D01*
X371654Y244488D02*
X372835D01*
X372244Y243898D02*
Y245079D01*
X364961Y244094D02*
X366142D01*
X365551Y243504D02*
Y244685D01*
X342126Y244382D02*
X343307D01*
X342717Y243791D02*
Y244972D01*
X344094Y258086D02*
X345276D01*
X344685Y257496D02*
Y258677D01*
X348819Y244488D02*
X350000D01*
X349409Y243898D02*
Y245079D01*
X351681Y244488D02*
X352862D01*
X352272Y243898D02*
Y245079D01*
X361614Y278346D02*
X362795D01*
X362205Y277756D02*
Y278937D01*
X346654Y275984D02*
X347835D01*
X347244Y275394D02*
Y276575D01*
X359205Y275984D02*
X360386D01*
X359796Y275394D02*
Y276575D01*
X356890Y278346D02*
X358071D01*
X357480Y277756D02*
Y278937D01*
X352165Y276378D02*
X353346D01*
X352756Y275787D02*
Y276969D01*
X344291Y278346D02*
X345472D01*
X344882Y277756D02*
Y278937D01*
X338779Y278346D02*
X339961D01*
X339370Y277756D02*
Y278937D01*
X321260Y253543D02*
X322441D01*
X321850Y252953D02*
Y254134D01*
X321260Y258086D02*
X322441D01*
X321850Y257496D02*
Y258677D01*
X315806Y262702D02*
X316987D01*
X316396Y262111D02*
Y263293D01*
X308662Y266535D02*
X309843D01*
X309252Y265945D02*
Y267126D01*
X320071Y266505D02*
X321252D01*
X320662Y265914D02*
Y267095D01*
X324122Y253543D02*
X325303D01*
X324713Y252953D02*
Y254134D01*
X298425Y253543D02*
X299606D01*
X299016Y252953D02*
Y254134D01*
X298425Y258086D02*
X299606D01*
X299016Y257496D02*
Y258677D01*
X297350Y266201D02*
X298532D01*
X297941Y265610D02*
Y266792D01*
X301288Y253543D02*
X302469D01*
X301878Y252953D02*
Y254134D01*
X293141Y262931D02*
X294322D01*
X293731Y262340D02*
Y263521D01*
X290784Y265268D02*
X291965D01*
X291374Y264678D02*
Y265859D01*
X288597Y263099D02*
X289778D01*
X289188Y262508D02*
Y263689D01*
X310899Y262711D02*
X312080D01*
X311490Y262120D02*
Y263301D01*
X313426Y264293D02*
X314607D01*
X314016Y263702D02*
Y264883D01*
X274366Y244406D02*
X275547D01*
X274957Y243815D02*
Y244996D01*
X326378Y244488D02*
X327559D01*
X326968Y243898D02*
Y245079D01*
X280709Y244488D02*
X281890D01*
X281299Y243898D02*
Y245079D01*
X283570Y244410D02*
X284751D01*
X284160Y243820D02*
Y245001D01*
X251575Y244094D02*
X252756D01*
X252165Y243504D02*
Y244685D01*
X257874Y244488D02*
X259055D01*
X258465Y243898D02*
Y245079D01*
X260736Y244488D02*
X261917D01*
X261327Y243898D02*
Y245079D01*
X303543Y244488D02*
X304724D01*
X304134Y243898D02*
Y245079D01*
X306405Y244488D02*
X307587D01*
X306996Y243898D02*
Y245079D01*
X296850Y244094D02*
X298032D01*
X297441Y243504D02*
Y244685D01*
X320026Y244415D02*
X321207D01*
X320617Y243824D02*
Y245005D01*
X329240Y244488D02*
X330421D01*
X329831Y243898D02*
Y245079D01*
X399606Y266535D02*
X400787D01*
X400197Y265945D02*
Y267126D01*
X365741Y266505D02*
X366922D01*
X366331Y265914D02*
Y267095D01*
X377165Y266535D02*
X378346D01*
X377756Y265945D02*
Y267126D01*
X387048Y266554D02*
X388229D01*
X387638Y265963D02*
Y267144D01*
X379480Y262991D02*
X380661D01*
X380070Y262401D02*
Y263582D01*
X392800Y253543D02*
X393981D01*
X393390Y252953D02*
Y254134D01*
X384664Y262928D02*
X385845D01*
X385254Y262338D02*
Y263519D01*
X382087Y264173D02*
X383268D01*
X382677Y263583D02*
Y264764D01*
X370079Y253543D02*
X371260D01*
X370669Y252953D02*
Y254134D01*
X283268Y275590D02*
X284449D01*
X283858Y275000D02*
Y276181D01*
X276461Y253543D02*
X277642D01*
X277052Y252953D02*
Y254134D01*
X275984Y258086D02*
X277165D01*
X276575Y257496D02*
Y258677D01*
X278150Y275590D02*
X279331D01*
X278740Y275000D02*
Y276181D01*
X280906Y277559D02*
X282087D01*
X281496Y276969D02*
Y278150D01*
X271063Y277559D02*
X272244D01*
X271654Y276969D02*
Y278150D01*
X271270Y262651D02*
X272451D01*
X271861Y262060D02*
Y263241D01*
X268504Y275590D02*
X269685D01*
X269094Y275000D02*
Y276181D01*
X268504Y263386D02*
X269685D01*
X269094Y262795D02*
Y263976D01*
X265414Y262711D02*
X266595D01*
X266004Y262120D02*
Y263301D01*
X265945Y277559D02*
X267126D01*
X266535Y276969D02*
Y278150D01*
X279443Y253854D02*
X280624D01*
X280033Y253264D02*
Y254445D01*
X275787Y277559D02*
X276969D01*
X276378Y276969D02*
Y278150D01*
X323766Y276261D02*
X324947D01*
X324356Y275671D02*
Y276852D01*
X321457Y277953D02*
X322638D01*
X322047Y277362D02*
Y278543D01*
X336398Y276378D02*
X337579D01*
X336989Y275787D02*
Y276969D01*
X328551Y276378D02*
X329732D01*
X329142Y275787D02*
Y276969D01*
X298228Y277559D02*
X299410D01*
X298819Y276969D02*
Y278150D01*
X290945Y275984D02*
X292126D01*
X291535Y275394D02*
Y276575D01*
X288386Y277559D02*
X289567D01*
X288976Y276969D02*
Y278150D01*
X300984Y275590D02*
X302165D01*
X301575Y275000D02*
Y276181D01*
X310825Y277179D02*
X312006D01*
X311416Y276589D02*
Y277770D01*
X313426Y275984D02*
X314607D01*
X314016Y275394D02*
Y276575D01*
X245696Y275657D02*
X246877D01*
X246287Y275066D02*
Y276248D01*
X252010Y266448D02*
X253192D01*
X252601Y265858D02*
Y267039D01*
X253150Y253543D02*
X254331D01*
X253740Y252953D02*
Y254134D01*
X253150Y258086D02*
X254331D01*
X253740Y257496D02*
Y258677D01*
X247835Y277559D02*
X249016D01*
X248425Y276969D02*
Y278150D01*
X245701Y263968D02*
X246882D01*
X246291Y263378D02*
Y264559D01*
X255709Y275590D02*
X256890D01*
X256299Y275000D02*
Y276181D01*
X256012Y253543D02*
X257193D01*
X256602Y252953D02*
Y254134D01*
X248345Y262875D02*
X249527D01*
X248936Y262284D02*
Y263465D01*
X252953Y277559D02*
X254134D01*
X253543Y276969D02*
Y278150D01*
X260433Y275590D02*
X261614D01*
X261024Y275000D02*
Y276181D01*
X258071Y277559D02*
X259252D01*
X258661Y276969D02*
Y278150D01*
X356634Y262866D02*
X357815D01*
X357225Y262276D02*
Y263457D01*
X361477Y263099D02*
X362658D01*
X362067Y262508D02*
Y263689D01*
X354331Y266535D02*
X355512D01*
X354921Y265945D02*
Y267126D01*
X359115Y265067D02*
X360296D01*
X359705Y264476D02*
Y265657D01*
X344094Y253543D02*
X345276D01*
X344685Y252953D02*
Y254134D01*
X346957Y253543D02*
X348138D01*
X347547Y252953D02*
Y254134D01*
X338670Y262677D02*
X339851D01*
X339260Y262086D02*
Y263267D01*
X336327Y264321D02*
X337508D01*
X336917Y263730D02*
Y264911D01*
X333753Y262731D02*
X334935D01*
X334344Y262141D02*
Y263322D01*
X341437Y266712D02*
X342618D01*
X342028Y266121D02*
Y267302D01*
X331496Y266535D02*
X332677D01*
X332087Y265945D02*
Y267126D01*
X230118Y275984D02*
X231299D01*
X230709Y275394D02*
Y276575D01*
X235253Y275968D02*
X236434D01*
X235843Y275377D02*
Y276558D01*
X232874Y277559D02*
X234055D01*
X233465Y276969D02*
Y278150D01*
X240551Y266535D02*
X241732D01*
X241142Y265945D02*
Y267126D01*
X243022Y262959D02*
X244203D01*
X243613Y262368D02*
Y263549D01*
X243110Y277559D02*
X244291D01*
X243701Y276969D02*
Y278150D01*
X237992Y277559D02*
X239173D01*
X238583Y276969D02*
Y278150D01*
X262992Y266535D02*
X264173D01*
X263583Y265945D02*
Y267126D01*
X285827Y266535D02*
X287008D01*
X286417Y265945D02*
Y267126D01*
X274845Y266448D02*
X276026D01*
X275436Y265858D02*
Y267039D01*
X389764Y253543D02*
X390945D01*
X390354Y252953D02*
Y254134D01*
X366929Y258086D02*
X368110D01*
X367520Y257496D02*
Y258677D01*
X366929Y253543D02*
X368110D01*
X367520Y252953D02*
Y254134D01*
X389764Y258086D02*
X390945D01*
X390354Y257496D02*
Y258677D01*
X275833Y519685D02*
X277014D01*
X276424Y519095D02*
Y520276D01*
X276052Y489764D02*
X277233D01*
X276642Y489173D02*
Y490354D01*
X229300Y519291D02*
X230481D01*
X229890Y518701D02*
Y519882D01*
X228513Y489764D02*
X229694D01*
X229103Y489173D02*
Y490354D01*
X275787Y381496D02*
X276968D01*
X276378Y380906D02*
Y382087D01*
X227756Y321654D02*
X228937D01*
X228346Y321063D02*
Y322244D01*
X275787Y321654D02*
X276968D01*
X276378Y321063D02*
Y322244D01*
X228020Y351575D02*
X229201D01*
X228611Y350984D02*
Y352165D01*
X275658Y351181D02*
X276839D01*
X276249Y350590D02*
Y351772D01*
X227891Y381496D02*
X229072D01*
X228482Y380906D02*
Y382087D01*
X154179Y519685D02*
X155360D01*
X154770Y519095D02*
Y520276D01*
X154398Y489764D02*
X155579D01*
X154989Y489173D02*
Y490354D01*
X107646Y519291D02*
X108827D01*
X108237Y518701D02*
Y519882D01*
X106859Y489764D02*
X108040D01*
X107449Y489173D02*
Y490354D01*
X154134Y381496D02*
X155315D01*
X154724Y380906D02*
Y382087D01*
X106102Y321654D02*
X107283D01*
X106693Y321063D02*
Y322244D01*
X154134Y321654D02*
X155315D01*
X154724Y321063D02*
Y322244D01*
X106367Y351575D02*
X107548D01*
X106957Y350984D02*
Y352165D01*
X154005Y351181D02*
X155186D01*
X154595Y350591D02*
Y351772D01*
X106238Y381496D02*
X107419D01*
X106828Y380906D02*
Y382087D01*
X57154Y489764D02*
X58335D01*
X57745Y489173D02*
Y490354D01*
X8858Y321654D02*
X10039D01*
X9449Y321063D02*
Y322244D01*
X56890Y321654D02*
X58071D01*
X57480Y321063D02*
Y322244D01*
X9123Y351575D02*
X10304D01*
X9713Y350984D02*
Y352165D01*
X56761Y351181D02*
X57942D01*
X57351Y350591D02*
Y351772D01*
X8993Y381496D02*
X10175D01*
X9584Y380906D02*
Y382087D01*
X56890Y381496D02*
X58071D01*
X57480Y380906D02*
Y382087D01*
X9615Y489764D02*
X10796D01*
X10205Y489173D02*
Y490354D01*
X10402Y519291D02*
X11583D01*
X10993Y518701D02*
Y519882D01*
X56935Y519685D02*
X58116D01*
X57526Y519095D02*
Y520276D01*
X325000Y321654D02*
X326181D01*
X325591Y321063D02*
Y322244D01*
X373031Y321654D02*
X374213D01*
X373622Y321063D02*
Y322244D01*
X325264Y351575D02*
X326446D01*
X325855Y350984D02*
Y352165D01*
X372902Y351181D02*
X374083D01*
X373493Y350590D02*
Y351772D01*
X325135Y381496D02*
X326316D01*
X325726Y380906D02*
Y382087D01*
X373031Y381496D02*
X374213D01*
X373622Y380906D02*
Y382087D01*
X325757Y489764D02*
X326938D01*
X326347Y489173D02*
Y490354D01*
X326544Y519291D02*
X327725D01*
X327135Y518701D02*
Y519882D01*
X373296Y489764D02*
X374477D01*
X373887Y489173D02*
Y490354D01*
X373077Y519685D02*
X374258D01*
X373668Y519095D02*
Y520276D01*
X446654Y321654D02*
X447835D01*
X447244Y321063D02*
Y322244D01*
X494685Y321654D02*
X495866D01*
X495275Y321063D02*
Y322244D01*
X446918Y351575D02*
X448099D01*
X447508Y350984D02*
Y352165D01*
X494556Y351181D02*
X495737D01*
X495146Y350590D02*
Y351772D01*
X446789Y381496D02*
X447970D01*
X447379Y380906D02*
Y382087D01*
X494731Y519685D02*
X495912D01*
X495321Y519095D02*
Y520276D01*
X494950Y489764D02*
X496131D01*
X495540Y489173D02*
Y490354D01*
X448198Y519291D02*
X449379D01*
X448788Y518701D02*
Y519882D01*
X447410Y489764D02*
X448591D01*
X448001Y489173D02*
Y490354D01*
X494685Y381496D02*
X495866D01*
X495275Y380906D02*
Y382087D01*
X592194Y489764D02*
X593375D01*
X592784Y489173D02*
Y490354D01*
X544033Y381496D02*
X545214D01*
X544623Y380906D02*
Y382087D01*
X591800Y351181D02*
X592981D01*
X592390Y350590D02*
Y351772D01*
X543898Y321654D02*
X545079D01*
X544488Y321063D02*
Y322244D01*
X591929Y321654D02*
X593110D01*
X592520Y321063D02*
Y322244D01*
X544162Y351575D02*
X545343D01*
X544753Y350984D02*
Y352165D01*
X591975Y519685D02*
X593156D01*
X592565Y519095D02*
Y520276D01*
X545442Y519291D02*
X546623D01*
X546032Y518701D02*
Y519882D01*
X544654Y489764D02*
X545835D01*
X545245Y489173D02*
Y490354D01*
X591929Y381496D02*
X593110D01*
X592520Y380906D02*
Y382087D01*
X66535Y511811D02*
X68898D01*
X67716Y510630D02*
Y512992D01*
X55512Y475591D02*
X57874D01*
X56693Y474409D02*
Y476772D01*
X11024Y505512D02*
X13386D01*
X12205Y504331D02*
Y506693D01*
X11024Y475984D02*
X13386D01*
X12205Y474803D02*
Y477165D01*
X62205Y367323D02*
X64567D01*
X63386Y366142D02*
Y368504D01*
X11417Y367717D02*
X13780D01*
X12598Y366535D02*
Y368898D01*
X59449Y337795D02*
X61811D01*
X60630Y336614D02*
Y338976D01*
X11024Y337795D02*
X13386D01*
X12205Y336614D02*
Y338976D01*
X17717Y309842D02*
X20079D01*
X18898Y308661D02*
Y311024D01*
X61024Y460630D02*
X63386D01*
X62205Y459449D02*
Y461811D01*
X18504Y456299D02*
X20866D01*
X19685Y455118D02*
Y457480D01*
X66507Y468810D02*
X67688D01*
X67097Y468220D02*
Y469401D01*
X50878Y447244D02*
X52059D01*
X51468Y446654D02*
Y447835D01*
X23276Y364824D02*
X25638D01*
X24457Y363643D02*
Y366005D01*
X81325Y465354D02*
X83687D01*
X82506Y464173D02*
Y466535D01*
X65748Y474016D02*
X68110D01*
X66929Y472835D02*
Y475197D01*
X76378Y455512D02*
X78740D01*
X77559Y454331D02*
Y456693D01*
X163779Y511811D02*
X166142D01*
X164961Y510630D02*
Y512992D01*
X152756Y475591D02*
X155118D01*
X153937Y474409D02*
Y476772D01*
X108268Y505512D02*
X110630D01*
X109449Y504331D02*
Y506693D01*
X108268Y475984D02*
X110630D01*
X109449Y474803D02*
Y477165D01*
X159449Y367323D02*
X161811D01*
X160630Y366142D02*
Y368504D01*
X108661Y367717D02*
X111024D01*
X109843Y366535D02*
Y368898D01*
X156693Y337795D02*
X159055D01*
X157874Y336614D02*
Y338976D01*
X108268Y337795D02*
X110630D01*
X109449Y336614D02*
Y338976D01*
X114961Y309842D02*
X117323D01*
X116142Y308661D02*
Y311024D01*
X158268Y460630D02*
X160630D01*
X159449Y459449D02*
Y461811D01*
X115748Y456299D02*
X118110D01*
X116929Y455118D02*
Y457480D01*
X163751Y468810D02*
X164932D01*
X164341Y468220D02*
Y469401D01*
X148122Y447244D02*
X149303D01*
X148713Y446654D02*
Y447835D01*
X120520Y364824D02*
X122882D01*
X121701Y363643D02*
Y366005D01*
X178569Y465354D02*
X180931D01*
X179750Y464173D02*
Y466535D01*
X162992Y474016D02*
X165354D01*
X164173Y472835D02*
Y475197D01*
X173622Y455512D02*
X175984D01*
X174803Y454331D02*
Y456693D01*
X285433Y511811D02*
X287795D01*
X286614Y510630D02*
Y512992D01*
X274409Y475591D02*
X276772D01*
X275590Y474409D02*
Y476772D01*
X229921Y505512D02*
X232283D01*
X231102Y504331D02*
Y506693D01*
X229921Y475984D02*
X232283D01*
X231102Y474803D02*
Y477165D01*
X281102Y367323D02*
X283465D01*
X282283Y366142D02*
Y368504D01*
X230315Y367717D02*
X232677D01*
X231496Y366535D02*
Y368898D01*
X278346Y337795D02*
X280709D01*
X279527Y336614D02*
Y338976D01*
X229921Y337795D02*
X232283D01*
X231102Y336614D02*
Y338976D01*
X236614Y309842D02*
X238976D01*
X237795Y308661D02*
Y311024D01*
X279921Y460630D02*
X282283D01*
X281102Y459449D02*
Y461811D01*
X237402Y456299D02*
X239764D01*
X238583Y455118D02*
Y457480D01*
X285404Y468810D02*
X286585D01*
X285995Y468220D02*
Y469401D01*
X269776Y447244D02*
X270957D01*
X270366Y446654D02*
Y447835D01*
X242173Y364824D02*
X244535D01*
X243354Y363643D02*
Y366005D01*
X300223Y465354D02*
X302585D01*
X301404Y464173D02*
Y466535D01*
X284646Y474016D02*
X287008D01*
X285827Y472835D02*
Y475197D01*
X295276Y455512D02*
X297638D01*
X296457Y454331D02*
Y456693D01*
X382677Y511811D02*
X385039D01*
X383858Y510630D02*
Y512992D01*
X371654Y475591D02*
X374016D01*
X372835Y474409D02*
Y476772D01*
X327165Y505512D02*
X329527D01*
X328346Y504331D02*
Y506693D01*
X327165Y475984D02*
X329527D01*
X328346Y474803D02*
Y477165D01*
X378346Y367323D02*
X380709D01*
X379528Y366142D02*
Y368504D01*
X327559Y367717D02*
X329921D01*
X328740Y366535D02*
Y368898D01*
X375590Y337795D02*
X377953D01*
X376772Y336614D02*
Y338976D01*
X327165Y337795D02*
X329527D01*
X328346Y336614D02*
Y338976D01*
X333858Y309842D02*
X336221D01*
X335039Y308661D02*
Y311024D01*
X377165Y460630D02*
X379527D01*
X378346Y459449D02*
Y461811D01*
X334646Y456299D02*
X337008D01*
X335827Y455118D02*
Y457480D01*
X382648Y468810D02*
X383829D01*
X383239Y468220D02*
Y469401D01*
X367020Y447244D02*
X368201D01*
X367610Y446654D02*
Y447835D01*
X339417Y364824D02*
X341779D01*
X340598Y363643D02*
Y366005D01*
X397467Y465354D02*
X399829D01*
X398648Y464173D02*
Y466535D01*
X381890Y474016D02*
X384252D01*
X383071Y472835D02*
Y475197D01*
X392520Y455512D02*
X394882D01*
X393701Y454331D02*
Y456693D01*
X504331Y511811D02*
X506693D01*
X505512Y510630D02*
Y512992D01*
X493307Y475591D02*
X495669D01*
X494488Y474409D02*
Y476772D01*
X448819Y505512D02*
X451181D01*
X450000Y504331D02*
Y506693D01*
X448819Y475984D02*
X451181D01*
X450000Y474803D02*
Y477165D01*
X500000Y367323D02*
X502362D01*
X501181Y366142D02*
Y368504D01*
X449213Y367717D02*
X451575D01*
X450394Y366535D02*
Y368898D01*
X497244Y337795D02*
X499606D01*
X498425Y336614D02*
Y338976D01*
X448819Y337795D02*
X451181D01*
X450000Y336614D02*
Y338976D01*
X455512Y309842D02*
X457874D01*
X456693Y308661D02*
Y311024D01*
X498819Y460630D02*
X501181D01*
X500000Y459449D02*
Y461811D01*
X456299Y456299D02*
X458661D01*
X457480Y455118D02*
Y457480D01*
X504302Y468810D02*
X505483D01*
X504892Y468220D02*
Y469401D01*
X488673Y447244D02*
X489854D01*
X489264Y446654D02*
Y447835D01*
X461071Y364824D02*
X463433D01*
X462252Y363643D02*
Y366005D01*
X519120Y465354D02*
X521483D01*
X520301Y464173D02*
Y466535D01*
X503543Y474016D02*
X505905D01*
X504724Y472835D02*
Y475197D01*
X514173Y455512D02*
X516535D01*
X515354Y454331D02*
Y456693D01*
X601546Y468810D02*
X602727D01*
X602137Y468220D02*
Y469401D01*
X585917Y447244D02*
X587098D01*
X586508Y446654D02*
Y447835D01*
X553543Y456299D02*
X555905D01*
X554724Y455118D02*
Y457480D01*
X143166Y144544D02*
X144347D01*
X143756Y143953D02*
Y145134D01*
X141142Y142520D02*
X142323D01*
X141732Y141929D02*
Y143110D01*
X151261Y152639D02*
X152442D01*
X151852Y152049D02*
Y153230D01*
X145189Y146567D02*
X146371D01*
X145780Y145977D02*
Y147158D01*
X147213Y148591D02*
X148395D01*
X147804Y148001D02*
Y149182D01*
X149237Y150615D02*
X150418D01*
X149828Y150025D02*
Y151206D01*
X103709Y144488D02*
X104890D01*
X104299Y143898D02*
Y145079D01*
X106577Y144674D02*
X107758D01*
X107167Y144084D02*
Y145265D01*
X115161Y144488D02*
X116342D01*
X115751Y143898D02*
Y145079D01*
X112298Y144669D02*
X113479D01*
X112889Y144078D02*
Y145259D01*
X109438Y144581D02*
X110619D01*
X110028Y143990D02*
Y145171D01*
X131527Y174575D02*
X132708D01*
X132117Y173985D02*
Y175166D01*
X133551Y172552D02*
X134732D01*
X134141Y171961D02*
Y173142D01*
X137599Y168504D02*
X138780D01*
X138189Y167913D02*
Y169095D01*
X133661Y142776D02*
X134843D01*
X134252Y142185D02*
Y143366D01*
X102559Y115461D02*
X103740D01*
X103150Y114870D02*
Y116051D01*
X102559Y118323D02*
X103740D01*
X103150Y117732D02*
Y118913D01*
X102745Y112604D02*
X103926D01*
X103336Y112014D02*
Y113195D01*
X102559Y109736D02*
X103740D01*
X103150Y109146D02*
Y110327D01*
X93504Y120079D02*
X94685D01*
X94094Y119488D02*
Y120669D01*
X119882Y101575D02*
X121063D01*
X120472Y100984D02*
Y102165D01*
X115551Y96456D02*
X116732D01*
X116141Y95866D02*
Y97047D01*
X75000Y119685D02*
X76181D01*
X75591Y119095D02*
Y120276D01*
X442626Y123228D02*
X443807D01*
X443216Y122638D02*
Y123819D01*
X426968Y118898D02*
X428150D01*
X427559Y118307D02*
Y119488D01*
X442717Y118898D02*
X443898D01*
X443307Y118307D02*
Y119488D01*
X426575Y114961D02*
X427756D01*
X427165Y114370D02*
Y115551D01*
X430118Y114961D02*
X431299D01*
X430709Y114370D02*
Y115551D01*
X442323Y105905D02*
X443504D01*
X442913Y105315D02*
Y106496D01*
X469882Y92913D02*
X471063D01*
X470472Y92323D02*
Y93504D01*
X123819Y66929D02*
X125000D01*
X124409Y66338D02*
Y67520D01*
X119488Y74410D02*
X120669D01*
X120079Y73819D02*
Y75000D01*
X116732Y68898D02*
X117913D01*
X117323Y68307D02*
Y69488D01*
X112402Y85433D02*
X113583D01*
X112992Y84843D02*
Y86024D01*
X115981Y85236D02*
X117163D01*
X116572Y84646D02*
Y85827D01*
X120276Y82677D02*
X121457D01*
X120866Y82086D02*
Y83268D01*
X97441Y96457D02*
X98622D01*
X98031Y95866D02*
Y97047D01*
X84842Y109055D02*
X86024D01*
X85433Y108465D02*
Y109646D01*
X97401Y81102D02*
X98582D01*
X97992Y80512D02*
Y81693D01*
X93504Y81102D02*
X94685D01*
X94094Y80512D02*
Y81693D01*
X131693Y137008D02*
X132874D01*
X132283Y136417D02*
Y137599D01*
X133268Y147244D02*
X134449D01*
X133858Y146653D02*
Y147835D01*
X147303Y46496D02*
X148484D01*
X147894Y45906D02*
Y47087D01*
X91536Y156693D02*
X92717D01*
X92126Y156102D02*
Y157283D01*
X49370Y156555D02*
X50551D01*
X49961Y155965D02*
Y157146D01*
X84174Y156664D02*
X85355D01*
X84765Y156074D02*
Y157255D01*
X58031Y153405D02*
X59213D01*
X58622Y152815D02*
Y153996D01*
X67753Y156732D02*
X68934D01*
X68344Y156142D02*
Y157323D01*
X54488Y156555D02*
X55669D01*
X55079Y155965D02*
Y157146D01*
X77989Y156732D02*
X79170D01*
X78580Y156142D02*
Y157323D01*
X43071Y156555D02*
X44252D01*
X43661Y155965D02*
Y157146D01*
X34409Y123397D02*
X35591D01*
X35000Y122806D02*
Y123987D01*
X34409Y133721D02*
X35591D01*
X35000Y133130D02*
Y134311D01*
X34409Y97588D02*
X35591D01*
X35000Y96997D02*
Y98178D01*
X34409Y118235D02*
X35591D01*
X35000Y117644D02*
Y118825D01*
X34409Y102749D02*
X35591D01*
X35000Y102159D02*
Y103340D01*
X35591Y138051D02*
X36772D01*
X36181Y137461D02*
Y138642D01*
X34409Y128559D02*
X35591D01*
X35000Y127968D02*
Y129149D01*
X34409Y92426D02*
X35591D01*
X35000Y91835D02*
Y93016D01*
X34409Y113073D02*
X35591D01*
X35000Y112483D02*
Y113664D01*
X34409Y87264D02*
X35591D01*
X35000Y86673D02*
Y87854D01*
X34409Y107911D02*
X35591D01*
X35000Y107321D02*
Y108502D01*
X51732Y85689D02*
X52913D01*
X52323Y85099D02*
Y86280D01*
X50551Y104193D02*
X51732D01*
X51142Y103602D02*
Y104783D01*
X39134Y83327D02*
X40315D01*
X39724Y82736D02*
Y83917D01*
X52222Y117973D02*
X53403D01*
X52812Y117382D02*
Y118563D01*
X57244Y108130D02*
X58425D01*
X57835Y107539D02*
Y108721D01*
X52520Y90807D02*
X53701D01*
X53110Y90216D02*
Y91398D01*
X48189Y83374D02*
X49370D01*
X48780Y82784D02*
Y83965D01*
X52520Y95925D02*
X53701D01*
X53110Y95335D02*
Y96516D01*
X57184Y104321D02*
X58365D01*
X57774Y103730D02*
Y104911D01*
X50551Y108524D02*
X51732D01*
X51142Y107933D02*
Y109114D01*
X52520Y100256D02*
X53701D01*
X53110Y99665D02*
Y100847D01*
X76808Y82323D02*
X77989D01*
X77399Y81732D02*
Y82914D01*
X73265Y82323D02*
X74446D01*
X73855Y81732D02*
Y82914D01*
X48976Y152618D02*
X50158D01*
X49567Y152027D02*
Y153209D01*
X39134Y141201D02*
X40315D01*
X39724Y140610D02*
Y141791D01*
X39921Y146713D02*
X41102D01*
X40512Y146122D02*
Y147303D01*
X39921Y152618D02*
X41102D01*
X40512Y152027D02*
Y153209D01*
X47705Y131752D02*
X48886D01*
X48295Y131161D02*
Y132343D01*
X93504Y77953D02*
X94685D01*
X94094Y77362D02*
Y78543D01*
X61140Y143741D02*
X62321D01*
X61730Y143150D02*
Y144331D01*
X70353Y122087D02*
X71534D01*
X70943Y121496D02*
Y122677D01*
X70384Y129981D02*
X71565D01*
X70975Y129391D02*
Y130572D01*
X83622Y146319D02*
X84803D01*
X84213Y145728D02*
Y146909D01*
X58465Y121758D02*
X59646D01*
X59055Y121168D02*
Y122349D01*
X58031Y146713D02*
X59213D01*
X58622Y146122D02*
Y147303D01*
X54488Y141201D02*
X55669D01*
X55079Y140610D02*
Y141791D01*
X52298Y127473D02*
X53479D01*
X52888Y126883D02*
Y128064D01*
X30096Y203150D02*
X32896D01*
X31496Y201750D02*
Y204550D01*
X36002Y203150D02*
X38802D01*
X37402Y201750D02*
Y204550D01*
X44298Y37690D02*
X45479D01*
X44888Y37100D02*
Y38281D01*
X53847Y44185D02*
X55028D01*
X54437Y43595D02*
Y44776D01*
X54534Y36903D02*
X55715D01*
X55125Y36312D02*
Y37494D01*
X44298Y44777D02*
X45479D01*
X44889Y44186D02*
Y45368D01*
X62592Y37886D02*
X63773D01*
X63183Y37295D02*
Y38476D01*
X64758Y43791D02*
X65939D01*
X65348Y43201D02*
Y44382D01*
X58865Y36903D02*
X60046D01*
X59456Y36312D02*
Y37494D01*
X51326Y39946D02*
X52507D01*
X51916Y39356D02*
Y40537D01*
X55506Y40248D02*
X56687D01*
X56096Y39658D02*
Y40839D01*
X50991Y47927D02*
X52172D01*
X51582Y47336D02*
Y48517D01*
X64419Y47801D02*
X65600D01*
X65009Y47211D02*
Y48392D01*
X41142Y53543D02*
X42323D01*
X41732Y52953D02*
Y54134D01*
X45932Y58057D02*
X47113D01*
X46523Y57466D02*
Y58647D01*
X51910Y59738D02*
X53091D01*
X52500Y59147D02*
Y60328D01*
X49810Y55801D02*
X50991D01*
X50400Y55210D02*
Y56391D01*
X68498Y67807D02*
X69679D01*
X69088Y67217D02*
Y68398D01*
X71254Y72532D02*
X72435D01*
X71844Y71941D02*
Y73122D01*
X77362Y74410D02*
X78543D01*
X77953Y73819D02*
Y75000D01*
X80905Y74803D02*
X82087D01*
X81496Y74212D02*
Y75394D01*
X80703Y68595D02*
X81884D01*
X81293Y68004D02*
Y69185D01*
X73542Y68664D02*
X74723D01*
X74132Y68073D02*
Y69254D01*
X64758Y67807D02*
X65939D01*
X65348Y67217D02*
Y68398D01*
X103144Y49697D02*
X104325D01*
X103734Y49106D02*
Y50287D01*
X102356Y62500D02*
X103537D01*
X102947Y61910D02*
Y63091D01*
X98419Y52059D02*
X99600D01*
X99010Y51469D02*
Y52650D01*
X89961Y70866D02*
X91142D01*
X90551Y70275D02*
Y71457D01*
X99410Y67716D02*
X100591D01*
X100000Y67126D02*
Y68307D01*
X95866Y67716D02*
X97047D01*
X96457Y67126D02*
Y68307D01*
X91929Y64567D02*
X93110D01*
X92520Y63976D02*
Y65157D01*
X91929Y67429D02*
X93110D01*
X92520Y66839D02*
Y68020D01*
X96021Y56813D02*
X97203D01*
X96612Y56222D02*
Y57403D01*
X95270Y52204D02*
X96451D01*
X95860Y51613D02*
Y52794D01*
X108076Y53092D02*
X109257D01*
X108667Y52501D02*
Y53682D01*
X72877Y32286D02*
X74058D01*
X73467Y31695D02*
Y32876D01*
X73616Y39854D02*
X74797D01*
X74206Y39264D02*
Y40445D01*
X67317Y37886D02*
X68498D01*
X67907Y37295D02*
Y38476D01*
X65558Y25234D02*
X66739D01*
X66148Y24644D02*
Y25825D01*
X78957Y24278D02*
X80138D01*
X79547Y23687D02*
Y24868D01*
X65558Y20975D02*
X66739D01*
X66148Y20384D02*
Y21565D01*
X65558Y29494D02*
X66739D01*
X66148Y28903D02*
Y30084D01*
X65558Y33753D02*
X66739D01*
X66148Y33163D02*
Y34344D01*
X86878Y33485D02*
X88059D01*
X87469Y32894D02*
Y34075D01*
X86293Y39159D02*
X87474D01*
X86884Y38568D02*
Y39750D01*
X92907Y37886D02*
X94088D01*
X93498Y37295D02*
Y38476D01*
X90296Y40642D02*
X91477D01*
X90887Y40051D02*
Y41232D01*
X86350Y36298D02*
X87531D01*
X86940Y35707D02*
Y36888D01*
X60046Y56588D02*
X61227D01*
X60637Y55998D02*
Y57179D01*
X57553Y59738D02*
X58734D01*
X58143Y59147D02*
Y60328D01*
X63196Y59738D02*
X64377D01*
X63786Y59147D02*
Y60328D01*
X54928Y56588D02*
X56109D01*
X55519Y55998D02*
Y57179D01*
X64261Y55378D02*
X65442D01*
X64851Y54787D02*
Y55968D01*
X65558Y12456D02*
X66739D01*
X66148Y11865D02*
Y13047D01*
X65558Y16715D02*
X66739D01*
X66148Y16125D02*
Y17306D01*
X62402Y172441D02*
X63583D01*
X62992Y171850D02*
Y173031D01*
X60858Y177784D02*
X62039D01*
X61449Y177193D02*
Y178374D01*
X65945Y185433D02*
X67126D01*
X66535Y184843D02*
Y186024D01*
X49016Y183465D02*
X50197D01*
X49606Y182874D02*
Y184055D01*
X60040Y196063D02*
X61221D01*
X60630Y195472D02*
Y196653D01*
X75394Y192520D02*
X76575D01*
X75984Y191929D02*
Y193110D01*
X442323Y127559D02*
X443504D01*
X442913Y126969D02*
Y128150D01*
X442323Y97244D02*
X443504D01*
X442913Y96653D02*
Y97835D01*
X442323Y101575D02*
X443504D01*
X442913Y100984D02*
Y102165D01*
X469882Y101575D02*
X471063D01*
X470472Y100984D02*
Y102165D01*
X483662Y129527D02*
X484843D01*
X484252Y128937D02*
Y130118D01*
X483662Y111811D02*
X484843D01*
X484252Y111221D02*
Y112402D01*
X30744Y173152D02*
X33544D01*
X32144Y171752D02*
Y174552D01*
X30871Y187844D02*
X33671D01*
X32271Y186444D02*
Y189244D01*
X13976Y259449D02*
X15157D01*
X14567Y258858D02*
Y260039D01*
X130490Y258662D02*
X133290D01*
X131890Y257261D02*
Y260062D01*
X114742Y281102D02*
X117542D01*
X116142Y279702D02*
Y282502D01*
X137773Y258662D02*
X140573D01*
X139173Y257261D02*
Y260062D01*
X114742Y289567D02*
X117542D01*
X116142Y288167D02*
Y290967D01*
X8858Y233260D02*
X10039D01*
X9449Y232670D02*
Y233851D01*
X24606Y243307D02*
X25787D01*
X25197Y242717D02*
Y243898D01*
X35214Y233858D02*
X38014D01*
X36614Y232458D02*
Y235258D01*
X9646Y205512D02*
X10827D01*
X10236Y204921D02*
Y206102D01*
X8465Y220079D02*
X9646D01*
X9055Y219488D02*
Y220669D01*
X66316Y224803D02*
X69116D01*
X67716Y223403D02*
Y226203D01*
X30906Y220473D02*
X32087D01*
X31496Y219882D02*
Y221063D01*
X48600Y224803D02*
X51400D01*
X50000Y223403D02*
Y226203D01*
X30906Y224016D02*
X32087D01*
X31496Y223425D02*
Y224606D01*
X27756Y209055D02*
X28937D01*
X28346Y208465D02*
Y209646D01*
X30906Y209842D02*
X32087D01*
X31496Y209252D02*
Y210433D01*
X27362Y214961D02*
X28543D01*
X27953Y214370D02*
Y215551D01*
X30906Y213386D02*
X32087D01*
X31496Y212795D02*
Y213977D01*
X30906Y216929D02*
X32087D01*
X31496Y216338D02*
Y217520D01*
X55138Y187906D02*
X56319D01*
X55728Y187315D02*
Y188496D01*
X611417Y455512D02*
X613779D01*
X612598Y454331D02*
Y456693D01*
X590551Y475591D02*
X592913D01*
X591732Y474409D02*
Y476772D01*
X600787Y474016D02*
X603150D01*
X601968Y472835D02*
Y475197D01*
X601575Y511811D02*
X603937D01*
X602756Y510630D02*
Y512992D01*
X596063Y460630D02*
X598425D01*
X597244Y459449D02*
Y461811D01*
X616364Y465354D02*
X618727D01*
X617546Y464173D02*
Y466535D01*
X597244Y367323D02*
X599606D01*
X598425Y366142D02*
Y368504D01*
X546063Y337795D02*
X548425D01*
X547244Y336614D02*
Y338976D01*
X594488Y337795D02*
X596850D01*
X595669Y336614D02*
Y338976D01*
X552756Y309842D02*
X555118D01*
X553937Y308661D02*
Y311024D01*
X546457Y367717D02*
X548819D01*
X547638Y366535D02*
Y368898D01*
X558315Y364824D02*
X560677D01*
X559496Y363643D02*
Y366005D01*
X546063Y475984D02*
X548425D01*
X547244Y474803D02*
Y477165D01*
X546063Y505512D02*
X548425D01*
X547244Y504331D02*
Y506693D01*
M02*
