M48
;Layer_Color=6307904
;FILE_FORMAT=2:4
INCH,TZ
;TYPE=PLATED
T01F00S00C0.0079
T02F00S00C0.0118
T03F00S00C0.0130
T04F00S00C0.0236
T05F00S00C0.0276
T07F00S00C0.0280
T08F00S00C0.0300
T09F00S00C0.0360
T10F00S00C0.0394
T12F00S00C0.0402
T13F00S00C0.0433
T14F00S00C0.0460
T15F00S00C0.0472
T16F00S00C0.1181
%
T01
X1634Y22215
X2067
T02
X49910Y9428
X49900Y10021
X50236
X50573
X50909
X51245
X51581
X51917
X52254
X52590
X52926
X53262
X53598
X53935
X54271
X54607
X54943
X55280
X55616
X55856Y10256
X56270Y10315
X56565Y10153
X56730Y9860
X56711Y9525
X56203Y9125
X55626Y9413
X55290Y9428
X54618
X53945
X53273
X52936
X52264
X51592
X50919
X50583
X49564Y10021
X49228
X48891
X48555
X48219
X48229Y9428
X48566
X48902
X49238
X47047Y9291
Y10157
X48425Y11181
X44291Y10591
Y10157
Y9724
X42441Y11102
X42057Y2421
X36024
X29990
X23956
X17922
X14789Y4650
X12441Y6693
X11732Y6890
X12008Y7441
X12087Y8268
X11657Y8524
X11299Y8543
X11614Y9646
X12047Y10157
X10315Y10974
X10334Y11260
X9803Y9646
X9799Y8110
X9409
Y7795
X9055Y7087
X9252Y6743
Y6457
X9646Y6772
X10000
X10295Y6250
X9661Y5681
X9586Y5220
X9901Y5206
X10373Y4970
X10867Y5309
X9089Y4064
X9350Y3789
X8688Y3916
X8694Y3630
X8747Y3348
X7347Y3229
X7421Y3985
X6791Y3789
X6318
X5946Y3690
X5512
X5610Y4025
X5192Y3995
X5444Y4419
X5158Y4793
X5040Y5580
X5552Y5659
X6064
X6485Y5538
X6379Y5974
X5814
X5250
X4652Y5806
X4606Y5354
X4173
X4331Y5000
X4055Y4646
X4489Y4478
X4213Y4173
X3740
X3544Y3780
X3071
X2599
X4016
X4489Y3769
X6615Y3375
Y2949
Y2523
Y2097
Y1672
Y1246
X6614Y820
Y394
X7955Y2428
X6535Y4379
X6501Y4780
X6535Y6781
X6909
X7413Y6866
X7184Y7253
X7795Y7441
X8150Y7480
X8129Y6859
X7740Y8232
X7386
X5232Y8569
X4878Y8337
X3972Y8333
X3500Y8726
Y9243
Y9759
Y10275
Y10791
X5114Y10852
Y10419
X5311Y10026
Y9593
Y9081
X5777Y10432
X5783Y10813
X6024Y11176
X8543Y10906
X14606Y10992
Y11278
X16535Y10866
X16822
X17108
X17395Y10884
X17691Y10877
X17977Y10866
X1654Y11063
X1654Y3780
X1181
X709
X236
X2126
X1654Y12047
Y13071
X1024Y20551
X905Y22008
X945Y23326
X1614Y23897
X2520Y24331
X1457Y25945
X3150Y22402
Y22047
Y21693
Y21339
Y20984
X2835Y20906
X2795Y21496
X6063Y19606
X5573Y18791
X4961Y18346
X6145Y17778
X6299Y17244
X6654Y18543
X7598Y19252
X8112Y17820
X8228Y15827
X8476Y15666
X7858Y15673
X6834
X5862Y15341
X5508Y15656
X4996
X4957Y15262
X4051
Y14671
X3972Y14120
X3618Y13805
X3500Y13372
Y12856
Y12340
Y11823
Y11307
X5281Y11797
X5289Y12747
X4830Y13175
X6063Y13373
X5853Y13743
X5508Y14120
X5862Y14671
X6173Y14374
X7097Y12998
X7094Y12209
X7559Y11969
X5906Y12176
X9409Y12008
X10315Y11832
Y11546
X10430Y14449
X10717Y14467
X11003Y14458
X11289Y14467
X11575Y14449
X13425Y14278
X13386Y14724
X13228Y13701
X14173Y14252
X14376Y14454
X14578Y14657
X14780Y14859
X14983Y15062
X15185Y15264
X17262Y14724
X17548
X17835
X18215Y14764
X18150Y20709
X17874Y22874
X17672Y22672
X17469Y22469
X17205Y22244
X17244Y24291
X16220
X15630Y23701
X17557Y26001
X13616Y17053
X13414Y17255
X13212Y17458
X13009Y17660
X13819Y16850
X14606Y11851
Y11564
X8421Y14632
X9213Y15669
X4366Y15656
X18501Y14764
X18787Y14764
X19073
X19359Y14764
X19646Y14764
X19843Y14416
Y14130
Y13843
Y13557
Y13271
Y12985
Y12698
Y12412
Y12126
X19968Y20945
X19682
X20254
X20541
X20827
X21113
X20758Y22087
X20649Y23780
X20935
X21221
X20363
X20077
X19790
X19639Y24291
X19016Y23691
X18793Y25307
X18425Y26036
X18793Y26725
X22179
X22815Y26654
X23091Y25809
Y25354
X22179Y25307
X24361Y26296
X24629Y26397
X24894Y26287
X25260Y26645
X25374Y25809
Y25354
X25660
X25846Y24449
X26133
X26713Y24094
X27106
X27496Y24441
X28130Y24449
X28416Y24441
X28996Y24094
X29390
X29744Y24409
X30413Y24449
X30700
X31280Y24094
X31673
X32062Y24441
X32697Y24449
X32983
X33563Y24094
X33434Y26273
X33692Y26432
X33209Y26654
X32066Y26650
X31640Y26270
X31402Y26429
X31149Y26271
X30925Y26654
X29794Y26620
X29373Y26293
X29137Y26527
X28919Y26310
X28642Y26654
X27544Y26645
X27186Y26265
X26909Y26339
X26600Y26271
X26358Y26654
X27657Y25809
X27705Y25354
X28003Y25385
X29902Y25354
X30188
X29902Y25809
X32185
Y25354
X32471
X25217Y24409
X24862Y24094
X24469
X24114Y26654
X19134Y21575
X19055Y20591
X18722Y20709
X18436
X34404Y23282
X35467
X36451
X37435
X37511Y24449
X37224
X36555Y24409
X36201Y24094
X35807
X35227Y24449
X34941
X34272Y24438
X33957Y24094
X34469Y25354
X34755
X34469Y25809
X33926Y26268
X34203Y26671
X35492Y26654
X35722Y26287
X35970Y26507
X36207Y26310
X36633Y26650
X36752Y25809
Y25354
X37067
X38007Y26299
X38268Y26417
X38525Y26293
X38764Y26655
X37776Y26654
X39035Y25809
Y25354
X39339
X39508Y24449
X39794
X38917Y24370
X38474Y24089
X38091Y24094
X40374Y24055
X40768
X40020Y26654
X42756Y11890
X42717Y11496
X43071
X44331Y11890
X44322Y12323
X44291Y12756
X48425Y12953
X49528Y32165
X49515Y35118
X49528Y38150
X54462
X54475Y35157
X54449Y32165
X59252
X59239Y35118
X59252Y38150
X44738
X44751Y35157
X44724Y32165
X37362
X37349Y35118
X37362Y38150
X37283Y27835
X37520Y27598
X37008
X36772Y27835
X36220
X35748
X35980Y27598
X35276Y27638
X35000Y27835
X34488
X34724Y27598
X33937Y27835
X38031
X38268Y27598
X38543Y27835
X39016Y27795
X39291Y27598
X39528Y27835
X39803Y27638
X33699
X33465Y27835
X32914Y27638
X32672Y27818
X32436Y27626
X32205Y27795
X31693Y27756
X31402Y27598
X31142Y27718
X30669Y27559
X30431Y27718
X30157Y27559
X29882Y27756
X29390Y27775
X29154Y27598
X28898Y27756
X28386Y27559
X28150Y27756
X27874Y27559
X27638Y27756
X27165
X26909Y27559
X26654Y27756
X26102Y27559
X25866Y27756
X25630Y27559
X25354Y27756
X24843
X24629Y27566
X24370Y27756
X23858
X23584Y27597
X23346Y27756
X23071Y27598
X21614Y27621
Y27907
Y28194
X21811Y28425
X21220
X20669
X20868Y28098
X20630Y27913
X20356Y27757
X20118Y27598
X19724Y28031
X19344Y28024
X22835Y32165
X22861Y35157
X22848Y38150
X27638
X27625Y35118
X27638Y32165
X32559
X32585Y35157
X32573Y38150
X15472Y38150
X15460Y35118
X15472Y32165
X15959Y28063
X16352
X10669Y32165
X10696Y35157
X10683Y38150
X5748
X5735Y35118
X5748Y32165
X945
X971Y35157
X958Y38150
X1021Y48976
X1099Y51929
X5753Y51969
X5774Y48976
X6710Y46881
X5147Y44724
X14871
X16434Y46881
X15499Y48976
X15477Y51969
X10824Y51929
X10745Y48976
X22910Y48976
X22989Y51929
X27642Y51969
X27664Y48976
X28599Y46881
X27037Y44724
X32635Y48976
X32713Y51929
X37367Y51969
X37389Y48976
X38324Y46881
X36761Y44724
X48926
X44800Y48976
X44879Y51929
X49532Y51969
X49554Y48976
X50489Y46881
X54524Y48976
X54603Y51929
X59257Y51969
X59278Y48976
X60214Y46881
X58651Y44724
T03
X7263Y4694
X7736
X8208
X8680
Y5167
Y5639
X8208
Y5167
X7736
Y5639
X7263
Y5167
Y6111
X7736
X8208
X8680
T04
X1693Y24803
X50394Y30866
X49843Y33780
X50118Y36732
X54764Y36772
X55950Y36482
X54724Y33780
X55394Y30984
X60157Y30906
X59567Y33780
X59843Y36732
X46225Y36482
X45039Y36772
X45000Y33780
X45669Y30984
X38346Y31378
X37677Y33780
X37953Y36732
X34060Y36482
X32874Y36772
X32835Y33780
X33504Y30984
X28523Y30944
X27953Y33780
X28228Y36732
X24335Y36482
X23150Y36772
X23110Y33780
X23780Y30984
X16378Y30955
X15787Y33780
X16063Y36732
X12170Y36482
X10984Y36772
X10945Y33780
X11614Y30984
X6654Y30906
X6063Y33780
X6339Y36732
X2446Y36482
X1260Y36772
X1220Y33780
X1890Y30984
X1969Y45630
X1220Y47598
Y50551
X6772Y51181
X6693Y47402
X5669Y47559
X6220Y46063
X7756Y45551
X8251Y46535
X10945Y47598
X11693Y45630
X15945Y46063
X16417Y47402
X15394Y47559
X17975Y46535
X17480Y45551
X16496Y51181
X10945Y50551
X23110Y50551
Y47598
X23858Y45630
X28110Y46063
X28583Y47402
X27559Y47559
X30140Y46535
X29646Y45551
X33583Y45630
X32835Y47598
Y50551
X28661Y51181
X38386
X38307Y47402
X37283Y47559
X37835Y46063
X39370Y45551
X39865Y46535
X45000Y47598
X45748Y45630
X49449Y47559
X45000Y50551
X50551Y51181
X50472Y47402
X50000Y46063
X51535Y45551
X52030Y46535
X54724Y47598
X55472Y45630
X59724Y46063
X60197Y47402
X59173Y47559
X61755Y46535
X61260Y45551
X60276Y51181
X54724Y50551
T05
X10748Y1772
Y2272
X11248
Y1772
X11748
Y2272
X12248
Y1772
X12748
Y2272
X2322Y17100
Y19009
T07
X1416Y17315
X1417Y18780
X3227Y18784
X3214Y17315
X3150Y20315
X3740
X3661Y23386
X5000Y22480
X6772
X13189Y25866
X13917
X11614Y28110
Y28957
T08
X36309Y3731
X37309
X38309
X21309
X20309
X19309
Y22731
X20309
X21309
X22309
X23309
X24309
X25309
X26309
X27309
X28309
X29309
X30309
X31309
X32309
X33309
X34309
X35309
X36309
X37309
X38309
T09
X50214Y40277
X51214
X56910
X57910
X58910
X59910
X60910
X49214
X48214
X47214
X39049Y40277
X38049
X37049
X36049
X35049
X29324Y40277
X28324
X27324
X26324
X25324
X17159Y40277
X16159
X15159
X14159
X13159
X7434Y40277
X6434
X5434
X4434
X3434
T10
X43661Y5709
Y6496
Y7283
T12
X52692Y41729
X62409Y41779
X40527Y41729
X30803
X18637Y41729
X8913
Y42729
Y43729
Y44729
Y45729
Y46729
X18637
Y45729
Y44729
Y43729
Y42729
X30803Y42729
Y43729
Y44729
Y45729
Y46729
X40527
Y45729
Y44729
Y43729
Y42729
X52692
Y43729
Y44729
Y45729
Y46729
X62409Y46779
Y45779
Y44779
Y43779
Y42779
T13
X1024Y10087
Y11087
Y12087
Y13087
T14
X56142Y9724
T15
X43819Y23110
Y27677
T16
X45787Y2402
X1811Y6772
X21260Y52362
X43189Y52441
M30
